G75*
%MOIN*%
%OFA0B0*%
%FSLAX25Y25*%
%IPPOS*%
%LPD*%
%AMOC8*
5,1,8,0,0,1.08239X$1,22.5*
%
%ADD10C,0.00600*%
%ADD11C,0.00100*%
D10*
X0039685Y0086122D02*
X0041820Y0086122D01*
X0043955Y0088257D01*
X0040753Y0090419D02*
X0041820Y0091487D01*
X0041820Y0094689D01*
X0040753Y0090419D02*
X0038618Y0090419D01*
X0037550Y0091487D01*
X0037550Y0094689D01*
X0037550Y0096865D02*
X0039685Y0099000D01*
X0041820Y0099000D01*
X0043955Y0096865D01*
X0037550Y0088257D02*
X0039685Y0086122D01*
X0037550Y0107607D02*
X0041820Y0111877D01*
X0042888Y0111877D01*
X0043955Y0110810D01*
X0043955Y0108675D01*
X0042888Y0107607D01*
X0042888Y0114053D02*
X0043955Y0115120D01*
X0043955Y0117255D01*
X0042888Y0118323D01*
X0038618Y0114053D01*
X0037550Y0115120D01*
X0037550Y0117255D01*
X0038618Y0118323D01*
X0042888Y0118323D01*
X0041820Y0120498D02*
X0043955Y0122633D01*
X0037550Y0122633D01*
X0037550Y0120498D02*
X0037550Y0124768D01*
X0038618Y0126944D02*
X0037550Y0128011D01*
X0037550Y0130146D01*
X0038618Y0131214D01*
X0040753Y0131214D01*
X0041820Y0130146D01*
X0041820Y0129079D01*
X0040753Y0126944D01*
X0043955Y0126944D01*
X0043955Y0131214D01*
X0048050Y0131241D02*
X0054455Y0131241D01*
X0054455Y0134443D01*
X0053388Y0135511D01*
X0051253Y0135511D01*
X0050185Y0134443D01*
X0050185Y0131241D01*
X0050185Y0133376D02*
X0048050Y0135511D01*
X0049118Y0137686D02*
X0051253Y0137686D01*
X0052320Y0138754D01*
X0052320Y0140889D01*
X0051253Y0141957D01*
X0050185Y0141957D01*
X0050185Y0137686D01*
X0049118Y0137686D02*
X0048050Y0138754D01*
X0048050Y0140889D01*
X0052320Y0144132D02*
X0048050Y0146267D01*
X0052320Y0148402D01*
X0051253Y0150577D02*
X0051253Y0154848D01*
X0053388Y0157023D02*
X0054455Y0158090D01*
X0054455Y0160225D01*
X0053388Y0161293D01*
X0049118Y0157023D01*
X0048050Y0158090D01*
X0048050Y0160225D01*
X0049118Y0161293D01*
X0053388Y0161293D01*
X0052320Y0163468D02*
X0054455Y0165603D01*
X0048050Y0165603D01*
X0048050Y0163468D02*
X0048050Y0167739D01*
X0049118Y0169914D02*
X0048050Y0170981D01*
X0048050Y0174184D01*
X0051253Y0174184D01*
X0052320Y0173116D01*
X0052320Y0170981D01*
X0050185Y0170981D02*
X0050185Y0174184D01*
X0050185Y0170981D02*
X0049118Y0169914D01*
X0043955Y0165617D02*
X0037550Y0165617D01*
X0037550Y0168819D01*
X0038618Y0169887D01*
X0040753Y0169887D01*
X0041820Y0168819D01*
X0041820Y0165617D01*
X0040753Y0163441D02*
X0041820Y0162374D01*
X0041820Y0159171D01*
X0035415Y0159171D01*
X0037550Y0159171D02*
X0037550Y0162374D01*
X0038618Y0163441D01*
X0040753Y0163441D01*
X0041820Y0156996D02*
X0041820Y0153793D01*
X0040753Y0152726D01*
X0039685Y0153793D01*
X0039685Y0155928D01*
X0038618Y0156996D01*
X0037550Y0155928D01*
X0037550Y0152726D01*
X0037550Y0150550D02*
X0037550Y0147348D01*
X0038618Y0146280D01*
X0039685Y0147348D01*
X0039685Y0150550D01*
X0040753Y0150550D02*
X0037550Y0150550D01*
X0040753Y0150550D02*
X0041820Y0149483D01*
X0041820Y0147348D01*
X0040753Y0144105D02*
X0039685Y0143037D01*
X0039685Y0139835D01*
X0039685Y0141970D02*
X0037550Y0144105D01*
X0037550Y0139835D02*
X0043955Y0139835D01*
X0043955Y0143037D01*
X0042888Y0144105D01*
X0040753Y0144105D01*
X0049118Y0157023D02*
X0053388Y0157023D01*
X0040753Y0172062D02*
X0041820Y0173130D01*
X0041820Y0175265D01*
X0040753Y0176332D01*
X0039685Y0176332D01*
X0039685Y0172062D01*
X0038618Y0172062D02*
X0040753Y0172062D01*
X0038618Y0172062D02*
X0037550Y0173130D01*
X0037550Y0175265D01*
X0037550Y0178508D02*
X0041820Y0178508D01*
X0041820Y0180643D02*
X0041820Y0181710D01*
X0041820Y0180643D02*
X0039685Y0178508D01*
X0039685Y0183879D02*
X0041820Y0186014D01*
X0041820Y0187082D01*
X0041820Y0189250D02*
X0038618Y0189250D01*
X0037550Y0190318D01*
X0037550Y0193520D01*
X0036482Y0193520D02*
X0035415Y0192453D01*
X0035415Y0191385D01*
X0036482Y0193520D02*
X0041820Y0193520D01*
X0041820Y0195696D02*
X0040753Y0196763D01*
X0040753Y0198898D01*
X0039685Y0199966D01*
X0038618Y0199966D01*
X0037550Y0198898D01*
X0037550Y0196763D01*
X0038618Y0195696D01*
X0041820Y0195696D02*
X0042888Y0195696D01*
X0043955Y0196763D01*
X0043955Y0198898D01*
X0042888Y0199966D01*
X0043955Y0202141D02*
X0043955Y0206411D01*
X0043955Y0204276D02*
X0037550Y0204276D01*
X0037550Y0208587D02*
X0037550Y0212857D01*
X0037550Y0215032D02*
X0043955Y0215032D01*
X0041820Y0217167D01*
X0043955Y0219302D01*
X0037550Y0219302D01*
X0040753Y0210722D02*
X0040753Y0208587D01*
X0043955Y0208587D02*
X0037550Y0208587D01*
X0043955Y0208587D02*
X0043955Y0212857D01*
X0041820Y0183879D02*
X0037550Y0183879D01*
X0038618Y0114053D02*
X0042888Y0114053D01*
X0037550Y0111877D02*
X0037550Y0107607D01*
D11*
X0094500Y0138200D02*
X0098600Y0134000D01*
X0100400Y0135900D01*
X0098200Y0138200D01*
X0100200Y0140300D01*
X0098000Y0142500D01*
X0100400Y0144900D01*
X0098700Y0146600D01*
X0094500Y0142500D01*
X0096600Y0140300D01*
X0094500Y0138200D01*
X0094526Y0138226D02*
X0098225Y0138226D01*
X0098269Y0138128D02*
X0094571Y0138128D01*
X0094667Y0138029D02*
X0098363Y0138029D01*
X0098458Y0137931D02*
X0094763Y0137931D01*
X0094859Y0137832D02*
X0098552Y0137832D01*
X0098646Y0137734D02*
X0094955Y0137734D01*
X0095051Y0137635D02*
X0098740Y0137635D01*
X0098834Y0137537D02*
X0095148Y0137537D01*
X0095244Y0137438D02*
X0098929Y0137438D01*
X0099023Y0137340D02*
X0095340Y0137340D01*
X0095436Y0137241D02*
X0099117Y0137241D01*
X0099211Y0137143D02*
X0095532Y0137143D01*
X0095628Y0137044D02*
X0099306Y0137044D01*
X0099400Y0136946D02*
X0095725Y0136946D01*
X0095821Y0136847D02*
X0099494Y0136847D01*
X0099588Y0136749D02*
X0095917Y0136749D01*
X0096013Y0136650D02*
X0099683Y0136650D01*
X0099777Y0136552D02*
X0096109Y0136552D01*
X0096205Y0136453D02*
X0099871Y0136453D01*
X0099965Y0136355D02*
X0096302Y0136355D01*
X0096398Y0136256D02*
X0100059Y0136256D01*
X0100154Y0136158D02*
X0096494Y0136158D01*
X0096590Y0136059D02*
X0100248Y0136059D01*
X0100342Y0135961D02*
X0096686Y0135961D01*
X0096782Y0135862D02*
X0100364Y0135862D01*
X0100271Y0135763D02*
X0096878Y0135763D01*
X0096975Y0135665D02*
X0100177Y0135665D01*
X0100084Y0135566D02*
X0097071Y0135566D01*
X0097167Y0135468D02*
X0099991Y0135468D01*
X0099897Y0135369D02*
X0097263Y0135369D01*
X0097359Y0135271D02*
X0099804Y0135271D01*
X0099711Y0135172D02*
X0097455Y0135172D01*
X0097552Y0135074D02*
X0099617Y0135074D01*
X0099524Y0134975D02*
X0097648Y0134975D01*
X0097744Y0134877D02*
X0099431Y0134877D01*
X0099337Y0134778D02*
X0097840Y0134778D01*
X0097936Y0134680D02*
X0099244Y0134680D01*
X0099151Y0134581D02*
X0098032Y0134581D01*
X0098129Y0134483D02*
X0099057Y0134483D01*
X0098964Y0134384D02*
X0098225Y0134384D01*
X0098321Y0134286D02*
X0098871Y0134286D01*
X0098777Y0134187D02*
X0098417Y0134187D01*
X0098513Y0134089D02*
X0098684Y0134089D01*
X0100797Y0136256D02*
X0105109Y0136256D01*
X0105210Y0136355D02*
X0100700Y0136355D01*
X0100604Y0136453D02*
X0105310Y0136453D01*
X0105411Y0136552D02*
X0100508Y0136552D01*
X0100412Y0136650D02*
X0105512Y0136650D01*
X0105613Y0136749D02*
X0100316Y0136749D01*
X0100220Y0136847D02*
X0105714Y0136847D01*
X0105815Y0136946D02*
X0100124Y0136946D01*
X0100028Y0137044D02*
X0105916Y0137044D01*
X0106017Y0137143D02*
X0099932Y0137143D01*
X0099835Y0137241D02*
X0106118Y0137241D01*
X0106219Y0137340D02*
X0099739Y0137340D01*
X0099643Y0137438D02*
X0106320Y0137438D01*
X0106421Y0137537D02*
X0099547Y0137537D01*
X0099451Y0137635D02*
X0102865Y0137635D01*
X0102900Y0137600D02*
X0100600Y0139900D01*
X0098900Y0138200D01*
X0102900Y0134100D01*
X0107100Y0138200D01*
X0105400Y0140000D01*
X0102900Y0137600D01*
X0102937Y0137635D02*
X0106521Y0137635D01*
X0106622Y0137734D02*
X0103039Y0137734D01*
X0103142Y0137832D02*
X0106723Y0137832D01*
X0106824Y0137931D02*
X0103245Y0137931D01*
X0103347Y0138029D02*
X0106925Y0138029D01*
X0107026Y0138128D02*
X0103450Y0138128D01*
X0103552Y0138226D02*
X0107075Y0138226D01*
X0106982Y0138325D02*
X0103655Y0138325D01*
X0103758Y0138423D02*
X0106889Y0138423D01*
X0106796Y0138522D02*
X0103860Y0138522D01*
X0103963Y0138620D02*
X0106703Y0138620D01*
X0106610Y0138719D02*
X0104065Y0138719D01*
X0104168Y0138817D02*
X0106517Y0138817D01*
X0106424Y0138916D02*
X0104271Y0138916D01*
X0104373Y0139014D02*
X0106331Y0139014D01*
X0106238Y0139113D02*
X0104476Y0139113D01*
X0104579Y0139211D02*
X0106145Y0139211D01*
X0106052Y0139310D02*
X0104681Y0139310D01*
X0104784Y0139408D02*
X0105959Y0139408D01*
X0105866Y0139507D02*
X0104886Y0139507D01*
X0104989Y0139605D02*
X0105773Y0139605D01*
X0105680Y0139704D02*
X0105092Y0139704D01*
X0105194Y0139802D02*
X0105587Y0139802D01*
X0105494Y0139901D02*
X0105297Y0139901D01*
X0105399Y0139999D02*
X0105401Y0139999D01*
X0104994Y0140394D02*
X0100806Y0140394D01*
X0100708Y0140492D02*
X0105092Y0140492D01*
X0105191Y0140591D02*
X0100609Y0140591D01*
X0100511Y0140689D02*
X0105289Y0140689D01*
X0105388Y0140788D02*
X0100412Y0140788D01*
X0100314Y0140886D02*
X0105486Y0140886D01*
X0105585Y0140985D02*
X0100215Y0140985D01*
X0100117Y0141083D02*
X0105683Y0141083D01*
X0105782Y0141182D02*
X0100018Y0141182D01*
X0099920Y0141280D02*
X0105880Y0141280D01*
X0105979Y0141379D02*
X0099821Y0141379D01*
X0099723Y0141477D02*
X0106077Y0141477D01*
X0106176Y0141576D02*
X0099624Y0141576D01*
X0099526Y0141674D02*
X0106274Y0141674D01*
X0106373Y0141773D02*
X0099427Y0141773D01*
X0099329Y0141871D02*
X0106471Y0141871D01*
X0106570Y0141970D02*
X0099230Y0141970D01*
X0099132Y0142068D02*
X0106668Y0142068D01*
X0106767Y0142167D02*
X0099033Y0142167D01*
X0098935Y0142265D02*
X0106865Y0142265D01*
X0106964Y0142364D02*
X0098836Y0142364D01*
X0098738Y0142462D02*
X0107062Y0142462D01*
X0107100Y0142500D02*
X0102900Y0138300D01*
X0098700Y0142500D01*
X0102900Y0146800D01*
X0107100Y0142500D01*
X0107041Y0142561D02*
X0098759Y0142561D01*
X0098856Y0142659D02*
X0106944Y0142659D01*
X0106848Y0142758D02*
X0098952Y0142758D01*
X0099048Y0142856D02*
X0106752Y0142856D01*
X0106656Y0142955D02*
X0099144Y0142955D01*
X0099240Y0143053D02*
X0106560Y0143053D01*
X0106463Y0143152D02*
X0099337Y0143152D01*
X0099433Y0143250D02*
X0106367Y0143250D01*
X0106271Y0143349D02*
X0099529Y0143349D01*
X0099625Y0143447D02*
X0106175Y0143447D01*
X0106078Y0143546D02*
X0099722Y0143546D01*
X0099818Y0143644D02*
X0105982Y0143644D01*
X0105886Y0143743D02*
X0099914Y0143743D01*
X0100010Y0143841D02*
X0105790Y0143841D01*
X0105694Y0143940D02*
X0100106Y0143940D01*
X0100203Y0144038D02*
X0105597Y0144038D01*
X0105501Y0144137D02*
X0100299Y0144137D01*
X0100395Y0144235D02*
X0105405Y0144235D01*
X0105309Y0144334D02*
X0100491Y0144334D01*
X0100588Y0144432D02*
X0105212Y0144432D01*
X0105116Y0144531D02*
X0100684Y0144531D01*
X0100780Y0144630D02*
X0105020Y0144630D01*
X0104924Y0144728D02*
X0100876Y0144728D01*
X0100972Y0144827D02*
X0104828Y0144827D01*
X0104731Y0144925D02*
X0101069Y0144925D01*
X0101165Y0145024D02*
X0104635Y0145024D01*
X0104539Y0145122D02*
X0101261Y0145122D01*
X0101357Y0145221D02*
X0104443Y0145221D01*
X0104346Y0145319D02*
X0101454Y0145319D01*
X0101550Y0145418D02*
X0104250Y0145418D01*
X0104154Y0145516D02*
X0101646Y0145516D01*
X0101742Y0145615D02*
X0104058Y0145615D01*
X0103962Y0145713D02*
X0101838Y0145713D01*
X0101935Y0145812D02*
X0103865Y0145812D01*
X0103769Y0145910D02*
X0102031Y0145910D01*
X0102127Y0146009D02*
X0103673Y0146009D01*
X0103577Y0146107D02*
X0102223Y0146107D01*
X0102320Y0146206D02*
X0103480Y0146206D01*
X0103384Y0146304D02*
X0102416Y0146304D01*
X0102512Y0146403D02*
X0103288Y0146403D01*
X0103192Y0146501D02*
X0102608Y0146501D01*
X0102704Y0146600D02*
X0103096Y0146600D01*
X0102999Y0146698D02*
X0102801Y0146698D01*
X0102897Y0146797D02*
X0102903Y0146797D01*
X0100375Y0144925D02*
X0096984Y0144925D01*
X0096883Y0144827D02*
X0100327Y0144827D01*
X0100228Y0144728D02*
X0096782Y0144728D01*
X0096681Y0144630D02*
X0100130Y0144630D01*
X0100031Y0144531D02*
X0096581Y0144531D01*
X0096480Y0144432D02*
X0099932Y0144432D01*
X0099834Y0144334D02*
X0096379Y0144334D01*
X0096278Y0144235D02*
X0099735Y0144235D01*
X0099637Y0144137D02*
X0096177Y0144137D01*
X0096076Y0144038D02*
X0099538Y0144038D01*
X0099440Y0143940D02*
X0095975Y0143940D01*
X0095874Y0143841D02*
X0099341Y0143841D01*
X0099243Y0143743D02*
X0095773Y0143743D01*
X0095672Y0143644D02*
X0099144Y0143644D01*
X0099046Y0143546D02*
X0095571Y0143546D01*
X0095470Y0143447D02*
X0098947Y0143447D01*
X0098849Y0143349D02*
X0095370Y0143349D01*
X0095269Y0143250D02*
X0098750Y0143250D01*
X0098652Y0143152D02*
X0095168Y0143152D01*
X0095067Y0143053D02*
X0098553Y0143053D01*
X0098455Y0142955D02*
X0094966Y0142955D01*
X0094865Y0142856D02*
X0098356Y0142856D01*
X0098258Y0142758D02*
X0094764Y0142758D01*
X0094663Y0142659D02*
X0098159Y0142659D01*
X0098061Y0142561D02*
X0094562Y0142561D01*
X0094536Y0142462D02*
X0098038Y0142462D01*
X0098136Y0142364D02*
X0094630Y0142364D01*
X0094724Y0142265D02*
X0098235Y0142265D01*
X0098333Y0142167D02*
X0094818Y0142167D01*
X0094912Y0142068D02*
X0098432Y0142068D01*
X0098530Y0141970D02*
X0095006Y0141970D01*
X0095100Y0141871D02*
X0098629Y0141871D01*
X0098727Y0141773D02*
X0095194Y0141773D01*
X0095288Y0141674D02*
X0098826Y0141674D01*
X0098924Y0141576D02*
X0095382Y0141576D01*
X0095476Y0141477D02*
X0099023Y0141477D01*
X0099121Y0141379D02*
X0095570Y0141379D01*
X0095664Y0141280D02*
X0099220Y0141280D01*
X0099318Y0141182D02*
X0095758Y0141182D01*
X0095852Y0141083D02*
X0099417Y0141083D01*
X0099515Y0140985D02*
X0095947Y0140985D01*
X0096041Y0140886D02*
X0099614Y0140886D01*
X0099712Y0140788D02*
X0096135Y0140788D01*
X0096229Y0140689D02*
X0099811Y0140689D01*
X0099909Y0140591D02*
X0096323Y0140591D01*
X0096417Y0140492D02*
X0100008Y0140492D01*
X0100106Y0140394D02*
X0096511Y0140394D01*
X0096595Y0140295D02*
X0100195Y0140295D01*
X0100101Y0140196D02*
X0096496Y0140196D01*
X0096398Y0140098D02*
X0100008Y0140098D01*
X0099914Y0139999D02*
X0096299Y0139999D01*
X0096201Y0139901D02*
X0099820Y0139901D01*
X0099726Y0139802D02*
X0096102Y0139802D01*
X0096004Y0139704D02*
X0099632Y0139704D01*
X0099538Y0139605D02*
X0095905Y0139605D01*
X0095807Y0139507D02*
X0099445Y0139507D01*
X0099351Y0139408D02*
X0095708Y0139408D01*
X0095610Y0139310D02*
X0099257Y0139310D01*
X0099163Y0139211D02*
X0095511Y0139211D01*
X0095413Y0139113D02*
X0099069Y0139113D01*
X0098976Y0139014D02*
X0095314Y0139014D01*
X0095216Y0138916D02*
X0098882Y0138916D01*
X0098788Y0138817D02*
X0095117Y0138817D01*
X0095019Y0138719D02*
X0098694Y0138719D01*
X0098600Y0138620D02*
X0094920Y0138620D01*
X0094822Y0138522D02*
X0098506Y0138522D01*
X0098413Y0138423D02*
X0094723Y0138423D01*
X0094625Y0138325D02*
X0098319Y0138325D01*
X0098926Y0138226D02*
X0102274Y0138226D01*
X0102372Y0138128D02*
X0098970Y0138128D01*
X0099067Y0138029D02*
X0102471Y0138029D01*
X0102569Y0137931D02*
X0099163Y0137931D01*
X0099259Y0137832D02*
X0102668Y0137832D01*
X0102766Y0137734D02*
X0099355Y0137734D01*
X0099025Y0138325D02*
X0102175Y0138325D01*
X0102077Y0138423D02*
X0099123Y0138423D01*
X0099222Y0138522D02*
X0101978Y0138522D01*
X0101880Y0138620D02*
X0099320Y0138620D01*
X0099419Y0138719D02*
X0101781Y0138719D01*
X0101683Y0138817D02*
X0099517Y0138817D01*
X0099616Y0138916D02*
X0101584Y0138916D01*
X0101486Y0139014D02*
X0099714Y0139014D01*
X0099813Y0139113D02*
X0101387Y0139113D01*
X0101289Y0139211D02*
X0099911Y0139211D01*
X0100010Y0139310D02*
X0101190Y0139310D01*
X0101092Y0139408D02*
X0100108Y0139408D01*
X0100207Y0139507D02*
X0100993Y0139507D01*
X0100895Y0139605D02*
X0100305Y0139605D01*
X0100404Y0139704D02*
X0100796Y0139704D01*
X0100698Y0139802D02*
X0100502Y0139802D01*
X0100905Y0140295D02*
X0104895Y0140295D01*
X0104796Y0140196D02*
X0101004Y0140196D01*
X0101102Y0140098D02*
X0104698Y0140098D01*
X0104599Y0139999D02*
X0101201Y0139999D01*
X0101299Y0139901D02*
X0104501Y0139901D01*
X0104402Y0139802D02*
X0101398Y0139802D01*
X0101496Y0139704D02*
X0104304Y0139704D01*
X0104205Y0139605D02*
X0101595Y0139605D01*
X0101693Y0139507D02*
X0104107Y0139507D01*
X0104008Y0139408D02*
X0101792Y0139408D01*
X0101890Y0139310D02*
X0103910Y0139310D01*
X0103811Y0139211D02*
X0101989Y0139211D01*
X0102087Y0139113D02*
X0103713Y0139113D01*
X0103614Y0139014D02*
X0102186Y0139014D01*
X0102284Y0138916D02*
X0103516Y0138916D01*
X0103417Y0138817D02*
X0102383Y0138817D01*
X0102481Y0138719D02*
X0103319Y0138719D01*
X0103220Y0138620D02*
X0102580Y0138620D01*
X0102678Y0138522D02*
X0103122Y0138522D01*
X0103023Y0138423D02*
X0102777Y0138423D01*
X0102875Y0138325D02*
X0102925Y0138325D01*
X0100893Y0136158D02*
X0105008Y0136158D01*
X0104907Y0136059D02*
X0100989Y0136059D01*
X0101085Y0135961D02*
X0104806Y0135961D01*
X0104705Y0135862D02*
X0101181Y0135862D01*
X0101277Y0135763D02*
X0104604Y0135763D01*
X0104503Y0135665D02*
X0101373Y0135665D01*
X0101469Y0135566D02*
X0104402Y0135566D01*
X0104301Y0135468D02*
X0101565Y0135468D01*
X0101662Y0135369D02*
X0104200Y0135369D01*
X0104099Y0135271D02*
X0101758Y0135271D01*
X0101854Y0135172D02*
X0103999Y0135172D01*
X0103898Y0135074D02*
X0101950Y0135074D01*
X0102046Y0134975D02*
X0103797Y0134975D01*
X0103696Y0134877D02*
X0102142Y0134877D01*
X0102238Y0134778D02*
X0103595Y0134778D01*
X0103494Y0134680D02*
X0102334Y0134680D01*
X0102430Y0134581D02*
X0103393Y0134581D01*
X0103292Y0134483D02*
X0102526Y0134483D01*
X0102623Y0134384D02*
X0103191Y0134384D01*
X0103090Y0134286D02*
X0102719Y0134286D01*
X0102815Y0134187D02*
X0102989Y0134187D01*
X0100276Y0145024D02*
X0097085Y0145024D01*
X0097186Y0145122D02*
X0100178Y0145122D01*
X0100079Y0145221D02*
X0097287Y0145221D01*
X0097388Y0145319D02*
X0099981Y0145319D01*
X0099882Y0145418D02*
X0097489Y0145418D01*
X0097590Y0145516D02*
X0099784Y0145516D01*
X0099685Y0145615D02*
X0097691Y0145615D01*
X0097791Y0145713D02*
X0099587Y0145713D01*
X0099488Y0145812D02*
X0097892Y0145812D01*
X0097993Y0145910D02*
X0099390Y0145910D01*
X0099291Y0146009D02*
X0098094Y0146009D01*
X0098195Y0146107D02*
X0099193Y0146107D01*
X0099094Y0146206D02*
X0098296Y0146206D01*
X0098397Y0146304D02*
X0098996Y0146304D01*
X0098897Y0146403D02*
X0098498Y0146403D01*
X0098599Y0146501D02*
X0098799Y0146501D01*
X0098700Y0146600D02*
X0098700Y0146600D01*
X0101000Y0153600D02*
X0104900Y0152500D01*
X0106000Y0156500D01*
X0102100Y0157600D01*
X0101000Y0153600D01*
X0101021Y0153594D02*
X0105201Y0153594D01*
X0105228Y0153693D02*
X0101025Y0153693D01*
X0101053Y0153791D02*
X0105255Y0153791D01*
X0105282Y0153890D02*
X0101080Y0153890D01*
X0101107Y0153988D02*
X0105309Y0153988D01*
X0105336Y0154087D02*
X0101134Y0154087D01*
X0101161Y0154185D02*
X0105363Y0154185D01*
X0105390Y0154284D02*
X0101188Y0154284D01*
X0101215Y0154382D02*
X0105418Y0154382D01*
X0105445Y0154481D02*
X0101242Y0154481D01*
X0101269Y0154579D02*
X0105472Y0154579D01*
X0105499Y0154678D02*
X0101296Y0154678D01*
X0101323Y0154776D02*
X0105526Y0154776D01*
X0105553Y0154875D02*
X0101351Y0154875D01*
X0101378Y0154973D02*
X0105580Y0154973D01*
X0105607Y0155072D02*
X0101405Y0155072D01*
X0101432Y0155170D02*
X0105634Y0155170D01*
X0105661Y0155269D02*
X0101459Y0155269D01*
X0101486Y0155367D02*
X0105688Y0155367D01*
X0105716Y0155466D02*
X0101513Y0155466D01*
X0101540Y0155564D02*
X0105743Y0155564D01*
X0105770Y0155663D02*
X0101567Y0155663D01*
X0101594Y0155761D02*
X0105797Y0155761D01*
X0105824Y0155860D02*
X0101621Y0155860D01*
X0101649Y0155958D02*
X0105851Y0155958D01*
X0105878Y0156057D02*
X0101676Y0156057D01*
X0101703Y0156155D02*
X0105905Y0156155D01*
X0105932Y0156254D02*
X0101730Y0156254D01*
X0101757Y0156352D02*
X0105959Y0156352D01*
X0105986Y0156451D02*
X0101784Y0156451D01*
X0101811Y0156549D02*
X0105825Y0156549D01*
X0105476Y0156648D02*
X0101838Y0156648D01*
X0101865Y0156746D02*
X0105126Y0156746D01*
X0104777Y0156845D02*
X0101892Y0156845D01*
X0101919Y0156943D02*
X0104428Y0156943D01*
X0104079Y0157042D02*
X0101947Y0157042D01*
X0101974Y0157140D02*
X0103729Y0157140D01*
X0103380Y0157239D02*
X0102001Y0157239D01*
X0102028Y0157337D02*
X0103031Y0157337D01*
X0102682Y0157436D02*
X0102055Y0157436D01*
X0102082Y0157534D02*
X0102332Y0157534D01*
X0102412Y0157929D02*
X0104432Y0157929D01*
X0104457Y0158027D02*
X0102061Y0158027D01*
X0101800Y0158100D02*
X0104300Y0157400D01*
X0104700Y0159000D01*
X0100700Y0160000D01*
X0099700Y0156000D01*
X0101100Y0155700D01*
X0101800Y0158100D01*
X0101779Y0158027D02*
X0100207Y0158027D01*
X0100231Y0158126D02*
X0104481Y0158126D01*
X0104506Y0158224D02*
X0100256Y0158224D01*
X0100281Y0158323D02*
X0104531Y0158323D01*
X0104555Y0158421D02*
X0100305Y0158421D01*
X0100330Y0158520D02*
X0104580Y0158520D01*
X0104605Y0158618D02*
X0100355Y0158618D01*
X0100379Y0158717D02*
X0104629Y0158717D01*
X0104654Y0158815D02*
X0100404Y0158815D01*
X0100428Y0158914D02*
X0104678Y0158914D01*
X0104651Y0159012D02*
X0100453Y0159012D01*
X0100478Y0159111D02*
X0104257Y0159111D01*
X0103863Y0159209D02*
X0100502Y0159209D01*
X0100527Y0159308D02*
X0103469Y0159308D01*
X0103075Y0159406D02*
X0100552Y0159406D01*
X0100576Y0159505D02*
X0102681Y0159505D01*
X0102287Y0159603D02*
X0100601Y0159603D01*
X0100625Y0159702D02*
X0101893Y0159702D01*
X0101499Y0159800D02*
X0100650Y0159800D01*
X0100675Y0159899D02*
X0101105Y0159899D01*
X0100711Y0159997D02*
X0100699Y0159997D01*
X0100182Y0157929D02*
X0101750Y0157929D01*
X0101721Y0157830D02*
X0100158Y0157830D01*
X0100133Y0157732D02*
X0101693Y0157732D01*
X0101664Y0157633D02*
X0100108Y0157633D01*
X0100084Y0157534D02*
X0101635Y0157534D01*
X0101606Y0157436D02*
X0100059Y0157436D01*
X0100034Y0157337D02*
X0101578Y0157337D01*
X0101549Y0157239D02*
X0100010Y0157239D01*
X0099985Y0157140D02*
X0101520Y0157140D01*
X0101491Y0157042D02*
X0099960Y0157042D01*
X0099936Y0156943D02*
X0101463Y0156943D01*
X0101434Y0156845D02*
X0099911Y0156845D01*
X0099887Y0156746D02*
X0101405Y0156746D01*
X0101376Y0156648D02*
X0099862Y0156648D01*
X0099837Y0156549D02*
X0101348Y0156549D01*
X0101319Y0156451D02*
X0099813Y0156451D01*
X0099788Y0156352D02*
X0101290Y0156352D01*
X0101262Y0156254D02*
X0099763Y0156254D01*
X0099739Y0156155D02*
X0101233Y0156155D01*
X0101204Y0156057D02*
X0099714Y0156057D01*
X0099895Y0155958D02*
X0101175Y0155958D01*
X0101147Y0155860D02*
X0100354Y0155860D01*
X0100814Y0155761D02*
X0101118Y0155761D01*
X0101370Y0153496D02*
X0105174Y0153496D01*
X0105147Y0153397D02*
X0101720Y0153397D01*
X0102069Y0153298D02*
X0105120Y0153298D01*
X0105092Y0153200D02*
X0102418Y0153200D01*
X0102767Y0153101D02*
X0105065Y0153101D01*
X0105038Y0153003D02*
X0103117Y0153003D01*
X0103466Y0152904D02*
X0105011Y0152904D01*
X0104984Y0152806D02*
X0103815Y0152806D01*
X0104165Y0152707D02*
X0104957Y0152707D01*
X0104930Y0152609D02*
X0104514Y0152609D01*
X0104863Y0152510D02*
X0104903Y0152510D01*
X0104309Y0157436D02*
X0104172Y0157436D01*
X0104334Y0157534D02*
X0103820Y0157534D01*
X0103468Y0157633D02*
X0104358Y0157633D01*
X0104383Y0157732D02*
X0103116Y0157732D01*
X0102764Y0157830D02*
X0104408Y0157830D01*
X0107900Y0160600D02*
X0106900Y0162900D01*
X0105200Y0165600D01*
X0103200Y0167800D01*
X0100100Y0170500D01*
X0097500Y0172400D01*
X0098700Y0174200D01*
X0100200Y0173300D01*
X0102700Y0171400D01*
X0105600Y0168700D01*
X0107900Y0165700D01*
X0109500Y0162800D01*
X0110600Y0159700D01*
X0111000Y0157400D01*
X0111000Y0154800D01*
X0110700Y0152600D01*
X0109900Y0150100D01*
X0109200Y0148200D01*
X0108100Y0146400D01*
X0107900Y0146500D01*
X0106100Y0147800D01*
X0106900Y0148900D01*
X0107500Y0150500D01*
X0108100Y0152300D01*
X0108500Y0153900D01*
X0108600Y0156200D01*
X0108400Y0158600D01*
X0107900Y0160600D01*
X0107903Y0160588D02*
X0110285Y0160588D01*
X0110320Y0160490D02*
X0107928Y0160490D01*
X0107952Y0160391D02*
X0110355Y0160391D01*
X0110390Y0160293D02*
X0107977Y0160293D01*
X0108001Y0160194D02*
X0110425Y0160194D01*
X0110460Y0160096D02*
X0108026Y0160096D01*
X0108051Y0159997D02*
X0110495Y0159997D01*
X0110529Y0159899D02*
X0108075Y0159899D01*
X0108100Y0159800D02*
X0110564Y0159800D01*
X0110599Y0159702D02*
X0108125Y0159702D01*
X0108149Y0159603D02*
X0110617Y0159603D01*
X0110634Y0159505D02*
X0108174Y0159505D01*
X0108198Y0159406D02*
X0110651Y0159406D01*
X0110668Y0159308D02*
X0108223Y0159308D01*
X0108248Y0159209D02*
X0110685Y0159209D01*
X0110702Y0159111D02*
X0108272Y0159111D01*
X0108297Y0159012D02*
X0110720Y0159012D01*
X0110737Y0158914D02*
X0108322Y0158914D01*
X0108346Y0158815D02*
X0110754Y0158815D01*
X0110771Y0158717D02*
X0108371Y0158717D01*
X0108395Y0158618D02*
X0110788Y0158618D01*
X0110805Y0158520D02*
X0108407Y0158520D01*
X0108415Y0158421D02*
X0110822Y0158421D01*
X0110840Y0158323D02*
X0108423Y0158323D01*
X0108431Y0158224D02*
X0110857Y0158224D01*
X0110874Y0158126D02*
X0108440Y0158126D01*
X0108448Y0158027D02*
X0110891Y0158027D01*
X0110908Y0157929D02*
X0108456Y0157929D01*
X0108464Y0157830D02*
X0110925Y0157830D01*
X0110942Y0157732D02*
X0108472Y0157732D01*
X0108481Y0157633D02*
X0110959Y0157633D01*
X0110977Y0157534D02*
X0108489Y0157534D01*
X0108497Y0157436D02*
X0110994Y0157436D01*
X0111000Y0157337D02*
X0108505Y0157337D01*
X0108513Y0157239D02*
X0111000Y0157239D01*
X0111000Y0157140D02*
X0108522Y0157140D01*
X0108530Y0157042D02*
X0111000Y0157042D01*
X0111000Y0156943D02*
X0108538Y0156943D01*
X0108546Y0156845D02*
X0111000Y0156845D01*
X0111000Y0156746D02*
X0108554Y0156746D01*
X0108563Y0156648D02*
X0111000Y0156648D01*
X0111000Y0156549D02*
X0108571Y0156549D01*
X0108579Y0156451D02*
X0111000Y0156451D01*
X0111000Y0156352D02*
X0108587Y0156352D01*
X0108596Y0156254D02*
X0111000Y0156254D01*
X0111000Y0156155D02*
X0108598Y0156155D01*
X0108594Y0156057D02*
X0111000Y0156057D01*
X0111000Y0155958D02*
X0108589Y0155958D01*
X0108585Y0155860D02*
X0111000Y0155860D01*
X0111000Y0155761D02*
X0108581Y0155761D01*
X0108577Y0155663D02*
X0111000Y0155663D01*
X0111000Y0155564D02*
X0108572Y0155564D01*
X0108568Y0155466D02*
X0111000Y0155466D01*
X0111000Y0155367D02*
X0108564Y0155367D01*
X0108560Y0155269D02*
X0111000Y0155269D01*
X0111000Y0155170D02*
X0108555Y0155170D01*
X0108551Y0155072D02*
X0111000Y0155072D01*
X0111000Y0154973D02*
X0108547Y0154973D01*
X0108542Y0154875D02*
X0111000Y0154875D01*
X0110997Y0154776D02*
X0108538Y0154776D01*
X0108534Y0154678D02*
X0110983Y0154678D01*
X0110970Y0154579D02*
X0108530Y0154579D01*
X0108525Y0154481D02*
X0110956Y0154481D01*
X0110943Y0154382D02*
X0108521Y0154382D01*
X0108517Y0154284D02*
X0110930Y0154284D01*
X0110916Y0154185D02*
X0108512Y0154185D01*
X0108508Y0154087D02*
X0110903Y0154087D01*
X0110889Y0153988D02*
X0108504Y0153988D01*
X0108497Y0153890D02*
X0110876Y0153890D01*
X0110862Y0153791D02*
X0108473Y0153791D01*
X0108448Y0153693D02*
X0110849Y0153693D01*
X0110836Y0153594D02*
X0108424Y0153594D01*
X0108399Y0153496D02*
X0110822Y0153496D01*
X0110809Y0153397D02*
X0108374Y0153397D01*
X0108350Y0153298D02*
X0110795Y0153298D01*
X0110782Y0153200D02*
X0108325Y0153200D01*
X0108300Y0153101D02*
X0110768Y0153101D01*
X0110755Y0153003D02*
X0108276Y0153003D01*
X0108251Y0152904D02*
X0110742Y0152904D01*
X0110728Y0152806D02*
X0108226Y0152806D01*
X0108202Y0152707D02*
X0110715Y0152707D01*
X0110701Y0152609D02*
X0108177Y0152609D01*
X0108153Y0152510D02*
X0110671Y0152510D01*
X0110640Y0152412D02*
X0108128Y0152412D01*
X0108103Y0152313D02*
X0110608Y0152313D01*
X0110577Y0152215D02*
X0108072Y0152215D01*
X0108039Y0152116D02*
X0110545Y0152116D01*
X0110514Y0152018D02*
X0108006Y0152018D01*
X0107973Y0151919D02*
X0110482Y0151919D01*
X0110451Y0151821D02*
X0107940Y0151821D01*
X0107907Y0151722D02*
X0110419Y0151722D01*
X0110388Y0151624D02*
X0107875Y0151624D01*
X0107842Y0151525D02*
X0110356Y0151525D01*
X0110325Y0151427D02*
X0107809Y0151427D01*
X0107776Y0151328D02*
X0110293Y0151328D01*
X0110262Y0151230D02*
X0107743Y0151230D01*
X0107710Y0151131D02*
X0110230Y0151131D01*
X0110198Y0151033D02*
X0107678Y0151033D01*
X0107645Y0150934D02*
X0110167Y0150934D01*
X0110135Y0150836D02*
X0107612Y0150836D01*
X0107579Y0150737D02*
X0110104Y0150737D01*
X0110072Y0150639D02*
X0107546Y0150639D01*
X0107513Y0150540D02*
X0110041Y0150540D01*
X0110009Y0150442D02*
X0107478Y0150442D01*
X0107441Y0150343D02*
X0109978Y0150343D01*
X0109946Y0150245D02*
X0107404Y0150245D01*
X0107367Y0150146D02*
X0109915Y0150146D01*
X0109881Y0150048D02*
X0107330Y0150048D01*
X0107293Y0149949D02*
X0109844Y0149949D01*
X0109808Y0149851D02*
X0107256Y0149851D01*
X0107220Y0149752D02*
X0109772Y0149752D01*
X0109736Y0149654D02*
X0107183Y0149654D01*
X0107146Y0149555D02*
X0109699Y0149555D01*
X0109663Y0149457D02*
X0107109Y0149457D01*
X0107072Y0149358D02*
X0109627Y0149358D01*
X0109590Y0149260D02*
X0107035Y0149260D01*
X0106998Y0149161D02*
X0109554Y0149161D01*
X0109518Y0149063D02*
X0106961Y0149063D01*
X0106924Y0148964D02*
X0109481Y0148964D01*
X0109445Y0148865D02*
X0106875Y0148865D01*
X0106803Y0148767D02*
X0109409Y0148767D01*
X0109373Y0148668D02*
X0106732Y0148668D01*
X0106660Y0148570D02*
X0109336Y0148570D01*
X0109300Y0148471D02*
X0106588Y0148471D01*
X0106517Y0148373D02*
X0109264Y0148373D01*
X0109227Y0148274D02*
X0106445Y0148274D01*
X0106373Y0148176D02*
X0109185Y0148176D01*
X0109125Y0148077D02*
X0106302Y0148077D01*
X0106230Y0147979D02*
X0109065Y0147979D01*
X0109005Y0147880D02*
X0106158Y0147880D01*
X0106125Y0147782D02*
X0108944Y0147782D01*
X0108884Y0147683D02*
X0106262Y0147683D01*
X0106398Y0147585D02*
X0108824Y0147585D01*
X0108764Y0147486D02*
X0106534Y0147486D01*
X0106671Y0147388D02*
X0108704Y0147388D01*
X0108643Y0147289D02*
X0106807Y0147289D01*
X0106944Y0147191D02*
X0108583Y0147191D01*
X0108523Y0147092D02*
X0107080Y0147092D01*
X0107216Y0146994D02*
X0108463Y0146994D01*
X0108403Y0146895D02*
X0107353Y0146895D01*
X0107489Y0146797D02*
X0108342Y0146797D01*
X0108282Y0146698D02*
X0107626Y0146698D01*
X0107762Y0146600D02*
X0108222Y0146600D01*
X0108162Y0146501D02*
X0107898Y0146501D01*
X0108095Y0146403D02*
X0108102Y0146403D01*
X0113600Y0149900D02*
X0112500Y0153800D01*
X0114000Y0154200D01*
X0114700Y0151700D01*
X0117200Y0152400D01*
X0117600Y0150900D01*
X0113600Y0149900D01*
X0113586Y0149949D02*
X0113796Y0149949D01*
X0113558Y0150048D02*
X0114191Y0150048D01*
X0114585Y0150146D02*
X0113531Y0150146D01*
X0113503Y0150245D02*
X0114979Y0150245D01*
X0115373Y0150343D02*
X0113475Y0150343D01*
X0113447Y0150442D02*
X0115767Y0150442D01*
X0116161Y0150540D02*
X0113419Y0150540D01*
X0113392Y0150639D02*
X0116555Y0150639D01*
X0116949Y0150737D02*
X0113364Y0150737D01*
X0113336Y0150836D02*
X0117343Y0150836D01*
X0117591Y0150934D02*
X0113308Y0150934D01*
X0113281Y0151033D02*
X0117565Y0151033D01*
X0117538Y0151131D02*
X0113253Y0151131D01*
X0113225Y0151230D02*
X0117512Y0151230D01*
X0117486Y0151328D02*
X0113197Y0151328D01*
X0113169Y0151427D02*
X0117460Y0151427D01*
X0117433Y0151525D02*
X0113142Y0151525D01*
X0113114Y0151624D02*
X0117407Y0151624D01*
X0117381Y0151722D02*
X0114780Y0151722D01*
X0114694Y0151722D02*
X0113086Y0151722D01*
X0113058Y0151821D02*
X0114666Y0151821D01*
X0114639Y0151919D02*
X0113030Y0151919D01*
X0113003Y0152018D02*
X0114611Y0152018D01*
X0114583Y0152116D02*
X0112975Y0152116D01*
X0112947Y0152215D02*
X0114556Y0152215D01*
X0114528Y0152313D02*
X0112919Y0152313D01*
X0112892Y0152412D02*
X0114501Y0152412D01*
X0114473Y0152510D02*
X0112864Y0152510D01*
X0112836Y0152609D02*
X0114445Y0152609D01*
X0114418Y0152707D02*
X0112808Y0152707D01*
X0112780Y0152806D02*
X0114390Y0152806D01*
X0114363Y0152904D02*
X0112753Y0152904D01*
X0112725Y0153003D02*
X0114335Y0153003D01*
X0114308Y0153101D02*
X0112697Y0153101D01*
X0112669Y0153200D02*
X0114280Y0153200D01*
X0114252Y0153298D02*
X0112641Y0153298D01*
X0112614Y0153397D02*
X0114225Y0153397D01*
X0114197Y0153496D02*
X0112586Y0153496D01*
X0112558Y0153594D02*
X0114170Y0153594D01*
X0114142Y0153693D02*
X0112530Y0153693D01*
X0112503Y0153791D02*
X0114114Y0153791D01*
X0114087Y0153890D02*
X0112836Y0153890D01*
X0113205Y0153988D02*
X0114059Y0153988D01*
X0114032Y0154087D02*
X0113575Y0154087D01*
X0113944Y0154185D02*
X0114004Y0154185D01*
X0114464Y0154284D02*
X0118461Y0154284D01*
X0118435Y0154382D02*
X0114437Y0154382D01*
X0114411Y0154481D02*
X0118408Y0154481D01*
X0118381Y0154579D02*
X0114384Y0154579D01*
X0114357Y0154678D02*
X0118355Y0154678D01*
X0118328Y0154776D02*
X0114331Y0154776D01*
X0114304Y0154875D02*
X0118301Y0154875D01*
X0118275Y0154973D02*
X0114278Y0154973D01*
X0114251Y0155072D02*
X0118248Y0155072D01*
X0118222Y0155170D02*
X0114224Y0155170D01*
X0114198Y0155269D02*
X0118195Y0155269D01*
X0118168Y0155367D02*
X0114171Y0155367D01*
X0114144Y0155466D02*
X0118142Y0155466D01*
X0118115Y0155564D02*
X0114118Y0155564D01*
X0114091Y0155663D02*
X0118088Y0155663D01*
X0118062Y0155761D02*
X0114065Y0155761D01*
X0114038Y0155860D02*
X0118035Y0155860D01*
X0118009Y0155958D02*
X0114011Y0155958D01*
X0114000Y0156000D02*
X0117700Y0157100D01*
X0118700Y0153400D01*
X0115000Y0152300D01*
X0114000Y0156000D01*
X0114191Y0156057D02*
X0117982Y0156057D01*
X0117955Y0156155D02*
X0114522Y0156155D01*
X0114854Y0156254D02*
X0117929Y0156254D01*
X0117902Y0156352D02*
X0115185Y0156352D01*
X0115517Y0156451D02*
X0117875Y0156451D01*
X0117849Y0156549D02*
X0115848Y0156549D01*
X0116179Y0156648D02*
X0117822Y0156648D01*
X0117796Y0156746D02*
X0116511Y0156746D01*
X0116842Y0156845D02*
X0117769Y0156845D01*
X0117742Y0156943D02*
X0117173Y0156943D01*
X0117505Y0157042D02*
X0117716Y0157042D01*
X0118488Y0154185D02*
X0114491Y0154185D01*
X0114517Y0154087D02*
X0118514Y0154087D01*
X0118541Y0153988D02*
X0114544Y0153988D01*
X0114570Y0153890D02*
X0118568Y0153890D01*
X0118594Y0153791D02*
X0114597Y0153791D01*
X0114624Y0153693D02*
X0118621Y0153693D01*
X0118648Y0153594D02*
X0114650Y0153594D01*
X0114677Y0153496D02*
X0118674Y0153496D01*
X0118690Y0153397D02*
X0114704Y0153397D01*
X0114730Y0153298D02*
X0118359Y0153298D01*
X0118027Y0153200D02*
X0114757Y0153200D01*
X0114783Y0153101D02*
X0117696Y0153101D01*
X0117365Y0153003D02*
X0114810Y0153003D01*
X0114837Y0152904D02*
X0117033Y0152904D01*
X0116702Y0152806D02*
X0114863Y0152806D01*
X0114890Y0152707D02*
X0116370Y0152707D01*
X0116039Y0152609D02*
X0114917Y0152609D01*
X0114943Y0152510D02*
X0115708Y0152510D01*
X0115376Y0152412D02*
X0114970Y0152412D01*
X0114996Y0152313D02*
X0115045Y0152313D01*
X0115132Y0151821D02*
X0117354Y0151821D01*
X0117328Y0151919D02*
X0115483Y0151919D01*
X0115835Y0152018D02*
X0117302Y0152018D01*
X0117276Y0152116D02*
X0116187Y0152116D01*
X0116539Y0152215D02*
X0117249Y0152215D01*
X0117223Y0152313D02*
X0116891Y0152313D01*
X0110250Y0160687D02*
X0107862Y0160687D01*
X0107819Y0160785D02*
X0110215Y0160785D01*
X0110180Y0160884D02*
X0107777Y0160884D01*
X0107734Y0160982D02*
X0110145Y0160982D01*
X0110110Y0161081D02*
X0107691Y0161081D01*
X0107648Y0161179D02*
X0110075Y0161179D01*
X0110040Y0161278D02*
X0107605Y0161278D01*
X0107562Y0161376D02*
X0110005Y0161376D01*
X0109970Y0161475D02*
X0107520Y0161475D01*
X0107477Y0161573D02*
X0109935Y0161573D01*
X0109900Y0161672D02*
X0107434Y0161672D01*
X0107391Y0161770D02*
X0109865Y0161770D01*
X0109830Y0161869D02*
X0107348Y0161869D01*
X0107305Y0161967D02*
X0109795Y0161967D01*
X0109760Y0162066D02*
X0107263Y0162066D01*
X0107220Y0162165D02*
X0109726Y0162165D01*
X0109691Y0162263D02*
X0107177Y0162263D01*
X0107134Y0162362D02*
X0109656Y0162362D01*
X0109621Y0162460D02*
X0107091Y0162460D01*
X0107048Y0162559D02*
X0109586Y0162559D01*
X0109551Y0162657D02*
X0107006Y0162657D01*
X0106963Y0162756D02*
X0109516Y0162756D01*
X0109470Y0162854D02*
X0106920Y0162854D01*
X0106867Y0162953D02*
X0109416Y0162953D01*
X0109361Y0163051D02*
X0106805Y0163051D01*
X0106743Y0163150D02*
X0109307Y0163150D01*
X0109253Y0163248D02*
X0106681Y0163248D01*
X0106619Y0163347D02*
X0109198Y0163347D01*
X0109144Y0163445D02*
X0106557Y0163445D01*
X0106495Y0163544D02*
X0109090Y0163544D01*
X0109035Y0163642D02*
X0106433Y0163642D01*
X0106371Y0163741D02*
X0108981Y0163741D01*
X0108927Y0163839D02*
X0106309Y0163839D01*
X0106247Y0163938D02*
X0108872Y0163938D01*
X0108818Y0164036D02*
X0106185Y0164036D01*
X0106123Y0164135D02*
X0108764Y0164135D01*
X0108709Y0164233D02*
X0106061Y0164233D01*
X0105999Y0164332D02*
X0108655Y0164332D01*
X0108601Y0164430D02*
X0105936Y0164430D01*
X0105874Y0164529D02*
X0108546Y0164529D01*
X0108492Y0164627D02*
X0105812Y0164627D01*
X0105750Y0164726D02*
X0108437Y0164726D01*
X0108383Y0164824D02*
X0105688Y0164824D01*
X0105626Y0164923D02*
X0108329Y0164923D01*
X0108274Y0165021D02*
X0105564Y0165021D01*
X0105502Y0165120D02*
X0108220Y0165120D01*
X0108166Y0165218D02*
X0105440Y0165218D01*
X0105378Y0165317D02*
X0108111Y0165317D01*
X0108057Y0165415D02*
X0105316Y0165415D01*
X0105254Y0165514D02*
X0108003Y0165514D01*
X0107948Y0165612D02*
X0105189Y0165612D01*
X0105099Y0165711D02*
X0107892Y0165711D01*
X0107816Y0165809D02*
X0105010Y0165809D01*
X0104920Y0165908D02*
X0107741Y0165908D01*
X0107665Y0166006D02*
X0104830Y0166006D01*
X0104741Y0166105D02*
X0107590Y0166105D01*
X0107514Y0166203D02*
X0104651Y0166203D01*
X0104562Y0166302D02*
X0107438Y0166302D01*
X0107363Y0166401D02*
X0104472Y0166401D01*
X0104383Y0166499D02*
X0107287Y0166499D01*
X0107212Y0166598D02*
X0104293Y0166598D01*
X0104204Y0166696D02*
X0107136Y0166696D01*
X0107061Y0166795D02*
X0104114Y0166795D01*
X0104024Y0166893D02*
X0106985Y0166893D01*
X0106910Y0166992D02*
X0103935Y0166992D01*
X0103845Y0167090D02*
X0106834Y0167090D01*
X0106759Y0167189D02*
X0103756Y0167189D01*
X0103666Y0167287D02*
X0106683Y0167287D01*
X0106608Y0167386D02*
X0103577Y0167386D01*
X0103487Y0167484D02*
X0106532Y0167484D01*
X0106457Y0167583D02*
X0103398Y0167583D01*
X0103308Y0167681D02*
X0106381Y0167681D01*
X0106306Y0167780D02*
X0103218Y0167780D01*
X0103110Y0167878D02*
X0106230Y0167878D01*
X0106155Y0167977D02*
X0102997Y0167977D01*
X0102884Y0168075D02*
X0106079Y0168075D01*
X0106003Y0168174D02*
X0102771Y0168174D01*
X0102658Y0168272D02*
X0105928Y0168272D01*
X0105852Y0168371D02*
X0102545Y0168371D01*
X0102432Y0168469D02*
X0105777Y0168469D01*
X0105701Y0168568D02*
X0102319Y0168568D01*
X0102205Y0168666D02*
X0105626Y0168666D01*
X0105530Y0168765D02*
X0102092Y0168765D01*
X0101979Y0168863D02*
X0105425Y0168863D01*
X0105319Y0168962D02*
X0101866Y0168962D01*
X0101753Y0169060D02*
X0105213Y0169060D01*
X0105107Y0169159D02*
X0101640Y0169159D01*
X0101527Y0169257D02*
X0105001Y0169257D01*
X0104896Y0169356D02*
X0101414Y0169356D01*
X0101301Y0169454D02*
X0104790Y0169454D01*
X0104684Y0169553D02*
X0101187Y0169553D01*
X0101074Y0169651D02*
X0104578Y0169651D01*
X0104472Y0169750D02*
X0100961Y0169750D01*
X0100848Y0169848D02*
X0104367Y0169848D01*
X0104261Y0169947D02*
X0100735Y0169947D01*
X0100622Y0170045D02*
X0104155Y0170045D01*
X0104049Y0170144D02*
X0100509Y0170144D01*
X0100396Y0170242D02*
X0103943Y0170242D01*
X0103837Y0170341D02*
X0100283Y0170341D01*
X0100169Y0170439D02*
X0103732Y0170439D01*
X0103626Y0170538D02*
X0100048Y0170538D01*
X0099913Y0170636D02*
X0103520Y0170636D01*
X0103414Y0170735D02*
X0099778Y0170735D01*
X0099644Y0170834D02*
X0103308Y0170834D01*
X0103203Y0170932D02*
X0099509Y0170932D01*
X0099374Y0171031D02*
X0103097Y0171031D01*
X0102991Y0171129D02*
X0099239Y0171129D01*
X0099104Y0171228D02*
X0102885Y0171228D01*
X0102779Y0171326D02*
X0098970Y0171326D01*
X0098835Y0171425D02*
X0102668Y0171425D01*
X0102538Y0171523D02*
X0098700Y0171523D01*
X0098565Y0171622D02*
X0102408Y0171622D01*
X0102279Y0171720D02*
X0098430Y0171720D01*
X0098296Y0171819D02*
X0102149Y0171819D01*
X0102020Y0171917D02*
X0098161Y0171917D01*
X0098026Y0172016D02*
X0101890Y0172016D01*
X0101760Y0172114D02*
X0097891Y0172114D01*
X0097756Y0172213D02*
X0101631Y0172213D01*
X0101501Y0172311D02*
X0097622Y0172311D01*
X0097506Y0172410D02*
X0101371Y0172410D01*
X0101242Y0172508D02*
X0097572Y0172508D01*
X0097638Y0172607D02*
X0101112Y0172607D01*
X0100983Y0172705D02*
X0097703Y0172705D01*
X0097769Y0172804D02*
X0100853Y0172804D01*
X0100723Y0172902D02*
X0097835Y0172902D01*
X0097901Y0173001D02*
X0100594Y0173001D01*
X0100464Y0173099D02*
X0097966Y0173099D01*
X0098032Y0173198D02*
X0100334Y0173198D01*
X0100205Y0173296D02*
X0098098Y0173296D01*
X0098163Y0173395D02*
X0100042Y0173395D01*
X0099878Y0173493D02*
X0098229Y0173493D01*
X0098295Y0173592D02*
X0099714Y0173592D01*
X0099549Y0173690D02*
X0098360Y0173690D01*
X0098426Y0173789D02*
X0099385Y0173789D01*
X0099221Y0173887D02*
X0098492Y0173887D01*
X0098557Y0173986D02*
X0099057Y0173986D01*
X0098893Y0174084D02*
X0098623Y0174084D01*
X0098689Y0174183D02*
X0098729Y0174183D01*
M02*
