G75*
%MOIN*%
%OFA0B0*%
%FSLAX25Y25*%
%IPPOS*%
%LPD*%
%AMOC8*
5,1,8,0,0,1.08239X$1,22.5*
%
%ADD10C,0.00400*%
%ADD11C,0.00800*%
%ADD12C,0.00500*%
%ADD13R,0.00787X0.00787*%
D10*
X0023700Y0004001D02*
X0025235Y0005536D01*
X0025235Y0004769D02*
X0025235Y0007071D01*
X0023700Y0007071D02*
X0028304Y0007071D01*
X0028304Y0004769D01*
X0027537Y0004001D01*
X0026002Y0004001D01*
X0025235Y0004769D01*
X0023700Y0008605D02*
X0023700Y0011675D01*
X0028304Y0011675D01*
X0028304Y0008605D01*
X0026002Y0010140D02*
X0026002Y0011675D01*
X0023700Y0013209D02*
X0025235Y0014744D01*
X0023700Y0016278D01*
X0028304Y0016278D01*
X0027537Y0017813D02*
X0028304Y0018580D01*
X0028304Y0020115D01*
X0027537Y0020882D01*
X0024467Y0020882D01*
X0023700Y0020115D01*
X0023700Y0018580D01*
X0024467Y0017813D01*
X0027537Y0017813D01*
X0028304Y0013209D02*
X0023700Y0013209D01*
X0026002Y0022417D02*
X0025235Y0023184D01*
X0025235Y0025486D01*
X0023700Y0025486D02*
X0028304Y0025486D01*
X0028304Y0023184D01*
X0027537Y0022417D01*
X0026002Y0022417D01*
X0025413Y0031877D02*
X0028149Y0034612D01*
X0028149Y0035296D01*
X0027465Y0035980D01*
X0026097Y0035980D01*
X0025413Y0035296D01*
X0025413Y0031877D02*
X0028149Y0031877D01*
X0029556Y0031877D02*
X0032292Y0031877D01*
X0030924Y0031877D02*
X0030924Y0035980D01*
X0029556Y0034612D01*
X0030240Y0041877D02*
X0029556Y0042560D01*
X0032292Y0045296D01*
X0032292Y0042560D01*
X0031608Y0041877D01*
X0030240Y0041877D01*
X0029556Y0042560D02*
X0029556Y0045296D01*
X0030240Y0045980D01*
X0031608Y0045980D01*
X0032292Y0045296D01*
X0028149Y0045296D02*
X0027465Y0045980D01*
X0026097Y0045980D01*
X0025413Y0045296D01*
X0028149Y0044612D02*
X0025413Y0041877D01*
X0028149Y0041877D01*
X0028149Y0044612D02*
X0028149Y0045296D01*
X0028149Y0051877D02*
X0025413Y0051877D01*
X0026781Y0051877D02*
X0026781Y0055980D01*
X0025413Y0054612D01*
X0029556Y0053928D02*
X0031608Y0053928D01*
X0032292Y0053244D01*
X0032292Y0052560D01*
X0031608Y0051877D01*
X0030240Y0051877D01*
X0029556Y0052560D01*
X0029556Y0053928D01*
X0030924Y0055296D01*
X0032292Y0055980D01*
X0032292Y0071877D02*
X0029556Y0071877D01*
X0032292Y0074612D01*
X0032292Y0075296D01*
X0031608Y0075980D01*
X0030240Y0075980D01*
X0029556Y0075296D01*
X0028149Y0071877D02*
X0025413Y0071877D01*
X0026781Y0071877D02*
X0026781Y0075980D01*
X0025413Y0074612D01*
X0017223Y0082560D02*
X0017223Y0085296D01*
X0016539Y0085980D01*
X0014487Y0085980D01*
X0014487Y0081877D01*
X0016539Y0081877D01*
X0017223Y0082560D01*
X0013079Y0081877D02*
X0013079Y0085980D01*
X0010344Y0085980D02*
X0010344Y0081877D01*
X0008936Y0082560D02*
X0008936Y0083928D01*
X0007568Y0083928D01*
X0008936Y0082560D02*
X0008252Y0081877D01*
X0006884Y0081877D01*
X0006200Y0082560D01*
X0006200Y0085296D01*
X0006884Y0085980D01*
X0008252Y0085980D01*
X0008936Y0085296D01*
X0010344Y0085980D02*
X0013079Y0081877D01*
X0011014Y0091877D02*
X0008962Y0091877D01*
X0008962Y0095980D01*
X0011014Y0095980D01*
X0011698Y0095296D01*
X0011698Y0092560D01*
X0011014Y0091877D01*
X0007568Y0091877D02*
X0006200Y0091877D01*
X0006884Y0091877D02*
X0006884Y0095980D01*
X0006200Y0095980D02*
X0007568Y0095980D01*
X0006884Y0101877D02*
X0008252Y0101877D01*
X0008936Y0102560D01*
X0010344Y0101877D02*
X0010344Y0105980D01*
X0013079Y0105980D01*
X0014487Y0104612D02*
X0015855Y0105980D01*
X0015855Y0101877D01*
X0014487Y0101877D02*
X0017223Y0101877D01*
X0013079Y0101877D02*
X0010344Y0101877D01*
X0010344Y0103928D02*
X0011711Y0103928D01*
X0008936Y0105296D02*
X0008252Y0105980D01*
X0006884Y0105980D01*
X0006200Y0105296D01*
X0006200Y0102560D01*
X0006884Y0101877D01*
X0006884Y0111877D02*
X0008252Y0111877D01*
X0008936Y0112560D01*
X0010344Y0111877D02*
X0010344Y0115980D01*
X0013079Y0115980D01*
X0014487Y0115296D02*
X0014487Y0112560D01*
X0017223Y0115296D01*
X0017223Y0112560D01*
X0016539Y0111877D01*
X0015171Y0111877D01*
X0014487Y0112560D01*
X0013079Y0111877D02*
X0010344Y0111877D01*
X0010344Y0113928D02*
X0011711Y0113928D01*
X0008936Y0115296D02*
X0008252Y0115980D01*
X0006884Y0115980D01*
X0006200Y0115296D01*
X0006200Y0112560D01*
X0006884Y0111877D01*
X0014487Y0115296D02*
X0015171Y0115980D01*
X0016539Y0115980D01*
X0017223Y0115296D01*
X0025413Y0121877D02*
X0028149Y0124612D01*
X0028149Y0125296D01*
X0027465Y0125980D01*
X0026097Y0125980D01*
X0025413Y0125296D01*
X0025413Y0121877D02*
X0028149Y0121877D01*
X0029556Y0122560D02*
X0030240Y0121877D01*
X0031608Y0121877D01*
X0032292Y0122560D01*
X0032292Y0123928D01*
X0031608Y0124612D01*
X0030924Y0124612D01*
X0029556Y0123928D01*
X0029556Y0125980D01*
X0032292Y0125980D01*
X0031608Y0115980D02*
X0030240Y0115980D01*
X0029556Y0115296D01*
X0029556Y0114612D01*
X0030240Y0113928D01*
X0031608Y0113928D01*
X0032292Y0113244D01*
X0032292Y0112560D01*
X0031608Y0111877D01*
X0030240Y0111877D01*
X0029556Y0112560D01*
X0029556Y0113244D01*
X0030240Y0113928D01*
X0031608Y0113928D02*
X0032292Y0114612D01*
X0032292Y0115296D01*
X0031608Y0115980D01*
X0032292Y0105980D02*
X0029556Y0105980D01*
X0032292Y0105296D02*
X0029556Y0102560D01*
X0029556Y0101877D01*
X0032292Y0105296D02*
X0032292Y0105980D01*
X0016539Y0131877D02*
X0017223Y0132560D01*
X0017223Y0135296D01*
X0016539Y0135980D01*
X0014487Y0135980D01*
X0014487Y0131877D01*
X0016539Y0131877D01*
X0013079Y0131877D02*
X0013079Y0135980D01*
X0010344Y0135980D02*
X0013079Y0131877D01*
X0010344Y0131877D02*
X0010344Y0135980D01*
X0008936Y0135296D02*
X0008252Y0135980D01*
X0006884Y0135980D01*
X0006200Y0135296D01*
X0006200Y0132560D01*
X0006884Y0131877D01*
X0008252Y0131877D01*
X0008936Y0132560D01*
X0008936Y0133928D01*
X0007568Y0133928D01*
X0006884Y0161877D02*
X0008252Y0161877D01*
X0008936Y0162560D01*
X0008936Y0163928D01*
X0007568Y0163928D01*
X0006200Y0162560D02*
X0006884Y0161877D01*
X0006200Y0162560D02*
X0006200Y0165296D01*
X0006884Y0165980D01*
X0008252Y0165980D01*
X0008936Y0165296D01*
X0010344Y0165980D02*
X0010344Y0161877D01*
X0013079Y0161877D02*
X0010344Y0165980D01*
X0013079Y0165980D02*
X0013079Y0161877D01*
X0014487Y0161877D02*
X0016539Y0161877D01*
X0017223Y0162560D01*
X0017223Y0165296D01*
X0016539Y0165980D01*
X0014487Y0165980D01*
X0014487Y0161877D01*
X0013079Y0181877D02*
X0010344Y0185980D01*
X0008936Y0185296D02*
X0008936Y0183928D01*
X0008252Y0183244D01*
X0006200Y0183244D01*
X0006200Y0181877D02*
X0006200Y0185980D01*
X0008252Y0185980D01*
X0008936Y0185296D01*
X0007568Y0183244D02*
X0008936Y0181877D01*
X0010344Y0181877D02*
X0013079Y0185980D01*
X0013079Y0191877D02*
X0010344Y0195980D01*
X0008936Y0195980D02*
X0006200Y0195980D01*
X0007568Y0195980D02*
X0007568Y0191877D01*
X0010344Y0191877D02*
X0013079Y0195980D01*
X0013079Y0201877D02*
X0013079Y0205980D01*
X0014487Y0205980D02*
X0014487Y0201877D01*
X0016539Y0201877D01*
X0017223Y0202560D01*
X0017223Y0205296D01*
X0016539Y0205980D01*
X0014487Y0205980D01*
X0010344Y0205980D02*
X0013079Y0201877D01*
X0010344Y0201877D02*
X0010344Y0205980D01*
X0008936Y0205296D02*
X0008252Y0205980D01*
X0006884Y0205980D01*
X0006200Y0205296D01*
X0006200Y0202560D01*
X0006884Y0201877D01*
X0008252Y0201877D01*
X0008936Y0202560D01*
X0008936Y0203928D01*
X0007568Y0203928D01*
X0008252Y0211877D02*
X0006884Y0211877D01*
X0006200Y0212560D01*
X0006200Y0213928D02*
X0007568Y0214612D01*
X0008252Y0214612D01*
X0008936Y0213928D01*
X0008936Y0212560D01*
X0008252Y0211877D01*
X0006200Y0213928D02*
X0006200Y0215980D01*
X0008936Y0215980D01*
X0010344Y0215980D02*
X0010344Y0213244D01*
X0011711Y0211877D01*
X0013079Y0213244D01*
X0013079Y0215980D01*
X0011711Y0221877D02*
X0013079Y0223244D01*
X0013079Y0225980D01*
X0010344Y0225980D02*
X0010344Y0223244D01*
X0011711Y0221877D01*
X0008936Y0222560D02*
X0008252Y0221877D01*
X0006884Y0221877D01*
X0006200Y0222560D01*
X0006200Y0223928D02*
X0007568Y0224612D01*
X0008252Y0224612D01*
X0008936Y0223928D01*
X0008936Y0222560D01*
X0008936Y0225980D02*
X0006200Y0225980D01*
X0006200Y0223928D01*
X0026781Y0195980D02*
X0025413Y0194612D01*
X0026781Y0195980D02*
X0026781Y0191877D01*
X0025413Y0191877D02*
X0028149Y0191877D01*
X0029556Y0193928D02*
X0032292Y0193928D01*
X0031608Y0191877D02*
X0031608Y0195980D01*
X0029556Y0193928D01*
X0029556Y0185980D02*
X0029556Y0183928D01*
X0030924Y0184612D01*
X0031608Y0184612D01*
X0032292Y0183928D01*
X0032292Y0182560D01*
X0031608Y0181877D01*
X0030240Y0181877D01*
X0029556Y0182560D01*
X0028149Y0181877D02*
X0025413Y0181877D01*
X0026781Y0181877D02*
X0026781Y0185980D01*
X0025413Y0184612D01*
X0026781Y0175980D02*
X0026781Y0171877D01*
X0025413Y0171877D02*
X0028149Y0171877D01*
X0029556Y0172560D02*
X0029556Y0173244D01*
X0030240Y0173928D01*
X0031608Y0173928D01*
X0032292Y0173244D01*
X0032292Y0172560D01*
X0031608Y0171877D01*
X0030240Y0171877D01*
X0029556Y0172560D01*
X0030240Y0173928D02*
X0029556Y0174612D01*
X0029556Y0175296D01*
X0030240Y0175980D01*
X0031608Y0175980D01*
X0032292Y0175296D01*
X0032292Y0174612D01*
X0031608Y0173928D01*
X0026781Y0175980D02*
X0025413Y0174612D01*
X0029556Y0185980D02*
X0032292Y0185980D01*
X0031608Y0155980D02*
X0030240Y0155980D01*
X0029556Y0155296D01*
X0028149Y0155296D02*
X0028149Y0154612D01*
X0025413Y0151877D01*
X0028149Y0151877D01*
X0029556Y0152560D02*
X0030240Y0151877D01*
X0031608Y0151877D01*
X0032292Y0152560D01*
X0032292Y0153244D01*
X0031608Y0153928D01*
X0030924Y0153928D01*
X0031608Y0153928D02*
X0032292Y0154612D01*
X0032292Y0155296D01*
X0031608Y0155980D01*
X0028149Y0155296D02*
X0027465Y0155980D01*
X0026097Y0155980D01*
X0025413Y0155296D01*
X0026097Y0145980D02*
X0025413Y0145296D01*
X0026097Y0145980D02*
X0027465Y0145980D01*
X0028149Y0145296D01*
X0028149Y0144612D01*
X0025413Y0141877D01*
X0028149Y0141877D01*
X0029556Y0143928D02*
X0032292Y0143928D01*
X0031608Y0141877D02*
X0031608Y0145980D01*
X0029556Y0143928D01*
X0016539Y0065980D02*
X0014487Y0065980D01*
X0014487Y0061877D01*
X0016539Y0061877D01*
X0017223Y0062560D01*
X0017223Y0065296D01*
X0016539Y0065980D01*
X0013079Y0065980D02*
X0013079Y0061877D01*
X0010344Y0065980D01*
X0010344Y0061877D01*
X0008936Y0062560D02*
X0008936Y0063928D01*
X0007568Y0063928D01*
X0008936Y0062560D02*
X0008252Y0061877D01*
X0006884Y0061877D01*
X0006200Y0062560D01*
X0006200Y0065296D01*
X0006884Y0065980D01*
X0008252Y0065980D01*
X0008936Y0065296D01*
X0087913Y0064612D02*
X0089281Y0065980D01*
X0089281Y0061877D01*
X0087913Y0061877D02*
X0090649Y0061877D01*
X0092056Y0062560D02*
X0092740Y0061877D01*
X0094108Y0061877D01*
X0094792Y0062560D01*
X0094792Y0063244D01*
X0094108Y0063928D01*
X0093424Y0063928D01*
X0094108Y0063928D02*
X0094792Y0064612D01*
X0094792Y0065296D01*
X0094108Y0065980D01*
X0092740Y0065980D01*
X0092056Y0065296D01*
X0092740Y0071877D02*
X0094108Y0071877D01*
X0094792Y0072560D01*
X0094792Y0073244D01*
X0094108Y0073928D01*
X0092056Y0073928D01*
X0092056Y0072560D01*
X0092740Y0071877D01*
X0092056Y0073928D02*
X0093424Y0075296D01*
X0094792Y0075980D01*
X0094108Y0081877D02*
X0092740Y0081877D01*
X0092056Y0082560D01*
X0092056Y0083928D02*
X0093424Y0084612D01*
X0094108Y0084612D01*
X0094792Y0083928D01*
X0094792Y0082560D01*
X0094108Y0081877D01*
X0092056Y0083928D02*
X0092056Y0085980D01*
X0094792Y0085980D01*
X0101200Y0091877D02*
X0102568Y0091877D01*
X0101884Y0091877D02*
X0101884Y0095980D01*
X0101200Y0095980D02*
X0102568Y0095980D01*
X0103962Y0095980D02*
X0106014Y0095980D01*
X0106698Y0095296D01*
X0106698Y0092560D01*
X0106014Y0091877D01*
X0103962Y0091877D01*
X0103962Y0095980D01*
X0103252Y0101877D02*
X0101884Y0101877D01*
X0101200Y0102560D01*
X0101200Y0105296D01*
X0101884Y0105980D01*
X0103252Y0105980D01*
X0103936Y0105296D01*
X0103936Y0103928D02*
X0102568Y0103928D01*
X0103936Y0103928D02*
X0103936Y0102560D01*
X0103252Y0101877D01*
X0105344Y0101877D02*
X0105344Y0105980D01*
X0108079Y0101877D01*
X0108079Y0105980D01*
X0109487Y0105980D02*
X0109487Y0101877D01*
X0111539Y0101877D01*
X0112223Y0102560D01*
X0112223Y0105296D01*
X0111539Y0105980D01*
X0109487Y0105980D01*
X0109487Y0111877D02*
X0112223Y0111877D01*
X0113631Y0111877D02*
X0113631Y0115980D01*
X0114315Y0113928D02*
X0116366Y0111877D01*
X0113631Y0113244D02*
X0116366Y0115980D01*
X0114301Y0121877D02*
X0112933Y0121877D01*
X0112249Y0122560D01*
X0112249Y0125296D01*
X0112933Y0125980D01*
X0114301Y0125980D01*
X0114985Y0125296D01*
X0114985Y0122560D01*
X0114301Y0121877D01*
X0110842Y0122560D02*
X0110158Y0121877D01*
X0108790Y0121877D01*
X0108106Y0122560D01*
X0108790Y0123928D02*
X0108106Y0124612D01*
X0108106Y0125296D01*
X0108790Y0125980D01*
X0110158Y0125980D01*
X0110842Y0125296D01*
X0110158Y0123928D02*
X0108790Y0123928D01*
X0110158Y0123928D02*
X0110842Y0123244D01*
X0110842Y0122560D01*
X0106711Y0121877D02*
X0105344Y0121877D01*
X0106027Y0121877D02*
X0106027Y0125980D01*
X0105344Y0125980D02*
X0106711Y0125980D01*
X0103936Y0125980D02*
X0103936Y0121877D01*
X0102568Y0124612D02*
X0103936Y0125980D01*
X0102568Y0124612D02*
X0101200Y0125980D01*
X0101200Y0121877D01*
X0101884Y0115980D02*
X0101200Y0115296D01*
X0101200Y0114612D01*
X0101884Y0113928D01*
X0103252Y0113928D01*
X0103936Y0113244D01*
X0103936Y0112560D01*
X0103252Y0111877D01*
X0101884Y0111877D01*
X0101200Y0112560D01*
X0101884Y0115980D02*
X0103252Y0115980D01*
X0103936Y0115296D01*
X0105344Y0115296D02*
X0105344Y0112560D01*
X0106027Y0111877D01*
X0107395Y0111877D01*
X0108079Y0112560D01*
X0109487Y0111877D02*
X0109487Y0115980D01*
X0108079Y0115296D02*
X0107395Y0115980D01*
X0106027Y0115980D01*
X0105344Y0115296D01*
X0106027Y0131877D02*
X0107395Y0131877D01*
X0108079Y0132560D01*
X0108079Y0135296D01*
X0107395Y0135980D01*
X0106027Y0135980D01*
X0105344Y0135296D01*
X0105344Y0132560D01*
X0106027Y0131877D01*
X0103936Y0131877D02*
X0103936Y0135980D01*
X0102568Y0134612D01*
X0101200Y0135980D01*
X0101200Y0131877D01*
X0101884Y0141877D02*
X0101200Y0142560D01*
X0101884Y0141877D02*
X0103252Y0141877D01*
X0103936Y0142560D01*
X0103936Y0143244D01*
X0103252Y0143928D01*
X0102568Y0143928D01*
X0103252Y0143928D02*
X0103936Y0144612D01*
X0103936Y0145296D01*
X0103252Y0145980D01*
X0101884Y0145980D01*
X0101200Y0145296D01*
X0105344Y0142560D02*
X0105344Y0141877D01*
X0106027Y0141877D01*
X0106027Y0142560D01*
X0105344Y0142560D01*
X0107415Y0142560D02*
X0108099Y0141877D01*
X0109467Y0141877D01*
X0110151Y0142560D01*
X0110151Y0143244D01*
X0109467Y0143928D01*
X0108783Y0143928D01*
X0109467Y0143928D02*
X0110151Y0144612D01*
X0110151Y0145296D01*
X0109467Y0145980D01*
X0108099Y0145980D01*
X0107415Y0145296D01*
X0111559Y0145980D02*
X0111559Y0143244D01*
X0112927Y0141877D01*
X0114295Y0143244D01*
X0114295Y0145980D01*
X0114315Y0135980D02*
X0114315Y0131877D01*
X0114998Y0131877D02*
X0113631Y0131877D01*
X0113631Y0135980D02*
X0114998Y0135980D01*
X0112223Y0135296D02*
X0111539Y0135980D01*
X0110171Y0135980D01*
X0109487Y0135296D01*
X0109487Y0134612D01*
X0110171Y0133928D01*
X0111539Y0133928D01*
X0112223Y0133244D01*
X0112223Y0132560D01*
X0111539Y0131877D01*
X0110171Y0131877D01*
X0109487Y0132560D01*
X0094792Y0132560D02*
X0094108Y0131877D01*
X0092740Y0131877D01*
X0092056Y0132560D01*
X0094792Y0135296D01*
X0094792Y0132560D01*
X0094792Y0135296D02*
X0094108Y0135980D01*
X0092740Y0135980D01*
X0092056Y0135296D01*
X0092056Y0132560D01*
X0090649Y0131877D02*
X0087913Y0131877D01*
X0089281Y0131877D02*
X0089281Y0135980D01*
X0087913Y0134612D01*
X0092740Y0125980D02*
X0092056Y0125296D01*
X0092056Y0124612D01*
X0092740Y0123928D01*
X0094792Y0123928D01*
X0094792Y0122560D02*
X0094792Y0125296D01*
X0094108Y0125980D01*
X0092740Y0125980D01*
X0092056Y0122560D02*
X0092740Y0121877D01*
X0094108Y0121877D01*
X0094792Y0122560D01*
X0093424Y0115980D02*
X0092056Y0114612D01*
X0093424Y0115980D02*
X0093424Y0111877D01*
X0092056Y0111877D02*
X0094792Y0111877D01*
X0090649Y0111877D02*
X0087913Y0111877D01*
X0089281Y0111877D02*
X0089281Y0115980D01*
X0087913Y0114612D01*
X0087913Y0151877D02*
X0090649Y0154612D01*
X0090649Y0155296D01*
X0089965Y0155980D01*
X0088597Y0155980D01*
X0087913Y0155296D01*
X0087913Y0151877D02*
X0090649Y0151877D01*
X0092056Y0151877D02*
X0094792Y0154612D01*
X0094792Y0155296D01*
X0094108Y0155980D01*
X0092740Y0155980D01*
X0092056Y0155296D01*
X0092056Y0151877D02*
X0094792Y0151877D01*
X0092056Y0161877D02*
X0092056Y0162560D01*
X0094792Y0165296D01*
X0094792Y0165980D01*
X0092056Y0165980D01*
X0090649Y0165296D02*
X0089965Y0165980D01*
X0088597Y0165980D01*
X0087913Y0165296D01*
X0090649Y0164612D02*
X0087913Y0161877D01*
X0090649Y0161877D01*
X0090649Y0164612D02*
X0090649Y0165296D01*
X0090649Y0171877D02*
X0087913Y0171877D01*
X0089281Y0171877D02*
X0089281Y0175980D01*
X0087913Y0174612D01*
X0092056Y0175980D02*
X0094792Y0175980D01*
X0094792Y0175296D01*
X0092056Y0172560D01*
X0092056Y0171877D01*
X0101200Y0171877D02*
X0101200Y0175980D01*
X0103252Y0175980D01*
X0103936Y0175296D01*
X0103936Y0173928D01*
X0103252Y0173244D01*
X0101200Y0173244D01*
X0102568Y0173244D02*
X0103936Y0171877D01*
X0106711Y0171877D02*
X0106711Y0175980D01*
X0105344Y0175980D02*
X0108079Y0175980D01*
X0109487Y0175296D02*
X0109487Y0174612D01*
X0110171Y0173928D01*
X0111539Y0173928D01*
X0112223Y0173244D01*
X0112223Y0172560D01*
X0111539Y0171877D01*
X0110171Y0171877D01*
X0109487Y0172560D01*
X0109487Y0175296D02*
X0110171Y0175980D01*
X0111539Y0175980D01*
X0112223Y0175296D01*
X0111539Y0181877D02*
X0109487Y0181877D01*
X0109487Y0185980D01*
X0111539Y0185980D01*
X0112223Y0185296D01*
X0112223Y0182560D01*
X0111539Y0181877D01*
X0108079Y0181877D02*
X0108079Y0185980D01*
X0105344Y0185980D02*
X0108079Y0181877D01*
X0105344Y0181877D02*
X0105344Y0185980D01*
X0103936Y0185296D02*
X0103252Y0185980D01*
X0101884Y0185980D01*
X0101200Y0185296D01*
X0101200Y0182560D01*
X0101884Y0181877D01*
X0103252Y0181877D01*
X0103936Y0182560D01*
X0103936Y0183928D01*
X0102568Y0183928D01*
X0094108Y0191877D02*
X0094108Y0195980D01*
X0092056Y0193928D01*
X0094792Y0193928D01*
X0094108Y0201877D02*
X0092740Y0201877D01*
X0092056Y0202560D01*
X0093424Y0203928D02*
X0094108Y0203928D01*
X0094792Y0203244D01*
X0094792Y0202560D01*
X0094108Y0201877D01*
X0094108Y0203928D02*
X0094792Y0204612D01*
X0094792Y0205296D01*
X0094108Y0205980D01*
X0092740Y0205980D01*
X0092056Y0205296D01*
X0092056Y0211877D02*
X0094792Y0214612D01*
X0094792Y0215296D01*
X0094108Y0215980D01*
X0092740Y0215980D01*
X0092056Y0215296D01*
X0092056Y0211877D02*
X0094792Y0211877D01*
X0101200Y0212560D02*
X0101884Y0211877D01*
X0103252Y0211877D01*
X0103936Y0212560D01*
X0103936Y0213244D01*
X0103252Y0213928D01*
X0101884Y0213928D01*
X0101200Y0214612D01*
X0101200Y0215296D01*
X0101884Y0215980D01*
X0103252Y0215980D01*
X0103936Y0215296D01*
X0105344Y0215980D02*
X0107395Y0215980D01*
X0108079Y0215296D01*
X0108079Y0212560D01*
X0107395Y0211877D01*
X0105344Y0211877D01*
X0105344Y0215980D01*
X0105344Y0221877D02*
X0106027Y0221877D01*
X0106027Y0222560D01*
X0105344Y0222560D01*
X0105344Y0221877D01*
X0103936Y0222560D02*
X0103252Y0221877D01*
X0101884Y0221877D01*
X0101200Y0222560D01*
X0101200Y0225296D02*
X0101884Y0225980D01*
X0103252Y0225980D01*
X0103936Y0225296D01*
X0103936Y0224612D01*
X0103252Y0223928D01*
X0103936Y0223244D01*
X0103936Y0222560D01*
X0103252Y0223928D02*
X0102568Y0223928D01*
X0107415Y0222560D02*
X0108099Y0221877D01*
X0109467Y0221877D01*
X0110151Y0222560D01*
X0110151Y0223244D01*
X0109467Y0223928D01*
X0108783Y0223928D01*
X0109467Y0223928D02*
X0110151Y0224612D01*
X0110151Y0225296D01*
X0109467Y0225980D01*
X0108099Y0225980D01*
X0107415Y0225296D01*
X0111559Y0225980D02*
X0111559Y0223244D01*
X0112927Y0221877D01*
X0114295Y0223244D01*
X0114295Y0225980D01*
X0110855Y0215980D02*
X0112223Y0214612D01*
X0112223Y0211877D01*
X0112223Y0213928D02*
X0109487Y0213928D01*
X0109487Y0214612D02*
X0110855Y0215980D01*
X0109487Y0214612D02*
X0109487Y0211877D01*
X0109487Y0205980D02*
X0109487Y0201877D01*
X0112223Y0201877D01*
X0108079Y0202560D02*
X0107395Y0201877D01*
X0106027Y0201877D01*
X0105344Y0202560D01*
X0105344Y0205296D01*
X0106027Y0205980D01*
X0107395Y0205980D01*
X0108079Y0205296D01*
X0103936Y0205296D02*
X0103252Y0205980D01*
X0101884Y0205980D01*
X0101200Y0205296D01*
X0101200Y0204612D01*
X0101884Y0203928D01*
X0103252Y0203928D01*
X0103936Y0203244D01*
X0103936Y0202560D01*
X0103252Y0201877D01*
X0101884Y0201877D01*
X0101200Y0202560D01*
X0094108Y0055980D02*
X0092740Y0055980D01*
X0092056Y0055296D01*
X0092056Y0054612D01*
X0092740Y0053928D01*
X0094792Y0053928D01*
X0094792Y0052560D02*
X0094792Y0055296D01*
X0094108Y0055980D01*
X0094792Y0052560D02*
X0094108Y0051877D01*
X0092740Y0051877D01*
X0092056Y0052560D01*
X0090649Y0051877D02*
X0087913Y0051877D01*
X0089281Y0051877D02*
X0089281Y0055980D01*
X0087913Y0054612D01*
X0088597Y0045980D02*
X0087913Y0045296D01*
X0088597Y0045980D02*
X0089965Y0045980D01*
X0090649Y0045296D01*
X0090649Y0044612D01*
X0087913Y0041877D01*
X0090649Y0041877D01*
X0092056Y0042560D02*
X0092740Y0041877D01*
X0094108Y0041877D01*
X0094792Y0042560D01*
X0094792Y0043244D01*
X0094108Y0043928D01*
X0092056Y0043928D01*
X0092056Y0042560D01*
X0092056Y0043928D02*
X0093424Y0045296D01*
X0094792Y0045980D01*
X0101884Y0035980D02*
X0101200Y0035296D01*
X0101200Y0032560D01*
X0101884Y0031877D01*
X0103252Y0031877D01*
X0103936Y0032560D01*
X0103936Y0033928D01*
X0102568Y0033928D01*
X0103936Y0035296D02*
X0103252Y0035980D01*
X0101884Y0035980D01*
X0105344Y0035980D02*
X0105344Y0031877D01*
X0108079Y0031877D02*
X0105344Y0035980D01*
X0108079Y0035980D02*
X0108079Y0031877D01*
X0109487Y0031877D02*
X0109487Y0035980D01*
X0111539Y0035980D01*
X0112223Y0035296D01*
X0112223Y0032560D01*
X0111539Y0031877D01*
X0109487Y0031877D01*
D11*
X0003500Y0029177D02*
X0003500Y0039177D01*
X0036000Y0039177D01*
X0036000Y0029177D01*
X0023500Y0029177D01*
X0023500Y0229177D01*
X0003500Y0229177D01*
X0003500Y0219177D01*
X0036000Y0219177D01*
X0036000Y0209177D01*
X0003500Y0209177D01*
X0003500Y0219177D01*
X0003500Y0209177D02*
X0003500Y0199177D01*
X0036000Y0199177D01*
X0036000Y0189177D01*
X0003500Y0189177D01*
X0003500Y0199177D01*
X0003500Y0189177D02*
X0003500Y0179177D01*
X0036000Y0179177D01*
X0036000Y0169177D01*
X0003500Y0169177D01*
X0003500Y0179177D01*
X0003500Y0169177D02*
X0003500Y0159177D01*
X0036000Y0159177D01*
X0036000Y0149177D01*
X0003500Y0149177D01*
X0003500Y0159177D01*
X0003500Y0149177D02*
X0003500Y0139177D01*
X0036000Y0139177D01*
X0036000Y0129177D01*
X0003500Y0129177D01*
X0003500Y0139177D01*
X0003500Y0129177D02*
X0003500Y0119177D01*
X0036000Y0119177D01*
X0036000Y0109177D01*
X0003500Y0109177D01*
X0003500Y0119177D01*
X0003500Y0109177D02*
X0003500Y0099177D01*
X0036000Y0099177D01*
X0036000Y0089177D01*
X0003500Y0089177D01*
X0003500Y0099177D01*
X0003500Y0089177D02*
X0003500Y0079177D01*
X0036000Y0079177D01*
X0036000Y0069177D01*
X0003500Y0069177D01*
X0003500Y0079177D01*
X0003500Y0069177D02*
X0003500Y0059177D01*
X0036000Y0059177D01*
X0036000Y0049177D01*
X0003500Y0049177D01*
X0003500Y0059177D01*
X0003500Y0049177D02*
X0003500Y0039177D01*
X0003500Y0029177D02*
X0023500Y0029177D01*
X0036000Y0039177D02*
X0036000Y0049177D01*
X0036000Y0059177D02*
X0036000Y0069177D01*
X0036000Y0079177D02*
X0036000Y0089177D01*
X0036000Y0099177D02*
X0036000Y0109177D01*
X0036000Y0119177D02*
X0036000Y0129177D01*
X0036000Y0139177D02*
X0036000Y0149177D01*
X0036000Y0159177D02*
X0036000Y0169177D01*
X0036000Y0179177D02*
X0036000Y0189177D01*
X0036000Y0199177D02*
X0036000Y0209177D01*
X0036000Y0219177D02*
X0036000Y0229177D01*
X0023500Y0229177D01*
X0086000Y0229177D02*
X0086000Y0219177D01*
X0118500Y0219177D01*
X0118500Y0209177D01*
X0086000Y0209177D01*
X0086000Y0219177D01*
X0086000Y0229177D02*
X0098500Y0229177D01*
X0098500Y0029177D01*
X0086000Y0029177D01*
X0086000Y0039177D01*
X0118500Y0039177D01*
X0118500Y0029177D01*
X0098500Y0029177D01*
X0086000Y0039177D02*
X0086000Y0049177D01*
X0118500Y0049177D01*
X0118500Y0039177D01*
X0118500Y0049177D02*
X0118500Y0059177D01*
X0086000Y0059177D01*
X0086000Y0069177D01*
X0118500Y0069177D01*
X0118500Y0059177D01*
X0118500Y0069177D02*
X0118500Y0079177D01*
X0086000Y0079177D01*
X0086000Y0089177D01*
X0118500Y0089177D01*
X0118500Y0079177D01*
X0118500Y0089177D02*
X0118500Y0099177D01*
X0086000Y0099177D01*
X0086000Y0109177D01*
X0118500Y0109177D01*
X0118500Y0099177D01*
X0118500Y0109177D02*
X0118500Y0119177D01*
X0086000Y0119177D01*
X0086000Y0129177D01*
X0118500Y0129177D01*
X0118500Y0119177D01*
X0118500Y0129177D02*
X0118500Y0139177D01*
X0086000Y0139177D01*
X0086000Y0149177D01*
X0118500Y0149177D01*
X0118500Y0139177D01*
X0118500Y0149177D02*
X0118500Y0159177D01*
X0086000Y0159177D01*
X0086000Y0169177D01*
X0118500Y0169177D01*
X0118500Y0159177D01*
X0118500Y0169177D02*
X0118500Y0179177D01*
X0086000Y0179177D01*
X0086000Y0189177D01*
X0118500Y0189177D01*
X0118500Y0179177D01*
X0118500Y0189177D02*
X0118500Y0199177D01*
X0086000Y0199177D01*
X0086000Y0209177D01*
X0086000Y0199177D02*
X0086000Y0189177D01*
X0086000Y0179177D02*
X0086000Y0169177D01*
X0086000Y0159177D02*
X0086000Y0149177D01*
X0086000Y0139177D02*
X0086000Y0129177D01*
X0086000Y0119177D02*
X0086000Y0109177D01*
X0086000Y0099177D02*
X0086000Y0089177D01*
X0086000Y0079177D02*
X0086000Y0069177D01*
X0086000Y0059177D02*
X0086000Y0049177D01*
X0118500Y0199177D02*
X0118500Y0209177D01*
X0118500Y0219177D02*
X0118500Y0229177D01*
X0098500Y0229177D01*
D12*
X0094255Y0234199D02*
X0094255Y0236034D01*
X0093337Y0236951D01*
X0089667Y0236951D01*
X0088750Y0236034D01*
X0088750Y0234199D01*
X0089667Y0233281D01*
X0093337Y0233281D01*
X0094255Y0234199D01*
X0094255Y0238799D02*
X0094255Y0240634D01*
X0094255Y0239717D02*
X0088750Y0239717D01*
X0088750Y0240634D02*
X0088750Y0238799D01*
X0091502Y0242489D02*
X0090585Y0243407D01*
X0090585Y0246159D01*
X0091502Y0248014D02*
X0091502Y0249849D01*
X0091502Y0248014D02*
X0089667Y0248014D01*
X0088750Y0248931D01*
X0088750Y0250766D01*
X0089667Y0251684D01*
X0093337Y0251684D01*
X0094255Y0250766D01*
X0094255Y0248931D01*
X0093337Y0248014D01*
X0094255Y0246159D02*
X0094255Y0243407D01*
X0093337Y0242489D01*
X0091502Y0242489D01*
X0088750Y0246159D02*
X0094255Y0246159D01*
X0106250Y0244331D02*
X0109920Y0244331D01*
X0111755Y0246166D01*
X0109920Y0248001D01*
X0106250Y0248001D01*
X0109002Y0248001D02*
X0109002Y0244331D01*
X0106250Y0242476D02*
X0106250Y0238806D01*
X0106250Y0242476D02*
X0111755Y0242476D01*
X0111755Y0236951D02*
X0111755Y0233281D01*
X0111755Y0235116D02*
X0106250Y0235116D01*
X0031755Y0234199D02*
X0030837Y0233281D01*
X0027167Y0233281D01*
X0026250Y0234199D01*
X0026250Y0236034D01*
X0027167Y0236951D01*
X0030837Y0236951D01*
X0031755Y0236034D01*
X0031755Y0234199D01*
X0031755Y0238799D02*
X0031755Y0240634D01*
X0031755Y0239717D02*
X0026250Y0239717D01*
X0026250Y0240634D02*
X0026250Y0238799D01*
X0029002Y0242489D02*
X0028085Y0243407D01*
X0028085Y0246159D01*
X0029002Y0248014D02*
X0029002Y0249849D01*
X0029002Y0248014D02*
X0027167Y0248014D01*
X0026250Y0248931D01*
X0026250Y0250766D01*
X0027167Y0251684D01*
X0030837Y0251684D01*
X0031755Y0250766D01*
X0031755Y0248931D01*
X0030837Y0248014D01*
X0031755Y0246159D02*
X0031755Y0243407D01*
X0030837Y0242489D01*
X0029002Y0242489D01*
X0026250Y0246159D02*
X0031755Y0246159D01*
X0014255Y0246166D02*
X0012420Y0244331D01*
X0008750Y0244331D01*
X0008750Y0242476D02*
X0008750Y0238806D01*
X0008750Y0242476D02*
X0014255Y0242476D01*
X0011502Y0244331D02*
X0011502Y0248001D01*
X0012420Y0248001D02*
X0014255Y0246166D01*
X0012420Y0248001D02*
X0008750Y0248001D01*
X0014255Y0236951D02*
X0014255Y0233281D01*
X0014255Y0235116D02*
X0008750Y0235116D01*
D13*
X0018500Y0013783D03*
M02*
