G75*
%MOIN*%
%OFA0B0*%
%FSLAX25Y25*%
%IPPOS*%
%LPD*%
%AMOC8*
5,1,8,0,0,1.08239X$1,22.5*
%
%ADD10C,0.13450*%
%ADD11OC8,0.06600*%
D10*
X0061000Y0015027D03*
X0061000Y0243327D03*
D11*
X0043500Y0034177D03*
X0043500Y0044177D03*
X0043500Y0054177D03*
X0043500Y0064177D03*
X0043500Y0074177D03*
X0043500Y0084177D03*
X0043500Y0094177D03*
X0043500Y0104177D03*
X0043500Y0114177D03*
X0043500Y0124177D03*
X0043500Y0134177D03*
X0043500Y0144177D03*
X0043500Y0154177D03*
X0043500Y0164177D03*
X0043500Y0174177D03*
X0043500Y0184177D03*
X0043500Y0194177D03*
X0043500Y0204177D03*
X0043500Y0214177D03*
X0043500Y0224177D03*
X0056000Y0224177D03*
X0056000Y0214177D03*
X0056000Y0204177D03*
X0056000Y0194177D03*
X0056000Y0184177D03*
X0056000Y0174177D03*
X0056000Y0164177D03*
X0056000Y0154177D03*
X0056000Y0144177D03*
X0056000Y0134177D03*
X0056000Y0124177D03*
X0056000Y0114177D03*
X0056000Y0104177D03*
X0056000Y0094177D03*
X0056000Y0084177D03*
X0056000Y0074177D03*
X0056000Y0064177D03*
X0056000Y0054177D03*
X0056000Y0044177D03*
X0056000Y0034177D03*
X0066000Y0034177D03*
X0066000Y0044177D03*
X0066000Y0054177D03*
X0066000Y0064177D03*
X0066000Y0074177D03*
X0066000Y0084177D03*
X0066000Y0094177D03*
X0066000Y0104177D03*
X0066000Y0114177D03*
X0066000Y0124177D03*
X0066000Y0134177D03*
X0066000Y0144177D03*
X0066000Y0154177D03*
X0066000Y0164177D03*
X0066000Y0174177D03*
X0066000Y0184177D03*
X0066000Y0194177D03*
X0066000Y0204177D03*
X0066000Y0214177D03*
X0066000Y0224177D03*
X0078500Y0224177D03*
X0078500Y0214177D03*
X0078500Y0204177D03*
X0078500Y0194177D03*
X0078500Y0184177D03*
X0078500Y0174177D03*
X0078500Y0164177D03*
X0078500Y0154177D03*
X0078500Y0144177D03*
X0078500Y0134177D03*
X0078500Y0124177D03*
X0078500Y0114177D03*
X0078500Y0104177D03*
X0078500Y0094177D03*
X0078500Y0084177D03*
X0078500Y0074177D03*
X0078500Y0064177D03*
X0078500Y0054177D03*
X0078500Y0044177D03*
X0078500Y0034177D03*
M02*
