%
M48
M72
T01C0.0400
T02C0.1285
%
T01
X4350Y3418
X4350Y4418
X4350Y5418
X4350Y6418
X4350Y7418
X4350Y8418
X4350Y9418
X4350Y10418
X4350Y11418
X4350Y12418
X4350Y13418
X4350Y14418
X4350Y15418
X4350Y16418
X4350Y17418
X4350Y18418
X4350Y19418
X4350Y20418
X4350Y21418
X4350Y22418
X5600Y22418
X5600Y21418
X5600Y20418
X5600Y19418
X5600Y18418
X5600Y17418
X5600Y16418
X5600Y15418
X5600Y14418
X5600Y13418
X5600Y12418
X5600Y11418
X5600Y10418
X5600Y9418
X5600Y8418
X5600Y7418
X5600Y6418
X5600Y5418
X5600Y4418
X5600Y3418
X6600Y3418
X6600Y4418
X6600Y5418
X6600Y6418
X6600Y7418
X6600Y8418
X6600Y9418
X6600Y10418
X6600Y11418
X6600Y12418
X6600Y13418
X6600Y14418
X6600Y15418
X6600Y16418
X6600Y17418
X6600Y18418
X6600Y19418
X6600Y20418
X6600Y21418
X6600Y22418
X7850Y22418
X7850Y21418
X7850Y20418
X7850Y19418
X7850Y18418
X7850Y17418
X7850Y16418
X7850Y15418
X7850Y14418
X7850Y13418
X7850Y12418
X7850Y11418
X7850Y10418
X7850Y9418
X7850Y8418
X7850Y7418
X7850Y6418
X7850Y5418
X7850Y4418
X7850Y3418
T02
X6100Y1503
X6100Y24333
M30
