G75*
%MOIN*%
%OFA0B0*%
%FSLAX25Y25*%
%IPPOS*%
%LPD*%
%AMOC8*
5,1,8,0,0,1.08239X$1,22.5*
%
%ADD10C,0.00600*%
D10*
X0017185Y0078576D02*
X0019320Y0078576D01*
X0021455Y0080711D01*
X0018253Y0082873D02*
X0019320Y0083940D01*
X0019320Y0087143D01*
X0018253Y0082873D02*
X0016118Y0082873D01*
X0015050Y0083940D01*
X0015050Y0087143D01*
X0015050Y0089318D02*
X0017185Y0091454D01*
X0019320Y0091454D01*
X0021455Y0089318D01*
X0015050Y0080711D02*
X0017185Y0078576D01*
X0015050Y0100061D02*
X0019320Y0104331D01*
X0020388Y0104331D01*
X0021455Y0103264D01*
X0021455Y0101128D01*
X0020388Y0100061D01*
X0020388Y0106506D02*
X0016118Y0106506D01*
X0020388Y0110777D01*
X0016118Y0110777D01*
X0015050Y0109709D01*
X0015050Y0107574D01*
X0016118Y0106506D01*
X0015050Y0104331D02*
X0015050Y0100061D01*
X0020388Y0106506D02*
X0021455Y0107574D01*
X0021455Y0109709D01*
X0020388Y0110777D01*
X0019320Y0112952D02*
X0021455Y0115087D01*
X0015050Y0115087D01*
X0015050Y0112952D02*
X0015050Y0117222D01*
X0016118Y0119397D02*
X0015050Y0120465D01*
X0015050Y0122600D01*
X0016118Y0123668D01*
X0017185Y0123668D01*
X0018253Y0122600D01*
X0018253Y0119397D01*
X0016118Y0119397D01*
X0018253Y0119397D02*
X0020388Y0121533D01*
X0021455Y0123668D01*
X0025550Y0126917D02*
X0031955Y0126917D01*
X0031955Y0130120D01*
X0030888Y0131188D01*
X0028753Y0131188D01*
X0027685Y0130120D01*
X0027685Y0126917D01*
X0027685Y0129052D02*
X0025550Y0131188D01*
X0026618Y0133363D02*
X0025550Y0134430D01*
X0025550Y0136565D01*
X0026618Y0133363D02*
X0028753Y0133363D01*
X0029820Y0134430D01*
X0029820Y0136565D01*
X0028753Y0137633D01*
X0027685Y0137633D01*
X0027685Y0133363D01*
X0029820Y0139808D02*
X0025550Y0141943D01*
X0029820Y0144079D01*
X0028753Y0146254D02*
X0028753Y0150524D01*
X0026618Y0152699D02*
X0030888Y0152699D01*
X0031955Y0153767D01*
X0031955Y0155902D01*
X0030888Y0156970D01*
X0026618Y0152699D01*
X0025550Y0153767D01*
X0025550Y0155902D01*
X0026618Y0156970D01*
X0030888Y0156970D01*
X0029820Y0159145D02*
X0031955Y0161280D01*
X0025550Y0161280D01*
X0025550Y0159145D02*
X0025550Y0163415D01*
X0026618Y0165590D02*
X0025550Y0166658D01*
X0025550Y0169861D01*
X0028753Y0169861D01*
X0029820Y0168793D01*
X0029820Y0166658D01*
X0027685Y0166658D02*
X0027685Y0169861D01*
X0027685Y0166658D02*
X0026618Y0165590D01*
X0020388Y0170961D02*
X0021455Y0172029D01*
X0021455Y0174164D01*
X0020388Y0175232D01*
X0018253Y0172029D02*
X0019320Y0170961D01*
X0020388Y0170961D01*
X0018253Y0172029D02*
X0018253Y0174164D01*
X0017185Y0175232D01*
X0016118Y0175232D01*
X0015050Y0174164D01*
X0015050Y0172029D01*
X0016118Y0170961D01*
X0016118Y0177407D02*
X0018253Y0177407D01*
X0019320Y0178474D01*
X0019320Y0180610D01*
X0018253Y0181677D01*
X0017185Y0181677D01*
X0017185Y0177407D01*
X0016118Y0177407D02*
X0015050Y0178474D01*
X0015050Y0180610D01*
X0016118Y0184920D02*
X0015050Y0185987D01*
X0016118Y0184920D02*
X0020388Y0184920D01*
X0019320Y0185987D02*
X0019320Y0183852D01*
X0019320Y0194595D02*
X0018253Y0195662D01*
X0018253Y0197798D01*
X0017185Y0198865D01*
X0016118Y0198865D01*
X0015050Y0197798D01*
X0015050Y0195662D01*
X0016118Y0194595D01*
X0019320Y0194595D02*
X0020388Y0194595D01*
X0021455Y0195662D01*
X0021455Y0197798D01*
X0020388Y0198865D01*
X0021455Y0201040D02*
X0021455Y0205311D01*
X0021455Y0203175D02*
X0015050Y0203175D01*
X0015050Y0207486D02*
X0015050Y0211756D01*
X0015050Y0213931D02*
X0021455Y0213931D01*
X0019320Y0216066D01*
X0021455Y0218202D01*
X0015050Y0218202D01*
X0018253Y0209621D02*
X0018253Y0207486D01*
X0021455Y0207486D02*
X0015050Y0207486D01*
X0021455Y0207486D02*
X0021455Y0211756D01*
X0019320Y0162341D02*
X0013982Y0162341D01*
X0012915Y0161273D01*
X0012915Y0160206D01*
X0015050Y0159138D02*
X0015050Y0162341D01*
X0015050Y0159138D02*
X0016118Y0158070D01*
X0019320Y0158070D01*
X0019320Y0155895D02*
X0019320Y0152692D01*
X0018253Y0151625D01*
X0016118Y0151625D01*
X0015050Y0152692D01*
X0015050Y0155895D01*
X0021455Y0155895D01*
X0018253Y0149450D02*
X0015050Y0149450D01*
X0015050Y0146247D01*
X0016118Y0145179D01*
X0017185Y0146247D01*
X0017185Y0149450D01*
X0018253Y0149450D02*
X0019320Y0148382D01*
X0019320Y0146247D01*
X0018253Y0143004D02*
X0017185Y0143004D01*
X0017185Y0138734D01*
X0016118Y0138734D02*
X0018253Y0138734D01*
X0019320Y0139801D01*
X0019320Y0141937D01*
X0018253Y0143004D01*
X0015050Y0141937D02*
X0015050Y0139801D01*
X0016118Y0138734D01*
X0015050Y0136559D02*
X0017185Y0134424D01*
X0017185Y0135491D02*
X0017185Y0132288D01*
X0017185Y0135491D02*
X0018253Y0136559D01*
X0020388Y0136559D01*
X0021455Y0135491D01*
X0021455Y0132288D01*
X0015050Y0132288D01*
M02*
