G75*
%MOIN*%
%OFA0B0*%
%FSLAX25Y25*%
%IPPOS*%
%LPD*%
%AMOC8*
5,1,8,0,0,1.08239X$1,22.5*
%
%ADD10OC8,0.06000*%
%ADD11R,0.04724X0.04724*%
%ADD12R,0.05906X0.05118*%
%ADD13C,0.01600*%
D10*
X0043500Y0034177D03*
X0043500Y0044177D03*
X0043500Y0054177D03*
X0043500Y0064177D03*
X0043500Y0074177D03*
X0043500Y0084177D03*
X0043500Y0094177D03*
X0043500Y0104177D03*
X0043500Y0114177D03*
X0043500Y0124177D03*
X0043500Y0134177D03*
X0043500Y0144177D03*
X0043500Y0154177D03*
X0043500Y0164177D03*
X0043500Y0174177D03*
X0043500Y0184177D03*
X0043500Y0194177D03*
X0043500Y0204177D03*
X0043500Y0214177D03*
X0043500Y0224177D03*
X0056000Y0224177D03*
X0056000Y0214177D03*
X0056000Y0204177D03*
X0056000Y0194177D03*
X0056000Y0184177D03*
X0056000Y0174177D03*
X0056000Y0164177D03*
X0056000Y0154177D03*
X0056000Y0144177D03*
X0056000Y0134177D03*
X0056000Y0124177D03*
X0056000Y0114177D03*
X0056000Y0104177D03*
X0056000Y0094177D03*
X0056000Y0084177D03*
X0056000Y0074177D03*
X0056000Y0064177D03*
X0056000Y0054177D03*
X0056000Y0044177D03*
X0056000Y0034177D03*
X0066000Y0034177D03*
X0066000Y0044177D03*
X0066000Y0054177D03*
X0066000Y0064177D03*
X0066000Y0074177D03*
X0066000Y0084177D03*
X0066000Y0094177D03*
X0066000Y0104177D03*
X0066000Y0114177D03*
X0066000Y0124177D03*
X0066000Y0134177D03*
X0066000Y0144177D03*
X0066000Y0154177D03*
X0066000Y0164177D03*
X0066000Y0174177D03*
X0066000Y0184177D03*
X0066000Y0194177D03*
X0066000Y0204177D03*
X0066000Y0214177D03*
X0066000Y0224177D03*
X0078500Y0224177D03*
X0078500Y0214177D03*
X0078500Y0204177D03*
X0078500Y0194177D03*
X0078500Y0184177D03*
X0078500Y0174177D03*
X0078500Y0164177D03*
X0078500Y0154177D03*
X0078500Y0144177D03*
X0078500Y0134177D03*
X0078500Y0124177D03*
X0078500Y0114177D03*
X0078500Y0104177D03*
X0078500Y0094177D03*
X0078500Y0084177D03*
X0078500Y0074177D03*
X0078500Y0064177D03*
X0078500Y0054177D03*
X0078500Y0044177D03*
X0078500Y0034177D03*
D11*
X0018500Y0010043D03*
X0018500Y0018310D03*
D12*
X0038500Y0017917D03*
X0038500Y0010436D03*
D13*
X0038400Y0010477D01*
X0018600Y0010477D01*
X0018500Y0010043D01*
X0018500Y0018310D02*
X0018600Y0019277D01*
X0018500Y0024177D01*
X0023500Y0029177D01*
X0023600Y0204677D01*
X0042800Y0223877D01*
X0043500Y0224177D01*
X0043900Y0223877D01*
X0056000Y0223877D01*
X0056000Y0224177D01*
X0056000Y0214177D02*
X0056000Y0213977D01*
X0043900Y0213977D01*
X0043500Y0214177D01*
X0043500Y0204177D02*
X0043900Y0204077D01*
X0056000Y0204077D01*
X0056000Y0204177D01*
X0056000Y0194177D02*
X0043500Y0194177D01*
X0043900Y0184277D02*
X0043500Y0184177D01*
X0043900Y0184277D02*
X0056000Y0184277D01*
X0056000Y0184177D01*
X0056000Y0174377D02*
X0056000Y0174177D01*
X0056000Y0174377D02*
X0043900Y0174377D01*
X0043500Y0174177D01*
X0043900Y0164477D02*
X0043500Y0164177D01*
X0043900Y0164477D02*
X0056000Y0164477D01*
X0056000Y0164177D01*
X0056000Y0154577D02*
X0056000Y0154177D01*
X0056000Y0154577D02*
X0043900Y0154577D01*
X0043500Y0154177D01*
X0043900Y0144677D02*
X0043500Y0144177D01*
X0043900Y0144677D02*
X0056000Y0144677D01*
X0056000Y0144177D01*
X0056000Y0134177D02*
X0056000Y0133677D01*
X0043900Y0133677D01*
X0043500Y0134177D01*
X0043500Y0124177D02*
X0043900Y0123777D01*
X0056000Y0123777D01*
X0056000Y0124177D01*
X0056000Y0114177D02*
X0056000Y0113877D01*
X0043900Y0113877D01*
X0043500Y0114177D01*
X0043500Y0104177D02*
X0043900Y0103977D01*
X0056000Y0103977D01*
X0056000Y0104177D01*
X0056000Y0094177D02*
X0056000Y0094077D01*
X0043900Y0094077D01*
X0043500Y0094177D01*
X0043500Y0084177D02*
X0056000Y0084177D01*
X0056000Y0074277D02*
X0056000Y0074177D01*
X0056000Y0074277D02*
X0043900Y0074277D01*
X0043500Y0074177D01*
X0043900Y0064377D02*
X0043500Y0064177D01*
X0042800Y0063277D01*
X0038400Y0058877D01*
X0038400Y0018177D01*
X0038500Y0017917D01*
X0043500Y0034177D02*
X0043900Y0034677D01*
X0056000Y0034677D01*
X0056000Y0034177D01*
X0056000Y0044177D02*
X0056000Y0044577D01*
X0043900Y0044577D01*
X0043500Y0044177D01*
X0043500Y0054177D02*
X0043900Y0054477D01*
X0056000Y0054477D01*
X0056000Y0054177D01*
X0056000Y0064177D02*
X0056000Y0064377D01*
X0043900Y0064377D01*
X0066000Y0064177D02*
X0067000Y0064377D01*
X0078000Y0064377D01*
X0078500Y0064177D01*
X0078000Y0054477D02*
X0078500Y0054177D01*
X0078000Y0054477D02*
X0067000Y0054477D01*
X0066000Y0054177D01*
X0067000Y0044577D02*
X0066000Y0044177D01*
X0067000Y0044577D02*
X0078000Y0044577D01*
X0078500Y0044177D01*
X0078000Y0034677D02*
X0078500Y0034177D01*
X0078000Y0034677D02*
X0067000Y0034677D01*
X0066000Y0034177D01*
X0066000Y0074177D02*
X0067000Y0074277D01*
X0078000Y0074277D01*
X0078500Y0074177D01*
X0078500Y0084177D02*
X0066000Y0084177D01*
X0067000Y0094077D02*
X0066000Y0094177D01*
X0067000Y0094077D02*
X0078000Y0094077D01*
X0078500Y0094177D01*
X0078000Y0103977D02*
X0078500Y0104177D01*
X0078000Y0103977D02*
X0067000Y0103977D01*
X0066000Y0104177D01*
X0067000Y0113877D02*
X0066000Y0114177D01*
X0067000Y0113877D02*
X0078000Y0113877D01*
X0078500Y0114177D01*
X0078000Y0123777D02*
X0078500Y0124177D01*
X0078000Y0123777D02*
X0067000Y0123777D01*
X0066000Y0124177D01*
X0067000Y0133677D02*
X0066000Y0134177D01*
X0067000Y0133677D02*
X0078000Y0133677D01*
X0078500Y0134177D01*
X0078500Y0144177D02*
X0078000Y0144677D01*
X0067000Y0144677D01*
X0066000Y0144177D01*
X0066000Y0154177D02*
X0067000Y0154577D01*
X0078000Y0154577D01*
X0078500Y0154177D01*
X0078500Y0164177D02*
X0078000Y0164477D01*
X0067000Y0164477D01*
X0066000Y0164177D01*
X0066000Y0174177D02*
X0067000Y0174377D01*
X0078000Y0174377D01*
X0078500Y0174177D01*
X0078500Y0184177D02*
X0078000Y0184277D01*
X0067000Y0184277D01*
X0066000Y0184177D01*
X0066000Y0194177D02*
X0078500Y0194177D01*
X0078000Y0204077D02*
X0078500Y0204177D01*
X0078000Y0204077D02*
X0067000Y0204077D01*
X0066000Y0204177D01*
X0067000Y0213977D02*
X0066000Y0214177D01*
X0067000Y0213977D02*
X0078000Y0213977D01*
X0078500Y0214177D01*
X0078000Y0223877D02*
X0078500Y0224177D01*
X0078000Y0223877D02*
X0067000Y0223877D01*
X0066000Y0224177D01*
M02*
