G75*
%MOIN*%
%OFA0B0*%
%FSLAX25Y25*%
%IPPOS*%
%LPD*%
%AMOC8*
5,1,8,0,0,1.08239X$1,22.5*
%
%ADD10C,0.00000*%
D10*
X0001000Y0001000D02*
X0001000Y0270961D01*
X0001000Y0271000D02*
X0123500Y0271000D01*
X0123500Y0270961D02*
X0123500Y0001000D01*
X0001000Y0001000D01*
X0047075Y0016000D02*
X0047077Y0016160D01*
X0047083Y0016320D01*
X0047093Y0016480D01*
X0047107Y0016640D01*
X0047125Y0016799D01*
X0047147Y0016958D01*
X0047173Y0017116D01*
X0047202Y0017273D01*
X0047236Y0017430D01*
X0047274Y0017585D01*
X0047315Y0017740D01*
X0047360Y0017894D01*
X0047410Y0018046D01*
X0047462Y0018197D01*
X0047519Y0018347D01*
X0047580Y0018496D01*
X0047644Y0018643D01*
X0047711Y0018788D01*
X0047783Y0018931D01*
X0047857Y0019073D01*
X0047936Y0019213D01*
X0048018Y0019350D01*
X0048103Y0019486D01*
X0048191Y0019619D01*
X0048283Y0019751D01*
X0048378Y0019879D01*
X0048477Y0020006D01*
X0048578Y0020130D01*
X0048683Y0020251D01*
X0048790Y0020370D01*
X0048901Y0020486D01*
X0049014Y0020599D01*
X0049130Y0020710D01*
X0049249Y0020817D01*
X0049370Y0020922D01*
X0049494Y0021023D01*
X0049621Y0021122D01*
X0049749Y0021217D01*
X0049881Y0021309D01*
X0050014Y0021397D01*
X0050150Y0021482D01*
X0050288Y0021564D01*
X0050427Y0021643D01*
X0050569Y0021717D01*
X0050712Y0021789D01*
X0050857Y0021856D01*
X0051004Y0021920D01*
X0051153Y0021981D01*
X0051303Y0022038D01*
X0051454Y0022090D01*
X0051606Y0022140D01*
X0051760Y0022185D01*
X0051915Y0022226D01*
X0052070Y0022264D01*
X0052227Y0022298D01*
X0052384Y0022327D01*
X0052542Y0022353D01*
X0052701Y0022375D01*
X0052860Y0022393D01*
X0053020Y0022407D01*
X0053180Y0022417D01*
X0053340Y0022423D01*
X0053500Y0022425D01*
X0053660Y0022423D01*
X0053820Y0022417D01*
X0053980Y0022407D01*
X0054140Y0022393D01*
X0054299Y0022375D01*
X0054458Y0022353D01*
X0054616Y0022327D01*
X0054773Y0022298D01*
X0054930Y0022264D01*
X0055085Y0022226D01*
X0055240Y0022185D01*
X0055394Y0022140D01*
X0055546Y0022090D01*
X0055697Y0022038D01*
X0055847Y0021981D01*
X0055996Y0021920D01*
X0056143Y0021856D01*
X0056288Y0021789D01*
X0056431Y0021717D01*
X0056573Y0021643D01*
X0056713Y0021564D01*
X0056850Y0021482D01*
X0056986Y0021397D01*
X0057119Y0021309D01*
X0057251Y0021217D01*
X0057379Y0021122D01*
X0057506Y0021023D01*
X0057630Y0020922D01*
X0057751Y0020817D01*
X0057870Y0020710D01*
X0057986Y0020599D01*
X0058099Y0020486D01*
X0058210Y0020370D01*
X0058317Y0020251D01*
X0058422Y0020130D01*
X0058523Y0020006D01*
X0058622Y0019879D01*
X0058717Y0019751D01*
X0058809Y0019619D01*
X0058897Y0019486D01*
X0058982Y0019350D01*
X0059064Y0019212D01*
X0059143Y0019073D01*
X0059217Y0018931D01*
X0059289Y0018788D01*
X0059356Y0018643D01*
X0059420Y0018496D01*
X0059481Y0018347D01*
X0059538Y0018197D01*
X0059590Y0018046D01*
X0059640Y0017894D01*
X0059685Y0017740D01*
X0059726Y0017585D01*
X0059764Y0017430D01*
X0059798Y0017273D01*
X0059827Y0017116D01*
X0059853Y0016958D01*
X0059875Y0016799D01*
X0059893Y0016640D01*
X0059907Y0016480D01*
X0059917Y0016320D01*
X0059923Y0016160D01*
X0059925Y0016000D01*
X0059923Y0015840D01*
X0059917Y0015680D01*
X0059907Y0015520D01*
X0059893Y0015360D01*
X0059875Y0015201D01*
X0059853Y0015042D01*
X0059827Y0014884D01*
X0059798Y0014727D01*
X0059764Y0014570D01*
X0059726Y0014415D01*
X0059685Y0014260D01*
X0059640Y0014106D01*
X0059590Y0013954D01*
X0059538Y0013803D01*
X0059481Y0013653D01*
X0059420Y0013504D01*
X0059356Y0013357D01*
X0059289Y0013212D01*
X0059217Y0013069D01*
X0059143Y0012927D01*
X0059064Y0012787D01*
X0058982Y0012650D01*
X0058897Y0012514D01*
X0058809Y0012381D01*
X0058717Y0012249D01*
X0058622Y0012121D01*
X0058523Y0011994D01*
X0058422Y0011870D01*
X0058317Y0011749D01*
X0058210Y0011630D01*
X0058099Y0011514D01*
X0057986Y0011401D01*
X0057870Y0011290D01*
X0057751Y0011183D01*
X0057630Y0011078D01*
X0057506Y0010977D01*
X0057379Y0010878D01*
X0057251Y0010783D01*
X0057119Y0010691D01*
X0056986Y0010603D01*
X0056850Y0010518D01*
X0056712Y0010436D01*
X0056573Y0010357D01*
X0056431Y0010283D01*
X0056288Y0010211D01*
X0056143Y0010144D01*
X0055996Y0010080D01*
X0055847Y0010019D01*
X0055697Y0009962D01*
X0055546Y0009910D01*
X0055394Y0009860D01*
X0055240Y0009815D01*
X0055085Y0009774D01*
X0054930Y0009736D01*
X0054773Y0009702D01*
X0054616Y0009673D01*
X0054458Y0009647D01*
X0054299Y0009625D01*
X0054140Y0009607D01*
X0053980Y0009593D01*
X0053820Y0009583D01*
X0053660Y0009577D01*
X0053500Y0009575D01*
X0053340Y0009577D01*
X0053180Y0009583D01*
X0053020Y0009593D01*
X0052860Y0009607D01*
X0052701Y0009625D01*
X0052542Y0009647D01*
X0052384Y0009673D01*
X0052227Y0009702D01*
X0052070Y0009736D01*
X0051915Y0009774D01*
X0051760Y0009815D01*
X0051606Y0009860D01*
X0051454Y0009910D01*
X0051303Y0009962D01*
X0051153Y0010019D01*
X0051004Y0010080D01*
X0050857Y0010144D01*
X0050712Y0010211D01*
X0050569Y0010283D01*
X0050427Y0010357D01*
X0050287Y0010436D01*
X0050150Y0010518D01*
X0050014Y0010603D01*
X0049881Y0010691D01*
X0049749Y0010783D01*
X0049621Y0010878D01*
X0049494Y0010977D01*
X0049370Y0011078D01*
X0049249Y0011183D01*
X0049130Y0011290D01*
X0049014Y0011401D01*
X0048901Y0011514D01*
X0048790Y0011630D01*
X0048683Y0011749D01*
X0048578Y0011870D01*
X0048477Y0011994D01*
X0048378Y0012121D01*
X0048283Y0012249D01*
X0048191Y0012381D01*
X0048103Y0012514D01*
X0048018Y0012650D01*
X0047936Y0012788D01*
X0047857Y0012927D01*
X0047783Y0013069D01*
X0047711Y0013212D01*
X0047644Y0013357D01*
X0047580Y0013504D01*
X0047519Y0013653D01*
X0047462Y0013803D01*
X0047410Y0013954D01*
X0047360Y0014106D01*
X0047315Y0014260D01*
X0047274Y0014415D01*
X0047236Y0014570D01*
X0047202Y0014727D01*
X0047173Y0014884D01*
X0047147Y0015042D01*
X0047125Y0015201D01*
X0047107Y0015360D01*
X0047093Y0015520D01*
X0047083Y0015680D01*
X0047077Y0015840D01*
X0047075Y0016000D01*
X0099575Y0016000D02*
X0099577Y0016160D01*
X0099583Y0016320D01*
X0099593Y0016480D01*
X0099607Y0016640D01*
X0099625Y0016799D01*
X0099647Y0016958D01*
X0099673Y0017116D01*
X0099702Y0017273D01*
X0099736Y0017430D01*
X0099774Y0017585D01*
X0099815Y0017740D01*
X0099860Y0017894D01*
X0099910Y0018046D01*
X0099962Y0018197D01*
X0100019Y0018347D01*
X0100080Y0018496D01*
X0100144Y0018643D01*
X0100211Y0018788D01*
X0100283Y0018931D01*
X0100357Y0019073D01*
X0100436Y0019213D01*
X0100518Y0019350D01*
X0100603Y0019486D01*
X0100691Y0019619D01*
X0100783Y0019751D01*
X0100878Y0019879D01*
X0100977Y0020006D01*
X0101078Y0020130D01*
X0101183Y0020251D01*
X0101290Y0020370D01*
X0101401Y0020486D01*
X0101514Y0020599D01*
X0101630Y0020710D01*
X0101749Y0020817D01*
X0101870Y0020922D01*
X0101994Y0021023D01*
X0102121Y0021122D01*
X0102249Y0021217D01*
X0102381Y0021309D01*
X0102514Y0021397D01*
X0102650Y0021482D01*
X0102788Y0021564D01*
X0102927Y0021643D01*
X0103069Y0021717D01*
X0103212Y0021789D01*
X0103357Y0021856D01*
X0103504Y0021920D01*
X0103653Y0021981D01*
X0103803Y0022038D01*
X0103954Y0022090D01*
X0104106Y0022140D01*
X0104260Y0022185D01*
X0104415Y0022226D01*
X0104570Y0022264D01*
X0104727Y0022298D01*
X0104884Y0022327D01*
X0105042Y0022353D01*
X0105201Y0022375D01*
X0105360Y0022393D01*
X0105520Y0022407D01*
X0105680Y0022417D01*
X0105840Y0022423D01*
X0106000Y0022425D01*
X0106160Y0022423D01*
X0106320Y0022417D01*
X0106480Y0022407D01*
X0106640Y0022393D01*
X0106799Y0022375D01*
X0106958Y0022353D01*
X0107116Y0022327D01*
X0107273Y0022298D01*
X0107430Y0022264D01*
X0107585Y0022226D01*
X0107740Y0022185D01*
X0107894Y0022140D01*
X0108046Y0022090D01*
X0108197Y0022038D01*
X0108347Y0021981D01*
X0108496Y0021920D01*
X0108643Y0021856D01*
X0108788Y0021789D01*
X0108931Y0021717D01*
X0109073Y0021643D01*
X0109213Y0021564D01*
X0109350Y0021482D01*
X0109486Y0021397D01*
X0109619Y0021309D01*
X0109751Y0021217D01*
X0109879Y0021122D01*
X0110006Y0021023D01*
X0110130Y0020922D01*
X0110251Y0020817D01*
X0110370Y0020710D01*
X0110486Y0020599D01*
X0110599Y0020486D01*
X0110710Y0020370D01*
X0110817Y0020251D01*
X0110922Y0020130D01*
X0111023Y0020006D01*
X0111122Y0019879D01*
X0111217Y0019751D01*
X0111309Y0019619D01*
X0111397Y0019486D01*
X0111482Y0019350D01*
X0111564Y0019212D01*
X0111643Y0019073D01*
X0111717Y0018931D01*
X0111789Y0018788D01*
X0111856Y0018643D01*
X0111920Y0018496D01*
X0111981Y0018347D01*
X0112038Y0018197D01*
X0112090Y0018046D01*
X0112140Y0017894D01*
X0112185Y0017740D01*
X0112226Y0017585D01*
X0112264Y0017430D01*
X0112298Y0017273D01*
X0112327Y0017116D01*
X0112353Y0016958D01*
X0112375Y0016799D01*
X0112393Y0016640D01*
X0112407Y0016480D01*
X0112417Y0016320D01*
X0112423Y0016160D01*
X0112425Y0016000D01*
X0112423Y0015840D01*
X0112417Y0015680D01*
X0112407Y0015520D01*
X0112393Y0015360D01*
X0112375Y0015201D01*
X0112353Y0015042D01*
X0112327Y0014884D01*
X0112298Y0014727D01*
X0112264Y0014570D01*
X0112226Y0014415D01*
X0112185Y0014260D01*
X0112140Y0014106D01*
X0112090Y0013954D01*
X0112038Y0013803D01*
X0111981Y0013653D01*
X0111920Y0013504D01*
X0111856Y0013357D01*
X0111789Y0013212D01*
X0111717Y0013069D01*
X0111643Y0012927D01*
X0111564Y0012787D01*
X0111482Y0012650D01*
X0111397Y0012514D01*
X0111309Y0012381D01*
X0111217Y0012249D01*
X0111122Y0012121D01*
X0111023Y0011994D01*
X0110922Y0011870D01*
X0110817Y0011749D01*
X0110710Y0011630D01*
X0110599Y0011514D01*
X0110486Y0011401D01*
X0110370Y0011290D01*
X0110251Y0011183D01*
X0110130Y0011078D01*
X0110006Y0010977D01*
X0109879Y0010878D01*
X0109751Y0010783D01*
X0109619Y0010691D01*
X0109486Y0010603D01*
X0109350Y0010518D01*
X0109212Y0010436D01*
X0109073Y0010357D01*
X0108931Y0010283D01*
X0108788Y0010211D01*
X0108643Y0010144D01*
X0108496Y0010080D01*
X0108347Y0010019D01*
X0108197Y0009962D01*
X0108046Y0009910D01*
X0107894Y0009860D01*
X0107740Y0009815D01*
X0107585Y0009774D01*
X0107430Y0009736D01*
X0107273Y0009702D01*
X0107116Y0009673D01*
X0106958Y0009647D01*
X0106799Y0009625D01*
X0106640Y0009607D01*
X0106480Y0009593D01*
X0106320Y0009583D01*
X0106160Y0009577D01*
X0106000Y0009575D01*
X0105840Y0009577D01*
X0105680Y0009583D01*
X0105520Y0009593D01*
X0105360Y0009607D01*
X0105201Y0009625D01*
X0105042Y0009647D01*
X0104884Y0009673D01*
X0104727Y0009702D01*
X0104570Y0009736D01*
X0104415Y0009774D01*
X0104260Y0009815D01*
X0104106Y0009860D01*
X0103954Y0009910D01*
X0103803Y0009962D01*
X0103653Y0010019D01*
X0103504Y0010080D01*
X0103357Y0010144D01*
X0103212Y0010211D01*
X0103069Y0010283D01*
X0102927Y0010357D01*
X0102787Y0010436D01*
X0102650Y0010518D01*
X0102514Y0010603D01*
X0102381Y0010691D01*
X0102249Y0010783D01*
X0102121Y0010878D01*
X0101994Y0010977D01*
X0101870Y0011078D01*
X0101749Y0011183D01*
X0101630Y0011290D01*
X0101514Y0011401D01*
X0101401Y0011514D01*
X0101290Y0011630D01*
X0101183Y0011749D01*
X0101078Y0011870D01*
X0100977Y0011994D01*
X0100878Y0012121D01*
X0100783Y0012249D01*
X0100691Y0012381D01*
X0100603Y0012514D01*
X0100518Y0012650D01*
X0100436Y0012788D01*
X0100357Y0012927D01*
X0100283Y0013069D01*
X0100211Y0013212D01*
X0100144Y0013357D01*
X0100080Y0013504D01*
X0100019Y0013653D01*
X0099962Y0013803D01*
X0099910Y0013954D01*
X0099860Y0014106D01*
X0099815Y0014260D01*
X0099774Y0014415D01*
X0099736Y0014570D01*
X0099702Y0014727D01*
X0099673Y0014884D01*
X0099647Y0015042D01*
X0099625Y0015201D01*
X0099607Y0015360D01*
X0099593Y0015520D01*
X0099583Y0015680D01*
X0099577Y0015840D01*
X0099575Y0016000D01*
X0099575Y0256000D02*
X0099577Y0256160D01*
X0099583Y0256320D01*
X0099593Y0256480D01*
X0099607Y0256640D01*
X0099625Y0256799D01*
X0099647Y0256958D01*
X0099673Y0257116D01*
X0099702Y0257273D01*
X0099736Y0257430D01*
X0099774Y0257585D01*
X0099815Y0257740D01*
X0099860Y0257894D01*
X0099910Y0258046D01*
X0099962Y0258197D01*
X0100019Y0258347D01*
X0100080Y0258496D01*
X0100144Y0258643D01*
X0100211Y0258788D01*
X0100283Y0258931D01*
X0100357Y0259073D01*
X0100436Y0259213D01*
X0100518Y0259350D01*
X0100603Y0259486D01*
X0100691Y0259619D01*
X0100783Y0259751D01*
X0100878Y0259879D01*
X0100977Y0260006D01*
X0101078Y0260130D01*
X0101183Y0260251D01*
X0101290Y0260370D01*
X0101401Y0260486D01*
X0101514Y0260599D01*
X0101630Y0260710D01*
X0101749Y0260817D01*
X0101870Y0260922D01*
X0101994Y0261023D01*
X0102121Y0261122D01*
X0102249Y0261217D01*
X0102381Y0261309D01*
X0102514Y0261397D01*
X0102650Y0261482D01*
X0102788Y0261564D01*
X0102927Y0261643D01*
X0103069Y0261717D01*
X0103212Y0261789D01*
X0103357Y0261856D01*
X0103504Y0261920D01*
X0103653Y0261981D01*
X0103803Y0262038D01*
X0103954Y0262090D01*
X0104106Y0262140D01*
X0104260Y0262185D01*
X0104415Y0262226D01*
X0104570Y0262264D01*
X0104727Y0262298D01*
X0104884Y0262327D01*
X0105042Y0262353D01*
X0105201Y0262375D01*
X0105360Y0262393D01*
X0105520Y0262407D01*
X0105680Y0262417D01*
X0105840Y0262423D01*
X0106000Y0262425D01*
X0106160Y0262423D01*
X0106320Y0262417D01*
X0106480Y0262407D01*
X0106640Y0262393D01*
X0106799Y0262375D01*
X0106958Y0262353D01*
X0107116Y0262327D01*
X0107273Y0262298D01*
X0107430Y0262264D01*
X0107585Y0262226D01*
X0107740Y0262185D01*
X0107894Y0262140D01*
X0108046Y0262090D01*
X0108197Y0262038D01*
X0108347Y0261981D01*
X0108496Y0261920D01*
X0108643Y0261856D01*
X0108788Y0261789D01*
X0108931Y0261717D01*
X0109073Y0261643D01*
X0109213Y0261564D01*
X0109350Y0261482D01*
X0109486Y0261397D01*
X0109619Y0261309D01*
X0109751Y0261217D01*
X0109879Y0261122D01*
X0110006Y0261023D01*
X0110130Y0260922D01*
X0110251Y0260817D01*
X0110370Y0260710D01*
X0110486Y0260599D01*
X0110599Y0260486D01*
X0110710Y0260370D01*
X0110817Y0260251D01*
X0110922Y0260130D01*
X0111023Y0260006D01*
X0111122Y0259879D01*
X0111217Y0259751D01*
X0111309Y0259619D01*
X0111397Y0259486D01*
X0111482Y0259350D01*
X0111564Y0259212D01*
X0111643Y0259073D01*
X0111717Y0258931D01*
X0111789Y0258788D01*
X0111856Y0258643D01*
X0111920Y0258496D01*
X0111981Y0258347D01*
X0112038Y0258197D01*
X0112090Y0258046D01*
X0112140Y0257894D01*
X0112185Y0257740D01*
X0112226Y0257585D01*
X0112264Y0257430D01*
X0112298Y0257273D01*
X0112327Y0257116D01*
X0112353Y0256958D01*
X0112375Y0256799D01*
X0112393Y0256640D01*
X0112407Y0256480D01*
X0112417Y0256320D01*
X0112423Y0256160D01*
X0112425Y0256000D01*
X0112423Y0255840D01*
X0112417Y0255680D01*
X0112407Y0255520D01*
X0112393Y0255360D01*
X0112375Y0255201D01*
X0112353Y0255042D01*
X0112327Y0254884D01*
X0112298Y0254727D01*
X0112264Y0254570D01*
X0112226Y0254415D01*
X0112185Y0254260D01*
X0112140Y0254106D01*
X0112090Y0253954D01*
X0112038Y0253803D01*
X0111981Y0253653D01*
X0111920Y0253504D01*
X0111856Y0253357D01*
X0111789Y0253212D01*
X0111717Y0253069D01*
X0111643Y0252927D01*
X0111564Y0252787D01*
X0111482Y0252650D01*
X0111397Y0252514D01*
X0111309Y0252381D01*
X0111217Y0252249D01*
X0111122Y0252121D01*
X0111023Y0251994D01*
X0110922Y0251870D01*
X0110817Y0251749D01*
X0110710Y0251630D01*
X0110599Y0251514D01*
X0110486Y0251401D01*
X0110370Y0251290D01*
X0110251Y0251183D01*
X0110130Y0251078D01*
X0110006Y0250977D01*
X0109879Y0250878D01*
X0109751Y0250783D01*
X0109619Y0250691D01*
X0109486Y0250603D01*
X0109350Y0250518D01*
X0109212Y0250436D01*
X0109073Y0250357D01*
X0108931Y0250283D01*
X0108788Y0250211D01*
X0108643Y0250144D01*
X0108496Y0250080D01*
X0108347Y0250019D01*
X0108197Y0249962D01*
X0108046Y0249910D01*
X0107894Y0249860D01*
X0107740Y0249815D01*
X0107585Y0249774D01*
X0107430Y0249736D01*
X0107273Y0249702D01*
X0107116Y0249673D01*
X0106958Y0249647D01*
X0106799Y0249625D01*
X0106640Y0249607D01*
X0106480Y0249593D01*
X0106320Y0249583D01*
X0106160Y0249577D01*
X0106000Y0249575D01*
X0105840Y0249577D01*
X0105680Y0249583D01*
X0105520Y0249593D01*
X0105360Y0249607D01*
X0105201Y0249625D01*
X0105042Y0249647D01*
X0104884Y0249673D01*
X0104727Y0249702D01*
X0104570Y0249736D01*
X0104415Y0249774D01*
X0104260Y0249815D01*
X0104106Y0249860D01*
X0103954Y0249910D01*
X0103803Y0249962D01*
X0103653Y0250019D01*
X0103504Y0250080D01*
X0103357Y0250144D01*
X0103212Y0250211D01*
X0103069Y0250283D01*
X0102927Y0250357D01*
X0102787Y0250436D01*
X0102650Y0250518D01*
X0102514Y0250603D01*
X0102381Y0250691D01*
X0102249Y0250783D01*
X0102121Y0250878D01*
X0101994Y0250977D01*
X0101870Y0251078D01*
X0101749Y0251183D01*
X0101630Y0251290D01*
X0101514Y0251401D01*
X0101401Y0251514D01*
X0101290Y0251630D01*
X0101183Y0251749D01*
X0101078Y0251870D01*
X0100977Y0251994D01*
X0100878Y0252121D01*
X0100783Y0252249D01*
X0100691Y0252381D01*
X0100603Y0252514D01*
X0100518Y0252650D01*
X0100436Y0252788D01*
X0100357Y0252927D01*
X0100283Y0253069D01*
X0100211Y0253212D01*
X0100144Y0253357D01*
X0100080Y0253504D01*
X0100019Y0253653D01*
X0099962Y0253803D01*
X0099910Y0253954D01*
X0099860Y0254106D01*
X0099815Y0254260D01*
X0099774Y0254415D01*
X0099736Y0254570D01*
X0099702Y0254727D01*
X0099673Y0254884D01*
X0099647Y0255042D01*
X0099625Y0255201D01*
X0099607Y0255360D01*
X0099593Y0255520D01*
X0099583Y0255680D01*
X0099577Y0255840D01*
X0099575Y0256000D01*
X0047075Y0256000D02*
X0047077Y0256160D01*
X0047083Y0256320D01*
X0047093Y0256480D01*
X0047107Y0256640D01*
X0047125Y0256799D01*
X0047147Y0256958D01*
X0047173Y0257116D01*
X0047202Y0257273D01*
X0047236Y0257430D01*
X0047274Y0257585D01*
X0047315Y0257740D01*
X0047360Y0257894D01*
X0047410Y0258046D01*
X0047462Y0258197D01*
X0047519Y0258347D01*
X0047580Y0258496D01*
X0047644Y0258643D01*
X0047711Y0258788D01*
X0047783Y0258931D01*
X0047857Y0259073D01*
X0047936Y0259213D01*
X0048018Y0259350D01*
X0048103Y0259486D01*
X0048191Y0259619D01*
X0048283Y0259751D01*
X0048378Y0259879D01*
X0048477Y0260006D01*
X0048578Y0260130D01*
X0048683Y0260251D01*
X0048790Y0260370D01*
X0048901Y0260486D01*
X0049014Y0260599D01*
X0049130Y0260710D01*
X0049249Y0260817D01*
X0049370Y0260922D01*
X0049494Y0261023D01*
X0049621Y0261122D01*
X0049749Y0261217D01*
X0049881Y0261309D01*
X0050014Y0261397D01*
X0050150Y0261482D01*
X0050288Y0261564D01*
X0050427Y0261643D01*
X0050569Y0261717D01*
X0050712Y0261789D01*
X0050857Y0261856D01*
X0051004Y0261920D01*
X0051153Y0261981D01*
X0051303Y0262038D01*
X0051454Y0262090D01*
X0051606Y0262140D01*
X0051760Y0262185D01*
X0051915Y0262226D01*
X0052070Y0262264D01*
X0052227Y0262298D01*
X0052384Y0262327D01*
X0052542Y0262353D01*
X0052701Y0262375D01*
X0052860Y0262393D01*
X0053020Y0262407D01*
X0053180Y0262417D01*
X0053340Y0262423D01*
X0053500Y0262425D01*
X0053660Y0262423D01*
X0053820Y0262417D01*
X0053980Y0262407D01*
X0054140Y0262393D01*
X0054299Y0262375D01*
X0054458Y0262353D01*
X0054616Y0262327D01*
X0054773Y0262298D01*
X0054930Y0262264D01*
X0055085Y0262226D01*
X0055240Y0262185D01*
X0055394Y0262140D01*
X0055546Y0262090D01*
X0055697Y0262038D01*
X0055847Y0261981D01*
X0055996Y0261920D01*
X0056143Y0261856D01*
X0056288Y0261789D01*
X0056431Y0261717D01*
X0056573Y0261643D01*
X0056713Y0261564D01*
X0056850Y0261482D01*
X0056986Y0261397D01*
X0057119Y0261309D01*
X0057251Y0261217D01*
X0057379Y0261122D01*
X0057506Y0261023D01*
X0057630Y0260922D01*
X0057751Y0260817D01*
X0057870Y0260710D01*
X0057986Y0260599D01*
X0058099Y0260486D01*
X0058210Y0260370D01*
X0058317Y0260251D01*
X0058422Y0260130D01*
X0058523Y0260006D01*
X0058622Y0259879D01*
X0058717Y0259751D01*
X0058809Y0259619D01*
X0058897Y0259486D01*
X0058982Y0259350D01*
X0059064Y0259212D01*
X0059143Y0259073D01*
X0059217Y0258931D01*
X0059289Y0258788D01*
X0059356Y0258643D01*
X0059420Y0258496D01*
X0059481Y0258347D01*
X0059538Y0258197D01*
X0059590Y0258046D01*
X0059640Y0257894D01*
X0059685Y0257740D01*
X0059726Y0257585D01*
X0059764Y0257430D01*
X0059798Y0257273D01*
X0059827Y0257116D01*
X0059853Y0256958D01*
X0059875Y0256799D01*
X0059893Y0256640D01*
X0059907Y0256480D01*
X0059917Y0256320D01*
X0059923Y0256160D01*
X0059925Y0256000D01*
X0059923Y0255840D01*
X0059917Y0255680D01*
X0059907Y0255520D01*
X0059893Y0255360D01*
X0059875Y0255201D01*
X0059853Y0255042D01*
X0059827Y0254884D01*
X0059798Y0254727D01*
X0059764Y0254570D01*
X0059726Y0254415D01*
X0059685Y0254260D01*
X0059640Y0254106D01*
X0059590Y0253954D01*
X0059538Y0253803D01*
X0059481Y0253653D01*
X0059420Y0253504D01*
X0059356Y0253357D01*
X0059289Y0253212D01*
X0059217Y0253069D01*
X0059143Y0252927D01*
X0059064Y0252787D01*
X0058982Y0252650D01*
X0058897Y0252514D01*
X0058809Y0252381D01*
X0058717Y0252249D01*
X0058622Y0252121D01*
X0058523Y0251994D01*
X0058422Y0251870D01*
X0058317Y0251749D01*
X0058210Y0251630D01*
X0058099Y0251514D01*
X0057986Y0251401D01*
X0057870Y0251290D01*
X0057751Y0251183D01*
X0057630Y0251078D01*
X0057506Y0250977D01*
X0057379Y0250878D01*
X0057251Y0250783D01*
X0057119Y0250691D01*
X0056986Y0250603D01*
X0056850Y0250518D01*
X0056712Y0250436D01*
X0056573Y0250357D01*
X0056431Y0250283D01*
X0056288Y0250211D01*
X0056143Y0250144D01*
X0055996Y0250080D01*
X0055847Y0250019D01*
X0055697Y0249962D01*
X0055546Y0249910D01*
X0055394Y0249860D01*
X0055240Y0249815D01*
X0055085Y0249774D01*
X0054930Y0249736D01*
X0054773Y0249702D01*
X0054616Y0249673D01*
X0054458Y0249647D01*
X0054299Y0249625D01*
X0054140Y0249607D01*
X0053980Y0249593D01*
X0053820Y0249583D01*
X0053660Y0249577D01*
X0053500Y0249575D01*
X0053340Y0249577D01*
X0053180Y0249583D01*
X0053020Y0249593D01*
X0052860Y0249607D01*
X0052701Y0249625D01*
X0052542Y0249647D01*
X0052384Y0249673D01*
X0052227Y0249702D01*
X0052070Y0249736D01*
X0051915Y0249774D01*
X0051760Y0249815D01*
X0051606Y0249860D01*
X0051454Y0249910D01*
X0051303Y0249962D01*
X0051153Y0250019D01*
X0051004Y0250080D01*
X0050857Y0250144D01*
X0050712Y0250211D01*
X0050569Y0250283D01*
X0050427Y0250357D01*
X0050287Y0250436D01*
X0050150Y0250518D01*
X0050014Y0250603D01*
X0049881Y0250691D01*
X0049749Y0250783D01*
X0049621Y0250878D01*
X0049494Y0250977D01*
X0049370Y0251078D01*
X0049249Y0251183D01*
X0049130Y0251290D01*
X0049014Y0251401D01*
X0048901Y0251514D01*
X0048790Y0251630D01*
X0048683Y0251749D01*
X0048578Y0251870D01*
X0048477Y0251994D01*
X0048378Y0252121D01*
X0048283Y0252249D01*
X0048191Y0252381D01*
X0048103Y0252514D01*
X0048018Y0252650D01*
X0047936Y0252788D01*
X0047857Y0252927D01*
X0047783Y0253069D01*
X0047711Y0253212D01*
X0047644Y0253357D01*
X0047580Y0253504D01*
X0047519Y0253653D01*
X0047462Y0253803D01*
X0047410Y0253954D01*
X0047360Y0254106D01*
X0047315Y0254260D01*
X0047274Y0254415D01*
X0047236Y0254570D01*
X0047202Y0254727D01*
X0047173Y0254884D01*
X0047147Y0255042D01*
X0047125Y0255201D01*
X0047107Y0255360D01*
X0047093Y0255520D01*
X0047083Y0255680D01*
X0047077Y0255840D01*
X0047075Y0256000D01*
M02*
