G75*
%MOIN*%
%OFA0B0*%
%FSLAX24Y24*%
%IPPOS*%
%LPD*%
%AMOC8*
5,1,8,0,0,1.08239X$1,22.5*
%
%ADD10R,0.0610X0.0630*%
%ADD11R,0.0236X0.0089*%
%ADD12R,0.0394X0.0433*%
%ADD13R,0.0433X0.0394*%
%ADD14C,0.0160*%
%ADD15R,0.0236X0.0866*%
%ADD16R,0.0512X0.0610*%
D10*
G36*
X008051Y005285D02*
X007620Y004854D01*
X007175Y005299D01*
X007606Y005730D01*
X008051Y005285D01*
G37*
G36*
X006660Y006677D02*
X006229Y006246D01*
X005784Y006691D01*
X006215Y007122D01*
X006660Y006677D01*
G37*
G36*
X011935Y009169D02*
X011504Y008738D01*
X011059Y009183D01*
X011490Y009614D01*
X011935Y009169D01*
G37*
G36*
X012801Y010035D02*
X012370Y009604D01*
X011925Y010049D01*
X012356Y010480D01*
X012801Y010035D01*
G37*
G36*
X010543Y010561D02*
X010112Y010130D01*
X009667Y010575D01*
X010098Y011006D01*
X010543Y010561D01*
G37*
G36*
X011410Y011427D02*
X010979Y010996D01*
X010534Y011441D01*
X010965Y011872D01*
X011410Y011427D01*
G37*
G36*
X007185Y013919D02*
X006754Y013488D01*
X006309Y013933D01*
X006740Y014364D01*
X007185Y013919D01*
G37*
G36*
X008051Y014785D02*
X007620Y014354D01*
X007175Y014799D01*
X007606Y015230D01*
X008051Y014785D01*
G37*
G36*
X005793Y015311D02*
X005362Y014880D01*
X004917Y015325D01*
X005348Y015756D01*
X005793Y015311D01*
G37*
G36*
X006660Y016177D02*
X006229Y015746D01*
X005784Y016191D01*
X006215Y016622D01*
X006660Y016177D01*
G37*
G36*
X011935Y018669D02*
X011504Y018238D01*
X011059Y018683D01*
X011490Y019114D01*
X011935Y018669D01*
G37*
G36*
X010543Y020061D02*
X010112Y019630D01*
X009667Y020075D01*
X010098Y020506D01*
X010543Y020061D01*
G37*
G36*
X015293Y015311D02*
X014862Y014880D01*
X014417Y015325D01*
X014848Y015756D01*
X015293Y015311D01*
G37*
G36*
X016685Y013919D02*
X016254Y013488D01*
X015809Y013933D01*
X016240Y014364D01*
X016685Y013919D01*
G37*
G36*
X003301Y010035D02*
X002870Y009604D01*
X002425Y010049D01*
X002856Y010480D01*
X003301Y010035D01*
G37*
G36*
X001910Y011427D02*
X001479Y010996D01*
X001034Y011441D01*
X001465Y011872D01*
X001910Y011427D01*
G37*
X049863Y007664D03*
X049863Y005696D03*
X055355Y005696D03*
X055355Y007664D03*
X055363Y011196D03*
X055363Y013164D03*
X060855Y013164D03*
X060855Y011196D03*
D11*
X046264Y012365D03*
X046264Y012523D03*
X046264Y012680D03*
X046264Y012837D03*
X046264Y012995D03*
X045555Y012995D03*
X045555Y012837D03*
X045555Y012680D03*
X045555Y012523D03*
X045555Y012365D03*
D12*
X044709Y012345D03*
X043909Y012345D03*
X043909Y013015D03*
X044709Y013015D03*
X045575Y013680D03*
X046244Y013680D03*
X047009Y013015D03*
X047009Y012345D03*
X044594Y013880D03*
X043925Y013880D03*
X041609Y018345D03*
X041609Y019015D03*
X029109Y019015D03*
X029109Y018345D03*
X029109Y006515D03*
X029109Y005845D03*
X041609Y005845D03*
X041609Y006515D03*
D13*
X041609Y007595D03*
X041609Y008265D03*
X045575Y011580D03*
X046244Y011580D03*
X029109Y008265D03*
X029109Y007595D03*
X029109Y020095D03*
X029109Y020765D03*
X041609Y020765D03*
X041609Y020095D03*
D14*
X039998Y019967D02*
X039568Y019967D01*
X039568Y019652D02*
X039998Y019652D01*
X039998Y019337D02*
X039568Y019337D01*
X039568Y019023D02*
X039998Y019023D01*
X039998Y018708D02*
X039568Y018708D01*
X039568Y018393D02*
X039998Y018393D01*
X039998Y018078D02*
X039568Y018078D01*
X039212Y017722D02*
X039212Y017292D01*
X038897Y017292D02*
X038897Y017722D01*
X038582Y017722D02*
X038582Y017292D01*
X038267Y017292D02*
X038267Y017722D01*
X037952Y017722D02*
X037952Y017292D01*
X037637Y017292D02*
X037637Y017722D01*
X037322Y017722D02*
X037322Y017292D01*
X037007Y017292D02*
X037007Y017722D01*
X036651Y018078D02*
X036221Y018078D01*
X036221Y018393D02*
X036651Y018393D01*
X036651Y018708D02*
X036221Y018708D01*
X036221Y019023D02*
X036651Y019023D01*
X036651Y019337D02*
X036221Y019337D01*
X036221Y019652D02*
X036651Y019652D01*
X036651Y019967D02*
X036221Y019967D01*
X036221Y020282D02*
X036651Y020282D01*
X037007Y020638D02*
X037007Y021068D01*
X037322Y021068D02*
X037322Y020638D01*
X037637Y020638D02*
X037637Y021068D01*
X037952Y021068D02*
X037952Y020638D01*
X038267Y020638D02*
X038267Y021068D01*
X038582Y021068D02*
X038582Y020638D01*
X038897Y020638D02*
X038897Y021068D01*
X039212Y021068D02*
X039212Y020638D01*
X039568Y020282D02*
X039998Y020282D01*
X027498Y020282D02*
X027068Y020282D01*
X027068Y019967D02*
X027498Y019967D01*
X027498Y019652D02*
X027068Y019652D01*
X027068Y019337D02*
X027498Y019337D01*
X027498Y019023D02*
X027068Y019023D01*
X027068Y018708D02*
X027498Y018708D01*
X027498Y018393D02*
X027068Y018393D01*
X027068Y018078D02*
X027498Y018078D01*
X026712Y017722D02*
X026712Y017292D01*
X026397Y017292D02*
X026397Y017722D01*
X026082Y017722D02*
X026082Y017292D01*
X025767Y017292D02*
X025767Y017722D01*
X025452Y017722D02*
X025452Y017292D01*
X025137Y017292D02*
X025137Y017722D01*
X024822Y017722D02*
X024822Y017292D01*
X024507Y017292D02*
X024507Y017722D01*
X024151Y018078D02*
X023721Y018078D01*
X023721Y018393D02*
X024151Y018393D01*
X024151Y018708D02*
X023721Y018708D01*
X023721Y019023D02*
X024151Y019023D01*
X024151Y019337D02*
X023721Y019337D01*
X023721Y019652D02*
X024151Y019652D01*
X024151Y019967D02*
X023721Y019967D01*
X023721Y020282D02*
X024151Y020282D01*
X024507Y020638D02*
X024507Y021068D01*
X024822Y021068D02*
X024822Y020638D01*
X025137Y020638D02*
X025137Y021068D01*
X025452Y021068D02*
X025452Y020638D01*
X025767Y020638D02*
X025767Y021068D01*
X026082Y021068D02*
X026082Y020638D01*
X026397Y020638D02*
X026397Y021068D01*
X026712Y021068D02*
X026712Y020638D01*
X026712Y008568D02*
X026712Y008138D01*
X026397Y008138D02*
X026397Y008568D01*
X026082Y008568D02*
X026082Y008138D01*
X025767Y008138D02*
X025767Y008568D01*
X025452Y008568D02*
X025452Y008138D01*
X025137Y008138D02*
X025137Y008568D01*
X024822Y008568D02*
X024822Y008138D01*
X024507Y008138D02*
X024507Y008568D01*
X024151Y007782D02*
X023721Y007782D01*
X023721Y007467D02*
X024151Y007467D01*
X024151Y007152D02*
X023721Y007152D01*
X023721Y006837D02*
X024151Y006837D01*
X024151Y006523D02*
X023721Y006523D01*
X023721Y006208D02*
X024151Y006208D01*
X024151Y005893D02*
X023721Y005893D01*
X023721Y005578D02*
X024151Y005578D01*
X024507Y005222D02*
X024507Y004792D01*
X024822Y004792D02*
X024822Y005222D01*
X025137Y005222D02*
X025137Y004792D01*
X025452Y004792D02*
X025452Y005222D01*
X025767Y005222D02*
X025767Y004792D01*
X026082Y004792D02*
X026082Y005222D01*
X026397Y005222D02*
X026397Y004792D01*
X026712Y004792D02*
X026712Y005222D01*
X027068Y005578D02*
X027498Y005578D01*
X027498Y005893D02*
X027068Y005893D01*
X027068Y006208D02*
X027498Y006208D01*
X027498Y006523D02*
X027068Y006523D01*
X027068Y006837D02*
X027498Y006837D01*
X027498Y007152D02*
X027068Y007152D01*
X027068Y007467D02*
X027498Y007467D01*
X027498Y007782D02*
X027068Y007782D01*
X036221Y007782D02*
X036651Y007782D01*
X036651Y007467D02*
X036221Y007467D01*
X036221Y007152D02*
X036651Y007152D01*
X036651Y006837D02*
X036221Y006837D01*
X036221Y006523D02*
X036651Y006523D01*
X036651Y006208D02*
X036221Y006208D01*
X036221Y005893D02*
X036651Y005893D01*
X036651Y005578D02*
X036221Y005578D01*
X037007Y005222D02*
X037007Y004792D01*
X037322Y004792D02*
X037322Y005222D01*
X037637Y005222D02*
X037637Y004792D01*
X037952Y004792D02*
X037952Y005222D01*
X038267Y005222D02*
X038267Y004792D01*
X038582Y004792D02*
X038582Y005222D01*
X038897Y005222D02*
X038897Y004792D01*
X039212Y004792D02*
X039212Y005222D01*
X039568Y005578D02*
X039998Y005578D01*
X039998Y005893D02*
X039568Y005893D01*
X039568Y006208D02*
X039998Y006208D01*
X039998Y006523D02*
X039568Y006523D01*
X039568Y006837D02*
X039998Y006837D01*
X039998Y007152D02*
X039568Y007152D01*
X039568Y007467D02*
X039998Y007467D01*
X039998Y007782D02*
X039568Y007782D01*
X039212Y008138D02*
X039212Y008568D01*
X038897Y008568D02*
X038897Y008138D01*
X038582Y008138D02*
X038582Y008568D01*
X038267Y008568D02*
X038267Y008138D01*
X037952Y008138D02*
X037952Y008568D01*
X037637Y008568D02*
X037637Y008138D01*
X037322Y008138D02*
X037322Y008568D01*
X037007Y008568D02*
X037007Y008138D01*
D15*
X034609Y008477D03*
X034109Y008477D03*
X033609Y008477D03*
X033109Y008477D03*
X032609Y008477D03*
X032109Y008477D03*
X031609Y008477D03*
X031109Y008477D03*
X030609Y008477D03*
X022109Y008477D03*
X021609Y008477D03*
X021109Y008477D03*
X020609Y008477D03*
X020109Y008477D03*
X019609Y008477D03*
X019109Y008477D03*
X018609Y008477D03*
X018109Y008477D03*
X018109Y004930D03*
X018609Y004930D03*
X019109Y004930D03*
X019609Y004930D03*
X020109Y004930D03*
X020609Y004930D03*
X021109Y004930D03*
X021609Y004930D03*
X022109Y004930D03*
X030609Y004930D03*
X031109Y004930D03*
X031609Y004930D03*
X032109Y004930D03*
X032609Y004930D03*
X033109Y004930D03*
X033609Y004930D03*
X034109Y004930D03*
X034609Y004930D03*
X034609Y017430D03*
X034109Y017430D03*
X033609Y017430D03*
X033109Y017430D03*
X032609Y017430D03*
X032109Y017430D03*
X031609Y017430D03*
X031109Y017430D03*
X030609Y017430D03*
X022109Y017430D03*
X021609Y017430D03*
X021109Y017430D03*
X020609Y017430D03*
X020109Y017430D03*
X019609Y017430D03*
X019109Y017430D03*
X018609Y017430D03*
X018109Y017430D03*
X018109Y020977D03*
X018609Y020977D03*
X019109Y020977D03*
X019609Y020977D03*
X020109Y020977D03*
X020609Y020977D03*
X021109Y020977D03*
X021609Y020977D03*
X022109Y020977D03*
X030609Y020977D03*
X031109Y020977D03*
X031609Y020977D03*
X032109Y020977D03*
X032609Y020977D03*
X033109Y020977D03*
X033609Y020977D03*
X034109Y020977D03*
X034609Y020977D03*
D16*
X016495Y021365D03*
X014723Y021365D03*
X013495Y021365D03*
X011723Y021365D03*
X011723Y024495D03*
X013495Y024495D03*
X014723Y024495D03*
X016495Y024495D03*
M02*
