%
M48
M72
T01C0.0130
T02C0.0200
T03C0.0236
T04C0.0394
T05C0.0400
T06C0.1285
%
T01
X21629Y7460
X22119Y7810
X23939Y8370
X25269Y8860
X27439Y8230
X26039Y7180
X25759Y6900
X25689Y6550
X27999Y5990
X27999Y5640
X28559Y5990
X32619Y7460
X34159Y7600
X37869Y6480
X36889Y6060
X39689Y5290
X40039Y5010
X39899Y4660
X38849Y4450
X40739Y4730
X39969Y8090
X39059Y7880
X38849Y8860
X36749Y9840
X31359Y12920
X31709Y13060
X32269Y13620
X26949Y15720
X30379Y16770
X30869Y16630
X27999Y17540
X27649Y17820
X26739Y18030
X27789Y19780
X29189Y19640
X24429Y19780
X23099Y19360
X21629Y19920
X22119Y20340
X23729Y20620
X22749Y22230
X32479Y24680
X33039Y24540
X36959Y22440
X37799Y21390
X38849Y21390
X40389Y20760
X40949Y20760
X42699Y20200
X43049Y20200
X41089Y19430
X40739Y19640
X40389Y19290
X38989Y18940
X38709Y18520
X40389Y18380
X40389Y18030
X39549Y17540
X38569Y16980
X34929Y16910
X35909Y19710
X34929Y20690
X43679Y18030
X48439Y15930
X51869Y16840
X46059Y14110
X45289Y13200
X43469Y12920
X44449Y15510
X47669Y20970
X53269Y21530
X16309Y15020
X16029Y14740
X15959Y15370
X15539Y15230
X23099Y6830
X27859Y4030
X27649Y3750
X30449Y4030
X30799Y3890
T02
X48609Y22180
X49609Y22180
X49609Y23180
X48609Y23180
X48609Y24180
X49609Y24180
X52109Y24180
X53109Y24180
X53109Y23180
X52109Y23180
X52109Y22180
X53109Y22180
X55609Y22180
X56609Y22180
X56609Y23180
X55609Y23180
X55609Y24180
X56609Y24180
X59109Y24180
X60109Y24180
X60109Y23180
X59109Y23180
X59109Y22180
X60109Y22180
T03
X41109Y19030
X39159Y19330
X37059Y19030
X34609Y16680
X28609Y19030
X26659Y19330
X24559Y19030
X22109Y16680
X16809Y13380
X7309Y13380
X12059Y8630
X22109Y4180
X24559Y6530
X26659Y6830
X28609Y6530
X34609Y4180
X37059Y6530
X39159Y6830
X41109Y6530
X49859Y8430
X46209Y10930
X55359Y13930
X12809Y21380
X12059Y18130
T04
X20359Y14200
X21359Y14200
X22359Y14200
X23359Y14200
X24359Y14200
X25359Y14200
X26359Y14200
X27359Y14200
X32859Y14200
X33859Y14200
X34859Y14200
X35859Y14200
X36859Y14200
X37859Y14200
X38859Y14200
X39859Y14200
X39859Y11150
X38859Y11150
X37859Y11150
X36859Y11150
X35859Y11150
X34859Y11150
X33859Y11150
X32859Y11150
X27359Y11150
X26359Y11150
X25359Y11150
X24359Y11150
X23359Y11150
X22359Y11150
X21359Y11150
X20359Y11150
X20359Y1700
X21359Y1700
X22359Y1700
X23359Y1700
X24359Y1700
X25359Y1700
X26359Y1700
X27359Y1700
X32859Y1700
X33859Y1700
X34859Y1700
X35859Y1700
X36859Y1700
X37859Y1700
X38859Y1700
X39859Y1700
X39859Y23650
X38859Y23650
X37859Y23650
X36859Y23650
X35859Y23650
X34859Y23650
X33859Y23650
X32859Y23650
X27359Y23650
X26359Y23650
X25359Y23650
X24359Y23650
X23359Y23650
X22359Y23650
X21359Y23650
X20359Y23650
T05
X45109Y18680
X46109Y18680
X47109Y18680
X48109Y18680
X49109Y18680
X50109Y18680
X51109Y18680
X52109Y18680
X53109Y18680
X54109Y18680
X55109Y18680
X56109Y18680
X57109Y18680
X58109Y18680
X59109Y18680
X60109Y18680
X61109Y18680
X62109Y18680
X63109Y18680
X64109Y18680
X64109Y17680
X63109Y17680
X62109Y17680
X61109Y17680
X60109Y17680
X59109Y17680
X58109Y17680
X57109Y17680
X56109Y17680
X55109Y17680
X54109Y17680
X53109Y17680
X52109Y17680
X51109Y17680
X50109Y17680
X49109Y17680
X48109Y17680
X47109Y17680
X46109Y17680
X45109Y17680
T06
X4109Y2680
X44109Y2680
X64109Y2680
X64109Y22680
X44109Y22680
X4109Y22680
M30
