G75*
%MOIN*%
%OFA0B0*%
%FSLAX24Y24*%
%IPPOS*%
%LPD*%
%AMOC8*
5,1,8,0,0,1.08239X$1,22.5*
%
%ADD10C,0.0000*%
%ADD11C,0.0010*%
%ADD12R,0.0610X0.0630*%
%ADD13R,0.0236X0.0089*%
%ADD14R,0.0394X0.0433*%
%ADD15R,0.0433X0.0394*%
%ADD16OC8,0.0600*%
%ADD17C,0.0160*%
%ADD18R,0.0236X0.0866*%
%ADD19R,0.0600X0.0600*%
%ADD20C,0.0591*%
%ADD21R,0.0512X0.0610*%
%ADD22C,0.0376*%
%ADD23C,0.0080*%
%ADD24C,0.0270*%
D10*
X003466Y002680D02*
X003468Y002730D01*
X003474Y002781D01*
X003484Y002830D01*
X003497Y002879D01*
X003515Y002926D01*
X003536Y002972D01*
X003561Y003016D01*
X003589Y003058D01*
X003620Y003098D01*
X003654Y003135D01*
X003691Y003169D01*
X003731Y003200D01*
X003773Y003228D01*
X003817Y003253D01*
X003863Y003274D01*
X003910Y003292D01*
X003959Y003305D01*
X004008Y003315D01*
X004059Y003321D01*
X004109Y003323D01*
X004159Y003321D01*
X004210Y003315D01*
X004259Y003305D01*
X004308Y003292D01*
X004355Y003274D01*
X004401Y003253D01*
X004445Y003228D01*
X004487Y003200D01*
X004527Y003169D01*
X004564Y003135D01*
X004598Y003098D01*
X004629Y003058D01*
X004657Y003016D01*
X004682Y002972D01*
X004703Y002926D01*
X004721Y002879D01*
X004734Y002830D01*
X004744Y002781D01*
X004750Y002730D01*
X004752Y002680D01*
X004750Y002630D01*
X004744Y002579D01*
X004734Y002530D01*
X004721Y002481D01*
X004703Y002434D01*
X004682Y002388D01*
X004657Y002344D01*
X004629Y002302D01*
X004598Y002262D01*
X004564Y002225D01*
X004527Y002191D01*
X004487Y002160D01*
X004445Y002132D01*
X004401Y002107D01*
X004355Y002086D01*
X004308Y002068D01*
X004259Y002055D01*
X004210Y002045D01*
X004159Y002039D01*
X004109Y002037D01*
X004059Y002039D01*
X004008Y002045D01*
X003959Y002055D01*
X003910Y002068D01*
X003863Y002086D01*
X003817Y002107D01*
X003773Y002132D01*
X003731Y002160D01*
X003691Y002191D01*
X003654Y002225D01*
X003620Y002262D01*
X003589Y002302D01*
X003561Y002344D01*
X003536Y002388D01*
X003515Y002434D01*
X003497Y002481D01*
X003484Y002530D01*
X003474Y002579D01*
X003468Y002630D01*
X003466Y002680D01*
X043466Y002680D02*
X043468Y002730D01*
X043474Y002781D01*
X043484Y002830D01*
X043497Y002879D01*
X043515Y002926D01*
X043536Y002972D01*
X043561Y003016D01*
X043589Y003058D01*
X043620Y003098D01*
X043654Y003135D01*
X043691Y003169D01*
X043731Y003200D01*
X043773Y003228D01*
X043817Y003253D01*
X043863Y003274D01*
X043910Y003292D01*
X043959Y003305D01*
X044008Y003315D01*
X044059Y003321D01*
X044109Y003323D01*
X044159Y003321D01*
X044210Y003315D01*
X044259Y003305D01*
X044308Y003292D01*
X044355Y003274D01*
X044401Y003253D01*
X044445Y003228D01*
X044487Y003200D01*
X044527Y003169D01*
X044564Y003135D01*
X044598Y003098D01*
X044629Y003058D01*
X044657Y003016D01*
X044682Y002972D01*
X044703Y002926D01*
X044721Y002879D01*
X044734Y002830D01*
X044744Y002781D01*
X044750Y002730D01*
X044752Y002680D01*
X044750Y002630D01*
X044744Y002579D01*
X044734Y002530D01*
X044721Y002481D01*
X044703Y002434D01*
X044682Y002388D01*
X044657Y002344D01*
X044629Y002302D01*
X044598Y002262D01*
X044564Y002225D01*
X044527Y002191D01*
X044487Y002160D01*
X044445Y002132D01*
X044401Y002107D01*
X044355Y002086D01*
X044308Y002068D01*
X044259Y002055D01*
X044210Y002045D01*
X044159Y002039D01*
X044109Y002037D01*
X044059Y002039D01*
X044008Y002045D01*
X043959Y002055D01*
X043910Y002068D01*
X043863Y002086D01*
X043817Y002107D01*
X043773Y002132D01*
X043731Y002160D01*
X043691Y002191D01*
X043654Y002225D01*
X043620Y002262D01*
X043589Y002302D01*
X043561Y002344D01*
X043536Y002388D01*
X043515Y002434D01*
X043497Y002481D01*
X043484Y002530D01*
X043474Y002579D01*
X043468Y002630D01*
X043466Y002680D01*
X063466Y002680D02*
X063468Y002730D01*
X063474Y002781D01*
X063484Y002830D01*
X063497Y002879D01*
X063515Y002926D01*
X063536Y002972D01*
X063561Y003016D01*
X063589Y003058D01*
X063620Y003098D01*
X063654Y003135D01*
X063691Y003169D01*
X063731Y003200D01*
X063773Y003228D01*
X063817Y003253D01*
X063863Y003274D01*
X063910Y003292D01*
X063959Y003305D01*
X064008Y003315D01*
X064059Y003321D01*
X064109Y003323D01*
X064159Y003321D01*
X064210Y003315D01*
X064259Y003305D01*
X064308Y003292D01*
X064355Y003274D01*
X064401Y003253D01*
X064445Y003228D01*
X064487Y003200D01*
X064527Y003169D01*
X064564Y003135D01*
X064598Y003098D01*
X064629Y003058D01*
X064657Y003016D01*
X064682Y002972D01*
X064703Y002926D01*
X064721Y002879D01*
X064734Y002830D01*
X064744Y002781D01*
X064750Y002730D01*
X064752Y002680D01*
X064750Y002630D01*
X064744Y002579D01*
X064734Y002530D01*
X064721Y002481D01*
X064703Y002434D01*
X064682Y002388D01*
X064657Y002344D01*
X064629Y002302D01*
X064598Y002262D01*
X064564Y002225D01*
X064527Y002191D01*
X064487Y002160D01*
X064445Y002132D01*
X064401Y002107D01*
X064355Y002086D01*
X064308Y002068D01*
X064259Y002055D01*
X064210Y002045D01*
X064159Y002039D01*
X064109Y002037D01*
X064059Y002039D01*
X064008Y002045D01*
X063959Y002055D01*
X063910Y002068D01*
X063863Y002086D01*
X063817Y002107D01*
X063773Y002132D01*
X063731Y002160D01*
X063691Y002191D01*
X063654Y002225D01*
X063620Y002262D01*
X063589Y002302D01*
X063561Y002344D01*
X063536Y002388D01*
X063515Y002434D01*
X063497Y002481D01*
X063484Y002530D01*
X063474Y002579D01*
X063468Y002630D01*
X063466Y002680D01*
X063466Y022680D02*
X063468Y022730D01*
X063474Y022781D01*
X063484Y022830D01*
X063497Y022879D01*
X063515Y022926D01*
X063536Y022972D01*
X063561Y023016D01*
X063589Y023058D01*
X063620Y023098D01*
X063654Y023135D01*
X063691Y023169D01*
X063731Y023200D01*
X063773Y023228D01*
X063817Y023253D01*
X063863Y023274D01*
X063910Y023292D01*
X063959Y023305D01*
X064008Y023315D01*
X064059Y023321D01*
X064109Y023323D01*
X064159Y023321D01*
X064210Y023315D01*
X064259Y023305D01*
X064308Y023292D01*
X064355Y023274D01*
X064401Y023253D01*
X064445Y023228D01*
X064487Y023200D01*
X064527Y023169D01*
X064564Y023135D01*
X064598Y023098D01*
X064629Y023058D01*
X064657Y023016D01*
X064682Y022972D01*
X064703Y022926D01*
X064721Y022879D01*
X064734Y022830D01*
X064744Y022781D01*
X064750Y022730D01*
X064752Y022680D01*
X064750Y022630D01*
X064744Y022579D01*
X064734Y022530D01*
X064721Y022481D01*
X064703Y022434D01*
X064682Y022388D01*
X064657Y022344D01*
X064629Y022302D01*
X064598Y022262D01*
X064564Y022225D01*
X064527Y022191D01*
X064487Y022160D01*
X064445Y022132D01*
X064401Y022107D01*
X064355Y022086D01*
X064308Y022068D01*
X064259Y022055D01*
X064210Y022045D01*
X064159Y022039D01*
X064109Y022037D01*
X064059Y022039D01*
X064008Y022045D01*
X063959Y022055D01*
X063910Y022068D01*
X063863Y022086D01*
X063817Y022107D01*
X063773Y022132D01*
X063731Y022160D01*
X063691Y022191D01*
X063654Y022225D01*
X063620Y022262D01*
X063589Y022302D01*
X063561Y022344D01*
X063536Y022388D01*
X063515Y022434D01*
X063497Y022481D01*
X063484Y022530D01*
X063474Y022579D01*
X063468Y022630D01*
X063466Y022680D01*
X043466Y022680D02*
X043468Y022730D01*
X043474Y022781D01*
X043484Y022830D01*
X043497Y022879D01*
X043515Y022926D01*
X043536Y022972D01*
X043561Y023016D01*
X043589Y023058D01*
X043620Y023098D01*
X043654Y023135D01*
X043691Y023169D01*
X043731Y023200D01*
X043773Y023228D01*
X043817Y023253D01*
X043863Y023274D01*
X043910Y023292D01*
X043959Y023305D01*
X044008Y023315D01*
X044059Y023321D01*
X044109Y023323D01*
X044159Y023321D01*
X044210Y023315D01*
X044259Y023305D01*
X044308Y023292D01*
X044355Y023274D01*
X044401Y023253D01*
X044445Y023228D01*
X044487Y023200D01*
X044527Y023169D01*
X044564Y023135D01*
X044598Y023098D01*
X044629Y023058D01*
X044657Y023016D01*
X044682Y022972D01*
X044703Y022926D01*
X044721Y022879D01*
X044734Y022830D01*
X044744Y022781D01*
X044750Y022730D01*
X044752Y022680D01*
X044750Y022630D01*
X044744Y022579D01*
X044734Y022530D01*
X044721Y022481D01*
X044703Y022434D01*
X044682Y022388D01*
X044657Y022344D01*
X044629Y022302D01*
X044598Y022262D01*
X044564Y022225D01*
X044527Y022191D01*
X044487Y022160D01*
X044445Y022132D01*
X044401Y022107D01*
X044355Y022086D01*
X044308Y022068D01*
X044259Y022055D01*
X044210Y022045D01*
X044159Y022039D01*
X044109Y022037D01*
X044059Y022039D01*
X044008Y022045D01*
X043959Y022055D01*
X043910Y022068D01*
X043863Y022086D01*
X043817Y022107D01*
X043773Y022132D01*
X043731Y022160D01*
X043691Y022191D01*
X043654Y022225D01*
X043620Y022262D01*
X043589Y022302D01*
X043561Y022344D01*
X043536Y022388D01*
X043515Y022434D01*
X043497Y022481D01*
X043484Y022530D01*
X043474Y022579D01*
X043468Y022630D01*
X043466Y022680D01*
X003466Y022680D02*
X003468Y022730D01*
X003474Y022781D01*
X003484Y022830D01*
X003497Y022879D01*
X003515Y022926D01*
X003536Y022972D01*
X003561Y023016D01*
X003589Y023058D01*
X003620Y023098D01*
X003654Y023135D01*
X003691Y023169D01*
X003731Y023200D01*
X003773Y023228D01*
X003817Y023253D01*
X003863Y023274D01*
X003910Y023292D01*
X003959Y023305D01*
X004008Y023315D01*
X004059Y023321D01*
X004109Y023323D01*
X004159Y023321D01*
X004210Y023315D01*
X004259Y023305D01*
X004308Y023292D01*
X004355Y023274D01*
X004401Y023253D01*
X004445Y023228D01*
X004487Y023200D01*
X004527Y023169D01*
X004564Y023135D01*
X004598Y023098D01*
X004629Y023058D01*
X004657Y023016D01*
X004682Y022972D01*
X004703Y022926D01*
X004721Y022879D01*
X004734Y022830D01*
X004744Y022781D01*
X004750Y022730D01*
X004752Y022680D01*
X004750Y022630D01*
X004744Y022579D01*
X004734Y022530D01*
X004721Y022481D01*
X004703Y022434D01*
X004682Y022388D01*
X004657Y022344D01*
X004629Y022302D01*
X004598Y022262D01*
X004564Y022225D01*
X004527Y022191D01*
X004487Y022160D01*
X004445Y022132D01*
X004401Y022107D01*
X004355Y022086D01*
X004308Y022068D01*
X004259Y022055D01*
X004210Y022045D01*
X004159Y022039D01*
X004109Y022037D01*
X004059Y022039D01*
X004008Y022045D01*
X003959Y022055D01*
X003910Y022068D01*
X003863Y022086D01*
X003817Y022107D01*
X003773Y022132D01*
X003731Y022160D01*
X003691Y022191D01*
X003654Y022225D01*
X003620Y022262D01*
X003589Y022302D01*
X003561Y022344D01*
X003536Y022388D01*
X003515Y022434D01*
X003497Y022481D01*
X003484Y022530D01*
X003474Y022579D01*
X003468Y022630D01*
X003466Y022680D01*
D11*
X003609Y000180D02*
X064609Y000180D01*
X064696Y000182D01*
X064783Y000188D01*
X064870Y000197D01*
X064956Y000210D01*
X065042Y000227D01*
X065127Y000248D01*
X065210Y000273D01*
X065293Y000301D01*
X065374Y000332D01*
X065454Y000367D01*
X065532Y000406D01*
X065609Y000448D01*
X065684Y000493D01*
X065756Y000542D01*
X065827Y000593D01*
X065895Y000648D01*
X065960Y000705D01*
X066023Y000766D01*
X066084Y000829D01*
X066141Y000894D01*
X066196Y000962D01*
X066247Y001033D01*
X066296Y001105D01*
X066341Y001180D01*
X066383Y001257D01*
X066422Y001335D01*
X066457Y001415D01*
X066488Y001496D01*
X066516Y001579D01*
X066541Y001662D01*
X066562Y001747D01*
X066579Y001833D01*
X066592Y001919D01*
X066601Y002006D01*
X066607Y002093D01*
X066609Y002180D01*
X066609Y023180D01*
X066607Y023267D01*
X066601Y023354D01*
X066592Y023441D01*
X066579Y023527D01*
X066562Y023613D01*
X066541Y023698D01*
X066516Y023781D01*
X066488Y023864D01*
X066457Y023945D01*
X066422Y024025D01*
X066383Y024103D01*
X066341Y024180D01*
X066296Y024255D01*
X066247Y024327D01*
X066196Y024398D01*
X066141Y024466D01*
X066084Y024531D01*
X066023Y024594D01*
X065960Y024655D01*
X065895Y024712D01*
X065827Y024767D01*
X065756Y024818D01*
X065684Y024867D01*
X065609Y024912D01*
X065532Y024954D01*
X065454Y024993D01*
X065374Y025028D01*
X065293Y025059D01*
X065210Y025087D01*
X065127Y025112D01*
X065042Y025133D01*
X064956Y025150D01*
X064870Y025163D01*
X064783Y025172D01*
X064696Y025178D01*
X064609Y025180D01*
X003609Y025180D01*
X003522Y025178D01*
X003435Y025172D01*
X003348Y025163D01*
X003262Y025150D01*
X003176Y025133D01*
X003091Y025112D01*
X003008Y025087D01*
X002925Y025059D01*
X002844Y025028D01*
X002764Y024993D01*
X002686Y024954D01*
X002609Y024912D01*
X002534Y024867D01*
X002462Y024818D01*
X002391Y024767D01*
X002323Y024712D01*
X002258Y024655D01*
X002195Y024594D01*
X002134Y024531D01*
X002077Y024466D01*
X002022Y024398D01*
X001971Y024327D01*
X001922Y024255D01*
X001877Y024180D01*
X001835Y024103D01*
X001796Y024025D01*
X001761Y023945D01*
X001730Y023864D01*
X001702Y023781D01*
X001677Y023698D01*
X001656Y023613D01*
X001639Y023527D01*
X001626Y023441D01*
X001617Y023354D01*
X001611Y023267D01*
X001609Y023180D01*
X001609Y017680D01*
X001388Y017310D01*
X001279Y017124D01*
X001174Y016935D01*
X001074Y016743D01*
X000979Y016549D01*
X000888Y016353D01*
X000803Y016154D01*
X000722Y015954D01*
X000645Y015751D01*
X000574Y015547D01*
X000508Y015342D01*
X000446Y015134D01*
X000390Y014926D01*
X000338Y014716D01*
X000292Y014505D01*
X000251Y014293D01*
X000214Y014079D01*
X000183Y013865D01*
X000158Y013651D01*
X000137Y013436D01*
X000121Y013220D01*
X000111Y013004D01*
X000106Y012788D01*
X000106Y012572D01*
X000111Y012356D01*
X000121Y012140D01*
X000137Y011924D01*
X000158Y011709D01*
X000183Y011495D01*
X000214Y011281D01*
X000251Y011067D01*
X000292Y010855D01*
X000338Y010644D01*
X000390Y010434D01*
X000446Y010226D01*
X000508Y010018D01*
X000574Y009813D01*
X000645Y009609D01*
X000722Y009406D01*
X000803Y009206D01*
X000888Y009007D01*
X000979Y008811D01*
X001074Y008617D01*
X001174Y008425D01*
X001279Y008236D01*
X001388Y008050D01*
X001609Y007680D01*
X001609Y002180D01*
X001611Y002093D01*
X001617Y002006D01*
X001626Y001919D01*
X001639Y001833D01*
X001656Y001747D01*
X001677Y001662D01*
X001702Y001579D01*
X001730Y001496D01*
X001761Y001415D01*
X001796Y001335D01*
X001835Y001257D01*
X001877Y001180D01*
X001922Y001105D01*
X001971Y001033D01*
X002022Y000962D01*
X002077Y000894D01*
X002134Y000829D01*
X002195Y000766D01*
X002258Y000705D01*
X002323Y000648D01*
X002391Y000593D01*
X002462Y000542D01*
X002534Y000493D01*
X002609Y000448D01*
X002686Y000406D01*
X002764Y000367D01*
X002844Y000332D01*
X002925Y000301D01*
X003008Y000273D01*
X003091Y000248D01*
X003176Y000227D01*
X003262Y000210D01*
X003348Y000197D01*
X003435Y000188D01*
X003522Y000182D01*
X003609Y000180D01*
D12*
G36*
X008051Y005285D02*
X007620Y004854D01*
X007175Y005299D01*
X007606Y005730D01*
X008051Y005285D01*
G37*
G36*
X006660Y006677D02*
X006229Y006246D01*
X005784Y006691D01*
X006215Y007122D01*
X006660Y006677D01*
G37*
G36*
X011935Y009169D02*
X011504Y008738D01*
X011059Y009183D01*
X011490Y009614D01*
X011935Y009169D01*
G37*
G36*
X012801Y010035D02*
X012370Y009604D01*
X011925Y010049D01*
X012356Y010480D01*
X012801Y010035D01*
G37*
G36*
X010543Y010561D02*
X010112Y010130D01*
X009667Y010575D01*
X010098Y011006D01*
X010543Y010561D01*
G37*
G36*
X011410Y011427D02*
X010979Y010996D01*
X010534Y011441D01*
X010965Y011872D01*
X011410Y011427D01*
G37*
G36*
X007185Y013919D02*
X006754Y013488D01*
X006309Y013933D01*
X006740Y014364D01*
X007185Y013919D01*
G37*
G36*
X008051Y014785D02*
X007620Y014354D01*
X007175Y014799D01*
X007606Y015230D01*
X008051Y014785D01*
G37*
G36*
X005793Y015311D02*
X005362Y014880D01*
X004917Y015325D01*
X005348Y015756D01*
X005793Y015311D01*
G37*
G36*
X006660Y016177D02*
X006229Y015746D01*
X005784Y016191D01*
X006215Y016622D01*
X006660Y016177D01*
G37*
G36*
X011935Y018669D02*
X011504Y018238D01*
X011059Y018683D01*
X011490Y019114D01*
X011935Y018669D01*
G37*
G36*
X010543Y020061D02*
X010112Y019630D01*
X009667Y020075D01*
X010098Y020506D01*
X010543Y020061D01*
G37*
G36*
X015293Y015311D02*
X014862Y014880D01*
X014417Y015325D01*
X014848Y015756D01*
X015293Y015311D01*
G37*
G36*
X016685Y013919D02*
X016254Y013488D01*
X015809Y013933D01*
X016240Y014364D01*
X016685Y013919D01*
G37*
G36*
X003301Y010035D02*
X002870Y009604D01*
X002425Y010049D01*
X002856Y010480D01*
X003301Y010035D01*
G37*
G36*
X001910Y011427D02*
X001479Y010996D01*
X001034Y011441D01*
X001465Y011872D01*
X001910Y011427D01*
G37*
X049863Y007664D03*
X049863Y005696D03*
X055355Y005696D03*
X055355Y007664D03*
X055363Y011196D03*
X055363Y013164D03*
X060855Y013164D03*
X060855Y011196D03*
D13*
X046264Y012365D03*
X046264Y012523D03*
X046264Y012680D03*
X046264Y012837D03*
X046264Y012995D03*
X045555Y012995D03*
X045555Y012837D03*
X045555Y012680D03*
X045555Y012523D03*
X045555Y012365D03*
D14*
X044709Y012345D03*
X043909Y012345D03*
X043909Y013015D03*
X044709Y013015D03*
X045575Y013680D03*
X046244Y013680D03*
X047009Y013015D03*
X047009Y012345D03*
X044594Y013880D03*
X043925Y013880D03*
X041609Y018345D03*
X041609Y019015D03*
X029109Y019015D03*
X029109Y018345D03*
X029109Y006515D03*
X029109Y005845D03*
X041609Y005845D03*
X041609Y006515D03*
D15*
X041609Y007595D03*
X041609Y008265D03*
X045575Y011580D03*
X046244Y011580D03*
X029109Y008265D03*
X029109Y007595D03*
X029109Y020095D03*
X029109Y020765D03*
X041609Y020765D03*
X041609Y020095D03*
D16*
X045109Y018680D03*
X046109Y018680D03*
X047109Y018680D03*
X048109Y018680D03*
X049109Y018680D03*
X050109Y018680D03*
X051109Y018680D03*
X052109Y018680D03*
X053109Y018680D03*
X054109Y018680D03*
X055109Y018680D03*
X056109Y018680D03*
X057109Y018680D03*
X058109Y018680D03*
X059109Y018680D03*
X060109Y018680D03*
X061109Y018680D03*
X062109Y018680D03*
X063109Y018680D03*
X064109Y018680D03*
X064109Y017680D03*
X063109Y017680D03*
X062109Y017680D03*
X061109Y017680D03*
X060109Y017680D03*
X059109Y017680D03*
X058109Y017680D03*
X057109Y017680D03*
X056109Y017680D03*
X055109Y017680D03*
X054109Y017680D03*
X053109Y017680D03*
X052109Y017680D03*
X051109Y017680D03*
X050109Y017680D03*
X049109Y017680D03*
X048109Y017680D03*
X047109Y017680D03*
X046109Y017680D03*
X045109Y017680D03*
X048609Y022180D03*
X049609Y022180D03*
X049609Y023180D03*
X048609Y023180D03*
X049609Y024180D03*
X052109Y023180D03*
X053109Y023180D03*
X053109Y022180D03*
X052109Y022180D03*
X055609Y022180D03*
X056609Y022180D03*
X056609Y023180D03*
X055609Y023180D03*
X056609Y024180D03*
X059109Y023180D03*
X060109Y023180D03*
X060109Y022180D03*
X059109Y022180D03*
X060109Y024180D03*
X053109Y024180D03*
D17*
X039998Y020282D02*
X039568Y020282D01*
X039568Y019967D02*
X039998Y019967D01*
X039998Y019652D02*
X039568Y019652D01*
X039568Y019337D02*
X039998Y019337D01*
X039998Y019023D02*
X039568Y019023D01*
X039568Y018708D02*
X039998Y018708D01*
X039998Y018393D02*
X039568Y018393D01*
X039568Y018078D02*
X039998Y018078D01*
X039212Y017722D02*
X039212Y017292D01*
X038897Y017292D02*
X038897Y017722D01*
X038582Y017722D02*
X038582Y017292D01*
X038267Y017292D02*
X038267Y017722D01*
X037952Y017722D02*
X037952Y017292D01*
X037637Y017292D02*
X037637Y017722D01*
X037322Y017722D02*
X037322Y017292D01*
X037007Y017292D02*
X037007Y017722D01*
X036651Y018078D02*
X036221Y018078D01*
X036221Y018393D02*
X036651Y018393D01*
X036651Y018708D02*
X036221Y018708D01*
X036221Y019023D02*
X036651Y019023D01*
X036651Y019337D02*
X036221Y019337D01*
X036221Y019652D02*
X036651Y019652D01*
X036651Y019967D02*
X036221Y019967D01*
X036221Y020282D02*
X036651Y020282D01*
X037007Y020638D02*
X037007Y021068D01*
X037322Y021068D02*
X037322Y020638D01*
X037637Y020638D02*
X037637Y021068D01*
X037952Y021068D02*
X037952Y020638D01*
X038267Y020638D02*
X038267Y021068D01*
X038582Y021068D02*
X038582Y020638D01*
X038897Y020638D02*
X038897Y021068D01*
X039212Y021068D02*
X039212Y020638D01*
X027498Y020282D02*
X027068Y020282D01*
X027068Y019967D02*
X027498Y019967D01*
X027498Y019652D02*
X027068Y019652D01*
X027068Y019337D02*
X027498Y019337D01*
X027498Y019023D02*
X027068Y019023D01*
X027068Y018708D02*
X027498Y018708D01*
X027498Y018393D02*
X027068Y018393D01*
X027068Y018078D02*
X027498Y018078D01*
X026712Y017722D02*
X026712Y017292D01*
X026397Y017292D02*
X026397Y017722D01*
X026082Y017722D02*
X026082Y017292D01*
X025767Y017292D02*
X025767Y017722D01*
X025452Y017722D02*
X025452Y017292D01*
X025137Y017292D02*
X025137Y017722D01*
X024822Y017722D02*
X024822Y017292D01*
X024507Y017292D02*
X024507Y017722D01*
X024151Y018078D02*
X023721Y018078D01*
X023721Y018393D02*
X024151Y018393D01*
X024151Y018708D02*
X023721Y018708D01*
X023721Y019023D02*
X024151Y019023D01*
X024151Y019337D02*
X023721Y019337D01*
X023721Y019652D02*
X024151Y019652D01*
X024151Y019967D02*
X023721Y019967D01*
X023721Y020282D02*
X024151Y020282D01*
X024507Y020638D02*
X024507Y021068D01*
X024822Y021068D02*
X024822Y020638D01*
X025137Y020638D02*
X025137Y021068D01*
X025452Y021068D02*
X025452Y020638D01*
X025767Y020638D02*
X025767Y021068D01*
X026082Y021068D02*
X026082Y020638D01*
X026397Y020638D02*
X026397Y021068D01*
X026712Y021068D02*
X026712Y020638D01*
X026712Y008568D02*
X026712Y008138D01*
X026397Y008138D02*
X026397Y008568D01*
X026082Y008568D02*
X026082Y008138D01*
X025767Y008138D02*
X025767Y008568D01*
X025452Y008568D02*
X025452Y008138D01*
X025137Y008138D02*
X025137Y008568D01*
X024822Y008568D02*
X024822Y008138D01*
X024507Y008138D02*
X024507Y008568D01*
X024151Y007782D02*
X023721Y007782D01*
X023721Y007467D02*
X024151Y007467D01*
X024151Y007152D02*
X023721Y007152D01*
X023721Y006837D02*
X024151Y006837D01*
X024151Y006523D02*
X023721Y006523D01*
X023721Y006208D02*
X024151Y006208D01*
X024151Y005893D02*
X023721Y005893D01*
X023721Y005578D02*
X024151Y005578D01*
X024507Y005222D02*
X024507Y004792D01*
X024822Y004792D02*
X024822Y005222D01*
X025137Y005222D02*
X025137Y004792D01*
X025452Y004792D02*
X025452Y005222D01*
X025767Y005222D02*
X025767Y004792D01*
X026082Y004792D02*
X026082Y005222D01*
X026397Y005222D02*
X026397Y004792D01*
X026712Y004792D02*
X026712Y005222D01*
X027068Y005578D02*
X027498Y005578D01*
X027498Y005893D02*
X027068Y005893D01*
X027068Y006208D02*
X027498Y006208D01*
X027498Y006523D02*
X027068Y006523D01*
X027068Y006837D02*
X027498Y006837D01*
X027498Y007152D02*
X027068Y007152D01*
X027068Y007467D02*
X027498Y007467D01*
X027498Y007782D02*
X027068Y007782D01*
X036221Y007782D02*
X036651Y007782D01*
X036651Y007467D02*
X036221Y007467D01*
X036221Y007152D02*
X036651Y007152D01*
X036651Y006837D02*
X036221Y006837D01*
X036221Y006523D02*
X036651Y006523D01*
X036651Y006208D02*
X036221Y006208D01*
X036221Y005893D02*
X036651Y005893D01*
X036651Y005578D02*
X036221Y005578D01*
X037007Y005222D02*
X037007Y004792D01*
X037322Y004792D02*
X037322Y005222D01*
X037637Y005222D02*
X037637Y004792D01*
X037952Y004792D02*
X037952Y005222D01*
X038267Y005222D02*
X038267Y004792D01*
X038582Y004792D02*
X038582Y005222D01*
X038897Y005222D02*
X038897Y004792D01*
X039212Y004792D02*
X039212Y005222D01*
X039568Y005578D02*
X039998Y005578D01*
X039998Y005893D02*
X039568Y005893D01*
X039568Y006208D02*
X039998Y006208D01*
X039998Y006523D02*
X039568Y006523D01*
X039568Y006837D02*
X039998Y006837D01*
X039998Y007152D02*
X039568Y007152D01*
X039568Y007467D02*
X039998Y007467D01*
X039998Y007782D02*
X039568Y007782D01*
X039212Y008138D02*
X039212Y008568D01*
X038897Y008568D02*
X038897Y008138D01*
X038582Y008138D02*
X038582Y008568D01*
X038267Y008568D02*
X038267Y008138D01*
X037952Y008138D02*
X037952Y008568D01*
X037637Y008568D02*
X037637Y008138D01*
X037322Y008138D02*
X037322Y008568D01*
X037007Y008568D02*
X037007Y008138D01*
D18*
X034609Y008477D03*
X034109Y008477D03*
X033609Y008477D03*
X033109Y008477D03*
X032609Y008477D03*
X032109Y008477D03*
X031609Y008477D03*
X031109Y008477D03*
X030609Y008477D03*
X022109Y008477D03*
X021609Y008477D03*
X021109Y008477D03*
X020609Y008477D03*
X020109Y008477D03*
X019609Y008477D03*
X019109Y008477D03*
X018609Y008477D03*
X018109Y008477D03*
X018109Y004930D03*
X018609Y004930D03*
X019109Y004930D03*
X019609Y004930D03*
X020109Y004930D03*
X020609Y004930D03*
X021109Y004930D03*
X021609Y004930D03*
X022109Y004930D03*
X030609Y004930D03*
X031109Y004930D03*
X031609Y004930D03*
X032109Y004930D03*
X032609Y004930D03*
X033109Y004930D03*
X033609Y004930D03*
X034109Y004930D03*
X034609Y004930D03*
X034609Y017430D03*
X034109Y017430D03*
X033609Y017430D03*
X033109Y017430D03*
X032609Y017430D03*
X032109Y017430D03*
X031609Y017430D03*
X031109Y017430D03*
X030609Y017430D03*
X022109Y017430D03*
X021609Y017430D03*
X021109Y017430D03*
X020609Y017430D03*
X020109Y017430D03*
X019609Y017430D03*
X019109Y017430D03*
X018609Y017430D03*
X018109Y017430D03*
X018109Y020977D03*
X018609Y020977D03*
X019109Y020977D03*
X019609Y020977D03*
X020109Y020977D03*
X020609Y020977D03*
X021109Y020977D03*
X021609Y020977D03*
X022109Y020977D03*
X030609Y020977D03*
X031109Y020977D03*
X031609Y020977D03*
X032109Y020977D03*
X032609Y020977D03*
X033109Y020977D03*
X033609Y020977D03*
X034109Y020977D03*
X034609Y020977D03*
D19*
X048609Y024180D03*
X052109Y024180D03*
X055609Y024180D03*
X059109Y024180D03*
D20*
X039859Y023945D02*
X039859Y023355D01*
X038859Y023355D02*
X038859Y023945D01*
X037859Y023945D02*
X037859Y023355D01*
X036859Y023355D02*
X036859Y023945D01*
X035859Y023945D02*
X035859Y023355D01*
X034859Y023355D02*
X034859Y023945D01*
X033859Y023945D02*
X033859Y023355D01*
X032859Y023355D02*
X032859Y023945D01*
X027359Y023945D02*
X027359Y023355D01*
X026359Y023355D02*
X026359Y023945D01*
X025359Y023945D02*
X025359Y023355D01*
X024359Y023355D02*
X024359Y023945D01*
X023359Y023945D02*
X023359Y023355D01*
X022359Y023355D02*
X022359Y023945D01*
X021359Y023945D02*
X021359Y023355D01*
X020359Y023355D02*
X020359Y023945D01*
X020359Y014495D02*
X020359Y013905D01*
X021359Y013905D02*
X021359Y014495D01*
X022359Y014495D02*
X022359Y013905D01*
X023359Y013905D02*
X023359Y014495D01*
X024359Y014495D02*
X024359Y013905D01*
X025359Y013905D02*
X025359Y014495D01*
X026359Y014495D02*
X026359Y013905D01*
X027359Y013905D02*
X027359Y014495D01*
X032859Y014495D02*
X032859Y013905D01*
X033859Y013905D02*
X033859Y014495D01*
X034859Y014495D02*
X034859Y013905D01*
X035859Y013905D02*
X035859Y014495D01*
X036859Y014495D02*
X036859Y013905D01*
X037859Y013905D02*
X037859Y014495D01*
X038859Y014495D02*
X038859Y013905D01*
X039859Y013905D02*
X039859Y014495D01*
X039859Y011445D02*
X039859Y010855D01*
X038859Y010855D02*
X038859Y011445D01*
X037859Y011445D02*
X037859Y010855D01*
X036859Y010855D02*
X036859Y011445D01*
X035859Y011445D02*
X035859Y010855D01*
X034859Y010855D02*
X034859Y011445D01*
X033859Y011445D02*
X033859Y010855D01*
X032859Y010855D02*
X032859Y011445D01*
X027359Y011445D02*
X027359Y010855D01*
X026359Y010855D02*
X026359Y011445D01*
X025359Y011445D02*
X025359Y010855D01*
X024359Y010855D02*
X024359Y011445D01*
X023359Y011445D02*
X023359Y010855D01*
X022359Y010855D02*
X022359Y011445D01*
X021359Y011445D02*
X021359Y010855D01*
X020359Y010855D02*
X020359Y011445D01*
X020359Y001995D02*
X020359Y001405D01*
X021359Y001405D02*
X021359Y001995D01*
X022359Y001995D02*
X022359Y001405D01*
X023359Y001405D02*
X023359Y001995D01*
X024359Y001995D02*
X024359Y001405D01*
X025359Y001405D02*
X025359Y001995D01*
X026359Y001995D02*
X026359Y001405D01*
X027359Y001405D02*
X027359Y001995D01*
X032859Y001995D02*
X032859Y001405D01*
X033859Y001405D02*
X033859Y001995D01*
X034859Y001995D02*
X034859Y001405D01*
X035859Y001405D02*
X035859Y001995D01*
X036859Y001995D02*
X036859Y001405D01*
X037859Y001405D02*
X037859Y001995D01*
X038859Y001995D02*
X038859Y001405D01*
X039859Y001405D02*
X039859Y001995D01*
D21*
X016495Y021365D03*
X014723Y021365D03*
X013495Y021365D03*
X011723Y021365D03*
X011723Y024495D03*
X013495Y024495D03*
X014723Y024495D03*
X016495Y024495D03*
D22*
X012809Y021380D03*
X012059Y018130D03*
X022109Y016680D03*
X024559Y019030D03*
X026659Y019330D03*
X028609Y019030D03*
X034609Y016680D03*
X037059Y019030D03*
X039159Y019330D03*
X041109Y019030D03*
X055359Y013930D03*
X046209Y010930D03*
X049859Y008430D03*
X041109Y006530D03*
X039159Y006830D03*
X037059Y006530D03*
X034609Y004180D03*
X028609Y006530D03*
X026659Y006830D03*
X024559Y006530D03*
X022109Y004180D03*
X012059Y008630D03*
X007309Y013380D03*
X016809Y013380D03*
D23*
X016799Y013410D01*
X016309Y013900D01*
X016247Y013926D01*
X016029Y014740D02*
X018269Y014740D01*
X020089Y012920D01*
X031359Y012920D01*
X031149Y013060D02*
X031429Y013340D01*
X031779Y013340D01*
X032059Y013060D01*
X039619Y013060D01*
X043679Y017120D01*
X043679Y018030D01*
X044449Y018310D02*
X045079Y017680D01*
X045109Y017680D01*
X045499Y017680D01*
X046059Y018240D01*
X047249Y018240D01*
X047669Y018660D01*
X047669Y018870D01*
X050049Y021250D01*
X053339Y021250D01*
X053549Y021460D01*
X053549Y024190D01*
X053129Y024190D01*
X053109Y024180D01*
X053059Y024120D01*
X052709Y023770D01*
X051729Y023770D01*
X051379Y024120D01*
X049629Y024120D01*
X049609Y024180D01*
X049489Y023700D02*
X049069Y024120D01*
X048649Y024120D01*
X048609Y024180D01*
X049209Y023420D02*
X049489Y023700D01*
X049559Y023630D01*
X052639Y023630D01*
X053059Y023210D01*
X053109Y023180D01*
X053549Y024190D02*
X054809Y024190D01*
X055229Y024610D01*
X056139Y024610D01*
X056559Y024190D01*
X056609Y024180D01*
X056629Y024120D01*
X058379Y024120D01*
X058729Y023770D01*
X059709Y023770D01*
X060059Y024120D01*
X060109Y024180D01*
X060549Y024330D02*
X060549Y023000D01*
X060129Y022580D01*
X058379Y022580D01*
X054529Y018730D01*
X054529Y018520D01*
X054249Y018240D01*
X052709Y018240D01*
X052149Y017680D01*
X052109Y017680D01*
X052569Y017750D02*
X052569Y017540D01*
X051869Y016840D01*
X051169Y016350D02*
X051169Y017680D01*
X051109Y017680D01*
X051589Y017750D02*
X052079Y018240D01*
X052499Y018240D01*
X052919Y018660D01*
X053059Y018660D01*
X053109Y018680D01*
X052919Y018100D02*
X052569Y017750D01*
X051589Y017750D02*
X051589Y016140D01*
X055929Y011800D01*
X055929Y010750D01*
X045569Y000390D01*
X019669Y000390D01*
X010149Y009910D01*
X010149Y010540D01*
X010105Y010568D01*
X011497Y009176D02*
X011549Y009140D01*
X012059Y008630D01*
X017429Y006620D02*
X017429Y003330D01*
X020089Y000670D01*
X026319Y000670D01*
X027299Y001650D01*
X027359Y001700D01*
X026359Y001700D02*
X026319Y001650D01*
X025479Y000810D01*
X020159Y000810D01*
X017569Y003400D01*
X017569Y006550D01*
X018549Y007530D01*
X018549Y008440D01*
X018609Y008477D01*
X018109Y008477D02*
X018059Y008440D01*
X018059Y007250D01*
X017429Y006620D01*
X017709Y006480D02*
X017709Y003470D01*
X020229Y000950D01*
X021629Y000950D01*
X022329Y001650D01*
X022359Y001700D01*
X021359Y001700D02*
X021349Y001720D01*
X020649Y002420D01*
X019879Y002420D01*
X017849Y004450D01*
X017849Y006410D01*
X018759Y007320D01*
X019179Y007320D01*
X020089Y008230D01*
X020089Y008440D01*
X020109Y008477D01*
X019669Y008510D02*
X019669Y008790D01*
X021279Y010400D01*
X021629Y010400D01*
X022329Y011100D01*
X022359Y011150D01*
X022819Y010750D02*
X022819Y011730D01*
X023099Y012010D01*
X024499Y012010D01*
X025359Y011150D01*
X026109Y010890D02*
X026319Y011100D01*
X026359Y011150D01*
X026109Y010890D02*
X026109Y008370D01*
X026082Y008353D01*
X026389Y008300D02*
X026397Y008353D01*
X026389Y008300D02*
X026389Y008160D01*
X026179Y007950D01*
X024359Y007950D01*
X023939Y008370D01*
X024009Y008780D02*
X024409Y008780D01*
X024509Y008680D01*
X024509Y008356D01*
X024507Y008353D01*
X024809Y008366D02*
X024822Y008353D01*
X024809Y008366D02*
X024809Y008780D01*
X024609Y008980D01*
X023909Y008980D01*
X021909Y006980D01*
X018909Y006980D01*
X018609Y006680D01*
X018609Y004930D01*
X018109Y004930D02*
X018109Y006430D01*
X018859Y007180D01*
X021859Y007180D01*
X023859Y009180D01*
X024609Y009180D01*
X025109Y008680D01*
X025109Y008381D01*
X025137Y008353D01*
X025409Y008370D02*
X025452Y008353D01*
X025409Y008370D02*
X025409Y008720D01*
X025269Y008860D01*
X025759Y008720D02*
X025759Y008370D01*
X025767Y008353D01*
X025759Y008720D02*
X023379Y011100D01*
X023359Y011150D01*
X022959Y010680D02*
X022959Y011660D01*
X023169Y011870D01*
X023659Y011870D01*
X024359Y011170D01*
X024359Y011150D01*
X022959Y010680D02*
X022539Y010260D01*
X022189Y010260D01*
X020649Y008720D01*
X020649Y008510D01*
X020609Y008477D01*
X021069Y008440D02*
X021069Y008230D01*
X020719Y007880D01*
X020509Y007880D01*
X020369Y008020D01*
X020369Y008930D01*
X021839Y010400D01*
X022469Y010400D01*
X022819Y010750D01*
X026739Y010540D02*
X027299Y011100D01*
X027359Y011150D01*
X026739Y010540D02*
X026739Y008370D01*
X026712Y008353D01*
X026739Y007950D02*
X026809Y007950D01*
X031709Y012850D01*
X031709Y013060D01*
X032129Y013200D02*
X038849Y013200D01*
X039829Y014180D01*
X039859Y014200D01*
X038859Y014200D02*
X038849Y014180D01*
X038009Y013340D01*
X032199Y013340D01*
X028979Y016560D01*
X028979Y016700D01*
X029749Y017470D01*
X029749Y018730D01*
X031079Y020060D01*
X031079Y020970D01*
X031109Y020977D01*
X031569Y020970D02*
X031609Y020977D01*
X031569Y020970D02*
X031569Y020130D01*
X030099Y018660D01*
X030099Y016700D01*
X031709Y015090D01*
X034019Y015090D01*
X034859Y014250D01*
X034859Y014200D01*
X033859Y014200D02*
X033109Y014950D01*
X031639Y014950D01*
X029959Y016630D01*
X029959Y018730D01*
X031359Y020130D01*
X031359Y021460D01*
X031429Y021530D01*
X031779Y021530D01*
X031849Y021460D01*
X031849Y020480D01*
X031919Y020410D01*
X032269Y020410D01*
X032549Y020690D01*
X032549Y020970D01*
X032609Y020977D01*
X032129Y021040D02*
X032109Y020977D01*
X032129Y021040D02*
X032129Y021250D01*
X033809Y022930D01*
X034159Y022930D01*
X034859Y023630D01*
X034859Y023650D01*
X035419Y023350D02*
X035419Y024120D01*
X035699Y024400D01*
X036119Y024400D01*
X036819Y023700D01*
X036859Y023650D01*
X036609Y022930D02*
X035909Y023630D01*
X035859Y023650D01*
X035419Y023350D02*
X034999Y022930D01*
X034859Y022930D01*
X033109Y021180D01*
X033109Y020977D01*
X033609Y020977D02*
X033669Y021040D01*
X033669Y021250D01*
X034859Y022440D01*
X036959Y022440D01*
X036819Y022930D02*
X036609Y022930D01*
X036819Y022930D02*
X038289Y021460D01*
X038289Y020900D01*
X038267Y020853D01*
X038009Y020830D02*
X038009Y020620D01*
X038219Y020410D01*
X039409Y020410D01*
X039759Y020760D01*
X040389Y020760D01*
X040669Y020690D02*
X040669Y023700D01*
X039829Y024540D01*
X033739Y024540D01*
X032899Y023700D01*
X032859Y023650D01*
X033039Y024540D02*
X033529Y024540D01*
X033669Y024680D01*
X039899Y024680D01*
X042489Y022090D01*
X042489Y021880D01*
X043399Y020970D01*
X047669Y020970D01*
X047529Y020480D02*
X042979Y020480D01*
X042699Y020200D01*
X042489Y019920D02*
X041649Y020760D01*
X041609Y020765D01*
X041579Y020760D01*
X040949Y020760D01*
X040669Y020690D02*
X039969Y019990D01*
X039829Y019990D01*
X039783Y019967D01*
X039759Y020270D02*
X039783Y020282D01*
X039759Y020270D02*
X039549Y020270D01*
X038709Y019430D01*
X038709Y018520D01*
X038989Y018940D02*
X039059Y019010D01*
X039759Y019010D01*
X039783Y019023D01*
X039783Y019337D02*
X039759Y019360D01*
X039199Y019360D01*
X039159Y019330D01*
X039783Y019652D02*
X039829Y019640D01*
X040389Y019640D01*
X040669Y019360D01*
X040669Y017050D01*
X037869Y014250D01*
X037859Y014200D01*
X036399Y013830D02*
X036049Y013480D01*
X032689Y013480D01*
X032549Y013620D01*
X032269Y013620D01*
X032129Y013200D02*
X028839Y016490D01*
X028839Y016770D01*
X029609Y017540D01*
X029609Y018800D01*
X030589Y019780D01*
X030589Y020970D01*
X030609Y020977D01*
X029469Y020340D02*
X029469Y017610D01*
X026809Y014950D01*
X024079Y014950D01*
X023379Y014250D01*
X023359Y014200D01*
X022959Y014670D02*
X022959Y013690D01*
X023169Y013480D01*
X024639Y013480D01*
X025359Y014200D01*
X026359Y014200D02*
X026389Y014250D01*
X027089Y014950D01*
X027509Y014950D01*
X027789Y014670D01*
X027789Y013760D01*
X027229Y013200D01*
X020229Y013200D01*
X017429Y016000D01*
X017429Y021040D01*
X017919Y021530D01*
X018269Y021530D01*
X018549Y021250D01*
X018549Y021040D01*
X018609Y020977D01*
X018109Y020977D02*
X018059Y020970D01*
X018059Y019500D01*
X017569Y019010D01*
X017569Y016070D01*
X020299Y013340D01*
X026459Y013340D01*
X027299Y014180D01*
X027359Y014200D01*
X026669Y015090D02*
X023379Y015090D01*
X022959Y014670D01*
X022359Y014200D02*
X022329Y014180D01*
X021629Y013480D01*
X021209Y013480D01*
X020929Y013760D01*
X020929Y014530D01*
X020509Y014950D01*
X019669Y014950D01*
X017709Y016910D01*
X017709Y018940D01*
X019109Y020340D01*
X019109Y020977D01*
X019609Y020977D02*
X019669Y021040D01*
X019669Y021250D01*
X021349Y022930D01*
X021629Y022930D01*
X022329Y023630D01*
X022359Y023650D01*
X022259Y024540D02*
X021419Y023700D01*
X021359Y023650D01*
X022959Y024120D02*
X022959Y023140D01*
X023029Y023070D01*
X023029Y022160D01*
X022819Y021950D01*
X021839Y021950D01*
X021139Y021250D01*
X021139Y021040D01*
X021109Y020977D01*
X020649Y021040D02*
X020649Y021250D01*
X021629Y022230D01*
X022749Y022230D01*
X023859Y021680D02*
X024609Y021680D01*
X025109Y021180D01*
X025109Y020881D01*
X025137Y020853D01*
X025452Y020853D02*
X025479Y020830D01*
X025479Y020620D01*
X025689Y020410D01*
X026739Y020410D01*
X027089Y020760D01*
X029049Y020760D01*
X029109Y020765D01*
X029119Y020830D01*
X029119Y020970D01*
X032969Y024820D01*
X044379Y024820D01*
X046969Y022230D01*
X048579Y022230D01*
X048609Y022180D01*
X049069Y022300D02*
X049069Y022020D01*
X047529Y020480D01*
X047459Y020200D02*
X043049Y020200D01*
X042489Y019920D02*
X047949Y019920D01*
X050189Y022160D01*
X052079Y022160D01*
X052109Y022180D01*
X053689Y021880D02*
X053689Y021390D01*
X051379Y019080D01*
X048929Y019080D01*
X048509Y018660D01*
X048509Y018450D01*
X048159Y018100D01*
X047949Y018100D01*
X047529Y017680D01*
X047529Y011170D01*
X041089Y004730D01*
X040739Y004730D01*
X040459Y004450D02*
X038569Y002560D01*
X036609Y002560D01*
X035909Y001860D01*
X035909Y001720D01*
X035859Y001700D01*
X034859Y001720D02*
X034859Y001700D01*
X034859Y001720D02*
X034159Y002420D01*
X031709Y002420D01*
X030099Y004030D01*
X030099Y006550D01*
X031569Y008020D01*
X031569Y008440D01*
X031609Y008477D01*
X031109Y008477D02*
X031079Y008440D01*
X031079Y007740D01*
X029959Y006620D01*
X029959Y003680D01*
X032829Y000810D01*
X038009Y000810D01*
X038849Y001650D01*
X038859Y001700D01*
X039829Y001650D02*
X039859Y001700D01*
X039829Y001650D02*
X038849Y000670D01*
X032759Y000670D01*
X029819Y003610D01*
X029819Y006690D01*
X030589Y007460D01*
X030589Y008440D01*
X030609Y008477D01*
X030449Y009070D02*
X029469Y008090D01*
X029469Y007950D01*
X029119Y007600D01*
X029109Y007595D01*
X029119Y007530D01*
X029469Y007180D01*
X029469Y006200D01*
X029119Y005850D01*
X029109Y005845D01*
X029049Y005850D01*
X028909Y005990D01*
X028559Y005990D01*
X027999Y005990D02*
X027929Y005920D01*
X027299Y005920D01*
X027283Y005893D01*
X027229Y005920D01*
X026529Y005920D01*
X025899Y006550D01*
X025689Y006550D01*
X025409Y006480D02*
X026459Y005430D01*
X026809Y005430D01*
X028139Y004100D01*
X028139Y003890D01*
X026809Y002560D01*
X024219Y002560D01*
X023359Y001700D01*
X025359Y001700D02*
X025409Y001720D01*
X026109Y002420D01*
X026879Y002420D01*
X028279Y003820D01*
X028279Y006340D01*
X027509Y007110D01*
X027299Y007110D01*
X027283Y007152D01*
X027229Y007460D02*
X026669Y007460D01*
X026389Y007180D01*
X026039Y007180D01*
X025969Y007460D02*
X025409Y006900D01*
X025409Y006480D01*
X025269Y006410D02*
X025269Y006970D01*
X026109Y007810D01*
X026599Y007810D01*
X026739Y007950D01*
X026739Y007740D02*
X026459Y007460D01*
X025969Y007460D01*
X025759Y006900D02*
X026179Y006480D01*
X027229Y006480D01*
X027283Y006523D01*
X027229Y006830D02*
X026659Y006830D01*
X027229Y006830D02*
X027283Y006837D01*
X028609Y006530D02*
X028629Y006550D01*
X029049Y006550D01*
X029109Y006515D01*
X030379Y006410D02*
X030379Y004450D01*
X030449Y004380D01*
X032759Y004380D01*
X032829Y004450D01*
X032829Y005360D01*
X033669Y006200D01*
X035629Y006200D01*
X036259Y006830D01*
X036399Y006830D01*
X036436Y006837D01*
X036469Y006830D01*
X037169Y006830D01*
X037519Y006480D01*
X038639Y007600D01*
X039129Y007600D01*
X040109Y008580D01*
X041929Y008580D01*
X042209Y008300D01*
X041649Y007740D01*
X041649Y007600D01*
X041609Y007595D01*
X041579Y007530D01*
X040949Y007530D01*
X040739Y007320D01*
X040739Y006480D01*
X041369Y005850D01*
X041579Y005850D01*
X041609Y005845D01*
X041609Y006515D02*
X041579Y006550D01*
X041159Y006550D01*
X041109Y006530D01*
X040319Y006830D02*
X040319Y004730D01*
X038289Y002700D01*
X035979Y002700D01*
X035419Y002140D01*
X035419Y001230D01*
X035699Y000950D01*
X037099Y000950D01*
X037799Y001650D01*
X037859Y001700D01*
X035909Y002840D02*
X035279Y002210D01*
X035279Y001230D01*
X034999Y000950D01*
X033599Y000950D01*
X032899Y001650D01*
X032859Y001700D01*
X035909Y002840D02*
X037099Y002840D01*
X038709Y004450D01*
X038849Y004450D01*
X039059Y004590D02*
X038849Y004800D01*
X038897Y005007D01*
X038849Y004940D01*
X038849Y004800D01*
X037659Y003610D01*
X030729Y003610D01*
X030449Y003890D01*
X030449Y004030D01*
X030799Y003890D02*
X037659Y003890D01*
X038569Y004800D01*
X038569Y004940D01*
X038582Y005007D01*
X039212Y005007D02*
X039269Y005010D01*
X040039Y005010D01*
X039969Y005290D02*
X039689Y005290D01*
X039969Y005290D02*
X040179Y005500D01*
X040179Y006340D01*
X040039Y006480D01*
X039829Y006480D01*
X039783Y006523D01*
X039759Y006830D02*
X039159Y006830D01*
X039759Y006830D02*
X039783Y006837D01*
X040039Y007110D02*
X040319Y006830D01*
X040039Y007110D02*
X039829Y007110D01*
X039783Y007152D01*
X039759Y007460D02*
X038849Y007460D01*
X037869Y006480D01*
X037519Y006480D02*
X038079Y005920D01*
X039759Y005920D01*
X039783Y005893D01*
X039759Y005640D02*
X039783Y005578D01*
X039759Y005640D02*
X038149Y005640D01*
X037729Y006060D01*
X036889Y006060D01*
X037059Y006530D02*
X037029Y006550D01*
X036469Y006550D01*
X036436Y006523D01*
X035809Y007480D02*
X034709Y006380D01*
X032709Y006380D01*
X032609Y006280D01*
X032609Y004930D01*
X032109Y004930D02*
X032109Y006480D01*
X032209Y006580D01*
X034609Y006580D01*
X035809Y007780D01*
X036434Y007780D01*
X036436Y007782D01*
X036423Y007480D02*
X035809Y007480D01*
X036423Y007480D02*
X036436Y007467D01*
X038009Y008090D02*
X038009Y008300D01*
X037952Y008353D01*
X038219Y008370D02*
X038267Y008353D01*
X038219Y008370D02*
X038219Y008790D01*
X035859Y011150D01*
X035419Y010820D02*
X035419Y011590D01*
X035699Y011870D01*
X036119Y011870D01*
X036819Y011170D01*
X036859Y011150D01*
X035419Y010820D02*
X034999Y010400D01*
X034579Y010400D01*
X033109Y008930D01*
X033109Y008477D01*
X032619Y008440D02*
X032609Y008477D01*
X032619Y008440D02*
X032619Y007460D01*
X031359Y007180D02*
X034359Y007180D01*
X036359Y009180D01*
X037109Y009180D01*
X037609Y008680D01*
X037609Y008381D01*
X037637Y008353D01*
X037322Y008353D02*
X037309Y008366D01*
X037309Y008780D01*
X037109Y008980D01*
X036409Y008980D01*
X034409Y006980D01*
X031409Y006980D01*
X031109Y006680D01*
X031109Y004930D01*
X030609Y004930D02*
X030609Y006430D01*
X031359Y007180D01*
X031709Y006780D02*
X034509Y006780D01*
X036509Y008780D01*
X036909Y008780D01*
X037009Y008680D01*
X037009Y008356D01*
X037007Y008353D01*
X038009Y008090D02*
X038219Y007880D01*
X039059Y007880D01*
X039212Y008353D02*
X039269Y008370D01*
X039269Y010540D01*
X039829Y011100D01*
X039859Y011150D01*
X038859Y011150D02*
X038849Y011100D01*
X038429Y010680D01*
X038429Y009210D01*
X038569Y009070D01*
X038569Y008370D01*
X038582Y008353D01*
X038849Y008370D02*
X038897Y008353D01*
X038849Y008370D02*
X038849Y008860D01*
X039969Y008090D02*
X040109Y008230D01*
X041579Y008230D01*
X041609Y008265D01*
X042209Y008300D02*
X043609Y009700D01*
X043609Y012710D01*
X043889Y012990D01*
X043909Y013015D01*
X043909Y013865D01*
X043925Y013880D01*
X043959Y013900D01*
X045009Y014950D01*
X044449Y015510D01*
X045079Y016140D01*
X045079Y017680D01*
X044449Y018310D02*
X041649Y018310D01*
X041609Y018345D01*
X041579Y018380D01*
X041299Y018380D01*
X040809Y018870D01*
X040809Y019710D01*
X040739Y019640D01*
X040809Y019710D02*
X041159Y020060D01*
X041579Y020060D01*
X041609Y020095D01*
X041089Y019430D02*
X047669Y019430D01*
X049769Y021530D01*
X053269Y021530D01*
X053689Y021880D02*
X055579Y023770D01*
X055579Y024120D01*
X055609Y024180D01*
X055649Y024120D01*
X056069Y024120D01*
X056559Y023630D01*
X059639Y023630D01*
X060059Y023210D01*
X060109Y023180D01*
X059109Y023180D02*
X059079Y023140D01*
X058659Y022720D01*
X056489Y022720D01*
X056069Y023140D01*
X055649Y023140D01*
X055609Y023180D01*
X055609Y022180D02*
X055579Y022160D01*
X055019Y022160D01*
X051519Y018660D01*
X051519Y018520D01*
X051099Y018100D01*
X049909Y018100D01*
X049559Y017750D01*
X049559Y017050D01*
X048439Y015930D01*
X051169Y016350D02*
X055789Y011730D01*
X055789Y010820D01*
X045499Y000530D01*
X020019Y000530D01*
X015679Y004870D01*
X015679Y014740D01*
X016239Y015300D01*
X016239Y015440D01*
X012459Y019220D01*
X012459Y021390D01*
X011759Y022090D01*
X011759Y024470D01*
X011723Y024495D01*
X011479Y024960D02*
X012319Y024960D01*
X013229Y024050D01*
X019879Y024050D01*
X020509Y024680D01*
X032479Y024680D01*
X027359Y023650D02*
X027299Y023630D01*
X027299Y023490D01*
X026739Y022930D01*
X026739Y020900D01*
X026712Y020853D01*
X026459Y020900D02*
X026397Y020853D01*
X026459Y020900D02*
X026459Y022860D01*
X026809Y023210D01*
X026809Y024120D01*
X026389Y024540D01*
X022259Y024540D01*
X022959Y024120D02*
X023239Y024400D01*
X024639Y024400D01*
X025339Y023700D01*
X025359Y023650D01*
X026109Y023420D02*
X026319Y023630D01*
X026359Y023650D01*
X026109Y023420D02*
X026109Y020900D01*
X026082Y020853D01*
X025767Y020853D02*
X025759Y020900D01*
X025759Y021250D01*
X023359Y023650D01*
X023859Y021680D02*
X021859Y019680D01*
X018859Y019680D01*
X018109Y018930D01*
X018109Y017430D01*
X018609Y017430D02*
X018609Y019180D01*
X018909Y019480D01*
X021909Y019480D01*
X023909Y021480D01*
X024609Y021480D01*
X024809Y021280D01*
X024809Y020866D01*
X024822Y020853D01*
X024509Y020856D02*
X024509Y021180D01*
X024409Y021280D01*
X024009Y021280D01*
X022009Y019280D01*
X019209Y019280D01*
X019109Y019180D01*
X019109Y017430D01*
X019609Y017430D02*
X019609Y018980D01*
X019709Y019080D01*
X022109Y019080D01*
X023309Y020280D01*
X023934Y020280D01*
X023936Y020282D01*
X023923Y019980D02*
X023309Y019980D01*
X022209Y018880D01*
X020209Y018880D01*
X020109Y018780D01*
X020109Y017430D01*
X020609Y017430D02*
X020609Y017880D01*
X021109Y018380D01*
X022909Y018380D01*
X024009Y017280D01*
X024309Y017280D01*
X024507Y017478D01*
X024507Y017507D01*
X024822Y017507D02*
X024822Y017293D01*
X024609Y017080D01*
X023909Y017080D01*
X022809Y018180D01*
X021509Y018180D01*
X021109Y017780D01*
X021109Y017430D01*
X021609Y017430D02*
X021609Y017780D01*
X021809Y017980D01*
X022709Y017980D01*
X023809Y016880D01*
X024809Y016880D01*
X025109Y017180D01*
X025109Y017479D01*
X025137Y017507D01*
X026082Y017507D02*
X026109Y017470D01*
X026109Y016560D01*
X026949Y015720D01*
X026669Y015090D02*
X028279Y016700D01*
X028279Y017610D01*
X028139Y017750D01*
X028139Y019010D01*
X027509Y019640D01*
X027299Y019640D01*
X027283Y019652D01*
X027229Y019360D02*
X026669Y019360D01*
X026659Y019330D01*
X027229Y019360D02*
X027283Y019337D01*
X027283Y019023D02*
X027229Y019010D01*
X025199Y019010D01*
X024429Y019780D01*
X024709Y019990D02*
X024079Y020620D01*
X023729Y020620D01*
X024507Y020853D02*
X024509Y020856D01*
X022119Y020970D02*
X022119Y020340D01*
X022119Y020970D02*
X022109Y020977D01*
X021629Y020970D02*
X021609Y020977D01*
X021629Y020970D02*
X021629Y019920D01*
X023099Y019360D02*
X023869Y019360D01*
X023936Y019337D01*
X023939Y019360D01*
X024639Y019360D01*
X025549Y018450D01*
X027229Y018450D01*
X027283Y018393D01*
X027283Y018078D02*
X027299Y018030D01*
X027439Y018030D01*
X027649Y017820D01*
X027999Y017540D02*
X026739Y017540D01*
X026712Y017507D01*
X026459Y017540D02*
X026397Y017507D01*
X026459Y017540D02*
X026459Y017750D01*
X026739Y018030D01*
X028279Y018940D02*
X028279Y019290D01*
X027789Y019780D01*
X027283Y019967D02*
X027229Y019990D01*
X024709Y019990D01*
X023936Y019967D02*
X023923Y019980D01*
X023939Y019080D02*
X023936Y019023D01*
X023939Y019080D02*
X024499Y019080D01*
X024559Y019030D01*
X027283Y020282D02*
X027299Y020340D01*
X028769Y020340D01*
X028839Y020410D01*
X029399Y020410D01*
X029469Y020340D01*
X029109Y020095D02*
X028909Y019920D01*
X029189Y019640D01*
X028909Y019920D02*
X028279Y019290D01*
X028609Y019030D02*
X028629Y019010D01*
X029049Y019010D01*
X029109Y019015D01*
X028839Y018380D02*
X028279Y018940D01*
X028839Y018380D02*
X029049Y018380D01*
X029109Y018345D01*
X030609Y018930D02*
X031359Y019680D01*
X034359Y019680D01*
X036359Y021680D01*
X037109Y021680D01*
X037609Y021180D01*
X037609Y020881D01*
X037637Y020853D01*
X037952Y020853D02*
X038009Y020830D01*
X038569Y020900D02*
X038582Y020853D01*
X038569Y020900D02*
X038569Y021460D01*
X038429Y021600D01*
X038429Y023210D01*
X038849Y023630D01*
X038859Y023650D01*
X039269Y023070D02*
X039829Y023630D01*
X039859Y023650D01*
X039269Y023070D02*
X039269Y020900D01*
X039212Y020853D01*
X038897Y020853D02*
X038849Y020900D01*
X038849Y021390D01*
X037799Y021390D02*
X037309Y021880D01*
X034789Y021880D01*
X034159Y021250D01*
X034159Y021040D01*
X034109Y020977D01*
X034609Y020977D02*
X034649Y020970D01*
X034929Y020690D01*
X035809Y020280D02*
X036434Y020280D01*
X036436Y020282D01*
X036423Y019980D02*
X035809Y019980D01*
X034709Y018880D01*
X032709Y018880D01*
X032609Y018780D01*
X032609Y017430D01*
X032109Y017430D02*
X032109Y018980D01*
X032209Y019080D01*
X034609Y019080D01*
X035809Y020280D01*
X036423Y019980D02*
X036436Y019967D01*
X035909Y019710D02*
X035909Y019640D01*
X036189Y019360D01*
X036399Y019360D01*
X036436Y019337D01*
X036469Y019360D01*
X037519Y019360D01*
X038639Y018240D01*
X039409Y018240D01*
X039549Y018380D01*
X039759Y018380D01*
X039783Y018393D01*
X039829Y018450D01*
X040039Y018450D01*
X040389Y018800D01*
X040389Y019290D01*
X041109Y019030D02*
X041159Y019010D01*
X041579Y019010D01*
X041609Y019015D01*
X040389Y018380D02*
X040249Y018380D01*
X039969Y018100D01*
X039829Y018100D01*
X039783Y018078D01*
X039759Y018100D01*
X036959Y018100D01*
X036749Y017890D01*
X036119Y017890D01*
X035489Y018520D01*
X033459Y018520D01*
X032829Y017890D01*
X032829Y016910D01*
X032549Y016630D01*
X030869Y016630D01*
X030799Y016350D02*
X030379Y016770D01*
X030799Y016350D02*
X038289Y016350D01*
X038849Y016910D01*
X038849Y017470D01*
X038897Y017507D01*
X038919Y017540D01*
X038919Y017750D01*
X039129Y017960D01*
X039269Y017960D01*
X039339Y017890D01*
X040109Y017890D01*
X040249Y018030D01*
X040389Y018030D01*
X039549Y017540D02*
X039269Y017540D01*
X039212Y017507D01*
X039199Y017470D01*
X039199Y017050D01*
X038359Y016210D01*
X038009Y016210D01*
X036399Y014600D01*
X036399Y013830D01*
X033739Y012920D02*
X029119Y008300D01*
X029109Y008265D01*
X029049Y008230D01*
X027439Y008230D01*
X027283Y007782D02*
X027229Y007740D01*
X026739Y007740D01*
X027229Y007460D02*
X027283Y007467D01*
X025269Y006410D02*
X026389Y005290D01*
X026389Y005010D01*
X026397Y005007D01*
X026109Y004940D02*
X026082Y005007D01*
X026109Y004940D02*
X026109Y004800D01*
X027159Y003750D01*
X027649Y003750D01*
X027859Y004030D02*
X026949Y004940D01*
X026739Y004940D01*
X026712Y005007D01*
X027283Y005578D02*
X027299Y005640D01*
X027999Y005640D01*
X030379Y006410D02*
X031919Y007950D01*
X031989Y007880D01*
X032269Y007880D01*
X032339Y007950D01*
X032339Y008930D01*
X032479Y009070D01*
X032759Y009070D01*
X032829Y009000D01*
X032829Y008020D01*
X032969Y007880D01*
X033249Y007880D01*
X033389Y008020D01*
X033389Y009000D01*
X033459Y009070D01*
X034229Y009070D01*
X034579Y008720D01*
X034579Y008510D01*
X034609Y008477D01*
X034159Y008440D02*
X034109Y008477D01*
X034159Y008440D02*
X034159Y007600D01*
X034089Y007320D02*
X033669Y007740D01*
X033669Y008440D01*
X033609Y008477D01*
X032129Y008510D02*
X032129Y008930D01*
X033599Y010400D01*
X034159Y010400D01*
X034859Y011100D01*
X034859Y011150D01*
X036749Y009840D02*
X034229Y007320D01*
X034089Y007320D01*
X031919Y007950D02*
X031849Y008020D01*
X031849Y008930D01*
X031709Y009070D01*
X030449Y009070D01*
X032109Y008477D02*
X032129Y008510D01*
X031709Y006780D02*
X031609Y006680D01*
X031609Y004930D01*
X033109Y004930D02*
X033109Y005380D01*
X033609Y005880D01*
X035409Y005880D01*
X036509Y004780D01*
X036809Y004780D01*
X037007Y004978D01*
X037007Y005007D01*
X037322Y005007D02*
X037322Y004793D01*
X037109Y004580D01*
X036409Y004580D01*
X035309Y005680D01*
X034009Y005680D01*
X033609Y005280D01*
X033609Y004930D01*
X034109Y004930D02*
X034109Y005280D01*
X034309Y005480D01*
X035209Y005480D01*
X036309Y004380D01*
X037309Y004380D01*
X037609Y004680D01*
X037609Y004979D01*
X037637Y005007D01*
X039059Y004590D02*
X039269Y004590D01*
X039339Y004660D01*
X039899Y004660D01*
X040459Y004450D02*
X040459Y007320D01*
X040039Y007740D01*
X039829Y007740D01*
X039783Y007782D01*
X039783Y007467D02*
X039759Y007460D01*
X034649Y004870D02*
X034609Y004930D01*
X034649Y004870D02*
X034649Y004240D01*
X034609Y004180D01*
X025137Y005007D02*
X025109Y004979D01*
X025109Y004680D01*
X024809Y004380D01*
X023809Y004380D01*
X022709Y005480D01*
X021809Y005480D01*
X021609Y005280D01*
X021609Y004940D01*
X021629Y004940D01*
X021609Y004930D01*
X021609Y004940D01*
X021609Y004930D02*
X021609Y004680D01*
X022119Y004870D02*
X022109Y004930D01*
X022119Y004870D02*
X022119Y004240D01*
X022109Y004180D01*
X022809Y005680D02*
X023909Y004580D01*
X024609Y004580D01*
X024822Y004793D01*
X024822Y005007D01*
X024507Y005007D02*
X024507Y004978D01*
X024309Y004780D01*
X024009Y004780D01*
X022909Y005880D01*
X021109Y005880D01*
X020609Y005380D01*
X020609Y004930D01*
X020109Y004930D02*
X020109Y006280D01*
X020209Y006380D01*
X022209Y006380D01*
X023309Y007480D01*
X023923Y007480D01*
X023936Y007467D01*
X023934Y007780D02*
X023309Y007780D01*
X022109Y006580D01*
X019709Y006580D01*
X019609Y006480D01*
X019609Y004930D01*
X019109Y004930D02*
X019109Y006680D01*
X019209Y006780D01*
X022009Y006780D01*
X024009Y008780D01*
X022119Y008440D02*
X022109Y008477D01*
X022119Y008440D02*
X022119Y007810D01*
X021629Y007460D02*
X021629Y008440D01*
X021609Y008477D01*
X021109Y008477D02*
X021069Y008440D01*
X019669Y008510D02*
X019609Y008477D01*
X019109Y008477D02*
X019109Y007880D01*
X017709Y006480D01*
X021109Y005280D02*
X021109Y004930D01*
X021109Y005280D02*
X021509Y005680D01*
X022809Y005680D01*
X023936Y006523D02*
X023939Y006550D01*
X024499Y006550D01*
X024559Y006530D01*
X023936Y006837D02*
X023869Y006830D01*
X023099Y006830D01*
X023934Y007780D02*
X023936Y007782D01*
X033739Y012920D02*
X043469Y012920D01*
X043909Y013015D02*
X044709Y013015D01*
X045009Y013200D02*
X045149Y013060D01*
X045289Y013200D01*
X045149Y013060D02*
X045359Y012850D01*
X045499Y012850D01*
X045555Y012837D01*
X045555Y012995D02*
X045555Y013660D01*
X045575Y013680D01*
X045569Y013690D01*
X045569Y014180D01*
X045779Y014390D01*
X045219Y014950D01*
X045009Y014950D01*
X045779Y014390D02*
X046129Y014390D01*
X046969Y013550D01*
X046969Y013060D01*
X047009Y013015D01*
X046675Y012680D01*
X046264Y012680D01*
X046264Y012837D02*
X046067Y012837D01*
X046009Y012780D01*
X046009Y012630D01*
X046117Y012523D01*
X046264Y012523D01*
X046264Y012365D01*
X046264Y011600D01*
X046244Y011580D01*
X046244Y011045D01*
X046209Y010930D01*
X045109Y010930D01*
X044709Y011330D01*
X044709Y012345D01*
X043909Y012345D01*
X045555Y012523D02*
X045767Y012523D01*
X045859Y012430D01*
X045859Y012180D01*
X045575Y011895D01*
X045575Y011580D01*
X046264Y012365D02*
X046990Y012365D01*
X047009Y012345D01*
X046264Y012995D02*
X046264Y013660D01*
X046244Y013680D01*
X046199Y013690D01*
X046199Y013970D01*
X046059Y014110D01*
X045009Y013480D02*
X044659Y013830D01*
X044594Y013880D01*
X045009Y013480D02*
X045009Y013200D01*
X038359Y017120D02*
X037939Y016700D01*
X035139Y016700D01*
X034929Y016910D01*
X034649Y016700D02*
X034609Y016680D01*
X034649Y016700D02*
X034649Y017400D01*
X034609Y017430D01*
X034109Y017430D02*
X034109Y017780D01*
X034309Y017980D01*
X035209Y017980D01*
X036309Y016880D01*
X037309Y016880D01*
X037609Y017180D01*
X037609Y017479D01*
X037637Y017507D01*
X037322Y017507D02*
X037322Y017293D01*
X037109Y017080D01*
X036409Y017080D01*
X035309Y018180D01*
X034009Y018180D01*
X033609Y017780D01*
X033609Y017430D01*
X033109Y017430D02*
X033109Y017880D01*
X033609Y018380D01*
X035409Y018380D01*
X036509Y017280D01*
X036809Y017280D01*
X037007Y017478D01*
X037007Y017507D01*
X038359Y017120D02*
X038429Y017120D01*
X038569Y016980D01*
X038359Y017120D02*
X038569Y017330D01*
X038569Y017470D01*
X038582Y017507D01*
X037059Y019030D02*
X037029Y019080D01*
X036469Y019080D01*
X036436Y019023D01*
X034509Y019280D02*
X036509Y021280D01*
X036909Y021280D01*
X037009Y021180D01*
X037009Y020856D01*
X037007Y020853D01*
X037309Y020866D02*
X037322Y020853D01*
X037309Y020866D02*
X037309Y021280D01*
X037109Y021480D01*
X036409Y021480D01*
X034409Y019480D01*
X031409Y019480D01*
X031109Y019180D01*
X031109Y017430D01*
X030609Y017430D02*
X030609Y018930D01*
X031609Y019180D02*
X031709Y019280D01*
X034509Y019280D01*
X031609Y019180D02*
X031609Y017430D01*
X029049Y020060D02*
X028909Y019920D01*
X029049Y020060D02*
X029109Y020095D01*
X022109Y017430D02*
X022119Y017400D01*
X022119Y016700D01*
X022109Y016680D01*
X021209Y015930D02*
X021419Y015720D01*
X021419Y014250D01*
X021359Y014200D01*
X020159Y013060D02*
X031149Y013060D01*
X021209Y015930D02*
X018899Y015930D01*
X017849Y016980D01*
X017849Y018870D01*
X018829Y019850D01*
X019179Y019850D01*
X020089Y020760D01*
X020089Y020970D01*
X020109Y020977D01*
X020609Y020977D02*
X020649Y021040D01*
X016495Y021365D02*
X016449Y021390D01*
X016029Y021810D01*
X014419Y021810D01*
X013999Y021390D01*
X013509Y021390D01*
X013495Y021365D01*
X013439Y021390D01*
X012809Y021390D01*
X012809Y021380D01*
X010709Y020060D02*
X010149Y020060D01*
X010105Y020068D01*
X010709Y020060D02*
X015539Y015230D01*
X015469Y014950D02*
X015119Y015300D01*
X014909Y015300D01*
X014855Y015318D01*
X015609Y014950D02*
X015959Y015300D01*
X015959Y015370D01*
X016309Y015020D02*
X018199Y015020D01*
X020159Y013060D01*
X015609Y014950D02*
X015469Y014950D01*
X012059Y018130D02*
X012039Y018170D01*
X011549Y018660D01*
X011497Y018676D01*
X005389Y018870D02*
X011479Y024960D01*
X014723Y024495D02*
X014769Y024540D01*
X015819Y024540D01*
X016239Y024960D01*
X059919Y024960D01*
X060549Y024330D01*
X059109Y022180D02*
X059079Y022160D01*
X055999Y019080D01*
X055929Y019080D01*
X055509Y018660D01*
X055509Y018450D01*
X055159Y018100D01*
X052919Y018100D01*
X050119Y017680D02*
X050119Y017190D01*
X055299Y012010D01*
X055299Y011240D01*
X055363Y011196D01*
X055363Y013164D02*
X055369Y013200D01*
X055369Y013900D01*
X055359Y013930D01*
X050119Y017680D02*
X050109Y017680D01*
X048159Y017680D02*
X048109Y017680D01*
X048159Y017680D02*
X048159Y008580D01*
X049839Y006900D01*
X049839Y005710D01*
X049863Y005696D01*
X049863Y007664D02*
X049839Y007670D01*
X049839Y008370D01*
X049859Y008430D01*
X047459Y020200D02*
X049209Y021950D01*
X049209Y023420D01*
X048649Y023140D02*
X048609Y023180D01*
X048649Y023140D02*
X048649Y022720D01*
X049069Y022300D01*
X007309Y013380D02*
X006789Y013900D01*
X006747Y013926D01*
X005355Y015318D02*
X005389Y015370D01*
X005389Y018870D01*
D24*
X015539Y015230D03*
X015959Y015370D03*
X016309Y015020D03*
X016029Y014740D03*
X026949Y015720D03*
X030379Y016770D03*
X030869Y016630D03*
X027999Y017540D03*
X027649Y017820D03*
X026739Y018030D03*
X027789Y019780D03*
X029189Y019640D03*
X024429Y019780D03*
X023099Y019360D03*
X021629Y019920D03*
X022119Y020340D03*
X023729Y020620D03*
X022749Y022230D03*
X032479Y024680D03*
X033039Y024540D03*
X036959Y022440D03*
X037799Y021390D03*
X038849Y021390D03*
X040389Y020760D03*
X040949Y020760D03*
X042699Y020200D03*
X043049Y020200D03*
X041089Y019430D03*
X040739Y019640D03*
X040389Y019290D03*
X038989Y018940D03*
X038709Y018520D03*
X040389Y018380D03*
X040389Y018030D03*
X039549Y017540D03*
X038569Y016980D03*
X034929Y016910D03*
X035909Y019710D03*
X034929Y020690D03*
X043679Y018030D03*
X048439Y015930D03*
X051869Y016840D03*
X046059Y014110D03*
X045289Y013200D03*
X043469Y012920D03*
X044449Y015510D03*
X032269Y013620D03*
X031709Y013060D03*
X031359Y012920D03*
X036749Y009840D03*
X038849Y008860D03*
X039059Y007880D03*
X039969Y008090D03*
X037869Y006480D03*
X036889Y006060D03*
X039689Y005290D03*
X040039Y005010D03*
X039899Y004660D03*
X038849Y004450D03*
X040739Y004730D03*
X034159Y007600D03*
X032619Y007460D03*
X028559Y005990D03*
X027999Y005990D03*
X027999Y005640D03*
X025689Y006550D03*
X025759Y006900D03*
X026039Y007180D03*
X027439Y008230D03*
X025269Y008860D03*
X023939Y008370D03*
X022119Y007810D03*
X021629Y007460D03*
X023099Y006830D03*
X027859Y004030D03*
X027649Y003750D03*
X030449Y004030D03*
X030799Y003890D03*
X047669Y020970D03*
X053269Y021530D03*
M02*
