G75*
%MOIN*%
%OFA0B0*%
%FSLAX24Y24*%
%IPPOS*%
%LPD*%
%AMOC8*
5,1,8,0,0,1.08239X$1,22.5*
%
%ADD10C,0.1345*%
%ADD11R,0.0670X0.0690*%
%ADD12R,0.0296X0.0149*%
%ADD13R,0.0454X0.0493*%
%ADD14R,0.0493X0.0454*%
%ADD15OC8,0.0660*%
%ADD16C,0.0220*%
%ADD17R,0.0296X0.0926*%
%ADD18R,0.0660X0.0660*%
%ADD19C,0.0651*%
%ADD20R,0.0572X0.0670*%
%ADD21C,0.0436*%
%ADD22C,0.0330*%
D10*
X004109Y002680D03*
X044109Y002680D03*
X064109Y002680D03*
X064109Y022680D03*
X044109Y022680D03*
X004109Y022680D03*
D11*
G36*
X010585Y020061D02*
X010112Y019588D01*
X009625Y020075D01*
X010098Y020548D01*
X010585Y020061D01*
G37*
G36*
X011977Y018669D02*
X011504Y018196D01*
X011017Y018683D01*
X011490Y019156D01*
X011977Y018669D01*
G37*
G36*
X006702Y016177D02*
X006229Y015704D01*
X005742Y016191D01*
X006215Y016664D01*
X006702Y016177D01*
G37*
G36*
X005835Y015311D02*
X005362Y014838D01*
X004875Y015325D01*
X005348Y015798D01*
X005835Y015311D01*
G37*
G36*
X008093Y014785D02*
X007620Y014312D01*
X007133Y014799D01*
X007606Y015272D01*
X008093Y014785D01*
G37*
G36*
X007227Y013919D02*
X006754Y013446D01*
X006267Y013933D01*
X006740Y014406D01*
X007227Y013919D01*
G37*
G36*
X011452Y011427D02*
X010979Y010954D01*
X010492Y011441D01*
X010965Y011914D01*
X011452Y011427D01*
G37*
G36*
X010585Y010561D02*
X010112Y010088D01*
X009625Y010575D01*
X010098Y011048D01*
X010585Y010561D01*
G37*
G36*
X012843Y010035D02*
X012370Y009562D01*
X011883Y010049D01*
X012356Y010522D01*
X012843Y010035D01*
G37*
G36*
X011977Y009169D02*
X011504Y008696D01*
X011017Y009183D01*
X011490Y009656D01*
X011977Y009169D01*
G37*
G36*
X006702Y006677D02*
X006229Y006204D01*
X005742Y006691D01*
X006215Y007164D01*
X006702Y006677D01*
G37*
G36*
X008093Y005285D02*
X007620Y004812D01*
X007133Y005299D01*
X007606Y005772D01*
X008093Y005285D01*
G37*
G36*
X003343Y010035D02*
X002870Y009562D01*
X002383Y010049D01*
X002856Y010522D01*
X003343Y010035D01*
G37*
G36*
X001952Y011427D02*
X001479Y010954D01*
X000992Y011441D01*
X001465Y011914D01*
X001952Y011427D01*
G37*
G36*
X015335Y015311D02*
X014862Y014838D01*
X014375Y015325D01*
X014848Y015798D01*
X015335Y015311D01*
G37*
G36*
X016727Y013919D02*
X016254Y013446D01*
X015767Y013933D01*
X016240Y014406D01*
X016727Y013919D01*
G37*
X049863Y007664D03*
X049863Y005696D03*
X055355Y005696D03*
X055355Y007664D03*
X055363Y011196D03*
X055363Y013164D03*
X060855Y013164D03*
X060855Y011196D03*
D12*
X046264Y012365D03*
X046264Y012523D03*
X046264Y012680D03*
X046264Y012837D03*
X046264Y012995D03*
X045555Y012995D03*
X045555Y012837D03*
X045555Y012680D03*
X045555Y012523D03*
X045555Y012365D03*
D13*
X044709Y012345D03*
X043909Y012345D03*
X043909Y013015D03*
X044709Y013015D03*
X045575Y013680D03*
X046244Y013680D03*
X047009Y013015D03*
X047009Y012345D03*
X044594Y013880D03*
X043925Y013880D03*
X041609Y018345D03*
X041609Y019015D03*
X029109Y019015D03*
X029109Y018345D03*
X029109Y006515D03*
X029109Y005845D03*
X041609Y005845D03*
X041609Y006515D03*
D14*
X041609Y007595D03*
X041609Y008265D03*
X045575Y011580D03*
X046244Y011580D03*
X029109Y008265D03*
X029109Y007595D03*
X029109Y020095D03*
X029109Y020765D03*
X041609Y020765D03*
X041609Y020095D03*
D15*
X045109Y018680D03*
X046109Y018680D03*
X047109Y018680D03*
X048109Y018680D03*
X049109Y018680D03*
X050109Y018680D03*
X051109Y018680D03*
X052109Y018680D03*
X053109Y018680D03*
X054109Y018680D03*
X055109Y018680D03*
X056109Y018680D03*
X057109Y018680D03*
X058109Y018680D03*
X059109Y018680D03*
X060109Y018680D03*
X061109Y018680D03*
X062109Y018680D03*
X063109Y018680D03*
X064109Y018680D03*
X064109Y017680D03*
X063109Y017680D03*
X062109Y017680D03*
X061109Y017680D03*
X060109Y017680D03*
X059109Y017680D03*
X058109Y017680D03*
X057109Y017680D03*
X056109Y017680D03*
X055109Y017680D03*
X054109Y017680D03*
X053109Y017680D03*
X052109Y017680D03*
X051109Y017680D03*
X050109Y017680D03*
X049109Y017680D03*
X048109Y017680D03*
X047109Y017680D03*
X046109Y017680D03*
X045109Y017680D03*
X048609Y022180D03*
X049609Y022180D03*
X049609Y023180D03*
X048609Y023180D03*
X049609Y024180D03*
X052109Y023180D03*
X053109Y023180D03*
X053109Y022180D03*
X052109Y022180D03*
X055609Y022180D03*
X056609Y022180D03*
X056609Y023180D03*
X055609Y023180D03*
X056609Y024180D03*
X059109Y023180D03*
X060109Y023180D03*
X060109Y022180D03*
X059109Y022180D03*
X060109Y024180D03*
X053109Y024180D03*
D16*
X039998Y020282D02*
X039568Y020282D01*
X039568Y019967D02*
X039998Y019967D01*
X039998Y019652D02*
X039568Y019652D01*
X039568Y019337D02*
X039998Y019337D01*
X039998Y019023D02*
X039568Y019023D01*
X039568Y018708D02*
X039998Y018708D01*
X039998Y018393D02*
X039568Y018393D01*
X039568Y018078D02*
X039998Y018078D01*
X039212Y017722D02*
X039212Y017292D01*
X038897Y017292D02*
X038897Y017722D01*
X038582Y017722D02*
X038582Y017292D01*
X038267Y017292D02*
X038267Y017722D01*
X037952Y017722D02*
X037952Y017292D01*
X037637Y017292D02*
X037637Y017722D01*
X037322Y017722D02*
X037322Y017292D01*
X037007Y017292D02*
X037007Y017722D01*
X036651Y018078D02*
X036221Y018078D01*
X036221Y018393D02*
X036651Y018393D01*
X036651Y018708D02*
X036221Y018708D01*
X036221Y019023D02*
X036651Y019023D01*
X036651Y019337D02*
X036221Y019337D01*
X036221Y019652D02*
X036651Y019652D01*
X036651Y019967D02*
X036221Y019967D01*
X036221Y020282D02*
X036651Y020282D01*
X037007Y020638D02*
X037007Y021068D01*
X037322Y021068D02*
X037322Y020638D01*
X037637Y020638D02*
X037637Y021068D01*
X037952Y021068D02*
X037952Y020638D01*
X038267Y020638D02*
X038267Y021068D01*
X038582Y021068D02*
X038582Y020638D01*
X038897Y020638D02*
X038897Y021068D01*
X039212Y021068D02*
X039212Y020638D01*
X027498Y020282D02*
X027068Y020282D01*
X027068Y019967D02*
X027498Y019967D01*
X027498Y019652D02*
X027068Y019652D01*
X027068Y019337D02*
X027498Y019337D01*
X027498Y019023D02*
X027068Y019023D01*
X027068Y018708D02*
X027498Y018708D01*
X027498Y018393D02*
X027068Y018393D01*
X027068Y018078D02*
X027498Y018078D01*
X026712Y017722D02*
X026712Y017292D01*
X026397Y017292D02*
X026397Y017722D01*
X026082Y017722D02*
X026082Y017292D01*
X025767Y017292D02*
X025767Y017722D01*
X025452Y017722D02*
X025452Y017292D01*
X025137Y017292D02*
X025137Y017722D01*
X024822Y017722D02*
X024822Y017292D01*
X024507Y017292D02*
X024507Y017722D01*
X024151Y018078D02*
X023721Y018078D01*
X023721Y018393D02*
X024151Y018393D01*
X024151Y018708D02*
X023721Y018708D01*
X023721Y019023D02*
X024151Y019023D01*
X024151Y019337D02*
X023721Y019337D01*
X023721Y019652D02*
X024151Y019652D01*
X024151Y019967D02*
X023721Y019967D01*
X023721Y020282D02*
X024151Y020282D01*
X024507Y020638D02*
X024507Y021068D01*
X024822Y021068D02*
X024822Y020638D01*
X025137Y020638D02*
X025137Y021068D01*
X025452Y021068D02*
X025452Y020638D01*
X025767Y020638D02*
X025767Y021068D01*
X026082Y021068D02*
X026082Y020638D01*
X026397Y020638D02*
X026397Y021068D01*
X026712Y021068D02*
X026712Y020638D01*
X026712Y008568D02*
X026712Y008138D01*
X026397Y008138D02*
X026397Y008568D01*
X026082Y008568D02*
X026082Y008138D01*
X025767Y008138D02*
X025767Y008568D01*
X025452Y008568D02*
X025452Y008138D01*
X025137Y008138D02*
X025137Y008568D01*
X024822Y008568D02*
X024822Y008138D01*
X024507Y008138D02*
X024507Y008568D01*
X024151Y007782D02*
X023721Y007782D01*
X023721Y007467D02*
X024151Y007467D01*
X024151Y007152D02*
X023721Y007152D01*
X023721Y006837D02*
X024151Y006837D01*
X024151Y006523D02*
X023721Y006523D01*
X023721Y006208D02*
X024151Y006208D01*
X024151Y005893D02*
X023721Y005893D01*
X023721Y005578D02*
X024151Y005578D01*
X024507Y005222D02*
X024507Y004792D01*
X024822Y004792D02*
X024822Y005222D01*
X025137Y005222D02*
X025137Y004792D01*
X025452Y004792D02*
X025452Y005222D01*
X025767Y005222D02*
X025767Y004792D01*
X026082Y004792D02*
X026082Y005222D01*
X026397Y005222D02*
X026397Y004792D01*
X026712Y004792D02*
X026712Y005222D01*
X027068Y005578D02*
X027498Y005578D01*
X027498Y005893D02*
X027068Y005893D01*
X027068Y006208D02*
X027498Y006208D01*
X027498Y006523D02*
X027068Y006523D01*
X027068Y006837D02*
X027498Y006837D01*
X027498Y007152D02*
X027068Y007152D01*
X027068Y007467D02*
X027498Y007467D01*
X027498Y007782D02*
X027068Y007782D01*
X036221Y007782D02*
X036651Y007782D01*
X036651Y007467D02*
X036221Y007467D01*
X036221Y007152D02*
X036651Y007152D01*
X036651Y006837D02*
X036221Y006837D01*
X036221Y006523D02*
X036651Y006523D01*
X036651Y006208D02*
X036221Y006208D01*
X036221Y005893D02*
X036651Y005893D01*
X036651Y005578D02*
X036221Y005578D01*
X037007Y005222D02*
X037007Y004792D01*
X037322Y004792D02*
X037322Y005222D01*
X037637Y005222D02*
X037637Y004792D01*
X037952Y004792D02*
X037952Y005222D01*
X038267Y005222D02*
X038267Y004792D01*
X038582Y004792D02*
X038582Y005222D01*
X038897Y005222D02*
X038897Y004792D01*
X039212Y004792D02*
X039212Y005222D01*
X039568Y005578D02*
X039998Y005578D01*
X039998Y005893D02*
X039568Y005893D01*
X039568Y006208D02*
X039998Y006208D01*
X039998Y006523D02*
X039568Y006523D01*
X039568Y006837D02*
X039998Y006837D01*
X039998Y007152D02*
X039568Y007152D01*
X039568Y007467D02*
X039998Y007467D01*
X039998Y007782D02*
X039568Y007782D01*
X039212Y008138D02*
X039212Y008568D01*
X038897Y008568D02*
X038897Y008138D01*
X038582Y008138D02*
X038582Y008568D01*
X038267Y008568D02*
X038267Y008138D01*
X037952Y008138D02*
X037952Y008568D01*
X037637Y008568D02*
X037637Y008138D01*
X037322Y008138D02*
X037322Y008568D01*
X037007Y008568D02*
X037007Y008138D01*
D17*
X034609Y008477D03*
X034109Y008477D03*
X033609Y008477D03*
X033109Y008477D03*
X032609Y008477D03*
X032109Y008477D03*
X031609Y008477D03*
X031109Y008477D03*
X030609Y008477D03*
X022109Y008477D03*
X021609Y008477D03*
X021109Y008477D03*
X020609Y008477D03*
X020109Y008477D03*
X019609Y008477D03*
X019109Y008477D03*
X018609Y008477D03*
X018109Y008477D03*
X018109Y004930D03*
X018609Y004930D03*
X019109Y004930D03*
X019609Y004930D03*
X020109Y004930D03*
X020609Y004930D03*
X021109Y004930D03*
X021609Y004930D03*
X022109Y004930D03*
X030609Y004930D03*
X031109Y004930D03*
X031609Y004930D03*
X032109Y004930D03*
X032609Y004930D03*
X033109Y004930D03*
X033609Y004930D03*
X034109Y004930D03*
X034609Y004930D03*
X034609Y017430D03*
X034109Y017430D03*
X033609Y017430D03*
X033109Y017430D03*
X032609Y017430D03*
X032109Y017430D03*
X031609Y017430D03*
X031109Y017430D03*
X030609Y017430D03*
X022109Y017430D03*
X021609Y017430D03*
X021109Y017430D03*
X020609Y017430D03*
X020109Y017430D03*
X019609Y017430D03*
X019109Y017430D03*
X018609Y017430D03*
X018109Y017430D03*
X018109Y020977D03*
X018609Y020977D03*
X019109Y020977D03*
X019609Y020977D03*
X020109Y020977D03*
X020609Y020977D03*
X021109Y020977D03*
X021609Y020977D03*
X022109Y020977D03*
X030609Y020977D03*
X031109Y020977D03*
X031609Y020977D03*
X032109Y020977D03*
X032609Y020977D03*
X033109Y020977D03*
X033609Y020977D03*
X034109Y020977D03*
X034609Y020977D03*
D18*
X048609Y024180D03*
X052109Y024180D03*
X055609Y024180D03*
X059109Y024180D03*
D19*
X039859Y023945D02*
X039859Y023355D01*
X038859Y023355D02*
X038859Y023945D01*
X037859Y023945D02*
X037859Y023355D01*
X036859Y023355D02*
X036859Y023945D01*
X035859Y023945D02*
X035859Y023355D01*
X034859Y023355D02*
X034859Y023945D01*
X033859Y023945D02*
X033859Y023355D01*
X032859Y023355D02*
X032859Y023945D01*
X027359Y023945D02*
X027359Y023355D01*
X026359Y023355D02*
X026359Y023945D01*
X025359Y023945D02*
X025359Y023355D01*
X024359Y023355D02*
X024359Y023945D01*
X023359Y023945D02*
X023359Y023355D01*
X022359Y023355D02*
X022359Y023945D01*
X021359Y023945D02*
X021359Y023355D01*
X020359Y023355D02*
X020359Y023945D01*
X020359Y014495D02*
X020359Y013905D01*
X021359Y013905D02*
X021359Y014495D01*
X022359Y014495D02*
X022359Y013905D01*
X023359Y013905D02*
X023359Y014495D01*
X024359Y014495D02*
X024359Y013905D01*
X025359Y013905D02*
X025359Y014495D01*
X026359Y014495D02*
X026359Y013905D01*
X027359Y013905D02*
X027359Y014495D01*
X032859Y014495D02*
X032859Y013905D01*
X033859Y013905D02*
X033859Y014495D01*
X034859Y014495D02*
X034859Y013905D01*
X035859Y013905D02*
X035859Y014495D01*
X036859Y014495D02*
X036859Y013905D01*
X037859Y013905D02*
X037859Y014495D01*
X038859Y014495D02*
X038859Y013905D01*
X039859Y013905D02*
X039859Y014495D01*
X039859Y011445D02*
X039859Y010855D01*
X038859Y010855D02*
X038859Y011445D01*
X037859Y011445D02*
X037859Y010855D01*
X036859Y010855D02*
X036859Y011445D01*
X035859Y011445D02*
X035859Y010855D01*
X034859Y010855D02*
X034859Y011445D01*
X033859Y011445D02*
X033859Y010855D01*
X032859Y010855D02*
X032859Y011445D01*
X027359Y011445D02*
X027359Y010855D01*
X026359Y010855D02*
X026359Y011445D01*
X025359Y011445D02*
X025359Y010855D01*
X024359Y010855D02*
X024359Y011445D01*
X023359Y011445D02*
X023359Y010855D01*
X022359Y010855D02*
X022359Y011445D01*
X021359Y011445D02*
X021359Y010855D01*
X020359Y010855D02*
X020359Y011445D01*
X020359Y001995D02*
X020359Y001405D01*
X021359Y001405D02*
X021359Y001995D01*
X022359Y001995D02*
X022359Y001405D01*
X023359Y001405D02*
X023359Y001995D01*
X024359Y001995D02*
X024359Y001405D01*
X025359Y001405D02*
X025359Y001995D01*
X026359Y001995D02*
X026359Y001405D01*
X027359Y001405D02*
X027359Y001995D01*
X032859Y001995D02*
X032859Y001405D01*
X033859Y001405D02*
X033859Y001995D01*
X034859Y001995D02*
X034859Y001405D01*
X035859Y001405D02*
X035859Y001995D01*
X036859Y001995D02*
X036859Y001405D01*
X037859Y001405D02*
X037859Y001995D01*
X038859Y001995D02*
X038859Y001405D01*
X039859Y001405D02*
X039859Y001995D01*
D20*
X016495Y021365D03*
X014723Y021365D03*
X013495Y021365D03*
X011723Y021365D03*
X011723Y024495D03*
X013495Y024495D03*
X014723Y024495D03*
X016495Y024495D03*
D21*
X012809Y021380D03*
X012059Y018130D03*
X022109Y016680D03*
X024559Y019030D03*
X026659Y019330D03*
X028609Y019030D03*
X034609Y016680D03*
X037059Y019030D03*
X039159Y019330D03*
X041109Y019030D03*
X055359Y013930D03*
X046209Y010930D03*
X049859Y008430D03*
X041109Y006530D03*
X039159Y006830D03*
X037059Y006530D03*
X034609Y004180D03*
X028609Y006530D03*
X026659Y006830D03*
X024559Y006530D03*
X022109Y004180D03*
X012059Y008630D03*
X007309Y013380D03*
X016809Y013380D03*
D22*
X016029Y014740D03*
X016309Y015020D03*
X015959Y015370D03*
X015539Y015230D03*
X023099Y019360D03*
X024429Y019780D03*
X022119Y020340D03*
X021629Y019920D03*
X023729Y020620D03*
X022749Y022230D03*
X027789Y019780D03*
X029189Y019640D03*
X026739Y018030D03*
X027649Y017820D03*
X027999Y017540D03*
X030379Y016770D03*
X030869Y016630D03*
X026949Y015720D03*
X032269Y013620D03*
X031709Y013060D03*
X031359Y012920D03*
X036749Y009840D03*
X038849Y008860D03*
X039059Y007880D03*
X039969Y008090D03*
X037869Y006480D03*
X036889Y006060D03*
X039689Y005290D03*
X040039Y005010D03*
X039899Y004660D03*
X038849Y004450D03*
X040739Y004730D03*
X034159Y007600D03*
X032619Y007460D03*
X028559Y005990D03*
X027999Y005990D03*
X027999Y005640D03*
X025689Y006550D03*
X025759Y006900D03*
X026039Y007180D03*
X027439Y008230D03*
X025269Y008860D03*
X023939Y008370D03*
X022119Y007810D03*
X021629Y007460D03*
X023099Y006830D03*
X027859Y004030D03*
X027649Y003750D03*
X030449Y004030D03*
X030799Y003890D03*
X043469Y012920D03*
X045289Y013200D03*
X046059Y014110D03*
X044449Y015510D03*
X048439Y015930D03*
X051869Y016840D03*
X043679Y018030D03*
X041089Y019430D03*
X040739Y019640D03*
X040389Y019290D03*
X038989Y018940D03*
X038709Y018520D03*
X040389Y018380D03*
X040389Y018030D03*
X039549Y017540D03*
X038569Y016980D03*
X034929Y016910D03*
X035909Y019710D03*
X034929Y020690D03*
X037799Y021390D03*
X038849Y021390D03*
X040389Y020760D03*
X040949Y020760D03*
X042699Y020200D03*
X043049Y020200D03*
X047669Y020970D03*
X053269Y021530D03*
X036959Y022440D03*
X033039Y024540D03*
X032479Y024680D03*
M02*
