G75*
%MOIN*%
%OFA0B0*%
%FSLAX24Y24*%
%IPPOS*%
%LPD*%
%AMOC8*
5,1,8,0,0,1.08239X$1,22.5*
%
%ADD10C,0.0160*%
%ADD11C,0.0018*%
%ADD12C,0.0045*%
%ADD13C,0.0040*%
%ADD14C,0.0070*%
%ADD15C,0.0150*%
%ADD16C,0.0100*%
%ADD17C,0.0120*%
%ADD18C,0.0050*%
%ADD19C,0.0060*%
%ADD20R,0.0200X0.0200*%
D10*
X002609Y002680D02*
X002611Y002757D01*
X002617Y002834D01*
X002627Y002911D01*
X002641Y002987D01*
X002658Y003062D01*
X002680Y003136D01*
X002705Y003209D01*
X002735Y003281D01*
X002767Y003351D01*
X002804Y003419D01*
X002843Y003485D01*
X002886Y003549D01*
X002933Y003611D01*
X002982Y003670D01*
X003035Y003727D01*
X003090Y003781D01*
X003148Y003832D01*
X003209Y003880D01*
X003272Y003925D01*
X003337Y003966D01*
X003404Y004004D01*
X003473Y004039D01*
X003544Y004069D01*
X003616Y004097D01*
X003690Y004120D01*
X003764Y004140D01*
X003840Y004156D01*
X003916Y004168D01*
X003993Y004176D01*
X004070Y004180D01*
X004148Y004180D01*
X004225Y004176D01*
X004302Y004168D01*
X004378Y004156D01*
X004454Y004140D01*
X004528Y004120D01*
X004602Y004097D01*
X004674Y004069D01*
X004745Y004039D01*
X004814Y004004D01*
X004881Y003966D01*
X004946Y003925D01*
X005009Y003880D01*
X005070Y003832D01*
X005128Y003781D01*
X005183Y003727D01*
X005236Y003670D01*
X005285Y003611D01*
X005332Y003549D01*
X005375Y003485D01*
X005414Y003419D01*
X005451Y003351D01*
X005483Y003281D01*
X005513Y003209D01*
X005538Y003136D01*
X005560Y003062D01*
X005577Y002987D01*
X005591Y002911D01*
X005601Y002834D01*
X005607Y002757D01*
X005609Y002680D01*
X005607Y002603D01*
X005601Y002526D01*
X005591Y002449D01*
X005577Y002373D01*
X005560Y002298D01*
X005538Y002224D01*
X005513Y002151D01*
X005483Y002079D01*
X005451Y002009D01*
X005414Y001941D01*
X005375Y001875D01*
X005332Y001811D01*
X005285Y001749D01*
X005236Y001690D01*
X005183Y001633D01*
X005128Y001579D01*
X005070Y001528D01*
X005009Y001480D01*
X004946Y001435D01*
X004881Y001394D01*
X004814Y001356D01*
X004745Y001321D01*
X004674Y001291D01*
X004602Y001263D01*
X004528Y001240D01*
X004454Y001220D01*
X004378Y001204D01*
X004302Y001192D01*
X004225Y001184D01*
X004148Y001180D01*
X004070Y001180D01*
X003993Y001184D01*
X003916Y001192D01*
X003840Y001204D01*
X003764Y001220D01*
X003690Y001240D01*
X003616Y001263D01*
X003544Y001291D01*
X003473Y001321D01*
X003404Y001356D01*
X003337Y001394D01*
X003272Y001435D01*
X003209Y001480D01*
X003148Y001528D01*
X003090Y001579D01*
X003035Y001633D01*
X002982Y001690D01*
X002933Y001749D01*
X002886Y001811D01*
X002843Y001875D01*
X002804Y001941D01*
X002767Y002009D01*
X002735Y002079D01*
X002705Y002151D01*
X002680Y002224D01*
X002658Y002298D01*
X002641Y002373D01*
X002627Y002449D01*
X002617Y002526D01*
X002611Y002603D01*
X002609Y002680D01*
X017609Y000180D02*
X017609Y012680D01*
X042609Y012680D01*
X042609Y000180D01*
X042609Y002680D02*
X042611Y002757D01*
X042617Y002834D01*
X042627Y002911D01*
X042641Y002987D01*
X042658Y003062D01*
X042680Y003136D01*
X042705Y003209D01*
X042735Y003281D01*
X042767Y003351D01*
X042804Y003419D01*
X042843Y003485D01*
X042886Y003549D01*
X042933Y003611D01*
X042982Y003670D01*
X043035Y003727D01*
X043090Y003781D01*
X043148Y003832D01*
X043209Y003880D01*
X043272Y003925D01*
X043337Y003966D01*
X043404Y004004D01*
X043473Y004039D01*
X043544Y004069D01*
X043616Y004097D01*
X043690Y004120D01*
X043764Y004140D01*
X043840Y004156D01*
X043916Y004168D01*
X043993Y004176D01*
X044070Y004180D01*
X044148Y004180D01*
X044225Y004176D01*
X044302Y004168D01*
X044378Y004156D01*
X044454Y004140D01*
X044528Y004120D01*
X044602Y004097D01*
X044674Y004069D01*
X044745Y004039D01*
X044814Y004004D01*
X044881Y003966D01*
X044946Y003925D01*
X045009Y003880D01*
X045070Y003832D01*
X045128Y003781D01*
X045183Y003727D01*
X045236Y003670D01*
X045285Y003611D01*
X045332Y003549D01*
X045375Y003485D01*
X045414Y003419D01*
X045451Y003351D01*
X045483Y003281D01*
X045513Y003209D01*
X045538Y003136D01*
X045560Y003062D01*
X045577Y002987D01*
X045591Y002911D01*
X045601Y002834D01*
X045607Y002757D01*
X045609Y002680D01*
X045607Y002603D01*
X045601Y002526D01*
X045591Y002449D01*
X045577Y002373D01*
X045560Y002298D01*
X045538Y002224D01*
X045513Y002151D01*
X045483Y002079D01*
X045451Y002009D01*
X045414Y001941D01*
X045375Y001875D01*
X045332Y001811D01*
X045285Y001749D01*
X045236Y001690D01*
X045183Y001633D01*
X045128Y001579D01*
X045070Y001528D01*
X045009Y001480D01*
X044946Y001435D01*
X044881Y001394D01*
X044814Y001356D01*
X044745Y001321D01*
X044674Y001291D01*
X044602Y001263D01*
X044528Y001240D01*
X044454Y001220D01*
X044378Y001204D01*
X044302Y001192D01*
X044225Y001184D01*
X044148Y001180D01*
X044070Y001180D01*
X043993Y001184D01*
X043916Y001192D01*
X043840Y001204D01*
X043764Y001220D01*
X043690Y001240D01*
X043616Y001263D01*
X043544Y001291D01*
X043473Y001321D01*
X043404Y001356D01*
X043337Y001394D01*
X043272Y001435D01*
X043209Y001480D01*
X043148Y001528D01*
X043090Y001579D01*
X043035Y001633D01*
X042982Y001690D01*
X042933Y001749D01*
X042886Y001811D01*
X042843Y001875D01*
X042804Y001941D01*
X042767Y002009D01*
X042735Y002079D01*
X042705Y002151D01*
X042680Y002224D01*
X042658Y002298D01*
X042641Y002373D01*
X042627Y002449D01*
X042617Y002526D01*
X042611Y002603D01*
X042609Y002680D01*
X030109Y000180D02*
X030109Y025180D01*
X042609Y025180D02*
X042609Y012680D01*
X017609Y012680D02*
X017609Y025180D01*
X002609Y022680D02*
X002611Y022757D01*
X002617Y022834D01*
X002627Y022911D01*
X002641Y022987D01*
X002658Y023062D01*
X002680Y023136D01*
X002705Y023209D01*
X002735Y023281D01*
X002767Y023351D01*
X002804Y023419D01*
X002843Y023485D01*
X002886Y023549D01*
X002933Y023611D01*
X002982Y023670D01*
X003035Y023727D01*
X003090Y023781D01*
X003148Y023832D01*
X003209Y023880D01*
X003272Y023925D01*
X003337Y023966D01*
X003404Y024004D01*
X003473Y024039D01*
X003544Y024069D01*
X003616Y024097D01*
X003690Y024120D01*
X003764Y024140D01*
X003840Y024156D01*
X003916Y024168D01*
X003993Y024176D01*
X004070Y024180D01*
X004148Y024180D01*
X004225Y024176D01*
X004302Y024168D01*
X004378Y024156D01*
X004454Y024140D01*
X004528Y024120D01*
X004602Y024097D01*
X004674Y024069D01*
X004745Y024039D01*
X004814Y024004D01*
X004881Y023966D01*
X004946Y023925D01*
X005009Y023880D01*
X005070Y023832D01*
X005128Y023781D01*
X005183Y023727D01*
X005236Y023670D01*
X005285Y023611D01*
X005332Y023549D01*
X005375Y023485D01*
X005414Y023419D01*
X005451Y023351D01*
X005483Y023281D01*
X005513Y023209D01*
X005538Y023136D01*
X005560Y023062D01*
X005577Y022987D01*
X005591Y022911D01*
X005601Y022834D01*
X005607Y022757D01*
X005609Y022680D01*
X005607Y022603D01*
X005601Y022526D01*
X005591Y022449D01*
X005577Y022373D01*
X005560Y022298D01*
X005538Y022224D01*
X005513Y022151D01*
X005483Y022079D01*
X005451Y022009D01*
X005414Y021941D01*
X005375Y021875D01*
X005332Y021811D01*
X005285Y021749D01*
X005236Y021690D01*
X005183Y021633D01*
X005128Y021579D01*
X005070Y021528D01*
X005009Y021480D01*
X004946Y021435D01*
X004881Y021394D01*
X004814Y021356D01*
X004745Y021321D01*
X004674Y021291D01*
X004602Y021263D01*
X004528Y021240D01*
X004454Y021220D01*
X004378Y021204D01*
X004302Y021192D01*
X004225Y021184D01*
X004148Y021180D01*
X004070Y021180D01*
X003993Y021184D01*
X003916Y021192D01*
X003840Y021204D01*
X003764Y021220D01*
X003690Y021240D01*
X003616Y021263D01*
X003544Y021291D01*
X003473Y021321D01*
X003404Y021356D01*
X003337Y021394D01*
X003272Y021435D01*
X003209Y021480D01*
X003148Y021528D01*
X003090Y021579D01*
X003035Y021633D01*
X002982Y021690D01*
X002933Y021749D01*
X002886Y021811D01*
X002843Y021875D01*
X002804Y021941D01*
X002767Y022009D01*
X002735Y022079D01*
X002705Y022151D01*
X002680Y022224D01*
X002658Y022298D01*
X002641Y022373D01*
X002627Y022449D01*
X002617Y022526D01*
X002611Y022603D01*
X002609Y022680D01*
X042609Y022680D02*
X042611Y022757D01*
X042617Y022834D01*
X042627Y022911D01*
X042641Y022987D01*
X042658Y023062D01*
X042680Y023136D01*
X042705Y023209D01*
X042735Y023281D01*
X042767Y023351D01*
X042804Y023419D01*
X042843Y023485D01*
X042886Y023549D01*
X042933Y023611D01*
X042982Y023670D01*
X043035Y023727D01*
X043090Y023781D01*
X043148Y023832D01*
X043209Y023880D01*
X043272Y023925D01*
X043337Y023966D01*
X043404Y024004D01*
X043473Y024039D01*
X043544Y024069D01*
X043616Y024097D01*
X043690Y024120D01*
X043764Y024140D01*
X043840Y024156D01*
X043916Y024168D01*
X043993Y024176D01*
X044070Y024180D01*
X044148Y024180D01*
X044225Y024176D01*
X044302Y024168D01*
X044378Y024156D01*
X044454Y024140D01*
X044528Y024120D01*
X044602Y024097D01*
X044674Y024069D01*
X044745Y024039D01*
X044814Y024004D01*
X044881Y023966D01*
X044946Y023925D01*
X045009Y023880D01*
X045070Y023832D01*
X045128Y023781D01*
X045183Y023727D01*
X045236Y023670D01*
X045285Y023611D01*
X045332Y023549D01*
X045375Y023485D01*
X045414Y023419D01*
X045451Y023351D01*
X045483Y023281D01*
X045513Y023209D01*
X045538Y023136D01*
X045560Y023062D01*
X045577Y022987D01*
X045591Y022911D01*
X045601Y022834D01*
X045607Y022757D01*
X045609Y022680D01*
X045607Y022603D01*
X045601Y022526D01*
X045591Y022449D01*
X045577Y022373D01*
X045560Y022298D01*
X045538Y022224D01*
X045513Y022151D01*
X045483Y022079D01*
X045451Y022009D01*
X045414Y021941D01*
X045375Y021875D01*
X045332Y021811D01*
X045285Y021749D01*
X045236Y021690D01*
X045183Y021633D01*
X045128Y021579D01*
X045070Y021528D01*
X045009Y021480D01*
X044946Y021435D01*
X044881Y021394D01*
X044814Y021356D01*
X044745Y021321D01*
X044674Y021291D01*
X044602Y021263D01*
X044528Y021240D01*
X044454Y021220D01*
X044378Y021204D01*
X044302Y021192D01*
X044225Y021184D01*
X044148Y021180D01*
X044070Y021180D01*
X043993Y021184D01*
X043916Y021192D01*
X043840Y021204D01*
X043764Y021220D01*
X043690Y021240D01*
X043616Y021263D01*
X043544Y021291D01*
X043473Y021321D01*
X043404Y021356D01*
X043337Y021394D01*
X043272Y021435D01*
X043209Y021480D01*
X043148Y021528D01*
X043090Y021579D01*
X043035Y021633D01*
X042982Y021690D01*
X042933Y021749D01*
X042886Y021811D01*
X042843Y021875D01*
X042804Y021941D01*
X042767Y022009D01*
X042735Y022079D01*
X042705Y022151D01*
X042680Y022224D01*
X042658Y022298D01*
X042641Y022373D01*
X042627Y022449D01*
X042617Y022526D01*
X042611Y022603D01*
X042609Y022680D01*
X062609Y022680D02*
X062611Y022757D01*
X062617Y022834D01*
X062627Y022911D01*
X062641Y022987D01*
X062658Y023062D01*
X062680Y023136D01*
X062705Y023209D01*
X062735Y023281D01*
X062767Y023351D01*
X062804Y023419D01*
X062843Y023485D01*
X062886Y023549D01*
X062933Y023611D01*
X062982Y023670D01*
X063035Y023727D01*
X063090Y023781D01*
X063148Y023832D01*
X063209Y023880D01*
X063272Y023925D01*
X063337Y023966D01*
X063404Y024004D01*
X063473Y024039D01*
X063544Y024069D01*
X063616Y024097D01*
X063690Y024120D01*
X063764Y024140D01*
X063840Y024156D01*
X063916Y024168D01*
X063993Y024176D01*
X064070Y024180D01*
X064148Y024180D01*
X064225Y024176D01*
X064302Y024168D01*
X064378Y024156D01*
X064454Y024140D01*
X064528Y024120D01*
X064602Y024097D01*
X064674Y024069D01*
X064745Y024039D01*
X064814Y024004D01*
X064881Y023966D01*
X064946Y023925D01*
X065009Y023880D01*
X065070Y023832D01*
X065128Y023781D01*
X065183Y023727D01*
X065236Y023670D01*
X065285Y023611D01*
X065332Y023549D01*
X065375Y023485D01*
X065414Y023419D01*
X065451Y023351D01*
X065483Y023281D01*
X065513Y023209D01*
X065538Y023136D01*
X065560Y023062D01*
X065577Y022987D01*
X065591Y022911D01*
X065601Y022834D01*
X065607Y022757D01*
X065609Y022680D01*
X065607Y022603D01*
X065601Y022526D01*
X065591Y022449D01*
X065577Y022373D01*
X065560Y022298D01*
X065538Y022224D01*
X065513Y022151D01*
X065483Y022079D01*
X065451Y022009D01*
X065414Y021941D01*
X065375Y021875D01*
X065332Y021811D01*
X065285Y021749D01*
X065236Y021690D01*
X065183Y021633D01*
X065128Y021579D01*
X065070Y021528D01*
X065009Y021480D01*
X064946Y021435D01*
X064881Y021394D01*
X064814Y021356D01*
X064745Y021321D01*
X064674Y021291D01*
X064602Y021263D01*
X064528Y021240D01*
X064454Y021220D01*
X064378Y021204D01*
X064302Y021192D01*
X064225Y021184D01*
X064148Y021180D01*
X064070Y021180D01*
X063993Y021184D01*
X063916Y021192D01*
X063840Y021204D01*
X063764Y021220D01*
X063690Y021240D01*
X063616Y021263D01*
X063544Y021291D01*
X063473Y021321D01*
X063404Y021356D01*
X063337Y021394D01*
X063272Y021435D01*
X063209Y021480D01*
X063148Y021528D01*
X063090Y021579D01*
X063035Y021633D01*
X062982Y021690D01*
X062933Y021749D01*
X062886Y021811D01*
X062843Y021875D01*
X062804Y021941D01*
X062767Y022009D01*
X062735Y022079D01*
X062705Y022151D01*
X062680Y022224D01*
X062658Y022298D01*
X062641Y022373D01*
X062627Y022449D01*
X062617Y022526D01*
X062611Y022603D01*
X062609Y022680D01*
X062609Y002680D02*
X062611Y002757D01*
X062617Y002834D01*
X062627Y002911D01*
X062641Y002987D01*
X062658Y003062D01*
X062680Y003136D01*
X062705Y003209D01*
X062735Y003281D01*
X062767Y003351D01*
X062804Y003419D01*
X062843Y003485D01*
X062886Y003549D01*
X062933Y003611D01*
X062982Y003670D01*
X063035Y003727D01*
X063090Y003781D01*
X063148Y003832D01*
X063209Y003880D01*
X063272Y003925D01*
X063337Y003966D01*
X063404Y004004D01*
X063473Y004039D01*
X063544Y004069D01*
X063616Y004097D01*
X063690Y004120D01*
X063764Y004140D01*
X063840Y004156D01*
X063916Y004168D01*
X063993Y004176D01*
X064070Y004180D01*
X064148Y004180D01*
X064225Y004176D01*
X064302Y004168D01*
X064378Y004156D01*
X064454Y004140D01*
X064528Y004120D01*
X064602Y004097D01*
X064674Y004069D01*
X064745Y004039D01*
X064814Y004004D01*
X064881Y003966D01*
X064946Y003925D01*
X065009Y003880D01*
X065070Y003832D01*
X065128Y003781D01*
X065183Y003727D01*
X065236Y003670D01*
X065285Y003611D01*
X065332Y003549D01*
X065375Y003485D01*
X065414Y003419D01*
X065451Y003351D01*
X065483Y003281D01*
X065513Y003209D01*
X065538Y003136D01*
X065560Y003062D01*
X065577Y002987D01*
X065591Y002911D01*
X065601Y002834D01*
X065607Y002757D01*
X065609Y002680D01*
X065607Y002603D01*
X065601Y002526D01*
X065591Y002449D01*
X065577Y002373D01*
X065560Y002298D01*
X065538Y002224D01*
X065513Y002151D01*
X065483Y002079D01*
X065451Y002009D01*
X065414Y001941D01*
X065375Y001875D01*
X065332Y001811D01*
X065285Y001749D01*
X065236Y001690D01*
X065183Y001633D01*
X065128Y001579D01*
X065070Y001528D01*
X065009Y001480D01*
X064946Y001435D01*
X064881Y001394D01*
X064814Y001356D01*
X064745Y001321D01*
X064674Y001291D01*
X064602Y001263D01*
X064528Y001240D01*
X064454Y001220D01*
X064378Y001204D01*
X064302Y001192D01*
X064225Y001184D01*
X064148Y001180D01*
X064070Y001180D01*
X063993Y001184D01*
X063916Y001192D01*
X063840Y001204D01*
X063764Y001220D01*
X063690Y001240D01*
X063616Y001263D01*
X063544Y001291D01*
X063473Y001321D01*
X063404Y001356D01*
X063337Y001394D01*
X063272Y001435D01*
X063209Y001480D01*
X063148Y001528D01*
X063090Y001579D01*
X063035Y001633D01*
X062982Y001690D01*
X062933Y001749D01*
X062886Y001811D01*
X062843Y001875D01*
X062804Y001941D01*
X062767Y002009D01*
X062735Y002079D01*
X062705Y002151D01*
X062680Y002224D01*
X062658Y002298D01*
X062641Y002373D01*
X062627Y002449D01*
X062617Y002526D01*
X062611Y002603D01*
X062609Y002680D01*
D11*
X016826Y003021D02*
X016068Y002263D01*
X015742Y002589D01*
X016394Y002589D01*
X016410Y002605D02*
X015758Y002605D01*
X015742Y002589D02*
X016174Y003021D01*
X015799Y003397D01*
X016174Y003773D01*
X015714Y004233D01*
X016040Y004559D01*
X016826Y003773D01*
X016451Y003397D01*
X016826Y003021D01*
X016823Y003018D02*
X016171Y003018D01*
X016161Y003034D02*
X016813Y003034D01*
X016797Y003051D02*
X016145Y003051D01*
X016128Y003067D02*
X016780Y003067D01*
X016764Y003084D02*
X016112Y003084D01*
X016095Y003100D02*
X016747Y003100D01*
X016731Y003117D02*
X016079Y003117D01*
X016062Y003133D02*
X016714Y003133D01*
X016698Y003150D02*
X016046Y003150D01*
X016029Y003166D02*
X016681Y003166D01*
X016665Y003183D02*
X016013Y003183D01*
X015996Y003199D02*
X016648Y003199D01*
X016632Y003216D02*
X015980Y003216D01*
X015963Y003232D02*
X016615Y003232D01*
X016599Y003249D02*
X015947Y003249D01*
X015930Y003265D02*
X016582Y003265D01*
X016566Y003282D02*
X015914Y003282D01*
X015897Y003298D02*
X016549Y003298D01*
X016533Y003315D02*
X015881Y003315D01*
X015864Y003331D02*
X016516Y003331D01*
X016500Y003348D02*
X015848Y003348D01*
X015831Y003364D02*
X016483Y003364D01*
X016467Y003381D02*
X015815Y003381D01*
X015799Y003397D02*
X016451Y003397D01*
X016468Y003414D02*
X015816Y003414D01*
X015832Y003430D02*
X016484Y003430D01*
X016501Y003447D02*
X015849Y003447D01*
X015865Y003463D02*
X016517Y003463D01*
X016534Y003480D02*
X015882Y003480D01*
X015898Y003496D02*
X016550Y003496D01*
X016567Y003513D02*
X015915Y003513D01*
X015931Y003529D02*
X016583Y003529D01*
X016600Y003546D02*
X015948Y003546D01*
X015964Y003562D02*
X016616Y003562D01*
X016633Y003579D02*
X015981Y003579D01*
X015997Y003595D02*
X016649Y003595D01*
X016666Y003612D02*
X016014Y003612D01*
X016030Y003628D02*
X016682Y003628D01*
X016699Y003645D02*
X016047Y003645D01*
X016063Y003661D02*
X016715Y003661D01*
X016732Y003678D02*
X016080Y003678D01*
X016096Y003694D02*
X016748Y003694D01*
X016765Y003711D02*
X016113Y003711D01*
X016129Y003727D02*
X016781Y003727D01*
X016798Y003744D02*
X016146Y003744D01*
X016162Y003760D02*
X016814Y003760D01*
X016822Y003777D02*
X016170Y003777D01*
X016153Y003793D02*
X016805Y003793D01*
X016789Y003810D02*
X016137Y003810D01*
X016120Y003826D02*
X016772Y003826D01*
X016756Y003843D02*
X016104Y003843D01*
X016087Y003859D02*
X016739Y003859D01*
X016723Y003876D02*
X016071Y003876D01*
X016054Y003892D02*
X016706Y003892D01*
X016690Y003909D02*
X016038Y003909D01*
X016021Y003925D02*
X016673Y003925D01*
X016657Y003942D02*
X016005Y003942D01*
X015988Y003958D02*
X016640Y003958D01*
X016624Y003975D02*
X015972Y003975D01*
X015955Y003991D02*
X016607Y003991D01*
X016591Y004008D02*
X015939Y004008D01*
X015922Y004024D02*
X016574Y004024D01*
X016558Y004041D02*
X015906Y004041D01*
X015889Y004057D02*
X016541Y004057D01*
X016525Y004074D02*
X015873Y004074D01*
X015856Y004090D02*
X016508Y004090D01*
X016492Y004107D02*
X015840Y004107D01*
X015823Y004123D02*
X016475Y004123D01*
X016459Y004140D02*
X015807Y004140D01*
X015790Y004156D02*
X016442Y004156D01*
X016426Y004173D02*
X015774Y004173D01*
X015757Y004189D02*
X016409Y004189D01*
X016393Y004206D02*
X015741Y004206D01*
X015724Y004222D02*
X016376Y004222D01*
X016360Y004239D02*
X015719Y004239D01*
X015736Y004255D02*
X016343Y004255D01*
X016327Y004272D02*
X015752Y004272D01*
X015769Y004288D02*
X016310Y004288D01*
X016294Y004305D02*
X015785Y004305D01*
X015802Y004321D02*
X016277Y004321D01*
X016261Y004338D02*
X015818Y004338D01*
X015835Y004354D02*
X016244Y004354D01*
X016228Y004371D02*
X015851Y004371D01*
X015868Y004387D02*
X016211Y004387D01*
X016195Y004404D02*
X015884Y004404D01*
X015901Y004420D02*
X016178Y004420D01*
X016162Y004437D02*
X015917Y004437D01*
X015934Y004453D02*
X016145Y004453D01*
X016129Y004470D02*
X015950Y004470D01*
X015967Y004486D02*
X016112Y004486D01*
X016096Y004503D02*
X015983Y004503D01*
X016000Y004519D02*
X016079Y004519D01*
X016063Y004536D02*
X016016Y004536D01*
X016033Y004552D02*
X016046Y004552D01*
X015635Y004156D02*
X014932Y004156D01*
X014915Y004140D02*
X015651Y004140D01*
X015668Y004123D02*
X014899Y004123D01*
X014882Y004107D02*
X015684Y004107D01*
X015701Y004090D02*
X014866Y004090D01*
X014849Y004074D02*
X015717Y004074D01*
X015734Y004057D02*
X014833Y004057D01*
X014816Y004041D02*
X015750Y004041D01*
X015767Y004024D02*
X014800Y004024D01*
X014783Y004008D02*
X015783Y004008D01*
X015800Y003991D02*
X014767Y003991D01*
X014750Y003975D02*
X015816Y003975D01*
X015833Y003958D02*
X014734Y003958D01*
X014718Y003942D02*
X015849Y003942D01*
X015866Y003925D02*
X014701Y003925D01*
X014685Y003909D02*
X015882Y003909D01*
X015898Y003892D02*
X014668Y003892D01*
X014652Y003876D02*
X015915Y003876D01*
X015931Y003859D02*
X014635Y003859D01*
X014619Y003843D02*
X015948Y003843D01*
X015964Y003826D02*
X014602Y003826D01*
X014586Y003810D02*
X015981Y003810D01*
X015997Y003793D02*
X014584Y003793D01*
X014577Y003801D02*
X015318Y003056D01*
X016018Y003773D01*
X015283Y004508D01*
X014577Y003801D01*
X014600Y003777D02*
X016014Y003777D01*
X016007Y003760D02*
X014617Y003760D01*
X014633Y003744D02*
X015990Y003744D01*
X015974Y003727D02*
X014650Y003727D01*
X014666Y003711D02*
X015958Y003711D01*
X015942Y003694D02*
X014683Y003694D01*
X014699Y003678D02*
X015926Y003678D01*
X015910Y003661D02*
X014716Y003661D01*
X014732Y003645D02*
X015894Y003645D01*
X015878Y003628D02*
X014748Y003628D01*
X014765Y003612D02*
X015861Y003612D01*
X015845Y003595D02*
X014781Y003595D01*
X014798Y003579D02*
X015829Y003579D01*
X015813Y003562D02*
X014814Y003562D01*
X014831Y003546D02*
X015797Y003546D01*
X015781Y003529D02*
X014847Y003529D01*
X014863Y003513D02*
X015765Y003513D01*
X015749Y003496D02*
X014880Y003496D01*
X014896Y003480D02*
X015732Y003480D01*
X015716Y003463D02*
X014913Y003463D01*
X014929Y003447D02*
X015700Y003447D01*
X015684Y003430D02*
X014946Y003430D01*
X014962Y003414D02*
X015668Y003414D01*
X015652Y003397D02*
X014979Y003397D01*
X014995Y003381D02*
X015636Y003381D01*
X015620Y003364D02*
X015011Y003364D01*
X015028Y003348D02*
X015604Y003348D01*
X015587Y003331D02*
X015044Y003331D01*
X015061Y003315D02*
X015571Y003315D01*
X015555Y003298D02*
X015077Y003298D01*
X015094Y003282D02*
X015539Y003282D01*
X015523Y003265D02*
X015110Y003265D01*
X015126Y003249D02*
X015507Y003249D01*
X015491Y003232D02*
X015143Y003232D01*
X015159Y003216D02*
X015475Y003216D01*
X015458Y003199D02*
X015176Y003199D01*
X015192Y003183D02*
X015442Y003183D01*
X015426Y003166D02*
X015209Y003166D01*
X015225Y003150D02*
X015410Y003150D01*
X015394Y003133D02*
X015242Y003133D01*
X015258Y003117D02*
X015378Y003117D01*
X015362Y003100D02*
X015274Y003100D01*
X015291Y003084D02*
X015346Y003084D01*
X015329Y003067D02*
X015307Y003067D01*
X015230Y003001D02*
X014567Y003001D01*
X014550Y002985D02*
X015247Y002985D01*
X015263Y002968D02*
X014555Y002968D01*
X014544Y002979D02*
X014899Y003333D01*
X015317Y002915D01*
X015721Y003319D01*
X016018Y003021D01*
X015260Y002263D01*
X014544Y002979D01*
X014571Y002952D02*
X015280Y002952D01*
X015296Y002935D02*
X014588Y002935D01*
X014604Y002919D02*
X015313Y002919D01*
X015321Y002919D02*
X015916Y002919D01*
X015932Y002935D02*
X015337Y002935D01*
X015354Y002952D02*
X015949Y002952D01*
X015965Y002968D02*
X015370Y002968D01*
X015387Y002985D02*
X015982Y002985D01*
X015998Y003001D02*
X015403Y003001D01*
X015420Y003018D02*
X016015Y003018D01*
X016005Y003034D02*
X015436Y003034D01*
X015453Y003051D02*
X015989Y003051D01*
X015972Y003067D02*
X015469Y003067D01*
X015486Y003084D02*
X015956Y003084D01*
X015939Y003100D02*
X015502Y003100D01*
X015519Y003117D02*
X015923Y003117D01*
X015906Y003133D02*
X015535Y003133D01*
X015552Y003150D02*
X015890Y003150D01*
X015873Y003166D02*
X015568Y003166D01*
X015585Y003183D02*
X015857Y003183D01*
X015840Y003199D02*
X015601Y003199D01*
X015618Y003216D02*
X015824Y003216D01*
X015807Y003232D02*
X015634Y003232D01*
X015651Y003249D02*
X015791Y003249D01*
X015774Y003265D02*
X015667Y003265D01*
X015684Y003282D02*
X015758Y003282D01*
X015741Y003298D02*
X015700Y003298D01*
X015717Y003315D02*
X015725Y003315D01*
X015181Y003051D02*
X014616Y003051D01*
X014600Y003034D02*
X015197Y003034D01*
X015214Y003018D02*
X014583Y003018D01*
X014633Y003067D02*
X015164Y003067D01*
X015148Y003084D02*
X014649Y003084D01*
X014666Y003100D02*
X015131Y003100D01*
X015115Y003117D02*
X014682Y003117D01*
X014699Y003133D02*
X015098Y003133D01*
X015082Y003150D02*
X014715Y003150D01*
X014732Y003166D02*
X015065Y003166D01*
X015049Y003183D02*
X014748Y003183D01*
X014765Y003199D02*
X015032Y003199D01*
X015016Y003216D02*
X014781Y003216D01*
X014798Y003232D02*
X014999Y003232D01*
X014983Y003249D02*
X014814Y003249D01*
X014831Y003265D02*
X014966Y003265D01*
X014950Y003282D02*
X014847Y003282D01*
X014864Y003298D02*
X014933Y003298D01*
X014917Y003315D02*
X014880Y003315D01*
X014897Y003331D02*
X014900Y003331D01*
X014621Y002902D02*
X015899Y002902D01*
X015883Y002886D02*
X014637Y002886D01*
X014654Y002869D02*
X015866Y002869D01*
X015850Y002853D02*
X014670Y002853D01*
X014687Y002836D02*
X015833Y002836D01*
X015817Y002820D02*
X014703Y002820D01*
X014720Y002803D02*
X015800Y002803D01*
X015784Y002787D02*
X014736Y002787D01*
X014753Y002770D02*
X015767Y002770D01*
X015751Y002754D02*
X014769Y002754D01*
X014786Y002737D02*
X015734Y002737D01*
X015718Y002721D02*
X014802Y002721D01*
X014819Y002704D02*
X015701Y002704D01*
X015685Y002688D02*
X014835Y002688D01*
X014852Y002671D02*
X015668Y002671D01*
X015652Y002655D02*
X014868Y002655D01*
X014885Y002638D02*
X015635Y002638D01*
X015619Y002622D02*
X014901Y002622D01*
X014918Y002605D02*
X015602Y002605D01*
X015586Y002589D02*
X014934Y002589D01*
X014951Y002572D02*
X015569Y002572D01*
X015553Y002556D02*
X014967Y002556D01*
X014984Y002539D02*
X015536Y002539D01*
X015520Y002523D02*
X015000Y002523D01*
X015017Y002506D02*
X015503Y002506D01*
X015487Y002490D02*
X015033Y002490D01*
X015050Y002473D02*
X015470Y002473D01*
X015454Y002457D02*
X015066Y002457D01*
X015083Y002440D02*
X015437Y002440D01*
X015421Y002424D02*
X015099Y002424D01*
X015116Y002407D02*
X015404Y002407D01*
X015388Y002391D02*
X015132Y002391D01*
X015149Y002374D02*
X015371Y002374D01*
X015355Y002358D02*
X015165Y002358D01*
X015182Y002341D02*
X015338Y002341D01*
X015322Y002325D02*
X015198Y002325D01*
X015215Y002308D02*
X015305Y002308D01*
X015289Y002292D02*
X015231Y002292D01*
X015248Y002275D02*
X015272Y002275D01*
X015808Y002523D02*
X016328Y002523D01*
X016344Y002539D02*
X015792Y002539D01*
X015775Y002556D02*
X016361Y002556D01*
X016377Y002572D02*
X015759Y002572D01*
X015775Y002622D02*
X016427Y002622D01*
X016443Y002638D02*
X015791Y002638D01*
X015808Y002655D02*
X016460Y002655D01*
X016476Y002671D02*
X015824Y002671D01*
X015841Y002688D02*
X016493Y002688D01*
X016509Y002704D02*
X015857Y002704D01*
X015874Y002721D02*
X016526Y002721D01*
X016542Y002737D02*
X015890Y002737D01*
X015907Y002754D02*
X016559Y002754D01*
X016575Y002770D02*
X015923Y002770D01*
X015940Y002787D02*
X016592Y002787D01*
X016608Y002803D02*
X015956Y002803D01*
X015973Y002820D02*
X016625Y002820D01*
X016641Y002836D02*
X015989Y002836D01*
X016006Y002853D02*
X016658Y002853D01*
X016674Y002869D02*
X016022Y002869D01*
X016039Y002886D02*
X016691Y002886D01*
X016707Y002902D02*
X016055Y002902D01*
X016072Y002919D02*
X016724Y002919D01*
X016740Y002935D02*
X016088Y002935D01*
X016105Y002952D02*
X016757Y002952D01*
X016773Y002968D02*
X016121Y002968D01*
X016138Y002985D02*
X016790Y002985D01*
X016806Y003001D02*
X016154Y003001D01*
X016311Y002506D02*
X015825Y002506D01*
X015841Y002490D02*
X016295Y002490D01*
X016278Y002473D02*
X015858Y002473D01*
X015874Y002457D02*
X016262Y002457D01*
X016245Y002440D02*
X015891Y002440D01*
X015907Y002424D02*
X016229Y002424D01*
X016212Y002407D02*
X015924Y002407D01*
X015940Y002391D02*
X016196Y002391D01*
X016179Y002374D02*
X015957Y002374D01*
X015973Y002358D02*
X016163Y002358D01*
X016146Y002341D02*
X015990Y002341D01*
X016006Y002325D02*
X016130Y002325D01*
X016113Y002308D02*
X016023Y002308D01*
X016039Y002292D02*
X016097Y002292D01*
X016080Y002275D02*
X016056Y002275D01*
X015618Y004173D02*
X014948Y004173D01*
X014965Y004189D02*
X015602Y004189D01*
X015585Y004206D02*
X014981Y004206D01*
X014998Y004222D02*
X015569Y004222D01*
X015552Y004239D02*
X015014Y004239D01*
X015031Y004255D02*
X015536Y004255D01*
X015519Y004272D02*
X015047Y004272D01*
X015064Y004288D02*
X015503Y004288D01*
X015486Y004305D02*
X015080Y004305D01*
X015096Y004321D02*
X015470Y004321D01*
X015453Y004338D02*
X015113Y004338D01*
X015129Y004354D02*
X015437Y004354D01*
X015420Y004371D02*
X015146Y004371D01*
X015162Y004387D02*
X015404Y004387D01*
X015387Y004404D02*
X015179Y004404D01*
X015195Y004420D02*
X015371Y004420D01*
X015354Y004437D02*
X015212Y004437D01*
X015228Y004453D02*
X015338Y004453D01*
X015321Y004470D02*
X015245Y004470D01*
X015261Y004486D02*
X015305Y004486D01*
X015288Y004503D02*
X015278Y004503D01*
X013375Y005119D02*
X013573Y005828D01*
X013304Y005899D01*
X013177Y005452D01*
X012730Y005580D01*
X012652Y005310D01*
X013375Y005119D01*
X013378Y005130D02*
X013334Y005130D01*
X013383Y005146D02*
X013271Y005146D01*
X013209Y005163D02*
X013387Y005163D01*
X013392Y005179D02*
X013147Y005179D01*
X013084Y005196D02*
X013397Y005196D01*
X013401Y005212D02*
X013022Y005212D01*
X012960Y005229D02*
X013406Y005229D01*
X013410Y005245D02*
X012897Y005245D01*
X012835Y005262D02*
X013415Y005262D01*
X013420Y005278D02*
X012773Y005278D01*
X012710Y005295D02*
X013424Y005295D01*
X013429Y005311D02*
X012653Y005311D01*
X012657Y005328D02*
X013434Y005328D01*
X013438Y005344D02*
X012662Y005344D01*
X012667Y005361D02*
X013443Y005361D01*
X013447Y005377D02*
X012672Y005377D01*
X012676Y005394D02*
X013452Y005394D01*
X013457Y005410D02*
X012681Y005410D01*
X012686Y005427D02*
X013461Y005427D01*
X013466Y005443D02*
X012691Y005443D01*
X012696Y005460D02*
X013149Y005460D01*
X013179Y005460D02*
X013470Y005460D01*
X013475Y005476D02*
X013184Y005476D01*
X013188Y005493D02*
X013480Y005493D01*
X013484Y005509D02*
X013193Y005509D01*
X013198Y005526D02*
X013489Y005526D01*
X013494Y005542D02*
X013202Y005542D01*
X013207Y005559D02*
X013498Y005559D01*
X013503Y005575D02*
X013212Y005575D01*
X013217Y005592D02*
X013507Y005592D01*
X013512Y005608D02*
X013221Y005608D01*
X013226Y005625D02*
X013517Y005625D01*
X013521Y005641D02*
X013231Y005641D01*
X013235Y005658D02*
X013526Y005658D01*
X013531Y005674D02*
X013240Y005674D01*
X013245Y005691D02*
X013535Y005691D01*
X013540Y005707D02*
X013250Y005707D01*
X013254Y005724D02*
X013544Y005724D01*
X013549Y005740D02*
X013259Y005740D01*
X013264Y005757D02*
X013554Y005757D01*
X013558Y005773D02*
X013268Y005773D01*
X013273Y005790D02*
X013563Y005790D01*
X013568Y005806D02*
X013278Y005806D01*
X013283Y005823D02*
X013572Y005823D01*
X013529Y005839D02*
X013287Y005839D01*
X013292Y005856D02*
X013466Y005856D01*
X013403Y005872D02*
X013297Y005872D01*
X013301Y005889D02*
X013341Y005889D01*
X013220Y005922D02*
X012499Y005922D01*
X012495Y005905D02*
X013216Y005905D01*
X013211Y005889D02*
X012490Y005889D01*
X012486Y005872D02*
X013207Y005872D01*
X013202Y005856D02*
X012481Y005856D01*
X012477Y005839D02*
X013198Y005839D01*
X013193Y005823D02*
X012472Y005823D01*
X012468Y005806D02*
X013189Y005806D01*
X013184Y005790D02*
X012463Y005790D01*
X012458Y005773D02*
X013179Y005773D01*
X013175Y005757D02*
X012454Y005757D01*
X012638Y006423D01*
X013304Y006224D01*
X013120Y005558D01*
X012454Y005757D01*
X012509Y005740D02*
X013170Y005740D01*
X013166Y005724D02*
X012564Y005724D01*
X012619Y005707D02*
X013161Y005707D01*
X013157Y005691D02*
X012675Y005691D01*
X012730Y005674D02*
X013152Y005674D01*
X013147Y005658D02*
X012786Y005658D01*
X012841Y005641D02*
X013143Y005641D01*
X013138Y005625D02*
X012896Y005625D01*
X012952Y005608D02*
X013134Y005608D01*
X013129Y005592D02*
X013007Y005592D01*
X013063Y005575D02*
X013125Y005575D01*
X013120Y005559D02*
X013118Y005559D01*
X013091Y005476D02*
X012700Y005476D01*
X012705Y005493D02*
X013034Y005493D01*
X012976Y005509D02*
X012710Y005509D01*
X012715Y005526D02*
X012918Y005526D01*
X012860Y005542D02*
X012719Y005542D01*
X012724Y005559D02*
X012803Y005559D01*
X012745Y005575D02*
X012729Y005575D01*
X012504Y005938D02*
X013225Y005938D01*
X013230Y005955D02*
X012509Y005955D01*
X012513Y005971D02*
X013234Y005971D01*
X013239Y005988D02*
X012518Y005988D01*
X012522Y006004D02*
X013243Y006004D01*
X013248Y006021D02*
X012527Y006021D01*
X012531Y006037D02*
X013252Y006037D01*
X013257Y006054D02*
X012536Y006054D01*
X012541Y006070D02*
X013262Y006070D01*
X013266Y006087D02*
X012545Y006087D01*
X012550Y006103D02*
X013271Y006103D01*
X013275Y006120D02*
X012554Y006120D01*
X012559Y006136D02*
X013280Y006136D01*
X013284Y006153D02*
X012563Y006153D01*
X012568Y006169D02*
X013289Y006169D01*
X013293Y006186D02*
X012572Y006186D01*
X012577Y006202D02*
X013298Y006202D01*
X013303Y006219D02*
X012582Y006219D01*
X012586Y006235D02*
X013268Y006235D01*
X013212Y006252D02*
X012591Y006252D01*
X012595Y006268D02*
X013157Y006268D01*
X013101Y006285D02*
X012600Y006285D01*
X012604Y006301D02*
X013046Y006301D01*
X012991Y006318D02*
X012609Y006318D01*
X012614Y006334D02*
X012935Y006334D01*
X012880Y006351D02*
X012618Y006351D01*
X012623Y006367D02*
X012824Y006367D01*
X012769Y006384D02*
X012627Y006384D01*
X012632Y006400D02*
X012714Y006400D01*
X012658Y006417D02*
X012636Y006417D01*
X014743Y006317D02*
X014941Y005594D01*
X015643Y005792D01*
X015444Y006515D01*
X014743Y006317D01*
X014747Y006318D02*
X015498Y006318D01*
X015494Y006334D02*
X014806Y006334D01*
X014864Y006351D02*
X015489Y006351D01*
X015485Y006367D02*
X014922Y006367D01*
X014981Y006384D02*
X015480Y006384D01*
X015476Y006400D02*
X015039Y006400D01*
X015097Y006417D02*
X015471Y006417D01*
X015467Y006433D02*
X015156Y006433D01*
X015214Y006450D02*
X015462Y006450D01*
X015458Y006466D02*
X015272Y006466D01*
X015331Y006483D02*
X015453Y006483D01*
X015449Y006499D02*
X015389Y006499D01*
X015353Y006565D02*
X015026Y006565D01*
X015030Y006549D02*
X015294Y006549D01*
X015235Y006532D02*
X015034Y006532D01*
X015038Y006516D02*
X015177Y006516D01*
X015118Y006499D02*
X015043Y006499D01*
X015047Y006483D02*
X015059Y006483D01*
X015047Y006480D02*
X015501Y006607D01*
X015621Y006168D01*
X015891Y006246D01*
X015692Y006954D01*
X014977Y006763D01*
X015047Y006480D01*
X015022Y006582D02*
X015411Y006582D01*
X015470Y006598D02*
X015018Y006598D01*
X015014Y006615D02*
X015787Y006615D01*
X015783Y006631D02*
X015010Y006631D01*
X015005Y006648D02*
X015778Y006648D01*
X015774Y006664D02*
X015001Y006664D01*
X014997Y006681D02*
X015769Y006681D01*
X015764Y006697D02*
X014993Y006697D01*
X014989Y006714D02*
X015760Y006714D01*
X015755Y006730D02*
X014985Y006730D01*
X014981Y006747D02*
X015750Y006747D01*
X015746Y006763D02*
X014978Y006763D01*
X015040Y006780D02*
X015741Y006780D01*
X015737Y006796D02*
X015101Y006796D01*
X015163Y006813D02*
X015732Y006813D01*
X015727Y006829D02*
X015225Y006829D01*
X015286Y006846D02*
X015723Y006846D01*
X015718Y006862D02*
X015348Y006862D01*
X015410Y006879D02*
X015713Y006879D01*
X015709Y006895D02*
X015472Y006895D01*
X015533Y006912D02*
X015704Y006912D01*
X015700Y006928D02*
X015595Y006928D01*
X015657Y006945D02*
X015695Y006945D01*
X015792Y006598D02*
X015503Y006598D01*
X015508Y006582D02*
X015797Y006582D01*
X015801Y006565D02*
X015512Y006565D01*
X015517Y006549D02*
X015806Y006549D01*
X015811Y006532D02*
X015522Y006532D01*
X015526Y006516D02*
X015815Y006516D01*
X015820Y006499D02*
X015531Y006499D01*
X015535Y006483D02*
X015824Y006483D01*
X015829Y006466D02*
X015540Y006466D01*
X015544Y006450D02*
X015834Y006450D01*
X015838Y006433D02*
X015549Y006433D01*
X015553Y006417D02*
X015843Y006417D01*
X015847Y006400D02*
X015558Y006400D01*
X015562Y006384D02*
X015852Y006384D01*
X015857Y006367D02*
X015567Y006367D01*
X015571Y006351D02*
X015861Y006351D01*
X015866Y006334D02*
X015576Y006334D01*
X015580Y006318D02*
X015871Y006318D01*
X015875Y006301D02*
X015585Y006301D01*
X015589Y006285D02*
X015880Y006285D01*
X015884Y006268D02*
X015594Y006268D01*
X015598Y006252D02*
X015889Y006252D01*
X015855Y006235D02*
X015603Y006235D01*
X015607Y006219D02*
X015798Y006219D01*
X015741Y006202D02*
X015612Y006202D01*
X015617Y006186D02*
X015684Y006186D01*
X015627Y006169D02*
X015621Y006169D01*
X015544Y006153D02*
X014788Y006153D01*
X014783Y006169D02*
X015539Y006169D01*
X015535Y006186D02*
X014779Y006186D01*
X014774Y006202D02*
X015530Y006202D01*
X015526Y006219D02*
X014770Y006219D01*
X014765Y006235D02*
X015521Y006235D01*
X015517Y006252D02*
X014761Y006252D01*
X014756Y006268D02*
X015512Y006268D01*
X015507Y006285D02*
X014751Y006285D01*
X014747Y006301D02*
X015503Y006301D01*
X015548Y006136D02*
X014792Y006136D01*
X014797Y006120D02*
X015553Y006120D01*
X015557Y006103D02*
X014801Y006103D01*
X014806Y006087D02*
X015562Y006087D01*
X015566Y006070D02*
X014810Y006070D01*
X014815Y006054D02*
X015571Y006054D01*
X015575Y006037D02*
X014819Y006037D01*
X014824Y006021D02*
X015580Y006021D01*
X015584Y006004D02*
X014828Y006004D01*
X014833Y005988D02*
X015589Y005988D01*
X015594Y005971D02*
X014838Y005971D01*
X014842Y005955D02*
X015598Y005955D01*
X015603Y005938D02*
X014847Y005938D01*
X014851Y005922D02*
X015607Y005922D01*
X015612Y005905D02*
X014856Y005905D01*
X014860Y005889D02*
X015616Y005889D01*
X015621Y005872D02*
X014865Y005872D01*
X014869Y005856D02*
X015625Y005856D01*
X015630Y005839D02*
X014874Y005839D01*
X014878Y005823D02*
X015634Y005823D01*
X015639Y005806D02*
X014883Y005806D01*
X014887Y005790D02*
X015635Y005790D01*
X015576Y005773D02*
X014892Y005773D01*
X014896Y005757D02*
X015518Y005757D01*
X015460Y005740D02*
X014901Y005740D01*
X014905Y005724D02*
X015401Y005724D01*
X015343Y005707D02*
X014910Y005707D01*
X014915Y005691D02*
X015285Y005691D01*
X015226Y005674D02*
X014919Y005674D01*
X014924Y005658D02*
X015168Y005658D01*
X015110Y005641D02*
X014928Y005641D01*
X014933Y005625D02*
X015051Y005625D01*
X014993Y005608D02*
X014937Y005608D01*
D12*
X014746Y008410D02*
X015032Y008117D01*
X015032Y008118D02*
X014961Y008045D01*
X014893Y007969D01*
X014828Y007890D01*
X014766Y007809D01*
X014707Y007726D01*
X014652Y007641D01*
X014599Y007553D01*
X014550Y007464D01*
X014505Y007373D01*
X014463Y007280D01*
X014425Y007185D01*
X014390Y007089D01*
X014359Y006992D01*
X014332Y006894D01*
X014308Y006795D01*
X014289Y006695D01*
X014273Y006594D01*
X014261Y006493D01*
X014253Y006392D01*
X014249Y006290D01*
X014248Y006188D01*
X014252Y006086D01*
X014260Y005984D01*
X014271Y005883D01*
X014286Y005782D01*
X014305Y005682D01*
X014328Y005583D01*
X014355Y005485D01*
X014386Y005387D01*
X014420Y005291D01*
X014458Y005197D01*
X014499Y005104D01*
X014544Y005012D01*
X014593Y004923D01*
X014645Y004835D01*
X014700Y004749D01*
X014363Y004519D01*
X014362Y004518D01*
X014303Y004609D01*
X014247Y004703D01*
X014195Y004798D01*
X014146Y004895D01*
X014100Y004994D01*
X014058Y005094D01*
X014019Y005196D01*
X013984Y005299D01*
X013953Y005403D01*
X013926Y005508D01*
X013902Y005614D01*
X013882Y005721D01*
X013866Y005828D01*
X013853Y005936D01*
X013845Y006045D01*
X013840Y006153D01*
X013839Y006262D01*
X013842Y006371D01*
X013849Y006479D01*
X013860Y006587D01*
X013874Y006695D01*
X013892Y006802D01*
X013915Y006909D01*
X013940Y007014D01*
X013970Y007119D01*
X014003Y007222D01*
X014040Y007325D01*
X014081Y007426D01*
X014125Y007525D01*
X014172Y007623D01*
X014223Y007719D01*
X014278Y007813D01*
X014335Y007905D01*
X014396Y007995D01*
X014460Y008083D01*
X014527Y008169D01*
X014597Y008252D01*
X014670Y008332D01*
X014746Y008410D01*
X014775Y008380D01*
X014701Y008303D01*
X014629Y008224D01*
X014560Y008142D01*
X014493Y008057D01*
X014430Y007971D01*
X014370Y007882D01*
X014313Y007791D01*
X014260Y007698D01*
X014210Y007604D01*
X014163Y007507D01*
X014119Y007409D01*
X014079Y007310D01*
X014043Y007209D01*
X014010Y007107D01*
X013981Y007004D01*
X013955Y006899D01*
X013934Y006794D01*
X013916Y006689D01*
X013901Y006582D01*
X013891Y006476D01*
X013884Y006369D01*
X013881Y006262D01*
X013882Y006154D01*
X013887Y006047D01*
X013895Y005940D01*
X013907Y005834D01*
X013923Y005728D01*
X013943Y005622D01*
X013966Y005518D01*
X013994Y005414D01*
X014024Y005311D01*
X014059Y005210D01*
X014097Y005110D01*
X014138Y005011D01*
X014183Y004913D01*
X014232Y004818D01*
X014283Y004724D01*
X014338Y004632D01*
X014397Y004542D01*
X014431Y004566D01*
X014372Y004657D01*
X014317Y004750D01*
X014265Y004845D01*
X014216Y004942D01*
X014171Y005041D01*
X014130Y005141D01*
X014092Y005243D01*
X014058Y005346D01*
X014027Y005450D01*
X014001Y005555D01*
X013978Y005661D01*
X013959Y005768D01*
X013944Y005875D01*
X013933Y005983D01*
X013926Y006092D01*
X013923Y006200D01*
X013924Y006309D01*
X013929Y006417D01*
X013937Y006525D01*
X013950Y006633D01*
X013967Y006740D01*
X013987Y006847D01*
X014011Y006952D01*
X014039Y007057D01*
X014071Y007161D01*
X014107Y007263D01*
X014146Y007364D01*
X014189Y007464D01*
X014236Y007562D01*
X014286Y007658D01*
X014339Y007753D01*
X014396Y007845D01*
X014457Y007935D01*
X014520Y008023D01*
X014587Y008109D01*
X014656Y008192D01*
X014729Y008272D01*
X014805Y008350D01*
X014834Y008320D01*
X014760Y008243D01*
X014688Y008164D01*
X014619Y008082D01*
X014554Y007998D01*
X014491Y007911D01*
X014432Y007822D01*
X014375Y007731D01*
X014323Y007638D01*
X014273Y007543D01*
X014227Y007447D01*
X014185Y007348D01*
X014146Y007249D01*
X014111Y007148D01*
X014080Y007045D01*
X014052Y006942D01*
X014028Y006838D01*
X014008Y006733D01*
X013992Y006627D01*
X013979Y006521D01*
X013971Y006414D01*
X013966Y006307D01*
X013965Y006201D01*
X013968Y006094D01*
X013975Y005987D01*
X013986Y005881D01*
X014001Y005775D01*
X014019Y005669D01*
X014042Y005565D01*
X014068Y005461D01*
X014098Y005358D01*
X014131Y005257D01*
X014169Y005156D01*
X014209Y005058D01*
X014254Y004960D01*
X014302Y004865D01*
X014353Y004771D01*
X014408Y004679D01*
X014466Y004589D01*
X014501Y004613D01*
X014444Y004702D01*
X014390Y004792D01*
X014339Y004885D01*
X014292Y004979D01*
X014248Y005075D01*
X014208Y005172D01*
X014171Y005271D01*
X014138Y005371D01*
X014108Y005472D01*
X014083Y005574D01*
X014061Y005677D01*
X014042Y005781D01*
X014028Y005886D01*
X014017Y005990D01*
X014010Y006096D01*
X014007Y006201D01*
X014008Y006306D01*
X014013Y006412D01*
X014021Y006517D01*
X014033Y006621D01*
X014049Y006726D01*
X014069Y006829D01*
X014093Y006932D01*
X014120Y007034D01*
X014151Y007134D01*
X014186Y007234D01*
X014224Y007332D01*
X014265Y007429D01*
X014311Y007524D01*
X014359Y007618D01*
X014411Y007709D01*
X014467Y007799D01*
X014525Y007887D01*
X014587Y007972D01*
X014652Y008055D01*
X014719Y008136D01*
X014790Y008214D01*
X014863Y008290D01*
X014893Y008260D01*
X014819Y008183D01*
X014747Y008104D01*
X014679Y008022D01*
X014614Y007938D01*
X014552Y007851D01*
X014493Y007762D01*
X014437Y007671D01*
X014386Y007578D01*
X014337Y007483D01*
X014292Y007386D01*
X014251Y007288D01*
X014213Y007188D01*
X014180Y007087D01*
X014150Y006984D01*
X014124Y006881D01*
X014101Y006776D01*
X014083Y006671D01*
X014069Y006566D01*
X014058Y006460D01*
X014052Y006353D01*
X014049Y006246D01*
X014050Y006140D01*
X014056Y006033D01*
X014065Y005927D01*
X014079Y005821D01*
X014096Y005716D01*
X014117Y005611D01*
X014142Y005508D01*
X014171Y005405D01*
X014204Y005304D01*
X014240Y005203D01*
X014281Y005105D01*
X014325Y005007D01*
X014372Y004912D01*
X014423Y004818D01*
X014478Y004726D01*
X014535Y004637D01*
X014570Y004660D01*
X014513Y004749D01*
X014459Y004839D01*
X014409Y004931D01*
X014362Y005026D01*
X014319Y005121D01*
X014280Y005219D01*
X014244Y005317D01*
X014211Y005417D01*
X014183Y005519D01*
X014158Y005621D01*
X014137Y005724D01*
X014120Y005827D01*
X014107Y005932D01*
X014098Y006036D01*
X014092Y006141D01*
X014091Y006246D01*
X014094Y006351D01*
X014100Y006456D01*
X014110Y006561D01*
X014124Y006665D01*
X014143Y006768D01*
X014164Y006871D01*
X014190Y006973D01*
X014220Y007074D01*
X014253Y007174D01*
X014290Y007272D01*
X014331Y007369D01*
X014375Y007464D01*
X014423Y007558D01*
X014474Y007650D01*
X014528Y007739D01*
X014586Y007827D01*
X014647Y007913D01*
X014711Y007996D01*
X014779Y008076D01*
X014849Y008155D01*
X014922Y008230D01*
X014952Y008200D01*
X014880Y008126D01*
X014810Y008049D01*
X014744Y007969D01*
X014681Y007887D01*
X014621Y007803D01*
X014564Y007717D01*
X014510Y007628D01*
X014459Y007538D01*
X014412Y007446D01*
X014369Y007352D01*
X014329Y007256D01*
X014293Y007159D01*
X014260Y007061D01*
X014231Y006962D01*
X014205Y006862D01*
X014184Y006760D01*
X014166Y006658D01*
X014152Y006556D01*
X014142Y006453D01*
X014135Y006350D01*
X014133Y006246D01*
X014134Y006143D01*
X014140Y006039D01*
X014149Y005936D01*
X014162Y005833D01*
X014179Y005731D01*
X014199Y005630D01*
X014223Y005529D01*
X014252Y005430D01*
X014283Y005331D01*
X014319Y005234D01*
X014358Y005138D01*
X014400Y005044D01*
X014446Y004951D01*
X014496Y004860D01*
X014549Y004771D01*
X014605Y004684D01*
X014639Y004708D01*
X014584Y004794D01*
X014532Y004881D01*
X014483Y004971D01*
X014438Y005062D01*
X014396Y005155D01*
X014358Y005249D01*
X014323Y005345D01*
X014292Y005442D01*
X014264Y005540D01*
X014240Y005639D01*
X014220Y005739D01*
X014203Y005840D01*
X014191Y005941D01*
X014182Y006042D01*
X014176Y006144D01*
X014175Y006246D01*
X014177Y006348D01*
X014184Y006450D01*
X014194Y006551D01*
X014207Y006652D01*
X014225Y006752D01*
X014246Y006852D01*
X014271Y006951D01*
X014300Y007049D01*
X014332Y007145D01*
X014368Y007241D01*
X014407Y007335D01*
X014450Y007427D01*
X014496Y007518D01*
X014546Y007607D01*
X014599Y007694D01*
X014655Y007779D01*
X014714Y007862D01*
X014777Y007943D01*
X014842Y008021D01*
X014910Y008097D01*
X014981Y008170D01*
X015010Y008140D01*
X014939Y008066D01*
X014870Y007989D01*
X014804Y007910D01*
X014741Y007828D01*
X014682Y007744D01*
X014625Y007657D01*
X014573Y007569D01*
X014523Y007478D01*
X014477Y007386D01*
X014435Y007292D01*
X014396Y007197D01*
X014361Y007100D01*
X014329Y007001D01*
X014302Y006902D01*
X014278Y006802D01*
X014258Y006700D01*
X014242Y006599D01*
X014230Y006496D01*
X014222Y006393D01*
X014218Y006290D01*
X014217Y006187D01*
X014221Y006084D01*
X014229Y005981D01*
X014240Y005879D01*
X014256Y005777D01*
X014275Y005676D01*
X014298Y005575D01*
X014325Y005476D01*
X014356Y005377D01*
X014391Y005280D01*
X014429Y005184D01*
X014471Y005090D01*
X014517Y004998D01*
X014566Y004907D01*
X014618Y004818D01*
X014674Y004732D01*
X016045Y009509D02*
X016266Y009165D01*
X016266Y009166D02*
X016146Y009086D01*
X016027Y009003D01*
X015911Y008918D01*
X015796Y008829D01*
X015684Y008739D01*
X015574Y008645D01*
X015466Y008549D01*
X015360Y008451D01*
X015256Y008350D01*
X015155Y008247D01*
X015056Y008142D01*
X014754Y008416D01*
X014754Y008417D01*
X014859Y008529D01*
X014967Y008639D01*
X015077Y008747D01*
X015190Y008852D01*
X015306Y008954D01*
X015423Y009054D01*
X015543Y009151D01*
X015665Y009245D01*
X015790Y009336D01*
X015916Y009424D01*
X016045Y009510D01*
X016067Y009474D01*
X015940Y009390D01*
X015814Y009302D01*
X015691Y009211D01*
X015569Y009118D01*
X015450Y009022D01*
X015333Y008923D01*
X015219Y008821D01*
X015106Y008717D01*
X014997Y008610D01*
X014889Y008500D01*
X014785Y008389D01*
X014816Y008360D01*
X014920Y008471D01*
X015026Y008580D01*
X015135Y008686D01*
X015247Y008790D01*
X015361Y008891D01*
X015477Y008989D01*
X015595Y009085D01*
X015716Y009178D01*
X015839Y009268D01*
X015963Y009355D01*
X016090Y009439D01*
X016113Y009404D01*
X015987Y009320D01*
X015863Y009233D01*
X015741Y009144D01*
X015621Y009052D01*
X015504Y008957D01*
X015388Y008859D01*
X015275Y008759D01*
X015164Y008656D01*
X015056Y008550D01*
X014950Y008442D01*
X014847Y008332D01*
X014878Y008304D01*
X014981Y008413D01*
X015086Y008521D01*
X015193Y008625D01*
X015303Y008728D01*
X015416Y008827D01*
X015530Y008924D01*
X015647Y009019D01*
X015766Y009110D01*
X015887Y009199D01*
X016010Y009285D01*
X016135Y009368D01*
X016158Y009333D01*
X016034Y009250D01*
X015912Y009165D01*
X015791Y009077D01*
X015673Y008986D01*
X015557Y008892D01*
X015443Y008796D01*
X015332Y008697D01*
X015222Y008595D01*
X015116Y008491D01*
X015011Y008385D01*
X014909Y008276D01*
X014940Y008247D01*
X015041Y008356D01*
X015145Y008461D01*
X015251Y008565D01*
X015360Y008666D01*
X015471Y008764D01*
X015584Y008860D01*
X015699Y008953D01*
X015817Y009043D01*
X015936Y009131D01*
X016057Y009216D01*
X016181Y009298D01*
X016204Y009262D01*
X016081Y009181D01*
X015960Y009097D01*
X015842Y009010D01*
X015725Y008920D01*
X015611Y008827D01*
X015498Y008732D01*
X015388Y008635D01*
X015280Y008534D01*
X015175Y008432D01*
X015072Y008327D01*
X014971Y008219D01*
X015002Y008191D01*
X015102Y008298D01*
X015205Y008402D01*
X015309Y008504D01*
X015416Y008603D01*
X015526Y008700D01*
X015637Y008795D01*
X015751Y008887D01*
X015867Y008976D01*
X015985Y009062D01*
X016105Y009146D01*
X016226Y009227D01*
X016249Y009192D01*
X016128Y009111D01*
X016009Y009028D01*
X015892Y008942D01*
X015777Y008854D01*
X015664Y008763D01*
X015553Y008669D01*
X015445Y008572D01*
X015338Y008474D01*
X015234Y008372D01*
X015133Y008269D01*
X015033Y008163D01*
D13*
X006553Y001200D02*
X006379Y001373D01*
X006379Y001547D01*
X006553Y001720D01*
X006810Y001547D02*
X006723Y001460D01*
X006723Y001287D01*
X006810Y001200D01*
X007070Y001200D01*
X007239Y001200D02*
X007412Y001373D01*
X007412Y001547D01*
X007239Y001720D01*
X007070Y001547D02*
X006810Y001547D01*
X006726Y002040D02*
X006553Y002213D01*
X006640Y002213D02*
X006379Y002213D01*
X006379Y002040D02*
X006379Y002560D01*
X006640Y002560D01*
X006726Y002474D01*
X006726Y002300D01*
X006640Y002213D01*
X006895Y002213D02*
X007242Y002213D01*
X007242Y002300D01*
X007155Y002387D01*
X006982Y002387D01*
X006895Y002300D01*
X006895Y002127D01*
X006982Y002040D01*
X007155Y002040D01*
X007584Y002040D02*
X007758Y002387D01*
X007926Y002300D02*
X008273Y002300D01*
X008442Y002127D02*
X008442Y002474D01*
X008529Y002560D01*
X008702Y002560D01*
X008789Y002474D01*
X008442Y002127D01*
X008529Y002040D01*
X008702Y002040D01*
X008789Y002127D01*
X008789Y002474D01*
X008957Y002387D02*
X009131Y002560D01*
X009131Y002040D01*
X009304Y002040D02*
X008957Y002040D01*
X009473Y002040D02*
X009733Y002040D01*
X009820Y002127D01*
X009820Y002300D01*
X009733Y002387D01*
X009473Y002387D01*
X009473Y002560D02*
X009473Y002040D01*
X009303Y001720D02*
X009303Y001200D01*
X009476Y001200D02*
X009129Y001200D01*
X008961Y001287D02*
X008874Y001200D01*
X008700Y001200D01*
X008614Y001287D01*
X008961Y001634D01*
X008961Y001287D01*
X009129Y001547D02*
X009303Y001720D01*
X009645Y001720D02*
X009645Y001460D01*
X009818Y001547D01*
X009905Y001547D01*
X009992Y001460D01*
X009992Y001287D01*
X009905Y001200D01*
X009732Y001200D01*
X009645Y001287D01*
X009645Y001720D02*
X009992Y001720D01*
X008961Y001634D02*
X008874Y001720D01*
X008700Y001720D01*
X008614Y001634D01*
X008614Y001287D01*
X008445Y001200D02*
X008098Y001200D01*
X008445Y001547D01*
X008445Y001634D01*
X008358Y001720D01*
X008185Y001720D01*
X008098Y001634D01*
X007584Y002040D02*
X007411Y002387D01*
X010676Y001720D02*
X010676Y001200D01*
X010676Y001373D02*
X010937Y001373D01*
X011023Y001460D01*
X011023Y001634D01*
X010937Y001720D01*
X010676Y001720D01*
X010850Y001373D02*
X011023Y001200D01*
X011192Y001287D02*
X011279Y001200D01*
X011539Y001200D01*
X011539Y001460D01*
X011452Y001547D01*
X011279Y001547D01*
X011279Y001373D02*
X011539Y001373D01*
X011708Y001460D02*
X011794Y001547D01*
X012055Y001547D01*
X012223Y001547D02*
X012483Y001547D01*
X012570Y001460D01*
X012570Y001287D01*
X012483Y001200D01*
X012223Y001200D01*
X012223Y001027D02*
X012223Y001547D01*
X011968Y001373D02*
X011794Y001373D01*
X011708Y001460D01*
X011708Y001200D02*
X011968Y001200D01*
X012055Y001287D01*
X011968Y001373D01*
X011279Y001373D02*
X011192Y001287D01*
X012739Y001200D02*
X012999Y001200D01*
X013086Y001287D01*
X013086Y001460D01*
X012999Y001547D01*
X012739Y001547D01*
X012739Y001720D02*
X012739Y001200D01*
X013254Y001287D02*
X013341Y001200D01*
X013515Y001200D01*
X013601Y001373D02*
X013254Y001373D01*
X013254Y001287D02*
X013254Y001460D01*
X013341Y001547D01*
X013515Y001547D01*
X013601Y001460D01*
X013601Y001373D01*
X013770Y001373D02*
X013944Y001547D01*
X014030Y001547D01*
X014200Y001547D02*
X014200Y001200D01*
X014200Y001373D02*
X014373Y001547D01*
X014460Y001547D01*
X014630Y001547D02*
X014630Y001287D01*
X014716Y001200D01*
X014976Y001200D01*
X014976Y001113D02*
X014890Y001027D01*
X014803Y001027D01*
X014976Y001113D02*
X014976Y001547D01*
X015145Y001547D02*
X015232Y001460D01*
X015405Y001460D01*
X015492Y001373D01*
X015492Y001287D01*
X015405Y001200D01*
X015232Y001200D01*
X015145Y001287D01*
X015145Y001547D02*
X015145Y001634D01*
X015232Y001720D01*
X015405Y001720D01*
X015492Y001634D01*
X015661Y001720D02*
X016008Y001720D01*
X016176Y001720D02*
X016176Y001200D01*
X016523Y001200D01*
X016692Y001200D02*
X016692Y001720D01*
X016866Y001547D01*
X017039Y001720D01*
X017039Y001200D01*
X016350Y001460D02*
X016176Y001460D01*
X016176Y001720D02*
X016523Y001720D01*
X015834Y001720D02*
X015834Y001200D01*
X013770Y001200D02*
X013770Y001547D01*
X027129Y008527D02*
X027206Y008450D01*
X027359Y008450D01*
X027436Y008527D01*
X027436Y008910D01*
X027590Y008680D02*
X027820Y008680D01*
X027897Y008603D01*
X027897Y008527D01*
X027820Y008450D01*
X027666Y008450D01*
X027590Y008527D01*
X027590Y008680D01*
X027743Y008834D01*
X027897Y008910D01*
X027129Y008910D02*
X027129Y008527D01*
X023147Y009084D02*
X022840Y008777D01*
X022840Y008700D01*
X022686Y008777D02*
X022686Y009160D01*
X022840Y009160D02*
X023147Y009160D01*
X023147Y009084D01*
X022686Y008777D02*
X022609Y008700D01*
X022456Y008700D01*
X022379Y008777D01*
X022379Y009160D01*
X034879Y009160D02*
X034879Y008777D01*
X034956Y008700D01*
X035109Y008700D01*
X035186Y008777D01*
X035186Y009160D01*
X035340Y009084D02*
X035340Y009007D01*
X035416Y008930D01*
X035647Y008930D01*
X035647Y008777D02*
X035647Y009084D01*
X035570Y009160D01*
X035416Y009160D01*
X035340Y009084D01*
X035340Y008777D02*
X035416Y008700D01*
X035570Y008700D01*
X035647Y008777D01*
X039629Y008910D02*
X039629Y008527D01*
X039706Y008450D01*
X039859Y008450D01*
X039936Y008527D01*
X039936Y008910D01*
X040090Y008834D02*
X040090Y008757D01*
X040166Y008680D01*
X040320Y008680D01*
X040397Y008603D01*
X040397Y008527D01*
X040320Y008450D01*
X040166Y008450D01*
X040090Y008527D01*
X040090Y008603D01*
X040166Y008680D01*
X040320Y008680D02*
X040397Y008757D01*
X040397Y008834D01*
X040320Y008910D01*
X040166Y008910D01*
X040090Y008834D01*
X043799Y007760D02*
X044106Y007760D01*
X044106Y007684D01*
X043799Y007377D01*
X043799Y007300D01*
X044106Y007300D01*
X046549Y008050D02*
X046856Y008510D01*
X046549Y008510D02*
X046856Y008050D01*
X045402Y009700D02*
X045402Y009930D01*
X045556Y010084D01*
X045556Y010160D01*
X045402Y009930D02*
X045249Y010084D01*
X045249Y010160D01*
X040320Y020950D02*
X040320Y021410D01*
X040090Y021180D01*
X040397Y021180D01*
X039936Y021027D02*
X039936Y021410D01*
X039629Y021410D02*
X039629Y021027D01*
X039706Y020950D01*
X039859Y020950D01*
X039936Y021027D01*
X035647Y021277D02*
X035570Y021200D01*
X035416Y021200D01*
X035340Y021277D01*
X035340Y021430D02*
X035493Y021507D01*
X035570Y021507D01*
X035647Y021430D01*
X035647Y021277D01*
X035340Y021430D02*
X035340Y021660D01*
X035647Y021660D01*
X035186Y021660D02*
X035186Y021277D01*
X035109Y021200D01*
X034956Y021200D01*
X034879Y021277D01*
X034879Y021660D01*
X027897Y021334D02*
X027897Y021257D01*
X027590Y020950D01*
X027897Y020950D01*
X027436Y021027D02*
X027436Y021410D01*
X027590Y021334D02*
X027666Y021410D01*
X027820Y021410D01*
X027897Y021334D01*
X027129Y021410D02*
X027129Y021027D01*
X027206Y020950D01*
X027359Y020950D01*
X027436Y021027D01*
X023147Y021277D02*
X023070Y021200D01*
X022916Y021200D01*
X022840Y021277D01*
X022686Y021277D02*
X022686Y021660D01*
X022840Y021584D02*
X022916Y021660D01*
X023070Y021660D01*
X023147Y021584D01*
X023147Y021507D01*
X023070Y021430D01*
X023147Y021353D01*
X023147Y021277D01*
X023070Y021430D02*
X022993Y021430D01*
X022686Y021277D02*
X022609Y021200D01*
X022456Y021200D01*
X022379Y021277D01*
X022379Y021660D01*
X017088Y020660D02*
X016781Y020660D01*
X016935Y020660D02*
X016935Y020200D01*
X016628Y020277D02*
X016551Y020200D01*
X016398Y020200D01*
X016321Y020277D01*
X016321Y020584D01*
X016398Y020660D01*
X016551Y020660D01*
X016628Y020584D01*
X016167Y020660D02*
X015860Y020660D01*
X015860Y020200D01*
X016167Y020200D01*
X016014Y020430D02*
X015860Y020430D01*
X015707Y020200D02*
X015400Y020200D01*
X015400Y020660D01*
X015247Y020660D02*
X014940Y020660D01*
X014940Y020200D01*
X015247Y020200D01*
X015093Y020430D02*
X014940Y020430D01*
X014786Y020353D02*
X014786Y020277D01*
X014709Y020200D01*
X014556Y020200D01*
X014479Y020277D01*
X014556Y020430D02*
X014709Y020430D01*
X014786Y020353D01*
X014786Y020584D02*
X014709Y020660D01*
X014556Y020660D01*
X014479Y020584D01*
X014479Y020507D01*
X014556Y020430D01*
X013628Y020660D02*
X013321Y020660D01*
X013474Y020660D02*
X013474Y020200D01*
X013167Y020200D02*
X013014Y020353D01*
X013091Y020353D02*
X012860Y020353D01*
X012860Y020200D02*
X012860Y020660D01*
X013091Y020660D01*
X013167Y020584D01*
X013167Y020430D01*
X013091Y020353D01*
X012707Y020430D02*
X012400Y020430D01*
X012400Y020507D02*
X012554Y020660D01*
X012707Y020507D01*
X012707Y020200D01*
X012400Y020200D02*
X012400Y020507D01*
X012247Y020660D02*
X011940Y020660D01*
X012093Y020660D02*
X012093Y020200D01*
X011786Y020277D02*
X011786Y020353D01*
X011709Y020430D01*
X011556Y020430D01*
X011479Y020507D01*
X011479Y020584D01*
X011556Y020660D01*
X011709Y020660D01*
X011786Y020584D01*
X011786Y020277D02*
X011709Y020200D01*
X011556Y020200D01*
X011479Y020277D01*
D14*
X050394Y016046D02*
X050394Y015215D01*
X050671Y015492D02*
X050948Y015215D01*
X051223Y015353D02*
X051361Y015215D01*
X051777Y015215D01*
X051777Y015630D01*
X051638Y015769D01*
X051361Y015769D01*
X051361Y015492D02*
X051777Y015492D01*
X052052Y015630D02*
X052190Y015769D01*
X052606Y015769D01*
X052880Y015769D02*
X053296Y015769D01*
X053434Y015630D01*
X053434Y015353D01*
X053296Y015215D01*
X052880Y015215D01*
X052880Y014938D02*
X052880Y015769D01*
X052467Y015492D02*
X052190Y015492D01*
X052052Y015630D01*
X052467Y015492D02*
X052606Y015353D01*
X052467Y015215D01*
X052052Y015215D01*
X051361Y015492D02*
X051223Y015353D01*
X050948Y015630D02*
X050810Y015492D01*
X050394Y015492D01*
X050948Y015630D02*
X050948Y015907D01*
X050810Y016046D01*
X050394Y016046D01*
X053709Y016046D02*
X053709Y015215D01*
X054124Y015215D01*
X054263Y015353D01*
X054263Y015630D01*
X054124Y015769D01*
X053709Y015769D01*
X054538Y015630D02*
X054676Y015769D01*
X054953Y015769D01*
X055092Y015630D01*
X055092Y015492D01*
X054538Y015492D01*
X054538Y015630D02*
X054538Y015353D01*
X054676Y015215D01*
X054953Y015215D01*
X055367Y015215D02*
X055367Y015769D01*
X055643Y015769D02*
X055367Y015492D01*
X055643Y015769D02*
X055782Y015769D01*
X056057Y015769D02*
X056057Y015215D01*
X056748Y015353D02*
X056886Y015215D01*
X057302Y015215D01*
X057302Y015077D02*
X057163Y014938D01*
X057025Y014938D01*
X057302Y015077D02*
X057302Y015769D01*
X057576Y015769D02*
X057715Y015630D01*
X057992Y015630D01*
X058130Y015492D01*
X058130Y015353D01*
X057992Y015215D01*
X057715Y015215D01*
X057576Y015353D01*
X056748Y015353D02*
X056748Y015769D01*
X056472Y015769D02*
X056334Y015769D01*
X056057Y015492D01*
X057576Y015769D02*
X057576Y015907D01*
X057715Y016046D01*
X057992Y016046D01*
X058130Y015907D01*
X058405Y016046D02*
X058959Y016046D01*
X059234Y016046D02*
X059234Y015215D01*
X059788Y015215D01*
X060063Y015215D02*
X060063Y016046D01*
X060339Y015769D01*
X060616Y016046D01*
X060616Y015215D01*
X061720Y015353D02*
X061858Y015215D01*
X062135Y015215D01*
X062274Y015353D01*
X062274Y015630D01*
X061997Y015630D01*
X061720Y015907D02*
X061720Y015353D01*
X062549Y015215D02*
X062549Y015769D01*
X062826Y016046D01*
X063102Y015769D01*
X063102Y015215D01*
X063377Y015215D02*
X063377Y016046D01*
X063654Y015769D01*
X063931Y016046D01*
X063931Y015215D01*
X064206Y015215D02*
X064760Y015215D01*
X065035Y015215D02*
X065035Y016046D01*
X065450Y016046D01*
X065589Y015907D01*
X065589Y015630D01*
X065450Y015492D01*
X065035Y015492D01*
X065312Y015492D02*
X065589Y015215D01*
X064483Y015630D02*
X064206Y015630D01*
X064206Y015215D02*
X064206Y016046D01*
X064760Y016046D01*
X063102Y015630D02*
X062549Y015630D01*
X062274Y015907D02*
X062135Y016046D01*
X061858Y016046D01*
X061720Y015907D01*
X059788Y016046D02*
X059234Y016046D01*
X058682Y016046D02*
X058682Y015215D01*
X059234Y015630D02*
X059511Y015630D01*
D15*
X045189Y009230D02*
X044889Y009880D01*
X044589Y009230D01*
X044889Y009880D02*
X044889Y008130D01*
X044489Y007730D02*
X044491Y007770D01*
X044497Y007809D01*
X044507Y007848D01*
X044520Y007885D01*
X044538Y007921D01*
X044559Y007955D01*
X044583Y007987D01*
X044610Y008016D01*
X044640Y008043D01*
X044672Y008066D01*
X044707Y008086D01*
X044743Y008102D01*
X044781Y008115D01*
X044820Y008124D01*
X044859Y008129D01*
X044899Y008130D01*
X044939Y008127D01*
X044978Y008120D01*
X045016Y008109D01*
X045054Y008095D01*
X045089Y008076D01*
X045122Y008055D01*
X045154Y008030D01*
X045182Y008002D01*
X045208Y007972D01*
X045230Y007939D01*
X045249Y007904D01*
X045265Y007867D01*
X045277Y007829D01*
X045285Y007790D01*
X045289Y007750D01*
X045289Y007710D01*
X045285Y007670D01*
X045277Y007631D01*
X045265Y007593D01*
X045249Y007556D01*
X045230Y007521D01*
X045208Y007488D01*
X045182Y007458D01*
X045154Y007430D01*
X045122Y007405D01*
X045089Y007384D01*
X045054Y007365D01*
X045016Y007351D01*
X044978Y007340D01*
X044939Y007333D01*
X044899Y007330D01*
X044859Y007331D01*
X044820Y007336D01*
X044781Y007345D01*
X044743Y007358D01*
X044707Y007374D01*
X044672Y007394D01*
X044640Y007417D01*
X044610Y007444D01*
X044583Y007473D01*
X044559Y007505D01*
X044538Y007539D01*
X044520Y007575D01*
X044507Y007612D01*
X044497Y007651D01*
X044491Y007690D01*
X044489Y007730D01*
X045339Y007730D02*
X046839Y007730D01*
X046239Y008030D01*
X046239Y007430D02*
X046839Y007730D01*
D16*
X044839Y007730D02*
X044841Y007743D01*
X044846Y007756D01*
X044855Y007767D01*
X044866Y007774D01*
X044879Y007779D01*
X044892Y007780D01*
X044906Y007777D01*
X044918Y007771D01*
X044928Y007762D01*
X044935Y007750D01*
X044939Y007737D01*
X044939Y007723D01*
X044935Y007710D01*
X044928Y007698D01*
X044918Y007689D01*
X044906Y007683D01*
X044892Y007680D01*
X044879Y007681D01*
X044866Y007686D01*
X044855Y007693D01*
X044846Y007704D01*
X044841Y007717D01*
X044839Y007730D01*
D17*
X052169Y002911D02*
X052630Y003371D01*
X053090Y002911D01*
X053090Y001990D01*
X052169Y001990D02*
X052169Y002911D01*
X052169Y002681D02*
X053090Y002681D01*
X057669Y007490D02*
X058360Y007490D01*
X058590Y007720D01*
X058590Y007950D01*
X058360Y008181D01*
X057669Y008181D01*
X058360Y008181D02*
X058590Y008411D01*
X058590Y008641D01*
X058360Y008871D01*
X057669Y008871D01*
X057669Y007490D01*
D18*
X054971Y009042D02*
X054971Y004318D01*
X050247Y004318D01*
X050247Y009042D01*
X054971Y009042D01*
X055747Y009818D02*
X055747Y014542D01*
X060471Y014542D01*
X060471Y009818D01*
X055747Y009818D01*
X047309Y012030D02*
X046709Y012030D01*
X046709Y013330D01*
X047309Y013330D01*
X047309Y012030D01*
X046559Y011880D02*
X046559Y011280D01*
X045259Y011280D01*
X045259Y011880D01*
X046559Y011880D01*
X046506Y012196D02*
X045312Y012196D01*
X045309Y012980D01*
X045509Y013164D01*
X046506Y013164D01*
X046506Y012196D01*
X045009Y012030D02*
X044409Y012030D01*
X044409Y013330D01*
X045009Y013330D01*
X045009Y012030D01*
X044209Y012030D02*
X043609Y012030D01*
X043609Y013330D01*
X044209Y013330D01*
X044209Y012030D01*
X045259Y013380D02*
X046559Y013380D01*
X046559Y013980D01*
X045259Y013980D01*
X045259Y013380D01*
X044909Y013580D02*
X044909Y014180D01*
X043609Y014180D01*
X043609Y013580D01*
X044909Y013580D01*
X034940Y017430D02*
X034940Y020973D01*
X030216Y020973D01*
X030216Y017430D01*
X034940Y017430D01*
X036731Y017802D02*
X036731Y020558D01*
X039487Y020558D01*
X039487Y017802D01*
X036731Y017802D01*
X036830Y020361D02*
X036832Y020380D01*
X036837Y020399D01*
X036847Y020415D01*
X036859Y020430D01*
X036874Y020442D01*
X036890Y020452D01*
X036909Y020457D01*
X036928Y020459D01*
X036947Y020457D01*
X036966Y020452D01*
X036982Y020442D01*
X036997Y020430D01*
X037009Y020415D01*
X037019Y020399D01*
X037024Y020380D01*
X037026Y020361D01*
X037024Y020342D01*
X037019Y020323D01*
X037009Y020307D01*
X036997Y020292D01*
X036982Y020280D01*
X036966Y020270D01*
X036947Y020265D01*
X036928Y020263D01*
X036909Y020265D01*
X036890Y020270D01*
X036874Y020280D01*
X036859Y020292D01*
X036847Y020307D01*
X036837Y020323D01*
X036832Y020342D01*
X036830Y020361D01*
X030459Y018330D02*
X030461Y018354D01*
X030467Y018378D01*
X030476Y018400D01*
X030489Y018420D01*
X030505Y018438D01*
X030524Y018453D01*
X030545Y018466D01*
X030567Y018474D01*
X030591Y018479D01*
X030615Y018480D01*
X030639Y018477D01*
X030662Y018470D01*
X030684Y018460D01*
X030704Y018446D01*
X030721Y018429D01*
X030736Y018410D01*
X030747Y018389D01*
X030755Y018366D01*
X030759Y018342D01*
X030759Y018318D01*
X030755Y018294D01*
X030747Y018271D01*
X030736Y018250D01*
X030721Y018231D01*
X030704Y018214D01*
X030684Y018200D01*
X030662Y018190D01*
X030639Y018183D01*
X030615Y018180D01*
X030591Y018181D01*
X030567Y018186D01*
X030545Y018194D01*
X030524Y018207D01*
X030505Y018222D01*
X030489Y018240D01*
X030476Y018260D01*
X030467Y018282D01*
X030461Y018306D01*
X030459Y018330D01*
X026987Y017802D02*
X024231Y017802D01*
X024231Y020558D01*
X026987Y020558D01*
X026987Y017802D01*
X022440Y017430D02*
X022440Y020973D01*
X017716Y020973D01*
X017716Y017430D01*
X022440Y017430D01*
X017959Y018330D02*
X017961Y018354D01*
X017967Y018378D01*
X017976Y018400D01*
X017989Y018420D01*
X018005Y018438D01*
X018024Y018453D01*
X018045Y018466D01*
X018067Y018474D01*
X018091Y018479D01*
X018115Y018480D01*
X018139Y018477D01*
X018162Y018470D01*
X018184Y018460D01*
X018204Y018446D01*
X018221Y018429D01*
X018236Y018410D01*
X018247Y018389D01*
X018255Y018366D01*
X018259Y018342D01*
X018259Y018318D01*
X018255Y018294D01*
X018247Y018271D01*
X018236Y018250D01*
X018221Y018231D01*
X018204Y018214D01*
X018184Y018200D01*
X018162Y018190D01*
X018139Y018183D01*
X018115Y018180D01*
X018091Y018181D01*
X018067Y018186D01*
X018045Y018194D01*
X018024Y018207D01*
X018005Y018222D01*
X017989Y018240D01*
X017976Y018260D01*
X017967Y018282D01*
X017961Y018306D01*
X017959Y018330D01*
X012200Y017430D02*
X008859Y014089D01*
X005519Y017430D01*
X008859Y020771D01*
X012200Y017430D01*
X013609Y016021D02*
X016950Y012680D01*
X013609Y009339D01*
X010269Y012680D01*
X013609Y016021D01*
X007450Y012680D02*
X004109Y009339D01*
X000769Y012680D01*
X004109Y016021D01*
X007450Y012680D01*
X008859Y011271D02*
X012200Y007930D01*
X008859Y004589D01*
X005519Y007930D01*
X008859Y011271D01*
X017716Y008473D02*
X017716Y004930D01*
X022440Y004930D01*
X022440Y008473D01*
X017716Y008473D01*
X024231Y008058D02*
X024231Y005302D01*
X026987Y005302D01*
X026987Y008058D01*
X024231Y008058D01*
X024330Y007861D02*
X024332Y007880D01*
X024337Y007899D01*
X024347Y007915D01*
X024359Y007930D01*
X024374Y007942D01*
X024390Y007952D01*
X024409Y007957D01*
X024428Y007959D01*
X024447Y007957D01*
X024466Y007952D01*
X024482Y007942D01*
X024497Y007930D01*
X024509Y007915D01*
X024519Y007899D01*
X024524Y007880D01*
X024526Y007861D01*
X024524Y007842D01*
X024519Y007823D01*
X024509Y007807D01*
X024497Y007792D01*
X024482Y007780D01*
X024466Y007770D01*
X024447Y007765D01*
X024428Y007763D01*
X024409Y007765D01*
X024390Y007770D01*
X024374Y007780D01*
X024359Y007792D01*
X024347Y007807D01*
X024337Y007823D01*
X024332Y007842D01*
X024330Y007861D01*
X030216Y008473D02*
X030216Y004930D01*
X034940Y004930D01*
X034940Y008473D01*
X030216Y008473D01*
X036731Y008058D02*
X036731Y005302D01*
X039487Y005302D01*
X039487Y008058D01*
X036731Y008058D01*
X036830Y007861D02*
X036832Y007880D01*
X036837Y007899D01*
X036847Y007915D01*
X036859Y007930D01*
X036874Y007942D01*
X036890Y007952D01*
X036909Y007957D01*
X036928Y007959D01*
X036947Y007957D01*
X036966Y007952D01*
X036982Y007942D01*
X036997Y007930D01*
X037009Y007915D01*
X037019Y007899D01*
X037024Y007880D01*
X037026Y007861D01*
X037024Y007842D01*
X037019Y007823D01*
X037009Y007807D01*
X036997Y007792D01*
X036982Y007780D01*
X036966Y007770D01*
X036947Y007765D01*
X036928Y007763D01*
X036909Y007765D01*
X036890Y007770D01*
X036874Y007780D01*
X036859Y007792D01*
X036847Y007807D01*
X036837Y007823D01*
X036832Y007842D01*
X036830Y007861D01*
X030459Y005830D02*
X030461Y005854D01*
X030467Y005878D01*
X030476Y005900D01*
X030489Y005920D01*
X030505Y005938D01*
X030524Y005953D01*
X030545Y005966D01*
X030567Y005974D01*
X030591Y005979D01*
X030615Y005980D01*
X030639Y005977D01*
X030662Y005970D01*
X030684Y005960D01*
X030704Y005946D01*
X030721Y005929D01*
X030736Y005910D01*
X030747Y005889D01*
X030755Y005866D01*
X030759Y005842D01*
X030759Y005818D01*
X030755Y005794D01*
X030747Y005771D01*
X030736Y005750D01*
X030721Y005731D01*
X030704Y005714D01*
X030684Y005700D01*
X030662Y005690D01*
X030639Y005683D01*
X030615Y005680D01*
X030591Y005681D01*
X030567Y005686D01*
X030545Y005694D01*
X030524Y005707D01*
X030505Y005722D01*
X030489Y005740D01*
X030476Y005760D01*
X030467Y005782D01*
X030461Y005806D01*
X030459Y005830D01*
X017959Y005830D02*
X017961Y005854D01*
X017967Y005878D01*
X017976Y005900D01*
X017989Y005920D01*
X018005Y005938D01*
X018024Y005953D01*
X018045Y005966D01*
X018067Y005974D01*
X018091Y005979D01*
X018115Y005980D01*
X018139Y005977D01*
X018162Y005970D01*
X018184Y005960D01*
X018204Y005946D01*
X018221Y005929D01*
X018236Y005910D01*
X018247Y005889D01*
X018255Y005866D01*
X018259Y005842D01*
X018259Y005818D01*
X018255Y005794D01*
X018247Y005771D01*
X018236Y005750D01*
X018221Y005731D01*
X018204Y005714D01*
X018184Y005700D01*
X018162Y005690D01*
X018139Y005683D01*
X018115Y005680D01*
X018091Y005681D01*
X018067Y005686D01*
X018045Y005694D01*
X018024Y005707D01*
X018005Y005722D01*
X017989Y005740D01*
X017976Y005760D01*
X017967Y005782D01*
X017961Y005806D01*
X017959Y005830D01*
X024330Y020361D02*
X024332Y020380D01*
X024337Y020399D01*
X024347Y020415D01*
X024359Y020430D01*
X024374Y020442D01*
X024390Y020452D01*
X024409Y020457D01*
X024428Y020459D01*
X024447Y020457D01*
X024466Y020452D01*
X024482Y020442D01*
X024497Y020430D01*
X024509Y020415D01*
X024519Y020399D01*
X024524Y020380D01*
X024526Y020361D01*
X024524Y020342D01*
X024519Y020323D01*
X024509Y020307D01*
X024497Y020292D01*
X024482Y020280D01*
X024466Y020270D01*
X024447Y020265D01*
X024428Y020263D01*
X024409Y020265D01*
X024390Y020270D01*
X024374Y020280D01*
X024359Y020292D01*
X024347Y020307D01*
X024337Y020323D01*
X024332Y020342D01*
X024330Y020361D01*
X016759Y021780D02*
X016759Y024080D01*
X014459Y024080D01*
X014459Y021780D01*
X016759Y021780D01*
X013759Y021780D02*
X013759Y024080D01*
X011459Y024080D01*
X011459Y021780D01*
X013759Y021780D01*
D19*
X048109Y021930D02*
X048359Y021680D01*
X049859Y021680D01*
X050109Y021930D01*
X050109Y022430D01*
X049859Y022680D01*
X048359Y022680D01*
X048109Y022430D01*
X048109Y021930D01*
X048359Y022680D02*
X048109Y022930D01*
X048109Y023430D01*
X048359Y023680D01*
X048109Y023930D01*
X048109Y024430D01*
X048359Y024680D01*
X049859Y024680D01*
X050109Y024430D01*
X050109Y023930D01*
X049859Y023680D01*
X048359Y023680D01*
X049859Y023680D02*
X050109Y023430D01*
X050109Y022930D01*
X049859Y022680D01*
X051609Y022430D02*
X051609Y021930D01*
X051859Y021680D01*
X053359Y021680D01*
X053609Y021930D01*
X053609Y022430D01*
X053359Y022680D01*
X051859Y022680D01*
X051609Y022430D01*
X051859Y022680D02*
X051609Y022930D01*
X051609Y023430D01*
X051859Y023680D01*
X051609Y023930D01*
X051609Y024430D01*
X051859Y024680D01*
X053359Y024680D01*
X053609Y024430D01*
X053609Y023930D01*
X053359Y023680D01*
X051859Y023680D01*
X053359Y023680D02*
X053609Y023430D01*
X053609Y022930D01*
X053359Y022680D01*
X055109Y022430D02*
X055109Y021930D01*
X055359Y021680D01*
X056859Y021680D01*
X057109Y021930D01*
X057109Y022430D01*
X056859Y022680D01*
X055359Y022680D01*
X055109Y022430D01*
X055359Y022680D02*
X055109Y022930D01*
X055109Y023430D01*
X055359Y023680D01*
X055109Y023930D01*
X055109Y024430D01*
X055359Y024680D01*
X056859Y024680D01*
X057109Y024430D01*
X057109Y023930D01*
X056859Y023680D01*
X055359Y023680D01*
X056859Y023680D02*
X057109Y023430D01*
X057109Y022930D01*
X056859Y022680D01*
X058609Y022430D02*
X058609Y021930D01*
X058859Y021680D01*
X060359Y021680D01*
X060609Y021930D01*
X060609Y022430D01*
X060359Y022680D01*
X058859Y022680D01*
X058609Y022430D01*
X058859Y022680D02*
X058609Y022930D01*
X058609Y023430D01*
X058859Y023680D01*
X058609Y023930D01*
X058609Y024430D01*
X058859Y024680D01*
X060359Y024680D01*
X060609Y024430D01*
X060609Y023930D01*
X060359Y023680D01*
X058859Y023680D01*
X060359Y023680D02*
X060609Y023430D01*
X060609Y022930D01*
X060359Y022680D01*
D20*
X060109Y022180D03*
X059109Y022180D03*
X059109Y023180D03*
X060109Y023180D03*
X060109Y024180D03*
X059109Y024180D03*
X056609Y024180D03*
X055609Y024180D03*
X055609Y023180D03*
X056609Y023180D03*
X056609Y022180D03*
X055609Y022180D03*
X053109Y022180D03*
X052109Y022180D03*
X052109Y023180D03*
X053109Y023180D03*
X053109Y024180D03*
X052109Y024180D03*
X049609Y024180D03*
X048609Y024180D03*
X048609Y023180D03*
X049609Y023180D03*
X049609Y022180D03*
X048609Y022180D03*
M02*
