G75*
%MOIN*%
%OFA0B0*%
%FSLAX25Y25*%
%IPPOS*%
%LPD*%
%AMOC8*
5,1,8,0,0,1.08239X$1,22.5*
%
%ADD10OC8,0.06000*%
%ADD11R,0.04724X0.04724*%
%ADD12R,0.05118X0.05906*%
%ADD13C,0.01600*%
D10*
X0011000Y0038500D03*
X0011000Y0048500D03*
X0011000Y0058500D03*
X0011000Y0068500D03*
X0011000Y0078500D03*
X0011000Y0088500D03*
X0011000Y0098500D03*
X0011000Y0108500D03*
X0011000Y0118500D03*
X0011000Y0128500D03*
X0011000Y0138500D03*
X0011000Y0148500D03*
X0011000Y0158500D03*
X0011000Y0168500D03*
X0011000Y0178500D03*
X0011000Y0188500D03*
X0011000Y0198500D03*
X0011000Y0208500D03*
X0011000Y0218500D03*
X0011000Y0228500D03*
X0021000Y0228500D03*
X0021000Y0218500D03*
X0021000Y0208500D03*
X0021000Y0198500D03*
X0021000Y0188500D03*
X0021000Y0178500D03*
X0021000Y0168500D03*
X0021000Y0158500D03*
X0021000Y0148500D03*
X0021000Y0138500D03*
X0021000Y0128500D03*
X0021000Y0118500D03*
X0021000Y0108500D03*
X0021000Y0098500D03*
X0021000Y0088500D03*
X0021000Y0078500D03*
X0021000Y0068500D03*
X0021000Y0058500D03*
X0021000Y0048500D03*
X0021000Y0038500D03*
X0069750Y0038500D03*
X0069750Y0048500D03*
X0069750Y0058500D03*
X0069750Y0068500D03*
X0069750Y0078500D03*
X0069750Y0088500D03*
X0069750Y0098500D03*
X0069750Y0108500D03*
X0069750Y0118500D03*
X0069750Y0128500D03*
X0069750Y0138500D03*
X0069750Y0148500D03*
X0069750Y0158500D03*
X0069750Y0168500D03*
X0069750Y0178500D03*
X0069750Y0188500D03*
X0069750Y0198500D03*
X0069750Y0208500D03*
X0069750Y0218500D03*
X0069750Y0228500D03*
X0079750Y0228500D03*
X0079750Y0218500D03*
X0079750Y0208500D03*
X0079750Y0198500D03*
X0079750Y0188500D03*
X0079750Y0178500D03*
X0079750Y0168500D03*
X0079750Y0158500D03*
X0079750Y0148500D03*
X0079750Y0138500D03*
X0079750Y0128500D03*
X0079750Y0118500D03*
X0079750Y0108500D03*
X0079750Y0098500D03*
X0079750Y0088500D03*
X0079750Y0078500D03*
X0079750Y0068500D03*
X0079750Y0058500D03*
X0079750Y0048500D03*
X0079750Y0038500D03*
D11*
X0013500Y0011866D03*
X0013500Y0020134D03*
D12*
X0074760Y0026000D03*
X0082240Y0026000D03*
D13*
X0081300Y0026300D01*
X0081300Y0037300D01*
X0080200Y0038400D01*
X0079750Y0038500D01*
X0070300Y0030700D02*
X0074700Y0026300D01*
X0074760Y0026000D01*
X0070300Y0030700D02*
X0021900Y0030700D01*
X0019700Y0028500D01*
X0019700Y0017500D01*
X0014200Y0012000D01*
X0013500Y0011866D01*
X0013500Y0020134D02*
X0014200Y0020800D01*
X0014200Y0035100D01*
X0016400Y0037300D01*
X0016400Y0223200D01*
X0012000Y0227600D01*
X0011000Y0228500D01*
M02*
