G75*
%MOIN*%
%OFA0B0*%
%FSLAX24Y24*%
%IPPOS*%
%LPD*%
%AMOC8*
5,1,8,0,0,1.08239X$1,22.5*
%
%ADD10C,0.1345*%
%ADD11OC8,0.0660*%
D10*
X005350Y001600D03*
X010600Y001600D03*
X010600Y025600D03*
X005350Y025600D03*
D11*
X001100Y003850D03*
X001100Y004850D03*
X001100Y005850D03*
X001100Y006850D03*
X001100Y007850D03*
X001100Y008850D03*
X001100Y009850D03*
X001100Y010850D03*
X001100Y011850D03*
X001100Y012850D03*
X001100Y013850D03*
X001100Y014850D03*
X001100Y015850D03*
X001100Y016850D03*
X001100Y017850D03*
X001100Y018850D03*
X001100Y019850D03*
X001100Y020850D03*
X001100Y021850D03*
X001100Y022850D03*
X002100Y022850D03*
X002100Y021850D03*
X002100Y020850D03*
X002100Y019850D03*
X002100Y018850D03*
X002100Y017850D03*
X002100Y016850D03*
X002100Y015850D03*
X002100Y014850D03*
X002100Y013850D03*
X002100Y012850D03*
X002100Y011850D03*
X002100Y010850D03*
X002100Y009850D03*
X002100Y008850D03*
X002100Y007850D03*
X002100Y006850D03*
X002100Y005850D03*
X002100Y004850D03*
X002100Y003850D03*
X006975Y003850D03*
X006975Y004850D03*
X006975Y005850D03*
X006975Y006850D03*
X006975Y007850D03*
X006975Y008850D03*
X006975Y009850D03*
X006975Y010850D03*
X006975Y011850D03*
X006975Y012850D03*
X006975Y013850D03*
X006975Y014850D03*
X006975Y015850D03*
X006975Y016850D03*
X006975Y017850D03*
X006975Y018850D03*
X006975Y019850D03*
X006975Y020850D03*
X006975Y021850D03*
X006975Y022850D03*
X007975Y022850D03*
X007975Y021850D03*
X007975Y020850D03*
X007975Y019850D03*
X007975Y018850D03*
X007975Y017850D03*
X007975Y016850D03*
X007975Y015850D03*
X007975Y014850D03*
X007975Y013850D03*
X007975Y012850D03*
X007975Y011850D03*
X007975Y010850D03*
X007975Y009850D03*
X007975Y008850D03*
X007975Y007850D03*
X007975Y006850D03*
X007975Y005850D03*
X007975Y004850D03*
X007975Y003850D03*
M02*
