%
M48
M72
T01C0.0400
T02C0.1285
%
T01
X1100Y3850
X1100Y4850
X1100Y5850
X1100Y6850
X1100Y7850
X1100Y8850
X1100Y9850
X1100Y10850
X1100Y11850
X1100Y12850
X1100Y13850
X1100Y14850
X1100Y15850
X1100Y16850
X1100Y17850
X1100Y18850
X1100Y19850
X1100Y20850
X1100Y21850
X1100Y22850
X2100Y22850
X2100Y21850
X2100Y20850
X2100Y19850
X2100Y18850
X2100Y17850
X2100Y16850
X2100Y15850
X2100Y14850
X2100Y13850
X2100Y12850
X2100Y11850
X2100Y10850
X2100Y9850
X2100Y8850
X2100Y7850
X2100Y6850
X2100Y5850
X2100Y4850
X2100Y3850
X6975Y3850
X6975Y4850
X6975Y5850
X6975Y6850
X6975Y7850
X6975Y8850
X6975Y9850
X6975Y10850
X6975Y11850
X6975Y12850
X6975Y13850
X6975Y14850
X6975Y15850
X6975Y16850
X6975Y17850
X6975Y18850
X6975Y19850
X6975Y20850
X6975Y21850
X6975Y22850
X7975Y22850
X7975Y21850
X7975Y20850
X7975Y19850
X7975Y18850
X7975Y17850
X7975Y16850
X7975Y15850
X7975Y14850
X7975Y13850
X7975Y12850
X7975Y11850
X7975Y10850
X7975Y9850
X7975Y8850
X7975Y7850
X7975Y6850
X7975Y5850
X7975Y4850
X7975Y3850
T02
X10600Y1600
X5350Y1600
X5350Y25600
X10600Y25600
M30
