G75*
%MOIN*%
%OFA0B0*%
%FSLAX25Y25*%
%IPPOS*%
%LPD*%
%AMOC8*
5,1,8,0,0,1.08239X$1,22.5*
%
%ADD10C,0.00400*%
%ADD11C,0.00800*%
%ADD12C,0.00500*%
D10*
X0031884Y0066200D02*
X0033252Y0066200D01*
X0033936Y0066884D01*
X0033936Y0068252D01*
X0032568Y0068252D01*
X0033936Y0069620D02*
X0033252Y0070304D01*
X0031884Y0070304D01*
X0031200Y0069620D01*
X0031200Y0066884D01*
X0031884Y0066200D01*
X0035344Y0066200D02*
X0035344Y0070304D01*
X0038079Y0066200D01*
X0038079Y0070304D01*
X0039487Y0070304D02*
X0039487Y0066200D01*
X0041539Y0066200D01*
X0042223Y0066884D01*
X0042223Y0069620D01*
X0041539Y0070304D01*
X0039487Y0070304D01*
X0039487Y0086200D02*
X0041539Y0086200D01*
X0042223Y0086884D01*
X0042223Y0089620D01*
X0041539Y0090304D01*
X0039487Y0090304D01*
X0039487Y0086200D01*
X0038079Y0086200D02*
X0038079Y0090304D01*
X0035344Y0090304D02*
X0035344Y0086200D01*
X0033936Y0086884D02*
X0033936Y0088252D01*
X0032568Y0088252D01*
X0033936Y0089620D02*
X0033252Y0090304D01*
X0031884Y0090304D01*
X0031200Y0089620D01*
X0031200Y0086884D01*
X0031884Y0086200D01*
X0033252Y0086200D01*
X0033936Y0086884D01*
X0035344Y0090304D02*
X0038079Y0086200D01*
X0036014Y0096200D02*
X0033962Y0096200D01*
X0033962Y0100304D01*
X0036014Y0100304D01*
X0036698Y0099620D01*
X0036698Y0096884D01*
X0036014Y0096200D01*
X0032568Y0096200D02*
X0031200Y0096200D01*
X0031884Y0096200D02*
X0031884Y0100304D01*
X0031200Y0100304D02*
X0032568Y0100304D01*
X0031884Y0106200D02*
X0033252Y0106200D01*
X0033936Y0106884D01*
X0035344Y0106200D02*
X0035344Y0110304D01*
X0038079Y0110304D01*
X0039487Y0108936D02*
X0040855Y0110304D01*
X0040855Y0106200D01*
X0039487Y0106200D02*
X0042223Y0106200D01*
X0038079Y0106200D02*
X0035344Y0106200D01*
X0035344Y0108252D02*
X0036711Y0108252D01*
X0033936Y0109620D02*
X0033252Y0110304D01*
X0031884Y0110304D01*
X0031200Y0109620D01*
X0031200Y0106884D01*
X0031884Y0106200D01*
X0031884Y0116200D02*
X0033252Y0116200D01*
X0033936Y0116884D01*
X0035344Y0116200D02*
X0038079Y0116200D01*
X0039487Y0116884D02*
X0039487Y0119620D01*
X0040171Y0120304D01*
X0041539Y0120304D01*
X0042223Y0119620D01*
X0039487Y0116884D01*
X0040171Y0116200D01*
X0041539Y0116200D01*
X0042223Y0116884D01*
X0042223Y0119620D01*
X0038079Y0120304D02*
X0035344Y0120304D01*
X0035344Y0116200D01*
X0035344Y0118252D02*
X0036711Y0118252D01*
X0033936Y0119620D02*
X0033252Y0120304D01*
X0031884Y0120304D01*
X0031200Y0119620D01*
X0031200Y0116884D01*
X0031884Y0116200D01*
X0031884Y0136200D02*
X0033252Y0136200D01*
X0033936Y0136884D01*
X0033936Y0138252D01*
X0032568Y0138252D01*
X0033936Y0139620D02*
X0033252Y0140304D01*
X0031884Y0140304D01*
X0031200Y0139620D01*
X0031200Y0136884D01*
X0031884Y0136200D01*
X0035344Y0136200D02*
X0035344Y0140304D01*
X0038079Y0136200D01*
X0038079Y0140304D01*
X0039487Y0140304D02*
X0039487Y0136200D01*
X0041539Y0136200D01*
X0042223Y0136884D01*
X0042223Y0139620D01*
X0041539Y0140304D01*
X0039487Y0140304D01*
X0050413Y0146200D02*
X0053149Y0148936D01*
X0053149Y0149620D01*
X0052465Y0150304D01*
X0051097Y0150304D01*
X0050413Y0149620D01*
X0050413Y0146200D02*
X0053149Y0146200D01*
X0054556Y0148252D02*
X0057292Y0148252D01*
X0056608Y0146200D02*
X0056608Y0150304D01*
X0054556Y0148252D01*
X0055240Y0156200D02*
X0054556Y0156884D01*
X0055240Y0156200D02*
X0056608Y0156200D01*
X0057292Y0156884D01*
X0057292Y0157568D01*
X0056608Y0158252D01*
X0055924Y0158252D01*
X0056608Y0158252D02*
X0057292Y0158936D01*
X0057292Y0159620D01*
X0056608Y0160304D01*
X0055240Y0160304D01*
X0054556Y0159620D01*
X0053149Y0159620D02*
X0052465Y0160304D01*
X0051097Y0160304D01*
X0050413Y0159620D01*
X0053149Y0158936D02*
X0050413Y0156200D01*
X0053149Y0156200D01*
X0053149Y0158936D02*
X0053149Y0159620D01*
X0053149Y0176200D02*
X0050413Y0176200D01*
X0051781Y0176200D02*
X0051781Y0180304D01*
X0050413Y0178936D01*
X0054556Y0178936D02*
X0054556Y0179620D01*
X0055240Y0180304D01*
X0056608Y0180304D01*
X0057292Y0179620D01*
X0057292Y0178936D01*
X0056608Y0178252D01*
X0055240Y0178252D01*
X0054556Y0178936D01*
X0055240Y0178252D02*
X0054556Y0177568D01*
X0054556Y0176884D01*
X0055240Y0176200D01*
X0056608Y0176200D01*
X0057292Y0176884D01*
X0057292Y0177568D01*
X0056608Y0178252D01*
X0056608Y0186200D02*
X0055240Y0186200D01*
X0054556Y0186884D01*
X0054556Y0188252D02*
X0055924Y0188936D01*
X0056608Y0188936D01*
X0057292Y0188252D01*
X0057292Y0186884D01*
X0056608Y0186200D01*
X0057292Y0190304D02*
X0054556Y0190304D01*
X0054556Y0188252D01*
X0053149Y0186200D02*
X0050413Y0186200D01*
X0051781Y0186200D02*
X0051781Y0190304D01*
X0050413Y0188936D01*
X0050413Y0196200D02*
X0053149Y0196200D01*
X0051781Y0196200D02*
X0051781Y0200304D01*
X0050413Y0198936D01*
X0054556Y0198252D02*
X0057292Y0198252D01*
X0056608Y0200304D02*
X0054556Y0198252D01*
X0056608Y0196200D02*
X0056608Y0200304D01*
X0042223Y0206884D02*
X0041539Y0206200D01*
X0039487Y0206200D01*
X0039487Y0210304D01*
X0041539Y0210304D01*
X0042223Y0209620D01*
X0042223Y0206884D01*
X0038079Y0206200D02*
X0038079Y0210304D01*
X0035344Y0210304D02*
X0035344Y0206200D01*
X0033936Y0206884D02*
X0033936Y0208252D01*
X0032568Y0208252D01*
X0033936Y0209620D02*
X0033252Y0210304D01*
X0031884Y0210304D01*
X0031200Y0209620D01*
X0031200Y0206884D01*
X0031884Y0206200D01*
X0033252Y0206200D01*
X0033936Y0206884D01*
X0035344Y0210304D02*
X0038079Y0206200D01*
X0038079Y0200304D02*
X0035344Y0196200D01*
X0038079Y0196200D02*
X0035344Y0200304D01*
X0033936Y0200304D02*
X0031200Y0200304D01*
X0032568Y0200304D02*
X0032568Y0196200D01*
X0033252Y0190304D02*
X0031200Y0190304D01*
X0031200Y0186200D01*
X0031200Y0187568D02*
X0033252Y0187568D01*
X0033936Y0188252D01*
X0033936Y0189620D01*
X0033252Y0190304D01*
X0032568Y0187568D02*
X0033936Y0186200D01*
X0035344Y0186200D02*
X0038079Y0190304D01*
X0035344Y0190304D02*
X0038079Y0186200D01*
X0038079Y0170304D02*
X0038079Y0166200D01*
X0035344Y0170304D01*
X0035344Y0166200D01*
X0033936Y0166884D02*
X0033936Y0168252D01*
X0032568Y0168252D01*
X0033936Y0169620D02*
X0033252Y0170304D01*
X0031884Y0170304D01*
X0031200Y0169620D01*
X0031200Y0166884D01*
X0031884Y0166200D01*
X0033252Y0166200D01*
X0033936Y0166884D01*
X0039487Y0166200D02*
X0041539Y0166200D01*
X0042223Y0166884D01*
X0042223Y0169620D01*
X0041539Y0170304D01*
X0039487Y0170304D01*
X0039487Y0166200D01*
X0051097Y0130304D02*
X0050413Y0129620D01*
X0051097Y0130304D02*
X0052465Y0130304D01*
X0053149Y0129620D01*
X0053149Y0128936D01*
X0050413Y0126200D01*
X0053149Y0126200D01*
X0054556Y0126884D02*
X0055240Y0126200D01*
X0056608Y0126200D01*
X0057292Y0126884D01*
X0057292Y0128252D01*
X0056608Y0128936D01*
X0055924Y0128936D01*
X0054556Y0128252D01*
X0054556Y0130304D01*
X0057292Y0130304D01*
X0056608Y0120304D02*
X0055240Y0120304D01*
X0054556Y0119620D01*
X0054556Y0118936D01*
X0055240Y0118252D01*
X0056608Y0118252D01*
X0057292Y0117568D01*
X0057292Y0116884D01*
X0056608Y0116200D01*
X0055240Y0116200D01*
X0054556Y0116884D01*
X0054556Y0117568D01*
X0055240Y0118252D01*
X0056608Y0118252D02*
X0057292Y0118936D01*
X0057292Y0119620D01*
X0056608Y0120304D01*
X0057292Y0110304D02*
X0054556Y0110304D01*
X0057292Y0109620D02*
X0054556Y0106884D01*
X0054556Y0106200D01*
X0057292Y0109620D02*
X0057292Y0110304D01*
X0056608Y0080304D02*
X0055240Y0080304D01*
X0054556Y0079620D01*
X0057292Y0078936D02*
X0054556Y0076200D01*
X0057292Y0076200D01*
X0057292Y0078936D02*
X0057292Y0079620D01*
X0056608Y0080304D01*
X0053149Y0076200D02*
X0050413Y0076200D01*
X0051781Y0076200D02*
X0051781Y0080304D01*
X0050413Y0078936D01*
X0051781Y0060304D02*
X0051781Y0056200D01*
X0050413Y0056200D02*
X0053149Y0056200D01*
X0054556Y0056884D02*
X0054556Y0058252D01*
X0056608Y0058252D01*
X0057292Y0057568D01*
X0057292Y0056884D01*
X0056608Y0056200D01*
X0055240Y0056200D01*
X0054556Y0056884D01*
X0054556Y0058252D02*
X0055924Y0059620D01*
X0057292Y0060304D01*
X0056608Y0050304D02*
X0055240Y0050304D01*
X0054556Y0049620D01*
X0054556Y0046884D01*
X0057292Y0049620D01*
X0057292Y0046884D01*
X0056608Y0046200D01*
X0055240Y0046200D01*
X0054556Y0046884D01*
X0053149Y0046200D02*
X0050413Y0046200D01*
X0053149Y0048936D01*
X0053149Y0049620D01*
X0052465Y0050304D01*
X0051097Y0050304D01*
X0050413Y0049620D01*
X0050413Y0058936D02*
X0051781Y0060304D01*
X0056608Y0050304D02*
X0057292Y0049620D01*
X0055924Y0040304D02*
X0054556Y0038936D01*
X0053149Y0038936D02*
X0053149Y0039620D01*
X0052465Y0040304D01*
X0051097Y0040304D01*
X0050413Y0039620D01*
X0053149Y0038936D02*
X0050413Y0036200D01*
X0053149Y0036200D01*
X0054556Y0036200D02*
X0057292Y0036200D01*
X0055924Y0036200D02*
X0055924Y0040304D01*
X0090413Y0046200D02*
X0093149Y0048936D01*
X0093149Y0049620D01*
X0092465Y0050304D01*
X0091097Y0050304D01*
X0090413Y0049620D01*
X0090413Y0046200D02*
X0093149Y0046200D01*
X0094556Y0046884D02*
X0095240Y0046200D01*
X0096608Y0046200D01*
X0097292Y0046884D01*
X0097292Y0047568D01*
X0096608Y0048252D01*
X0094556Y0048252D01*
X0094556Y0046884D01*
X0094556Y0048252D02*
X0095924Y0049620D01*
X0097292Y0050304D01*
X0096608Y0056200D02*
X0095240Y0056200D01*
X0094556Y0056884D01*
X0095240Y0058252D02*
X0094556Y0058936D01*
X0094556Y0059620D01*
X0095240Y0060304D01*
X0096608Y0060304D01*
X0097292Y0059620D01*
X0097292Y0056884D01*
X0096608Y0056200D01*
X0097292Y0058252D02*
X0095240Y0058252D01*
X0093149Y0056200D02*
X0090413Y0056200D01*
X0091781Y0056200D02*
X0091781Y0060304D01*
X0090413Y0058936D01*
X0090413Y0066200D02*
X0093149Y0066200D01*
X0091781Y0066200D02*
X0091781Y0070304D01*
X0090413Y0068936D01*
X0094556Y0069620D02*
X0095240Y0070304D01*
X0096608Y0070304D01*
X0097292Y0069620D01*
X0097292Y0068936D01*
X0096608Y0068252D01*
X0097292Y0067568D01*
X0097292Y0066884D01*
X0096608Y0066200D01*
X0095240Y0066200D01*
X0094556Y0066884D01*
X0095924Y0068252D02*
X0096608Y0068252D01*
X0096608Y0076200D02*
X0095240Y0076200D01*
X0094556Y0076884D01*
X0094556Y0078252D01*
X0096608Y0078252D01*
X0097292Y0077568D01*
X0097292Y0076884D01*
X0096608Y0076200D01*
X0094556Y0078252D02*
X0095924Y0079620D01*
X0097292Y0080304D01*
X0096608Y0086200D02*
X0095240Y0086200D01*
X0094556Y0086884D01*
X0094556Y0088252D02*
X0095924Y0088936D01*
X0096608Y0088936D01*
X0097292Y0088252D01*
X0097292Y0086884D01*
X0096608Y0086200D01*
X0094556Y0088252D02*
X0094556Y0090304D01*
X0097292Y0090304D01*
X0103700Y0096200D02*
X0105068Y0096200D01*
X0104384Y0096200D02*
X0104384Y0100304D01*
X0103700Y0100304D02*
X0105068Y0100304D01*
X0106462Y0100304D02*
X0106462Y0096200D01*
X0108514Y0096200D01*
X0109198Y0096884D01*
X0109198Y0099620D01*
X0108514Y0100304D01*
X0106462Y0100304D01*
X0105752Y0106200D02*
X0104384Y0106200D01*
X0103700Y0106884D01*
X0103700Y0109620D01*
X0104384Y0110304D01*
X0105752Y0110304D01*
X0106436Y0109620D01*
X0106436Y0108252D02*
X0105068Y0108252D01*
X0106436Y0108252D02*
X0106436Y0106884D01*
X0105752Y0106200D01*
X0107844Y0106200D02*
X0107844Y0110304D01*
X0110579Y0106200D01*
X0110579Y0110304D01*
X0111987Y0110304D02*
X0111987Y0106200D01*
X0114039Y0106200D01*
X0114723Y0106884D01*
X0114723Y0109620D01*
X0114039Y0110304D01*
X0111987Y0110304D01*
X0111987Y0116200D02*
X0114723Y0116200D01*
X0116131Y0116200D02*
X0116131Y0120304D01*
X0116815Y0118252D02*
X0118866Y0116200D01*
X0116131Y0117568D02*
X0118866Y0120304D01*
X0116801Y0126200D02*
X0117485Y0126884D01*
X0117485Y0129620D01*
X0116801Y0130304D01*
X0115433Y0130304D01*
X0114749Y0129620D01*
X0114749Y0126884D01*
X0115433Y0126200D01*
X0116801Y0126200D01*
X0113342Y0126884D02*
X0112658Y0126200D01*
X0111290Y0126200D01*
X0110606Y0126884D01*
X0111290Y0128252D02*
X0110606Y0128936D01*
X0110606Y0129620D01*
X0111290Y0130304D01*
X0112658Y0130304D01*
X0113342Y0129620D01*
X0112658Y0128252D02*
X0113342Y0127568D01*
X0113342Y0126884D01*
X0112658Y0128252D02*
X0111290Y0128252D01*
X0109211Y0130304D02*
X0107844Y0130304D01*
X0108527Y0130304D02*
X0108527Y0126200D01*
X0107844Y0126200D02*
X0109211Y0126200D01*
X0106436Y0126200D02*
X0106436Y0130304D01*
X0105068Y0128936D01*
X0103700Y0130304D01*
X0103700Y0126200D01*
X0104384Y0120304D02*
X0103700Y0119620D01*
X0103700Y0118936D01*
X0104384Y0118252D01*
X0105752Y0118252D01*
X0106436Y0117568D01*
X0106436Y0116884D01*
X0105752Y0116200D01*
X0104384Y0116200D01*
X0103700Y0116884D01*
X0104384Y0120304D02*
X0105752Y0120304D01*
X0106436Y0119620D01*
X0107844Y0119620D02*
X0107844Y0116884D01*
X0108527Y0116200D01*
X0109895Y0116200D01*
X0110579Y0116884D01*
X0111987Y0116200D02*
X0111987Y0120304D01*
X0110579Y0119620D02*
X0109895Y0120304D01*
X0108527Y0120304D01*
X0107844Y0119620D01*
X0108527Y0136200D02*
X0107844Y0136884D01*
X0107844Y0139620D01*
X0108527Y0140304D01*
X0109895Y0140304D01*
X0110579Y0139620D01*
X0110579Y0136884D01*
X0109895Y0136200D01*
X0108527Y0136200D01*
X0106436Y0136200D02*
X0106436Y0140304D01*
X0105068Y0138936D01*
X0103700Y0140304D01*
X0103700Y0136200D01*
X0104384Y0146200D02*
X0103700Y0146884D01*
X0104384Y0146200D02*
X0105752Y0146200D01*
X0106436Y0146884D01*
X0106436Y0147568D01*
X0105752Y0148252D01*
X0105068Y0148252D01*
X0105752Y0148252D02*
X0106436Y0148936D01*
X0106436Y0149620D01*
X0105752Y0150304D01*
X0104384Y0150304D01*
X0103700Y0149620D01*
X0107844Y0146884D02*
X0107844Y0146200D01*
X0108527Y0146200D01*
X0108527Y0146884D01*
X0107844Y0146884D01*
X0109915Y0146884D02*
X0110599Y0146200D01*
X0111967Y0146200D01*
X0112651Y0146884D01*
X0112651Y0147568D01*
X0111967Y0148252D01*
X0111283Y0148252D01*
X0111967Y0148252D02*
X0112651Y0148936D01*
X0112651Y0149620D01*
X0111967Y0150304D01*
X0110599Y0150304D01*
X0109915Y0149620D01*
X0114059Y0150304D02*
X0114059Y0147568D01*
X0115427Y0146200D01*
X0116795Y0147568D01*
X0116795Y0150304D01*
X0116815Y0140304D02*
X0116815Y0136200D01*
X0117498Y0136200D02*
X0116131Y0136200D01*
X0114723Y0136884D02*
X0114039Y0136200D01*
X0112671Y0136200D01*
X0111987Y0136884D01*
X0112671Y0138252D02*
X0111987Y0138936D01*
X0111987Y0139620D01*
X0112671Y0140304D01*
X0114039Y0140304D01*
X0114723Y0139620D01*
X0114039Y0138252D02*
X0114723Y0137568D01*
X0114723Y0136884D01*
X0114039Y0138252D02*
X0112671Y0138252D01*
X0116131Y0140304D02*
X0117498Y0140304D01*
X0114039Y0176200D02*
X0112671Y0176200D01*
X0111987Y0176884D01*
X0112671Y0178252D02*
X0111987Y0178936D01*
X0111987Y0179620D01*
X0112671Y0180304D01*
X0114039Y0180304D01*
X0114723Y0179620D01*
X0114039Y0178252D02*
X0114723Y0177568D01*
X0114723Y0176884D01*
X0114039Y0176200D01*
X0114039Y0178252D02*
X0112671Y0178252D01*
X0110579Y0180304D02*
X0107844Y0180304D01*
X0109211Y0180304D02*
X0109211Y0176200D01*
X0106436Y0176200D02*
X0105068Y0177568D01*
X0105752Y0177568D02*
X0103700Y0177568D01*
X0103700Y0176200D02*
X0103700Y0180304D01*
X0105752Y0180304D01*
X0106436Y0179620D01*
X0106436Y0178252D01*
X0105752Y0177568D01*
X0105752Y0186200D02*
X0104384Y0186200D01*
X0103700Y0186884D01*
X0103700Y0189620D01*
X0104384Y0190304D01*
X0105752Y0190304D01*
X0106436Y0189620D01*
X0106436Y0188252D02*
X0105068Y0188252D01*
X0106436Y0188252D02*
X0106436Y0186884D01*
X0105752Y0186200D01*
X0107844Y0186200D02*
X0107844Y0190304D01*
X0110579Y0186200D01*
X0110579Y0190304D01*
X0111987Y0190304D02*
X0111987Y0186200D01*
X0114039Y0186200D01*
X0114723Y0186884D01*
X0114723Y0189620D01*
X0114039Y0190304D01*
X0111987Y0190304D01*
X0111987Y0206200D02*
X0114723Y0206200D01*
X0111987Y0206200D02*
X0111987Y0210304D01*
X0110579Y0209620D02*
X0109895Y0210304D01*
X0108527Y0210304D01*
X0107844Y0209620D01*
X0107844Y0206884D01*
X0108527Y0206200D01*
X0109895Y0206200D01*
X0110579Y0206884D01*
X0106436Y0206884D02*
X0105752Y0206200D01*
X0104384Y0206200D01*
X0103700Y0206884D01*
X0104384Y0208252D02*
X0105752Y0208252D01*
X0106436Y0207568D01*
X0106436Y0206884D01*
X0106436Y0209620D02*
X0105752Y0210304D01*
X0104384Y0210304D01*
X0103700Y0209620D01*
X0103700Y0208936D01*
X0104384Y0208252D01*
X0104384Y0216200D02*
X0103700Y0216884D01*
X0104384Y0216200D02*
X0105752Y0216200D01*
X0106436Y0216884D01*
X0106436Y0217568D01*
X0105752Y0218252D01*
X0104384Y0218252D01*
X0103700Y0218936D01*
X0103700Y0219620D01*
X0104384Y0220304D01*
X0105752Y0220304D01*
X0106436Y0219620D01*
X0107844Y0220304D02*
X0107844Y0216200D01*
X0109895Y0216200D01*
X0110579Y0216884D01*
X0110579Y0219620D01*
X0109895Y0220304D01*
X0107844Y0220304D01*
X0111987Y0218936D02*
X0111987Y0216200D01*
X0111987Y0218252D02*
X0114723Y0218252D01*
X0114723Y0218936D02*
X0114723Y0216200D01*
X0114723Y0218936D02*
X0113355Y0220304D01*
X0111987Y0218936D01*
X0111967Y0226200D02*
X0110599Y0226200D01*
X0109915Y0226884D01*
X0108527Y0226884D02*
X0108527Y0226200D01*
X0107844Y0226200D01*
X0107844Y0226884D01*
X0108527Y0226884D01*
X0109915Y0229620D02*
X0110599Y0230304D01*
X0111967Y0230304D01*
X0112651Y0229620D01*
X0112651Y0228936D01*
X0111967Y0228252D01*
X0112651Y0227568D01*
X0112651Y0226884D01*
X0111967Y0226200D01*
X0111967Y0228252D02*
X0111283Y0228252D01*
X0114059Y0227568D02*
X0115427Y0226200D01*
X0116795Y0227568D01*
X0116795Y0230304D01*
X0114059Y0230304D02*
X0114059Y0227568D01*
X0106436Y0227568D02*
X0106436Y0226884D01*
X0105752Y0226200D01*
X0104384Y0226200D01*
X0103700Y0226884D01*
X0105068Y0228252D02*
X0105752Y0228252D01*
X0106436Y0227568D01*
X0105752Y0228252D02*
X0106436Y0228936D01*
X0106436Y0229620D01*
X0105752Y0230304D01*
X0104384Y0230304D01*
X0103700Y0229620D01*
X0096608Y0220304D02*
X0097292Y0219620D01*
X0097292Y0218936D01*
X0094556Y0216200D01*
X0097292Y0216200D01*
X0096608Y0220304D02*
X0095240Y0220304D01*
X0094556Y0219620D01*
X0095240Y0210304D02*
X0094556Y0209620D01*
X0095240Y0210304D02*
X0096608Y0210304D01*
X0097292Y0209620D01*
X0097292Y0208936D01*
X0096608Y0208252D01*
X0097292Y0207568D01*
X0097292Y0206884D01*
X0096608Y0206200D01*
X0095240Y0206200D01*
X0094556Y0206884D01*
X0095924Y0208252D02*
X0096608Y0208252D01*
X0096608Y0200304D02*
X0094556Y0198252D01*
X0097292Y0198252D01*
X0096608Y0196200D02*
X0096608Y0200304D01*
X0097292Y0180304D02*
X0094556Y0180304D01*
X0097292Y0179620D02*
X0094556Y0176884D01*
X0094556Y0176200D01*
X0093149Y0176200D02*
X0090413Y0176200D01*
X0091781Y0176200D02*
X0091781Y0180304D01*
X0090413Y0178936D01*
X0091097Y0170304D02*
X0090413Y0169620D01*
X0091097Y0170304D02*
X0092465Y0170304D01*
X0093149Y0169620D01*
X0093149Y0168936D01*
X0090413Y0166200D01*
X0093149Y0166200D01*
X0094556Y0166200D02*
X0094556Y0166884D01*
X0097292Y0169620D01*
X0097292Y0170304D01*
X0094556Y0170304D01*
X0097292Y0179620D02*
X0097292Y0180304D01*
X0096608Y0160304D02*
X0095240Y0160304D01*
X0094556Y0159620D01*
X0093149Y0159620D02*
X0092465Y0160304D01*
X0091097Y0160304D01*
X0090413Y0159620D01*
X0093149Y0158936D02*
X0090413Y0156200D01*
X0093149Y0156200D01*
X0094556Y0156200D02*
X0097292Y0158936D01*
X0097292Y0159620D01*
X0096608Y0160304D01*
X0097292Y0156200D02*
X0094556Y0156200D01*
X0093149Y0158936D02*
X0093149Y0159620D01*
X0091781Y0140304D02*
X0090413Y0138936D01*
X0091781Y0140304D02*
X0091781Y0136200D01*
X0090413Y0136200D02*
X0093149Y0136200D01*
X0094556Y0136884D02*
X0094556Y0139620D01*
X0095240Y0140304D01*
X0096608Y0140304D01*
X0097292Y0139620D01*
X0094556Y0136884D01*
X0095240Y0136200D01*
X0096608Y0136200D01*
X0097292Y0136884D01*
X0097292Y0139620D01*
X0096608Y0130304D02*
X0095240Y0130304D01*
X0094556Y0129620D01*
X0094556Y0128936D01*
X0095240Y0128252D01*
X0097292Y0128252D01*
X0097292Y0129620D02*
X0096608Y0130304D01*
X0097292Y0129620D02*
X0097292Y0126884D01*
X0096608Y0126200D01*
X0095240Y0126200D01*
X0094556Y0126884D01*
X0095924Y0120304D02*
X0095924Y0116200D01*
X0094556Y0116200D02*
X0097292Y0116200D01*
X0094556Y0118936D02*
X0095924Y0120304D01*
X0093149Y0116200D02*
X0090413Y0116200D01*
X0091781Y0116200D02*
X0091781Y0120304D01*
X0090413Y0118936D01*
X0104384Y0040304D02*
X0103700Y0039620D01*
X0103700Y0036884D01*
X0104384Y0036200D01*
X0105752Y0036200D01*
X0106436Y0036884D01*
X0106436Y0038252D01*
X0105068Y0038252D01*
X0106436Y0039620D02*
X0105752Y0040304D01*
X0104384Y0040304D01*
X0107844Y0040304D02*
X0107844Y0036200D01*
X0110579Y0036200D02*
X0107844Y0040304D01*
X0110579Y0040304D02*
X0110579Y0036200D01*
X0111987Y0036200D02*
X0111987Y0040304D01*
X0114039Y0040304D01*
X0114723Y0039620D01*
X0114723Y0036884D01*
X0114039Y0036200D01*
X0111987Y0036200D01*
X0036711Y0216200D02*
X0035344Y0217568D01*
X0035344Y0220304D01*
X0033936Y0220304D02*
X0031200Y0220304D01*
X0031200Y0218252D01*
X0032568Y0218936D01*
X0033252Y0218936D01*
X0033936Y0218252D01*
X0033936Y0216884D01*
X0033252Y0216200D01*
X0031884Y0216200D01*
X0031200Y0216884D01*
X0036711Y0216200D02*
X0038079Y0217568D01*
X0038079Y0220304D01*
X0036711Y0226200D02*
X0035344Y0227568D01*
X0035344Y0230304D01*
X0033936Y0230304D02*
X0031200Y0230304D01*
X0031200Y0228252D01*
X0032568Y0228936D01*
X0033252Y0228936D01*
X0033936Y0228252D01*
X0033936Y0226884D01*
X0033252Y0226200D01*
X0031884Y0226200D01*
X0031200Y0226884D01*
X0036711Y0226200D02*
X0038079Y0227568D01*
X0038079Y0230304D01*
D11*
X0028500Y0043500D02*
X0028500Y0033500D01*
X0048500Y0033500D01*
X0048500Y0233500D01*
X0028500Y0233500D01*
X0028500Y0223500D01*
X0061000Y0223500D01*
X0061000Y0213500D01*
X0028500Y0213500D01*
X0028500Y0223500D01*
X0028500Y0213500D02*
X0028500Y0203500D01*
X0061000Y0203500D01*
X0061000Y0193500D01*
X0028500Y0193500D01*
X0028500Y0203500D01*
X0028500Y0193500D02*
X0028500Y0183500D01*
X0061000Y0183500D01*
X0061000Y0173500D01*
X0028500Y0173500D01*
X0028500Y0183500D01*
X0028500Y0173500D02*
X0028500Y0163500D01*
X0061000Y0163500D01*
X0061000Y0153500D01*
X0028500Y0153500D01*
X0028500Y0163500D01*
X0028500Y0153500D02*
X0028500Y0143500D01*
X0061000Y0143500D01*
X0061000Y0133500D01*
X0028500Y0133500D01*
X0028500Y0143500D01*
X0028500Y0133500D02*
X0028500Y0123500D01*
X0061000Y0123500D01*
X0061000Y0113500D01*
X0028500Y0113500D01*
X0028500Y0123500D01*
X0028500Y0113500D02*
X0028500Y0103500D01*
X0061000Y0103500D01*
X0061000Y0093500D01*
X0028500Y0093500D01*
X0028500Y0103500D01*
X0028500Y0093500D02*
X0028500Y0083500D01*
X0061000Y0083500D01*
X0061000Y0073500D01*
X0028500Y0073500D01*
X0028500Y0083500D01*
X0028500Y0073500D02*
X0028500Y0063500D01*
X0061000Y0063500D01*
X0061000Y0053500D01*
X0028500Y0053500D01*
X0028500Y0063500D01*
X0028500Y0053500D02*
X0028500Y0043500D01*
X0061000Y0043500D01*
X0061000Y0033500D01*
X0048500Y0033500D01*
X0061000Y0043500D02*
X0061000Y0053500D01*
X0061000Y0063500D02*
X0061000Y0073500D01*
X0061000Y0083500D02*
X0061000Y0093500D01*
X0061000Y0103500D02*
X0061000Y0113500D01*
X0061000Y0123500D02*
X0061000Y0133500D01*
X0061000Y0143500D02*
X0061000Y0153500D01*
X0061000Y0163500D02*
X0061000Y0173500D01*
X0061000Y0183500D02*
X0061000Y0193500D01*
X0061000Y0203500D02*
X0061000Y0213500D01*
X0061000Y0223500D02*
X0061000Y0233500D01*
X0048500Y0233500D01*
X0058500Y0236000D02*
X0063500Y0236000D01*
X0058500Y0236000D02*
X0066000Y0243500D01*
X0071000Y0243500D01*
X0058500Y0241000D02*
X0058500Y0236000D01*
X0033500Y0236000D02*
X0026000Y0243500D01*
X0021000Y0243500D01*
X0028500Y0236000D02*
X0033500Y0236000D01*
X0033500Y0241000D01*
X0088500Y0233500D02*
X0088500Y0223500D01*
X0121000Y0223500D01*
X0121000Y0213500D01*
X0088500Y0213500D01*
X0088500Y0223500D01*
X0088500Y0233500D02*
X0101000Y0233500D01*
X0101000Y0033500D01*
X0088500Y0033500D01*
X0088500Y0043500D01*
X0121000Y0043500D01*
X0121000Y0033500D01*
X0101000Y0033500D01*
X0088500Y0043500D02*
X0088500Y0053500D01*
X0121000Y0053500D01*
X0121000Y0043500D01*
X0121000Y0053500D02*
X0121000Y0063500D01*
X0088500Y0063500D01*
X0088500Y0073500D01*
X0121000Y0073500D01*
X0121000Y0063500D01*
X0121000Y0073500D02*
X0121000Y0083500D01*
X0088500Y0083500D01*
X0088500Y0093500D01*
X0121000Y0093500D01*
X0121000Y0083500D01*
X0121000Y0093500D02*
X0121000Y0103500D01*
X0088500Y0103500D01*
X0088500Y0113500D01*
X0121000Y0113500D01*
X0121000Y0103500D01*
X0121000Y0113500D02*
X0121000Y0123500D01*
X0088500Y0123500D01*
X0088500Y0133500D01*
X0121000Y0133500D01*
X0121000Y0123500D01*
X0121000Y0133500D02*
X0121000Y0143500D01*
X0088500Y0143500D01*
X0088500Y0153500D01*
X0121000Y0153500D01*
X0121000Y0143500D01*
X0121000Y0153500D02*
X0121000Y0163500D01*
X0088500Y0163500D01*
X0088500Y0173500D01*
X0121000Y0173500D01*
X0121000Y0163500D01*
X0121000Y0173500D02*
X0121000Y0183500D01*
X0088500Y0183500D01*
X0088500Y0193500D01*
X0121000Y0193500D01*
X0121000Y0183500D01*
X0121000Y0193500D02*
X0121000Y0203500D01*
X0088500Y0203500D01*
X0088500Y0213500D01*
X0088500Y0203500D02*
X0088500Y0193500D01*
X0088500Y0183500D02*
X0088500Y0173500D01*
X0088500Y0163500D02*
X0088500Y0153500D01*
X0088500Y0143500D02*
X0088500Y0133500D01*
X0088500Y0123500D02*
X0088500Y0113500D01*
X0088500Y0103500D02*
X0088500Y0093500D01*
X0088500Y0083500D02*
X0088500Y0073500D01*
X0088500Y0063500D02*
X0088500Y0053500D01*
X0121000Y0203500D02*
X0121000Y0213500D01*
X0121000Y0223500D02*
X0121000Y0233500D01*
X0101000Y0233500D01*
D12*
X0092152Y0242167D02*
X0092152Y0245837D01*
X0091235Y0246755D01*
X0089400Y0246755D01*
X0088483Y0245837D01*
X0088483Y0242167D01*
X0089400Y0241250D01*
X0091235Y0241250D01*
X0092152Y0242167D01*
X0086634Y0241250D02*
X0084799Y0241250D01*
X0085717Y0241250D02*
X0085717Y0246755D01*
X0086634Y0246755D02*
X0084799Y0246755D01*
X0082945Y0245837D02*
X0082945Y0244002D01*
X0082027Y0243085D01*
X0079275Y0243085D01*
X0079275Y0241250D02*
X0079275Y0246755D01*
X0082027Y0246755D01*
X0082945Y0245837D01*
X0077420Y0245837D02*
X0076502Y0246755D01*
X0074667Y0246755D01*
X0073750Y0245837D01*
X0073750Y0242167D01*
X0074667Y0241250D01*
X0076502Y0241250D01*
X0077420Y0242167D01*
X0077420Y0244002D01*
X0075585Y0244002D01*
X0018469Y0246755D02*
X0014799Y0246755D01*
X0016634Y0246755D02*
X0016634Y0241250D01*
X0012945Y0241250D02*
X0009275Y0241250D01*
X0009275Y0246755D01*
X0007420Y0244920D02*
X0007420Y0241250D01*
X0007420Y0244002D02*
X0003750Y0244002D01*
X0003750Y0244920D02*
X0003750Y0241250D01*
X0003750Y0244920D02*
X0005585Y0246755D01*
X0007420Y0244920D01*
M02*
