G75*
%MOIN*%
%OFA0B0*%
%FSLAX25Y25*%
%IPPOS*%
%LPD*%
%AMOC8*
5,1,8,0,0,1.08239X$1,22.5*
%
%ADD10OC8,0.06000*%
%ADD11C,0.01600*%
D10*
X0011000Y0038500D03*
X0011000Y0048500D03*
X0011000Y0058500D03*
X0011000Y0068500D03*
X0011000Y0078500D03*
X0011000Y0088500D03*
X0011000Y0098500D03*
X0011000Y0108500D03*
X0011000Y0118500D03*
X0011000Y0128500D03*
X0011000Y0138500D03*
X0011000Y0148500D03*
X0011000Y0158500D03*
X0011000Y0168500D03*
X0011000Y0178500D03*
X0011000Y0188500D03*
X0011000Y0198500D03*
X0011000Y0208500D03*
X0011000Y0218500D03*
X0011000Y0228500D03*
X0021000Y0228500D03*
X0021000Y0218500D03*
X0021000Y0208500D03*
X0021000Y0198500D03*
X0021000Y0188500D03*
X0021000Y0178500D03*
X0021000Y0168500D03*
X0021000Y0158500D03*
X0021000Y0148500D03*
X0021000Y0138500D03*
X0021000Y0128500D03*
X0021000Y0118500D03*
X0021000Y0108500D03*
X0021000Y0098500D03*
X0021000Y0088500D03*
X0021000Y0078500D03*
X0021000Y0068500D03*
X0021000Y0058500D03*
X0021000Y0048500D03*
X0021000Y0038500D03*
X0069750Y0038500D03*
X0069750Y0048500D03*
X0069750Y0058500D03*
X0069750Y0068500D03*
X0069750Y0078500D03*
X0069750Y0088500D03*
X0069750Y0098500D03*
X0069750Y0108500D03*
X0069750Y0118500D03*
X0069750Y0128500D03*
X0069750Y0138500D03*
X0069750Y0148500D03*
X0069750Y0158500D03*
X0069750Y0168500D03*
X0069750Y0178500D03*
X0069750Y0188500D03*
X0069750Y0198500D03*
X0069750Y0208500D03*
X0069750Y0218500D03*
X0069750Y0228500D03*
X0079750Y0228500D03*
X0079750Y0218500D03*
X0079750Y0208500D03*
X0079750Y0198500D03*
X0079750Y0188500D03*
X0079750Y0178500D03*
X0079750Y0168500D03*
X0079750Y0158500D03*
X0079750Y0148500D03*
X0079750Y0138500D03*
X0079750Y0128500D03*
X0079750Y0118500D03*
X0079750Y0108500D03*
X0079750Y0098500D03*
X0079750Y0088500D03*
X0079750Y0078500D03*
X0079750Y0068500D03*
X0079750Y0058500D03*
X0079750Y0048500D03*
X0079750Y0038500D03*
D11*
X0078500Y0038500D01*
X0073500Y0033500D01*
X0026000Y0033500D01*
X0021000Y0038500D01*
X0023500Y0046000D02*
X0066000Y0046000D01*
X0068500Y0043500D01*
X0073500Y0043500D01*
X0078500Y0048500D01*
X0079750Y0048500D01*
X0073500Y0053500D02*
X0078500Y0058500D01*
X0079750Y0058500D01*
X0073500Y0063500D02*
X0078500Y0068500D01*
X0079750Y0068500D01*
X0073500Y0073500D02*
X0078500Y0078500D01*
X0079750Y0078500D01*
X0073500Y0083500D02*
X0078500Y0088500D01*
X0079750Y0088500D01*
X0073500Y0093500D02*
X0078500Y0098500D01*
X0079750Y0098500D01*
X0073500Y0103500D02*
X0078500Y0108500D01*
X0079750Y0108500D01*
X0073500Y0113500D02*
X0078500Y0118500D01*
X0079750Y0118500D01*
X0073500Y0123500D02*
X0078500Y0128500D01*
X0079750Y0128500D01*
X0073500Y0133500D02*
X0078500Y0138500D01*
X0079750Y0138500D01*
X0073500Y0143500D02*
X0078500Y0148500D01*
X0079750Y0148500D01*
X0073500Y0153500D02*
X0078500Y0158500D01*
X0079750Y0158500D01*
X0073500Y0163500D02*
X0078500Y0168500D01*
X0079750Y0168500D01*
X0073500Y0173500D02*
X0078500Y0178500D01*
X0079750Y0178500D01*
X0073500Y0183500D02*
X0078500Y0188500D01*
X0079750Y0188500D01*
X0073500Y0193500D02*
X0078500Y0198500D01*
X0079750Y0198500D01*
X0073500Y0203500D02*
X0078500Y0208500D01*
X0079750Y0208500D01*
X0073500Y0213500D02*
X0078500Y0218500D01*
X0079750Y0218500D01*
X0073500Y0223500D02*
X0078500Y0228500D01*
X0079750Y0228500D01*
X0073500Y0223500D02*
X0068500Y0223500D01*
X0066000Y0226000D01*
X0023500Y0226000D01*
X0021000Y0228500D01*
X0016000Y0223500D02*
X0063500Y0223500D01*
X0068500Y0218500D01*
X0069750Y0218500D01*
X0066000Y0216000D02*
X0068500Y0213500D01*
X0073500Y0213500D01*
X0069750Y0208500D02*
X0068500Y0208500D01*
X0063500Y0213500D01*
X0016000Y0213500D01*
X0011000Y0208500D01*
X0016000Y0203500D02*
X0011000Y0198500D01*
X0016000Y0193500D02*
X0011000Y0188500D01*
X0016000Y0183500D02*
X0011000Y0178500D01*
X0016000Y0173500D02*
X0011000Y0168500D01*
X0016000Y0163500D02*
X0011000Y0158500D01*
X0016000Y0153500D02*
X0011000Y0148500D01*
X0016000Y0143500D02*
X0011000Y0138500D01*
X0016000Y0133500D02*
X0011000Y0128500D01*
X0016000Y0123500D02*
X0011000Y0118500D01*
X0016000Y0113500D02*
X0011000Y0108500D01*
X0016000Y0103500D02*
X0011000Y0098500D01*
X0016000Y0093500D02*
X0011000Y0088500D01*
X0016000Y0083500D02*
X0011000Y0078500D01*
X0016000Y0073500D02*
X0011000Y0068500D01*
X0016000Y0063500D02*
X0011000Y0058500D01*
X0016000Y0053500D02*
X0011000Y0048500D01*
X0016000Y0043500D02*
X0011000Y0038500D01*
X0016000Y0043500D02*
X0063500Y0043500D01*
X0068500Y0038500D01*
X0069750Y0038500D01*
X0069750Y0048500D02*
X0068500Y0048500D01*
X0063500Y0053500D01*
X0016000Y0053500D01*
X0021000Y0048500D02*
X0023500Y0046000D01*
X0023500Y0056000D02*
X0066000Y0056000D01*
X0068500Y0053500D01*
X0073500Y0053500D01*
X0069750Y0058500D02*
X0068500Y0058500D01*
X0063500Y0063500D01*
X0016000Y0063500D01*
X0021000Y0058500D02*
X0023500Y0056000D01*
X0023500Y0066000D02*
X0066000Y0066000D01*
X0068500Y0063500D01*
X0073500Y0063500D01*
X0069750Y0068500D02*
X0068500Y0068500D01*
X0063500Y0073500D01*
X0016000Y0073500D01*
X0016000Y0083500D02*
X0063500Y0083500D01*
X0068500Y0078500D01*
X0069750Y0078500D01*
X0066000Y0076000D02*
X0068500Y0073500D01*
X0073500Y0073500D01*
X0073500Y0083500D02*
X0068500Y0083500D01*
X0066000Y0086000D01*
X0023500Y0086000D01*
X0021000Y0088500D01*
X0023500Y0096000D02*
X0066000Y0096000D01*
X0068500Y0093500D01*
X0073500Y0093500D01*
X0069750Y0088500D02*
X0068500Y0088500D01*
X0063500Y0093500D01*
X0016000Y0093500D01*
X0021000Y0098500D02*
X0023500Y0096000D01*
X0023500Y0106000D02*
X0066000Y0106000D01*
X0068500Y0103500D01*
X0073500Y0103500D01*
X0069750Y0098500D02*
X0068500Y0098500D01*
X0063500Y0103500D01*
X0016000Y0103500D01*
X0016000Y0113500D02*
X0063500Y0113500D01*
X0068500Y0108500D01*
X0069200Y0108800D01*
X0069750Y0108500D01*
X0068500Y0113500D02*
X0073500Y0113500D01*
X0069750Y0118500D02*
X0068500Y0118500D01*
X0063500Y0123500D01*
X0016000Y0123500D01*
X0021000Y0118500D02*
X0023500Y0116000D01*
X0066000Y0116000D01*
X0068500Y0113500D01*
X0068500Y0123500D02*
X0073500Y0123500D01*
X0069750Y0128500D02*
X0068500Y0128500D01*
X0063500Y0133500D01*
X0016000Y0133500D01*
X0016000Y0143500D02*
X0063500Y0143500D01*
X0068500Y0138500D01*
X0069750Y0138500D01*
X0066000Y0136000D02*
X0068500Y0133500D01*
X0073500Y0133500D01*
X0073500Y0143500D02*
X0068500Y0143500D01*
X0066000Y0146000D01*
X0023500Y0146000D01*
X0021000Y0148500D01*
X0023500Y0156000D02*
X0066000Y0156000D01*
X0068500Y0153500D01*
X0073500Y0153500D01*
X0069750Y0148500D02*
X0068500Y0148500D01*
X0063500Y0153500D01*
X0016000Y0153500D01*
X0021000Y0158500D02*
X0023500Y0156000D01*
X0023500Y0166000D02*
X0021000Y0168500D01*
X0023500Y0166000D02*
X0066000Y0166000D01*
X0068500Y0163500D01*
X0073500Y0163500D01*
X0069750Y0158500D02*
X0068500Y0158500D01*
X0063500Y0163500D01*
X0016000Y0163500D01*
X0016000Y0173500D02*
X0063500Y0173500D01*
X0068500Y0168500D01*
X0069750Y0168500D01*
X0068500Y0173500D02*
X0073500Y0173500D01*
X0069750Y0178500D02*
X0068500Y0178500D01*
X0063500Y0183500D01*
X0016000Y0183500D01*
X0021000Y0178500D02*
X0023500Y0176000D01*
X0066000Y0176000D01*
X0068500Y0173500D01*
X0068500Y0183500D02*
X0073500Y0183500D01*
X0069750Y0188500D02*
X0068500Y0188500D01*
X0063500Y0193500D01*
X0016000Y0193500D01*
X0016000Y0203500D02*
X0063500Y0203500D01*
X0068500Y0198500D01*
X0069750Y0198500D01*
X0066000Y0196000D02*
X0068500Y0193500D01*
X0073500Y0193500D01*
X0073500Y0203500D02*
X0068500Y0203500D01*
X0066000Y0206000D01*
X0023500Y0206000D01*
X0021000Y0208500D01*
X0023500Y0216000D02*
X0066000Y0216000D01*
X0068500Y0228500D02*
X0069750Y0228500D01*
X0068500Y0228500D02*
X0063500Y0233500D01*
X0016000Y0233500D01*
X0011000Y0228500D01*
X0016000Y0223500D02*
X0011000Y0218500D01*
X0021000Y0218500D02*
X0023500Y0216000D01*
X0021000Y0198500D02*
X0023500Y0196000D01*
X0066000Y0196000D01*
X0066000Y0186000D02*
X0068500Y0183500D01*
X0066000Y0186000D02*
X0023500Y0186000D01*
X0021000Y0188500D01*
X0021000Y0138500D02*
X0023500Y0136000D01*
X0066000Y0136000D01*
X0066000Y0126000D02*
X0068500Y0123500D01*
X0066000Y0126000D02*
X0023500Y0126000D01*
X0021000Y0128500D01*
X0021000Y0108500D02*
X0023500Y0106000D01*
X0021000Y0078500D02*
X0023500Y0076000D01*
X0066000Y0076000D01*
X0023500Y0066000D02*
X0021000Y0068500D01*
M02*
