G75*
%MOIN*%
%OFA0B0*%
%FSLAX25Y25*%
%IPPOS*%
%LPD*%
%AMOC8*
5,1,8,0,0,1.08239X$1,22.5*
%
%ADD10C,0.00600*%
%ADD11C,0.00100*%
D10*
X0042185Y0062899D02*
X0040050Y0065035D01*
X0041118Y0067196D02*
X0040050Y0068264D01*
X0040050Y0071467D01*
X0040050Y0073642D02*
X0042185Y0075777D01*
X0044320Y0075777D01*
X0046455Y0073642D01*
X0044320Y0071467D02*
X0044320Y0068264D01*
X0043253Y0067196D01*
X0041118Y0067196D01*
X0042185Y0062899D02*
X0044320Y0062899D01*
X0046455Y0065035D01*
X0045388Y0084384D02*
X0046455Y0085452D01*
X0046455Y0087587D01*
X0045388Y0088655D01*
X0044320Y0088655D01*
X0040050Y0084384D01*
X0040050Y0088655D01*
X0041118Y0090830D02*
X0040050Y0091897D01*
X0040050Y0094033D01*
X0041118Y0095100D01*
X0045388Y0095100D01*
X0041118Y0090830D01*
X0045388Y0090830D01*
X0046455Y0091897D01*
X0046455Y0094033D01*
X0045388Y0095100D01*
X0044320Y0097275D02*
X0046455Y0099411D01*
X0040050Y0099411D01*
X0040050Y0101546D02*
X0040050Y0097275D01*
X0041118Y0103721D02*
X0040050Y0104788D01*
X0040050Y0106924D01*
X0041118Y0107991D01*
X0042185Y0107991D01*
X0043253Y0106924D01*
X0043253Y0103721D01*
X0041118Y0103721D01*
X0043253Y0103721D02*
X0045388Y0105856D01*
X0046455Y0107991D01*
X0050550Y0111241D02*
X0056955Y0111241D01*
X0056955Y0114443D01*
X0055888Y0115511D01*
X0053753Y0115511D01*
X0052685Y0114443D01*
X0052685Y0111241D01*
X0052685Y0113376D02*
X0050550Y0115511D01*
X0051618Y0117686D02*
X0050550Y0118754D01*
X0050550Y0120889D01*
X0051618Y0117686D02*
X0053753Y0117686D01*
X0054820Y0118754D01*
X0054820Y0120889D01*
X0053753Y0121957D01*
X0052685Y0121957D01*
X0052685Y0117686D01*
X0054820Y0124132D02*
X0050550Y0126267D01*
X0054820Y0128402D01*
X0053753Y0130577D02*
X0053753Y0134848D01*
X0055888Y0137023D02*
X0056955Y0138090D01*
X0056955Y0140225D01*
X0055888Y0141293D01*
X0051618Y0137023D01*
X0050550Y0138090D01*
X0050550Y0140225D01*
X0051618Y0141293D01*
X0055888Y0141293D01*
X0055888Y0143468D02*
X0056955Y0144536D01*
X0056955Y0146671D01*
X0055888Y0147739D01*
X0054820Y0147739D01*
X0050550Y0143468D01*
X0050550Y0147739D01*
X0050550Y0149914D02*
X0050550Y0153116D01*
X0051618Y0154184D01*
X0053753Y0154184D01*
X0054820Y0153116D01*
X0054820Y0149914D01*
X0056955Y0149914D02*
X0050550Y0149914D01*
X0045388Y0155285D02*
X0046455Y0156352D01*
X0046455Y0158488D01*
X0045388Y0159555D01*
X0043253Y0161730D02*
X0044320Y0162798D01*
X0044320Y0164933D01*
X0043253Y0166001D01*
X0042185Y0166001D01*
X0042185Y0161730D01*
X0041118Y0161730D02*
X0043253Y0161730D01*
X0041118Y0161730D02*
X0040050Y0162798D01*
X0040050Y0164933D01*
X0041118Y0169243D02*
X0040050Y0170311D01*
X0041118Y0169243D02*
X0045388Y0169243D01*
X0044320Y0168176D02*
X0044320Y0170311D01*
X0044320Y0178918D02*
X0043253Y0179986D01*
X0043253Y0182121D01*
X0042185Y0183189D01*
X0041118Y0183189D01*
X0040050Y0182121D01*
X0040050Y0179986D01*
X0041118Y0178918D01*
X0044320Y0178918D02*
X0045388Y0178918D01*
X0046455Y0179986D01*
X0046455Y0182121D01*
X0045388Y0183189D01*
X0046455Y0185364D02*
X0046455Y0189634D01*
X0046455Y0187499D02*
X0040050Y0187499D01*
X0040050Y0191809D02*
X0040050Y0196080D01*
X0040050Y0198255D02*
X0046455Y0198255D01*
X0044320Y0200390D01*
X0046455Y0202525D01*
X0040050Y0202525D01*
X0043253Y0193944D02*
X0043253Y0191809D01*
X0046455Y0191809D02*
X0040050Y0191809D01*
X0046455Y0191809D02*
X0046455Y0196080D01*
X0042185Y0159555D02*
X0041118Y0159555D01*
X0040050Y0158488D01*
X0040050Y0156352D01*
X0041118Y0155285D01*
X0043253Y0156352D02*
X0043253Y0158488D01*
X0042185Y0159555D01*
X0043253Y0156352D02*
X0044320Y0155285D01*
X0045388Y0155285D01*
X0044320Y0146664D02*
X0038982Y0146664D01*
X0037915Y0145597D01*
X0037915Y0144529D01*
X0040050Y0143461D02*
X0040050Y0146664D01*
X0040050Y0143461D02*
X0041118Y0142394D01*
X0044320Y0142394D01*
X0044320Y0140219D02*
X0044320Y0137016D01*
X0043253Y0135948D01*
X0041118Y0135948D01*
X0040050Y0137016D01*
X0040050Y0140219D01*
X0046455Y0140219D01*
X0043253Y0133773D02*
X0044320Y0132706D01*
X0044320Y0130570D01*
X0043253Y0133773D02*
X0040050Y0133773D01*
X0040050Y0130570D01*
X0041118Y0129503D01*
X0042185Y0130570D01*
X0042185Y0133773D01*
X0042185Y0127328D02*
X0042185Y0123057D01*
X0041118Y0123057D02*
X0043253Y0123057D01*
X0044320Y0124125D01*
X0044320Y0126260D01*
X0043253Y0127328D01*
X0042185Y0127328D01*
X0040050Y0126260D02*
X0040050Y0124125D01*
X0041118Y0123057D01*
X0040050Y0120882D02*
X0042185Y0118747D01*
X0042185Y0119815D02*
X0042185Y0116612D01*
X0040050Y0116612D02*
X0046455Y0116612D01*
X0046455Y0119815D01*
X0045388Y0120882D01*
X0043253Y0120882D01*
X0042185Y0119815D01*
X0051618Y0137023D02*
X0055888Y0137023D01*
D11*
X0088094Y0137428D02*
X0088342Y0138029D01*
X0088944Y0138278D01*
X0091647Y0138278D01*
X0091647Y0141859D01*
X0091969Y0143444D01*
X0092845Y0144742D01*
X0094144Y0145619D01*
X0095727Y0145941D01*
X0099309Y0145941D01*
X0099309Y0148643D01*
X0099558Y0149244D01*
X0100159Y0149493D01*
X0100759Y0149244D01*
X0101009Y0148643D01*
X0101009Y0145941D01*
X0103195Y0145941D01*
X0103195Y0148643D01*
X0103445Y0149244D01*
X0104045Y0149493D01*
X0104647Y0149244D01*
X0104895Y0148643D01*
X0104895Y0145941D01*
X0107083Y0145941D01*
X0107083Y0148643D01*
X0107084Y0148643D01*
X0107333Y0149244D01*
X0107934Y0149493D01*
X0108534Y0149244D01*
X0108784Y0148643D01*
X0108784Y0145941D01*
X0112365Y0145941D01*
X0113392Y0145808D01*
X0114326Y0145434D01*
X0106045Y0136460D01*
X0102840Y0141721D01*
X0092259Y0123089D01*
X0091809Y0124096D01*
X0091647Y0125223D01*
X0091647Y0128804D01*
X0088944Y0128804D01*
X0088342Y0129053D01*
X0088094Y0129654D01*
X0088342Y0130255D01*
X0088944Y0130504D01*
X0091647Y0130504D01*
X0091647Y0132691D01*
X0088944Y0132691D01*
X0088342Y0132940D01*
X0088094Y0133541D01*
X0088342Y0134142D01*
X0088944Y0134391D01*
X0091647Y0134391D01*
X0091647Y0136578D01*
X0088944Y0136578D01*
X0088342Y0136827D01*
X0088094Y0137428D01*
X0088098Y0137438D02*
X0100408Y0137438D01*
X0100463Y0137537D02*
X0088139Y0137537D01*
X0088179Y0137635D02*
X0100519Y0137635D01*
X0100575Y0137734D02*
X0088220Y0137734D01*
X0088261Y0137832D02*
X0100631Y0137832D01*
X0100687Y0137931D02*
X0088302Y0137931D01*
X0088343Y0138029D02*
X0100743Y0138029D01*
X0100799Y0138128D02*
X0088581Y0138128D01*
X0088819Y0138226D02*
X0100855Y0138226D01*
X0100911Y0138325D02*
X0091647Y0138325D01*
X0091647Y0138423D02*
X0100967Y0138423D01*
X0101023Y0138522D02*
X0091647Y0138522D01*
X0091647Y0138620D02*
X0101079Y0138620D01*
X0101135Y0138719D02*
X0091647Y0138719D01*
X0091647Y0138817D02*
X0101191Y0138817D01*
X0101247Y0138916D02*
X0091647Y0138916D01*
X0091647Y0139014D02*
X0101303Y0139014D01*
X0101359Y0139113D02*
X0091647Y0139113D01*
X0091647Y0139211D02*
X0101414Y0139211D01*
X0101470Y0139310D02*
X0091647Y0139310D01*
X0091647Y0139408D02*
X0101526Y0139408D01*
X0101582Y0139507D02*
X0091647Y0139507D01*
X0091647Y0139605D02*
X0101638Y0139605D01*
X0101694Y0139704D02*
X0091647Y0139704D01*
X0091647Y0139802D02*
X0101750Y0139802D01*
X0101806Y0139901D02*
X0091647Y0139901D01*
X0091647Y0139999D02*
X0101862Y0139999D01*
X0101918Y0140098D02*
X0091647Y0140098D01*
X0091647Y0140196D02*
X0101974Y0140196D01*
X0102030Y0140295D02*
X0091647Y0140295D01*
X0091647Y0140394D02*
X0102086Y0140394D01*
X0102142Y0140492D02*
X0091647Y0140492D01*
X0091647Y0140591D02*
X0102198Y0140591D01*
X0102254Y0140689D02*
X0091647Y0140689D01*
X0091647Y0140788D02*
X0102309Y0140788D01*
X0102365Y0140886D02*
X0091647Y0140886D01*
X0091647Y0140985D02*
X0102421Y0140985D01*
X0102477Y0141083D02*
X0091647Y0141083D01*
X0091647Y0141182D02*
X0102533Y0141182D01*
X0102589Y0141280D02*
X0091647Y0141280D01*
X0091647Y0141379D02*
X0102645Y0141379D01*
X0102701Y0141477D02*
X0091647Y0141477D01*
X0091647Y0141576D02*
X0102757Y0141576D01*
X0102813Y0141674D02*
X0091647Y0141674D01*
X0091647Y0141773D02*
X0110947Y0141773D01*
X0111038Y0141871D02*
X0091649Y0141871D01*
X0091669Y0141970D02*
X0111129Y0141970D01*
X0111220Y0142068D02*
X0091689Y0142068D01*
X0091709Y0142167D02*
X0111311Y0142167D01*
X0111402Y0142265D02*
X0091729Y0142265D01*
X0091749Y0142364D02*
X0111493Y0142364D01*
X0111584Y0142462D02*
X0091769Y0142462D01*
X0091789Y0142561D02*
X0111674Y0142561D01*
X0111765Y0142659D02*
X0091809Y0142659D01*
X0091829Y0142758D02*
X0111856Y0142758D01*
X0111947Y0142856D02*
X0091849Y0142856D01*
X0091869Y0142955D02*
X0112038Y0142955D01*
X0112129Y0143053D02*
X0091889Y0143053D01*
X0091909Y0143152D02*
X0112220Y0143152D01*
X0112311Y0143250D02*
X0091929Y0143250D01*
X0091949Y0143349D02*
X0112402Y0143349D01*
X0112493Y0143447D02*
X0091971Y0143447D01*
X0092037Y0143546D02*
X0112583Y0143546D01*
X0112674Y0143644D02*
X0092104Y0143644D01*
X0092170Y0143743D02*
X0112765Y0143743D01*
X0112856Y0143841D02*
X0092237Y0143841D01*
X0092304Y0143940D02*
X0112947Y0143940D01*
X0113038Y0144038D02*
X0092370Y0144038D01*
X0092437Y0144137D02*
X0113129Y0144137D01*
X0113220Y0144235D02*
X0092503Y0144235D01*
X0092570Y0144334D02*
X0113311Y0144334D01*
X0113401Y0144432D02*
X0092636Y0144432D01*
X0092703Y0144531D02*
X0113492Y0144531D01*
X0113583Y0144630D02*
X0092769Y0144630D01*
X0092836Y0144728D02*
X0113674Y0144728D01*
X0113765Y0144827D02*
X0092971Y0144827D01*
X0093116Y0144925D02*
X0113856Y0144925D01*
X0113947Y0145024D02*
X0093262Y0145024D01*
X0093408Y0145122D02*
X0114038Y0145122D01*
X0114129Y0145221D02*
X0093554Y0145221D01*
X0093700Y0145319D02*
X0114219Y0145319D01*
X0114310Y0145418D02*
X0093845Y0145418D01*
X0093991Y0145516D02*
X0114121Y0145516D01*
X0113875Y0145615D02*
X0094137Y0145615D01*
X0094607Y0145713D02*
X0113629Y0145713D01*
X0113364Y0145812D02*
X0095091Y0145812D01*
X0095576Y0145910D02*
X0112603Y0145910D01*
X0110856Y0141674D02*
X0102868Y0141674D01*
X0102928Y0141576D02*
X0110766Y0141576D01*
X0110675Y0141477D02*
X0102988Y0141477D01*
X0103048Y0141379D02*
X0110584Y0141379D01*
X0110493Y0141280D02*
X0103108Y0141280D01*
X0103168Y0141182D02*
X0110402Y0141182D01*
X0110311Y0141083D02*
X0103228Y0141083D01*
X0103288Y0140985D02*
X0110220Y0140985D01*
X0110129Y0140886D02*
X0103348Y0140886D01*
X0103408Y0140788D02*
X0110038Y0140788D01*
X0109948Y0140689D02*
X0103468Y0140689D01*
X0103528Y0140591D02*
X0109857Y0140591D01*
X0109766Y0140492D02*
X0103588Y0140492D01*
X0103648Y0140394D02*
X0109675Y0140394D01*
X0109584Y0140295D02*
X0103709Y0140295D01*
X0103769Y0140196D02*
X0109493Y0140196D01*
X0109402Y0140098D02*
X0103829Y0140098D01*
X0103889Y0139999D02*
X0109311Y0139999D01*
X0109220Y0139901D02*
X0103949Y0139901D01*
X0104009Y0139802D02*
X0109129Y0139802D01*
X0109039Y0139704D02*
X0104069Y0139704D01*
X0104129Y0139605D02*
X0108948Y0139605D01*
X0108857Y0139507D02*
X0104189Y0139507D01*
X0104249Y0139408D02*
X0108766Y0139408D01*
X0108675Y0139310D02*
X0104309Y0139310D01*
X0104369Y0139211D02*
X0108584Y0139211D01*
X0108493Y0139113D02*
X0104429Y0139113D01*
X0104489Y0139014D02*
X0108402Y0139014D01*
X0108311Y0138916D02*
X0104549Y0138916D01*
X0104609Y0138817D02*
X0108221Y0138817D01*
X0108130Y0138719D02*
X0104669Y0138719D01*
X0104729Y0138620D02*
X0108039Y0138620D01*
X0107948Y0138522D02*
X0104789Y0138522D01*
X0104849Y0138423D02*
X0107857Y0138423D01*
X0107766Y0138325D02*
X0104909Y0138325D01*
X0104969Y0138226D02*
X0107675Y0138226D01*
X0107584Y0138128D02*
X0105029Y0138128D01*
X0105089Y0138029D02*
X0107493Y0138029D01*
X0107402Y0137931D02*
X0105149Y0137931D01*
X0105209Y0137832D02*
X0107312Y0137832D01*
X0107221Y0137734D02*
X0105269Y0137734D01*
X0105329Y0137635D02*
X0107130Y0137635D01*
X0107039Y0137537D02*
X0105389Y0137537D01*
X0105449Y0137438D02*
X0106948Y0137438D01*
X0106857Y0137340D02*
X0105509Y0137340D01*
X0105569Y0137241D02*
X0106766Y0137241D01*
X0106675Y0137143D02*
X0105630Y0137143D01*
X0105690Y0137044D02*
X0106584Y0137044D01*
X0106494Y0136946D02*
X0105750Y0136946D01*
X0105810Y0136847D02*
X0106403Y0136847D01*
X0106312Y0136749D02*
X0105870Y0136749D01*
X0105930Y0136650D02*
X0106221Y0136650D01*
X0106130Y0136552D02*
X0105990Y0136552D01*
X0109542Y0132316D02*
X0116445Y0132316D01*
X0116445Y0132414D02*
X0109598Y0132414D01*
X0109654Y0132513D02*
X0116445Y0132513D01*
X0116445Y0132611D02*
X0109710Y0132611D01*
X0109766Y0132710D02*
X0119190Y0132710D01*
X0119148Y0132692D02*
X0116445Y0132692D01*
X0116445Y0130505D01*
X0119148Y0130505D01*
X0119748Y0130256D01*
X0119998Y0129655D01*
X0119748Y0129054D01*
X0119148Y0128805D01*
X0116445Y0128805D01*
X0116445Y0125224D01*
X0116123Y0123639D01*
X0115247Y0122341D01*
X0113948Y0121464D01*
X0112365Y0121142D01*
X0108784Y0121142D01*
X0108784Y0118343D01*
X0108534Y0117742D01*
X0107934Y0117493D01*
X0107333Y0117742D01*
X0107084Y0118343D01*
X0107084Y0121142D01*
X0104897Y0121142D01*
X0104897Y0118343D01*
X0104648Y0117742D01*
X0104047Y0117493D01*
X0103445Y0117742D01*
X0103197Y0118343D01*
X0103197Y0121142D01*
X0101009Y0121142D01*
X0101009Y0118343D01*
X0100760Y0117742D01*
X0100159Y0117493D01*
X0099559Y0117742D01*
X0099309Y0118343D01*
X0099309Y0121142D01*
X0095728Y0121142D01*
X0094830Y0121245D01*
X0094001Y0121534D01*
X0102387Y0130623D01*
X0105594Y0125362D01*
X0116002Y0143694D01*
X0116330Y0142817D01*
X0116445Y0141860D01*
X0116445Y0138279D01*
X0119148Y0138279D01*
X0119748Y0138030D01*
X0119998Y0137429D01*
X0119748Y0136828D01*
X0119148Y0136579D01*
X0116445Y0136579D01*
X0116445Y0134392D01*
X0119148Y0134392D01*
X0119748Y0134143D01*
X0119998Y0133542D01*
X0119748Y0132941D01*
X0119148Y0132692D01*
X0119428Y0132808D02*
X0109821Y0132808D01*
X0109877Y0132907D02*
X0119666Y0132907D01*
X0119775Y0133005D02*
X0109933Y0133005D01*
X0109989Y0133104D02*
X0119816Y0133104D01*
X0119857Y0133202D02*
X0110045Y0133202D01*
X0110101Y0133301D02*
X0119898Y0133301D01*
X0119938Y0133399D02*
X0110157Y0133399D01*
X0110213Y0133498D02*
X0119979Y0133498D01*
X0119975Y0133596D02*
X0110269Y0133596D01*
X0110325Y0133695D02*
X0119934Y0133695D01*
X0119893Y0133793D02*
X0110381Y0133793D01*
X0110437Y0133892D02*
X0119853Y0133892D01*
X0119812Y0133990D02*
X0110493Y0133990D01*
X0110549Y0134089D02*
X0119771Y0134089D01*
X0119642Y0134187D02*
X0110605Y0134187D01*
X0110660Y0134286D02*
X0119404Y0134286D01*
X0119166Y0134384D02*
X0110716Y0134384D01*
X0110772Y0134483D02*
X0116445Y0134483D01*
X0116445Y0134581D02*
X0110828Y0134581D01*
X0110884Y0134680D02*
X0116445Y0134680D01*
X0116445Y0134778D02*
X0110940Y0134778D01*
X0110996Y0134877D02*
X0116445Y0134877D01*
X0116445Y0134975D02*
X0111052Y0134975D01*
X0111108Y0135074D02*
X0116445Y0135074D01*
X0116445Y0135172D02*
X0111164Y0135172D01*
X0111220Y0135271D02*
X0116445Y0135271D01*
X0116445Y0135369D02*
X0111276Y0135369D01*
X0111332Y0135468D02*
X0116445Y0135468D01*
X0116445Y0135566D02*
X0111388Y0135566D01*
X0111444Y0135665D02*
X0116445Y0135665D01*
X0116445Y0135763D02*
X0111500Y0135763D01*
X0111555Y0135862D02*
X0116445Y0135862D01*
X0116445Y0135961D02*
X0111611Y0135961D01*
X0111667Y0136059D02*
X0116445Y0136059D01*
X0116445Y0136158D02*
X0111723Y0136158D01*
X0111779Y0136256D02*
X0116445Y0136256D01*
X0116445Y0136355D02*
X0111835Y0136355D01*
X0111891Y0136453D02*
X0116445Y0136453D01*
X0116445Y0136552D02*
X0111947Y0136552D01*
X0112003Y0136650D02*
X0119319Y0136650D01*
X0119557Y0136749D02*
X0112059Y0136749D01*
X0112115Y0136847D02*
X0119756Y0136847D01*
X0119797Y0136946D02*
X0112171Y0136946D01*
X0112227Y0137044D02*
X0119838Y0137044D01*
X0119879Y0137143D02*
X0112283Y0137143D01*
X0112339Y0137241D02*
X0119920Y0137241D01*
X0119960Y0137340D02*
X0112394Y0137340D01*
X0112450Y0137438D02*
X0119994Y0137438D01*
X0119953Y0137537D02*
X0112506Y0137537D01*
X0112562Y0137635D02*
X0119912Y0137635D01*
X0119871Y0137734D02*
X0112618Y0137734D01*
X0112674Y0137832D02*
X0119830Y0137832D01*
X0119790Y0137931D02*
X0112730Y0137931D01*
X0112786Y0138029D02*
X0119749Y0138029D01*
X0119513Y0138128D02*
X0112842Y0138128D01*
X0112898Y0138226D02*
X0119275Y0138226D01*
X0116445Y0138325D02*
X0112954Y0138325D01*
X0113010Y0138423D02*
X0116445Y0138423D01*
X0116445Y0138522D02*
X0113066Y0138522D01*
X0113122Y0138620D02*
X0116445Y0138620D01*
X0116445Y0138719D02*
X0113178Y0138719D01*
X0113234Y0138817D02*
X0116445Y0138817D01*
X0116445Y0138916D02*
X0113289Y0138916D01*
X0113345Y0139014D02*
X0116445Y0139014D01*
X0116445Y0139113D02*
X0113401Y0139113D01*
X0113457Y0139211D02*
X0116445Y0139211D01*
X0116445Y0139310D02*
X0113513Y0139310D01*
X0113569Y0139408D02*
X0116445Y0139408D01*
X0116445Y0139507D02*
X0113625Y0139507D01*
X0113681Y0139605D02*
X0116445Y0139605D01*
X0116445Y0139704D02*
X0113737Y0139704D01*
X0113793Y0139802D02*
X0116445Y0139802D01*
X0116445Y0139901D02*
X0113849Y0139901D01*
X0113905Y0139999D02*
X0116445Y0139999D01*
X0116445Y0140098D02*
X0113961Y0140098D01*
X0114017Y0140196D02*
X0116445Y0140196D01*
X0116445Y0140295D02*
X0114073Y0140295D01*
X0114128Y0140394D02*
X0116445Y0140394D01*
X0116445Y0140492D02*
X0114184Y0140492D01*
X0114240Y0140591D02*
X0116445Y0140591D01*
X0116445Y0140689D02*
X0114296Y0140689D01*
X0114352Y0140788D02*
X0116445Y0140788D01*
X0116445Y0140886D02*
X0114408Y0140886D01*
X0114464Y0140985D02*
X0116445Y0140985D01*
X0116445Y0141083D02*
X0114520Y0141083D01*
X0114576Y0141182D02*
X0116445Y0141182D01*
X0116445Y0141280D02*
X0114632Y0141280D01*
X0114688Y0141379D02*
X0116445Y0141379D01*
X0116445Y0141477D02*
X0114744Y0141477D01*
X0114800Y0141576D02*
X0116445Y0141576D01*
X0116445Y0141674D02*
X0114856Y0141674D01*
X0114912Y0141773D02*
X0116445Y0141773D01*
X0116444Y0141871D02*
X0114967Y0141871D01*
X0115023Y0141970D02*
X0116432Y0141970D01*
X0116420Y0142068D02*
X0115079Y0142068D01*
X0115135Y0142167D02*
X0116408Y0142167D01*
X0116396Y0142265D02*
X0115191Y0142265D01*
X0115247Y0142364D02*
X0116384Y0142364D01*
X0116372Y0142462D02*
X0115303Y0142462D01*
X0115359Y0142561D02*
X0116361Y0142561D01*
X0116349Y0142659D02*
X0115415Y0142659D01*
X0115471Y0142758D02*
X0116337Y0142758D01*
X0116315Y0142856D02*
X0115527Y0142856D01*
X0115583Y0142955D02*
X0116278Y0142955D01*
X0116241Y0143053D02*
X0115639Y0143053D01*
X0115695Y0143152D02*
X0116205Y0143152D01*
X0116168Y0143250D02*
X0115751Y0143250D01*
X0115807Y0143349D02*
X0116131Y0143349D01*
X0116094Y0143447D02*
X0115862Y0143447D01*
X0115918Y0143546D02*
X0116058Y0143546D01*
X0116021Y0143644D02*
X0115974Y0143644D01*
X0116445Y0132217D02*
X0109486Y0132217D01*
X0109430Y0132119D02*
X0116445Y0132119D01*
X0116445Y0132020D02*
X0109374Y0132020D01*
X0109318Y0131922D02*
X0116445Y0131922D01*
X0116445Y0131823D02*
X0109262Y0131823D01*
X0109206Y0131725D02*
X0116445Y0131725D01*
X0116445Y0131626D02*
X0109150Y0131626D01*
X0109094Y0131527D02*
X0116445Y0131527D01*
X0116445Y0131429D02*
X0109038Y0131429D01*
X0108982Y0131330D02*
X0116445Y0131330D01*
X0116445Y0131232D02*
X0108926Y0131232D01*
X0108871Y0131133D02*
X0116445Y0131133D01*
X0116445Y0131035D02*
X0108815Y0131035D01*
X0108759Y0130936D02*
X0116445Y0130936D01*
X0116445Y0130838D02*
X0108703Y0130838D01*
X0108647Y0130739D02*
X0116445Y0130739D01*
X0116445Y0130641D02*
X0108591Y0130641D01*
X0108535Y0130542D02*
X0116445Y0130542D01*
X0116445Y0128769D02*
X0107528Y0128769D01*
X0107472Y0128671D02*
X0116445Y0128671D01*
X0116445Y0128572D02*
X0107416Y0128572D01*
X0107360Y0128474D02*
X0116445Y0128474D01*
X0116445Y0128375D02*
X0107304Y0128375D01*
X0107248Y0128277D02*
X0116445Y0128277D01*
X0116445Y0128178D02*
X0107193Y0128178D01*
X0107137Y0128080D02*
X0116445Y0128080D01*
X0116445Y0127981D02*
X0107081Y0127981D01*
X0107025Y0127883D02*
X0116445Y0127883D01*
X0116445Y0127784D02*
X0106969Y0127784D01*
X0106913Y0127686D02*
X0116445Y0127686D01*
X0116445Y0127587D02*
X0106857Y0127587D01*
X0106801Y0127489D02*
X0116445Y0127489D01*
X0116445Y0127390D02*
X0106745Y0127390D01*
X0106689Y0127292D02*
X0116445Y0127292D01*
X0116445Y0127193D02*
X0106633Y0127193D01*
X0106577Y0127094D02*
X0116445Y0127094D01*
X0116445Y0126996D02*
X0106521Y0126996D01*
X0106465Y0126897D02*
X0116445Y0126897D01*
X0116445Y0126799D02*
X0106409Y0126799D01*
X0106353Y0126700D02*
X0116445Y0126700D01*
X0116445Y0126602D02*
X0106298Y0126602D01*
X0106242Y0126503D02*
X0116445Y0126503D01*
X0116445Y0126405D02*
X0106186Y0126405D01*
X0106130Y0126306D02*
X0116445Y0126306D01*
X0116445Y0126208D02*
X0106074Y0126208D01*
X0106018Y0126109D02*
X0116445Y0126109D01*
X0116445Y0126011D02*
X0105962Y0126011D01*
X0105906Y0125912D02*
X0116445Y0125912D01*
X0116445Y0125814D02*
X0105850Y0125814D01*
X0105794Y0125715D02*
X0116445Y0125715D01*
X0116445Y0125617D02*
X0105738Y0125617D01*
X0105682Y0125518D02*
X0116445Y0125518D01*
X0116445Y0125420D02*
X0105626Y0125420D01*
X0105558Y0125420D02*
X0097586Y0125420D01*
X0097677Y0125518D02*
X0105498Y0125518D01*
X0105438Y0125617D02*
X0097768Y0125617D01*
X0097859Y0125715D02*
X0105378Y0125715D01*
X0105318Y0125814D02*
X0097950Y0125814D01*
X0098041Y0125912D02*
X0105258Y0125912D01*
X0105198Y0126011D02*
X0098132Y0126011D01*
X0098222Y0126109D02*
X0105138Y0126109D01*
X0105078Y0126208D02*
X0098313Y0126208D01*
X0098404Y0126306D02*
X0105018Y0126306D01*
X0104958Y0126405D02*
X0098495Y0126405D01*
X0098586Y0126503D02*
X0104898Y0126503D01*
X0104838Y0126602D02*
X0098677Y0126602D01*
X0098768Y0126700D02*
X0104778Y0126700D01*
X0104718Y0126799D02*
X0098859Y0126799D01*
X0098950Y0126897D02*
X0104658Y0126897D01*
X0104598Y0126996D02*
X0099041Y0126996D01*
X0099132Y0127094D02*
X0104538Y0127094D01*
X0104478Y0127193D02*
X0099222Y0127193D01*
X0099313Y0127292D02*
X0104418Y0127292D01*
X0104358Y0127390D02*
X0099404Y0127390D01*
X0099495Y0127489D02*
X0104298Y0127489D01*
X0104238Y0127587D02*
X0099586Y0127587D01*
X0099677Y0127686D02*
X0104178Y0127686D01*
X0104118Y0127784D02*
X0099768Y0127784D01*
X0099859Y0127883D02*
X0104057Y0127883D01*
X0103997Y0127981D02*
X0099950Y0127981D01*
X0100041Y0128080D02*
X0103937Y0128080D01*
X0103877Y0128178D02*
X0100131Y0128178D01*
X0100222Y0128277D02*
X0103817Y0128277D01*
X0103757Y0128375D02*
X0100313Y0128375D01*
X0100404Y0128474D02*
X0103697Y0128474D01*
X0103637Y0128572D02*
X0100495Y0128572D01*
X0100586Y0128671D02*
X0103577Y0128671D01*
X0103517Y0128769D02*
X0100677Y0128769D01*
X0100768Y0128868D02*
X0103457Y0128868D01*
X0103397Y0128966D02*
X0100859Y0128966D01*
X0100950Y0129065D02*
X0103337Y0129065D01*
X0103277Y0129163D02*
X0101040Y0129163D01*
X0101131Y0129262D02*
X0103217Y0129262D01*
X0103157Y0129360D02*
X0101222Y0129360D01*
X0101313Y0129459D02*
X0103097Y0129459D01*
X0103037Y0129557D02*
X0101404Y0129557D01*
X0101495Y0129656D02*
X0102977Y0129656D01*
X0102917Y0129754D02*
X0101586Y0129754D01*
X0101677Y0129853D02*
X0102857Y0129853D01*
X0102797Y0129951D02*
X0101768Y0129951D01*
X0101859Y0130050D02*
X0102737Y0130050D01*
X0102677Y0130148D02*
X0101949Y0130148D01*
X0102040Y0130247D02*
X0102617Y0130247D01*
X0102557Y0130345D02*
X0102131Y0130345D01*
X0102222Y0130444D02*
X0102497Y0130444D01*
X0102437Y0130542D02*
X0102313Y0130542D01*
X0098394Y0133892D02*
X0088239Y0133892D01*
X0088280Y0133990D02*
X0098450Y0133990D01*
X0098506Y0134089D02*
X0088320Y0134089D01*
X0088452Y0134187D02*
X0098562Y0134187D01*
X0098618Y0134286D02*
X0088690Y0134286D01*
X0088927Y0134384D02*
X0098673Y0134384D01*
X0098729Y0134483D02*
X0091647Y0134483D01*
X0091647Y0134581D02*
X0098785Y0134581D01*
X0098841Y0134680D02*
X0091647Y0134680D01*
X0091647Y0134778D02*
X0098897Y0134778D01*
X0098953Y0134877D02*
X0091647Y0134877D01*
X0091647Y0134975D02*
X0099009Y0134975D01*
X0099065Y0135074D02*
X0091647Y0135074D01*
X0091647Y0135172D02*
X0099121Y0135172D01*
X0099177Y0135271D02*
X0091647Y0135271D01*
X0091647Y0135369D02*
X0099233Y0135369D01*
X0099289Y0135468D02*
X0091647Y0135468D01*
X0091647Y0135566D02*
X0099345Y0135566D01*
X0099401Y0135665D02*
X0091647Y0135665D01*
X0091647Y0135763D02*
X0099457Y0135763D01*
X0099513Y0135862D02*
X0091647Y0135862D01*
X0091647Y0135961D02*
X0099568Y0135961D01*
X0099624Y0136059D02*
X0091647Y0136059D01*
X0091647Y0136158D02*
X0099680Y0136158D01*
X0099736Y0136256D02*
X0091647Y0136256D01*
X0091647Y0136355D02*
X0099792Y0136355D01*
X0099848Y0136453D02*
X0091647Y0136453D01*
X0091647Y0136552D02*
X0099904Y0136552D01*
X0099960Y0136650D02*
X0088770Y0136650D01*
X0088532Y0136749D02*
X0100016Y0136749D01*
X0100072Y0136847D02*
X0088334Y0136847D01*
X0088293Y0136946D02*
X0100128Y0136946D01*
X0100184Y0137044D02*
X0088253Y0137044D01*
X0088212Y0137143D02*
X0100240Y0137143D01*
X0100296Y0137241D02*
X0088171Y0137241D01*
X0088130Y0137340D02*
X0100352Y0137340D01*
X0098338Y0133793D02*
X0088198Y0133793D01*
X0088157Y0133695D02*
X0098282Y0133695D01*
X0098226Y0133596D02*
X0088116Y0133596D01*
X0088111Y0133498D02*
X0098170Y0133498D01*
X0098114Y0133399D02*
X0088152Y0133399D01*
X0088193Y0133301D02*
X0098058Y0133301D01*
X0098002Y0133202D02*
X0088234Y0133202D01*
X0088275Y0133104D02*
X0097946Y0133104D01*
X0097890Y0133005D02*
X0088316Y0133005D01*
X0088423Y0132907D02*
X0097834Y0132907D01*
X0097778Y0132808D02*
X0088661Y0132808D01*
X0088899Y0132710D02*
X0097722Y0132710D01*
X0097667Y0132611D02*
X0091647Y0132611D01*
X0091647Y0132513D02*
X0097611Y0132513D01*
X0097555Y0132414D02*
X0091647Y0132414D01*
X0091647Y0132316D02*
X0097499Y0132316D01*
X0097443Y0132217D02*
X0091647Y0132217D01*
X0091647Y0132119D02*
X0097387Y0132119D01*
X0097331Y0132020D02*
X0091647Y0132020D01*
X0091647Y0131922D02*
X0097275Y0131922D01*
X0097219Y0131823D02*
X0091647Y0131823D01*
X0091647Y0131725D02*
X0097163Y0131725D01*
X0097107Y0131626D02*
X0091647Y0131626D01*
X0091647Y0131527D02*
X0097051Y0131527D01*
X0096995Y0131429D02*
X0091647Y0131429D01*
X0091647Y0131330D02*
X0096939Y0131330D01*
X0096883Y0131232D02*
X0091647Y0131232D01*
X0091647Y0131133D02*
X0096827Y0131133D01*
X0096772Y0131035D02*
X0091647Y0131035D01*
X0091647Y0130936D02*
X0096716Y0130936D01*
X0096660Y0130838D02*
X0091647Y0130838D01*
X0091647Y0130739D02*
X0096604Y0130739D01*
X0096548Y0130641D02*
X0091647Y0130641D01*
X0091647Y0130542D02*
X0096492Y0130542D01*
X0096436Y0130444D02*
X0088798Y0130444D01*
X0088561Y0130345D02*
X0096380Y0130345D01*
X0096324Y0130247D02*
X0088339Y0130247D01*
X0088298Y0130148D02*
X0096268Y0130148D01*
X0096212Y0130050D02*
X0088257Y0130050D01*
X0088217Y0129951D02*
X0096156Y0129951D01*
X0096100Y0129853D02*
X0088176Y0129853D01*
X0088135Y0129754D02*
X0096044Y0129754D01*
X0095988Y0129656D02*
X0088094Y0129656D01*
X0088134Y0129557D02*
X0095932Y0129557D01*
X0095877Y0129459D02*
X0088174Y0129459D01*
X0088215Y0129360D02*
X0095821Y0129360D01*
X0095765Y0129262D02*
X0088256Y0129262D01*
X0088297Y0129163D02*
X0095709Y0129163D01*
X0095653Y0129065D02*
X0088338Y0129065D01*
X0088552Y0128966D02*
X0095597Y0128966D01*
X0095541Y0128868D02*
X0088790Y0128868D01*
X0091647Y0128769D02*
X0095485Y0128769D01*
X0095429Y0128671D02*
X0091647Y0128671D01*
X0091647Y0128572D02*
X0095373Y0128572D01*
X0095317Y0128474D02*
X0091647Y0128474D01*
X0091647Y0128375D02*
X0095261Y0128375D01*
X0095205Y0128277D02*
X0091647Y0128277D01*
X0091647Y0128178D02*
X0095149Y0128178D01*
X0095093Y0128080D02*
X0091647Y0128080D01*
X0091647Y0127981D02*
X0095037Y0127981D01*
X0094981Y0127883D02*
X0091647Y0127883D01*
X0091647Y0127784D02*
X0094926Y0127784D01*
X0094870Y0127686D02*
X0091647Y0127686D01*
X0091647Y0127587D02*
X0094814Y0127587D01*
X0094758Y0127489D02*
X0091647Y0127489D01*
X0091647Y0127390D02*
X0094702Y0127390D01*
X0094646Y0127292D02*
X0091647Y0127292D01*
X0091647Y0127193D02*
X0094590Y0127193D01*
X0094534Y0127094D02*
X0091647Y0127094D01*
X0091647Y0126996D02*
X0094478Y0126996D01*
X0094422Y0126897D02*
X0091647Y0126897D01*
X0091647Y0126799D02*
X0094366Y0126799D01*
X0094310Y0126700D02*
X0091647Y0126700D01*
X0091647Y0126602D02*
X0094254Y0126602D01*
X0094198Y0126503D02*
X0091647Y0126503D01*
X0091647Y0126405D02*
X0094142Y0126405D01*
X0094086Y0126306D02*
X0091647Y0126306D01*
X0091647Y0126208D02*
X0094031Y0126208D01*
X0093975Y0126109D02*
X0091647Y0126109D01*
X0091647Y0126011D02*
X0093919Y0126011D01*
X0093863Y0125912D02*
X0091647Y0125912D01*
X0091647Y0125814D02*
X0093807Y0125814D01*
X0093751Y0125715D02*
X0091647Y0125715D01*
X0091647Y0125617D02*
X0093695Y0125617D01*
X0093639Y0125518D02*
X0091647Y0125518D01*
X0091647Y0125420D02*
X0093583Y0125420D01*
X0093527Y0125321D02*
X0091647Y0125321D01*
X0091647Y0125223D02*
X0093471Y0125223D01*
X0093415Y0125124D02*
X0091661Y0125124D01*
X0091675Y0125026D02*
X0093359Y0125026D01*
X0093303Y0124927D02*
X0091689Y0124927D01*
X0091703Y0124829D02*
X0093247Y0124829D01*
X0093191Y0124730D02*
X0091717Y0124730D01*
X0091732Y0124632D02*
X0093136Y0124632D01*
X0093080Y0124533D02*
X0091746Y0124533D01*
X0091760Y0124435D02*
X0093024Y0124435D01*
X0092968Y0124336D02*
X0091774Y0124336D01*
X0091788Y0124238D02*
X0092912Y0124238D01*
X0092856Y0124139D02*
X0091802Y0124139D01*
X0091833Y0124041D02*
X0092800Y0124041D01*
X0092744Y0123942D02*
X0091877Y0123942D01*
X0091922Y0123844D02*
X0092688Y0123844D01*
X0092632Y0123745D02*
X0091966Y0123745D01*
X0092010Y0123647D02*
X0092576Y0123647D01*
X0092520Y0123548D02*
X0092054Y0123548D01*
X0092098Y0123450D02*
X0092464Y0123450D01*
X0092408Y0123351D02*
X0092142Y0123351D01*
X0092186Y0123253D02*
X0092352Y0123253D01*
X0092296Y0123154D02*
X0092230Y0123154D01*
X0094041Y0121578D02*
X0114117Y0121578D01*
X0114263Y0121676D02*
X0094132Y0121676D01*
X0094223Y0121775D02*
X0114409Y0121775D01*
X0114554Y0121873D02*
X0094314Y0121873D01*
X0094405Y0121972D02*
X0114700Y0121972D01*
X0114846Y0122070D02*
X0094495Y0122070D01*
X0094586Y0122169D02*
X0114992Y0122169D01*
X0115138Y0122267D02*
X0094677Y0122267D01*
X0094768Y0122366D02*
X0115263Y0122366D01*
X0115330Y0122464D02*
X0094859Y0122464D01*
X0094950Y0122563D02*
X0115396Y0122563D01*
X0115463Y0122661D02*
X0095041Y0122661D01*
X0095132Y0122760D02*
X0115530Y0122760D01*
X0115596Y0122859D02*
X0095223Y0122859D01*
X0095314Y0122957D02*
X0115663Y0122957D01*
X0115729Y0123056D02*
X0095405Y0123056D01*
X0095495Y0123154D02*
X0115796Y0123154D01*
X0115862Y0123253D02*
X0095586Y0123253D01*
X0095677Y0123351D02*
X0115929Y0123351D01*
X0115996Y0123450D02*
X0095768Y0123450D01*
X0095859Y0123548D02*
X0116062Y0123548D01*
X0116125Y0123647D02*
X0095950Y0123647D01*
X0096041Y0123745D02*
X0116145Y0123745D01*
X0116165Y0123844D02*
X0096132Y0123844D01*
X0096223Y0123942D02*
X0116185Y0123942D01*
X0116205Y0124041D02*
X0096314Y0124041D01*
X0096404Y0124139D02*
X0116225Y0124139D01*
X0116245Y0124238D02*
X0096495Y0124238D01*
X0096586Y0124336D02*
X0116265Y0124336D01*
X0116285Y0124435D02*
X0096677Y0124435D01*
X0096768Y0124533D02*
X0116305Y0124533D01*
X0116325Y0124632D02*
X0096859Y0124632D01*
X0096950Y0124730D02*
X0116345Y0124730D01*
X0116365Y0124829D02*
X0097041Y0124829D01*
X0097132Y0124927D02*
X0116385Y0124927D01*
X0116405Y0125026D02*
X0097223Y0125026D01*
X0097313Y0125124D02*
X0116425Y0125124D01*
X0116445Y0125223D02*
X0097404Y0125223D01*
X0097495Y0125321D02*
X0116445Y0125321D01*
X0119299Y0128868D02*
X0107584Y0128868D01*
X0107640Y0128966D02*
X0119537Y0128966D01*
X0119753Y0129065D02*
X0107696Y0129065D01*
X0107752Y0129163D02*
X0119794Y0129163D01*
X0119835Y0129262D02*
X0107808Y0129262D01*
X0107864Y0129360D02*
X0119875Y0129360D01*
X0119916Y0129459D02*
X0107920Y0129459D01*
X0107976Y0129557D02*
X0119957Y0129557D01*
X0119997Y0129656D02*
X0108032Y0129656D01*
X0108087Y0129754D02*
X0119956Y0129754D01*
X0119916Y0129853D02*
X0108143Y0129853D01*
X0108199Y0129951D02*
X0119875Y0129951D01*
X0119834Y0130050D02*
X0108255Y0130050D01*
X0108311Y0130148D02*
X0119793Y0130148D01*
X0119752Y0130247D02*
X0108367Y0130247D01*
X0108423Y0130345D02*
X0119533Y0130345D01*
X0119295Y0130444D02*
X0108479Y0130444D01*
X0108784Y0121085D02*
X0107084Y0121085D01*
X0107084Y0120987D02*
X0108784Y0120987D01*
X0108784Y0120888D02*
X0107084Y0120888D01*
X0107084Y0120790D02*
X0108784Y0120790D01*
X0108784Y0120691D02*
X0107084Y0120691D01*
X0107084Y0120593D02*
X0108784Y0120593D01*
X0108784Y0120494D02*
X0107084Y0120494D01*
X0107084Y0120396D02*
X0108784Y0120396D01*
X0108784Y0120297D02*
X0107084Y0120297D01*
X0107084Y0120199D02*
X0108784Y0120199D01*
X0108784Y0120100D02*
X0107084Y0120100D01*
X0107084Y0120002D02*
X0108784Y0120002D01*
X0108784Y0119903D02*
X0107084Y0119903D01*
X0107084Y0119805D02*
X0108784Y0119805D01*
X0108784Y0119706D02*
X0107084Y0119706D01*
X0107084Y0119608D02*
X0108784Y0119608D01*
X0108784Y0119509D02*
X0107084Y0119509D01*
X0107084Y0119411D02*
X0108784Y0119411D01*
X0108784Y0119312D02*
X0107084Y0119312D01*
X0107084Y0119214D02*
X0108784Y0119214D01*
X0108784Y0119115D02*
X0107084Y0119115D01*
X0107084Y0119017D02*
X0108784Y0119017D01*
X0108784Y0118918D02*
X0107084Y0118918D01*
X0107084Y0118820D02*
X0108784Y0118820D01*
X0108784Y0118721D02*
X0107084Y0118721D01*
X0107084Y0118623D02*
X0108784Y0118623D01*
X0108784Y0118524D02*
X0107084Y0118524D01*
X0107084Y0118425D02*
X0108784Y0118425D01*
X0108777Y0118327D02*
X0107090Y0118327D01*
X0107131Y0118228D02*
X0108736Y0118228D01*
X0108695Y0118130D02*
X0107172Y0118130D01*
X0107213Y0118031D02*
X0108654Y0118031D01*
X0108614Y0117933D02*
X0107253Y0117933D01*
X0107294Y0117834D02*
X0108573Y0117834D01*
X0108520Y0117736D02*
X0107347Y0117736D01*
X0107585Y0117637D02*
X0108282Y0117637D01*
X0108044Y0117539D02*
X0107823Y0117539D01*
X0104890Y0118327D02*
X0103203Y0118327D01*
X0103197Y0118425D02*
X0104897Y0118425D01*
X0104897Y0118524D02*
X0103197Y0118524D01*
X0103197Y0118623D02*
X0104897Y0118623D01*
X0104897Y0118721D02*
X0103197Y0118721D01*
X0103197Y0118820D02*
X0104897Y0118820D01*
X0104897Y0118918D02*
X0103197Y0118918D01*
X0103197Y0119017D02*
X0104897Y0119017D01*
X0104897Y0119115D02*
X0103197Y0119115D01*
X0103197Y0119214D02*
X0104897Y0119214D01*
X0104897Y0119312D02*
X0103197Y0119312D01*
X0103197Y0119411D02*
X0104897Y0119411D01*
X0104897Y0119509D02*
X0103197Y0119509D01*
X0103197Y0119608D02*
X0104897Y0119608D01*
X0104897Y0119706D02*
X0103197Y0119706D01*
X0103197Y0119805D02*
X0104897Y0119805D01*
X0104897Y0119903D02*
X0103197Y0119903D01*
X0103197Y0120002D02*
X0104897Y0120002D01*
X0104897Y0120100D02*
X0103197Y0120100D01*
X0103197Y0120199D02*
X0104897Y0120199D01*
X0104897Y0120297D02*
X0103197Y0120297D01*
X0103197Y0120396D02*
X0104897Y0120396D01*
X0104897Y0120494D02*
X0103197Y0120494D01*
X0103197Y0120593D02*
X0104897Y0120593D01*
X0104897Y0120691D02*
X0103197Y0120691D01*
X0103197Y0120790D02*
X0104897Y0120790D01*
X0104897Y0120888D02*
X0103197Y0120888D01*
X0103197Y0120987D02*
X0104897Y0120987D01*
X0104897Y0121085D02*
X0103197Y0121085D01*
X0101009Y0121085D02*
X0099309Y0121085D01*
X0099309Y0120987D02*
X0101009Y0120987D01*
X0101009Y0120888D02*
X0099309Y0120888D01*
X0099309Y0120790D02*
X0101009Y0120790D01*
X0101009Y0120691D02*
X0099309Y0120691D01*
X0099309Y0120593D02*
X0101009Y0120593D01*
X0101009Y0120494D02*
X0099309Y0120494D01*
X0099309Y0120396D02*
X0101009Y0120396D01*
X0101009Y0120297D02*
X0099309Y0120297D01*
X0099309Y0120199D02*
X0101009Y0120199D01*
X0101009Y0120100D02*
X0099309Y0120100D01*
X0099309Y0120002D02*
X0101009Y0120002D01*
X0101009Y0119903D02*
X0099309Y0119903D01*
X0099309Y0119805D02*
X0101009Y0119805D01*
X0101009Y0119706D02*
X0099309Y0119706D01*
X0099309Y0119608D02*
X0101009Y0119608D01*
X0101009Y0119509D02*
X0099309Y0119509D01*
X0099309Y0119411D02*
X0101009Y0119411D01*
X0101009Y0119312D02*
X0099309Y0119312D01*
X0099309Y0119214D02*
X0101009Y0119214D01*
X0101009Y0119115D02*
X0099309Y0119115D01*
X0099309Y0119017D02*
X0101009Y0119017D01*
X0101009Y0118918D02*
X0099309Y0118918D01*
X0099309Y0118820D02*
X0101009Y0118820D01*
X0101009Y0118721D02*
X0099309Y0118721D01*
X0099309Y0118623D02*
X0101009Y0118623D01*
X0101009Y0118524D02*
X0099309Y0118524D01*
X0099309Y0118425D02*
X0101009Y0118425D01*
X0101003Y0118327D02*
X0099316Y0118327D01*
X0099357Y0118228D02*
X0100962Y0118228D01*
X0100921Y0118130D02*
X0099398Y0118130D01*
X0099439Y0118031D02*
X0100880Y0118031D01*
X0100840Y0117933D02*
X0099479Y0117933D01*
X0099520Y0117834D02*
X0100799Y0117834D01*
X0100746Y0117736D02*
X0099573Y0117736D01*
X0099811Y0117637D02*
X0100508Y0117637D01*
X0100270Y0117539D02*
X0100049Y0117539D01*
X0103244Y0118228D02*
X0104849Y0118228D01*
X0104808Y0118130D02*
X0103285Y0118130D01*
X0103326Y0118031D02*
X0104767Y0118031D01*
X0104727Y0117933D02*
X0103366Y0117933D01*
X0103407Y0117834D02*
X0104686Y0117834D01*
X0104633Y0117736D02*
X0103460Y0117736D01*
X0103698Y0117637D02*
X0104395Y0117637D01*
X0104157Y0117539D02*
X0103936Y0117539D01*
X0095364Y0121184D02*
X0112570Y0121184D01*
X0113055Y0121282D02*
X0094723Y0121282D01*
X0094440Y0121381D02*
X0113539Y0121381D01*
X0113971Y0121479D02*
X0094158Y0121479D01*
X0099309Y0146009D02*
X0101009Y0146009D01*
X0101009Y0146107D02*
X0099309Y0146107D01*
X0099309Y0146206D02*
X0101009Y0146206D01*
X0101009Y0146304D02*
X0099309Y0146304D01*
X0099309Y0146403D02*
X0101009Y0146403D01*
X0101009Y0146501D02*
X0099309Y0146501D01*
X0099309Y0146600D02*
X0101009Y0146600D01*
X0101009Y0146698D02*
X0099309Y0146698D01*
X0099309Y0146797D02*
X0101009Y0146797D01*
X0101009Y0146895D02*
X0099309Y0146895D01*
X0099309Y0146994D02*
X0101009Y0146994D01*
X0101009Y0147092D02*
X0099309Y0147092D01*
X0099309Y0147191D02*
X0101009Y0147191D01*
X0101009Y0147289D02*
X0099309Y0147289D01*
X0099309Y0147388D02*
X0101009Y0147388D01*
X0101009Y0147486D02*
X0099309Y0147486D01*
X0099309Y0147585D02*
X0101009Y0147585D01*
X0101009Y0147683D02*
X0099309Y0147683D01*
X0099309Y0147782D02*
X0101009Y0147782D01*
X0101009Y0147880D02*
X0099309Y0147880D01*
X0099309Y0147979D02*
X0101009Y0147979D01*
X0101009Y0148077D02*
X0099309Y0148077D01*
X0099309Y0148176D02*
X0101009Y0148176D01*
X0101009Y0148274D02*
X0099309Y0148274D01*
X0099309Y0148373D02*
X0101009Y0148373D01*
X0101009Y0148471D02*
X0099309Y0148471D01*
X0099309Y0148570D02*
X0101009Y0148570D01*
X0100998Y0148668D02*
X0099319Y0148668D01*
X0099360Y0148767D02*
X0100957Y0148767D01*
X0100916Y0148865D02*
X0099401Y0148865D01*
X0099441Y0148964D02*
X0100876Y0148964D01*
X0100835Y0149063D02*
X0099482Y0149063D01*
X0099523Y0149161D02*
X0100794Y0149161D01*
X0100722Y0149260D02*
X0099595Y0149260D01*
X0099833Y0149358D02*
X0100484Y0149358D01*
X0100246Y0149457D02*
X0100071Y0149457D01*
X0103206Y0148668D02*
X0104885Y0148668D01*
X0104895Y0148570D02*
X0103195Y0148570D01*
X0103195Y0148471D02*
X0104895Y0148471D01*
X0104895Y0148373D02*
X0103195Y0148373D01*
X0103195Y0148274D02*
X0104895Y0148274D01*
X0104895Y0148176D02*
X0103195Y0148176D01*
X0103195Y0148077D02*
X0104895Y0148077D01*
X0104895Y0147979D02*
X0103195Y0147979D01*
X0103195Y0147880D02*
X0104895Y0147880D01*
X0104895Y0147782D02*
X0103195Y0147782D01*
X0103195Y0147683D02*
X0104895Y0147683D01*
X0104895Y0147585D02*
X0103195Y0147585D01*
X0103195Y0147486D02*
X0104895Y0147486D01*
X0104895Y0147388D02*
X0103195Y0147388D01*
X0103195Y0147289D02*
X0104895Y0147289D01*
X0104895Y0147191D02*
X0103195Y0147191D01*
X0103195Y0147092D02*
X0104895Y0147092D01*
X0104895Y0146994D02*
X0103195Y0146994D01*
X0103195Y0146895D02*
X0104895Y0146895D01*
X0104895Y0146797D02*
X0103195Y0146797D01*
X0103195Y0146698D02*
X0104895Y0146698D01*
X0104895Y0146600D02*
X0103195Y0146600D01*
X0103195Y0146501D02*
X0104895Y0146501D01*
X0104895Y0146403D02*
X0103195Y0146403D01*
X0103195Y0146304D02*
X0104895Y0146304D01*
X0104895Y0146206D02*
X0103195Y0146206D01*
X0103195Y0146107D02*
X0104895Y0146107D01*
X0104895Y0146009D02*
X0103195Y0146009D01*
X0103247Y0148767D02*
X0104844Y0148767D01*
X0104803Y0148865D02*
X0103288Y0148865D01*
X0103328Y0148964D02*
X0104762Y0148964D01*
X0104722Y0149063D02*
X0103369Y0149063D01*
X0103410Y0149161D02*
X0104681Y0149161D01*
X0104609Y0149260D02*
X0103482Y0149260D01*
X0103720Y0149358D02*
X0104371Y0149358D01*
X0104133Y0149457D02*
X0103958Y0149457D01*
X0107094Y0148668D02*
X0108773Y0148668D01*
X0108784Y0148570D02*
X0107083Y0148570D01*
X0107083Y0148471D02*
X0108784Y0148471D01*
X0108784Y0148373D02*
X0107083Y0148373D01*
X0107083Y0148274D02*
X0108784Y0148274D01*
X0108784Y0148176D02*
X0107083Y0148176D01*
X0107083Y0148077D02*
X0108784Y0148077D01*
X0108784Y0147979D02*
X0107083Y0147979D01*
X0107083Y0147880D02*
X0108784Y0147880D01*
X0108784Y0147782D02*
X0107083Y0147782D01*
X0107083Y0147683D02*
X0108784Y0147683D01*
X0108784Y0147585D02*
X0107083Y0147585D01*
X0107083Y0147486D02*
X0108784Y0147486D01*
X0108784Y0147388D02*
X0107083Y0147388D01*
X0107083Y0147289D02*
X0108784Y0147289D01*
X0108784Y0147191D02*
X0107083Y0147191D01*
X0107083Y0147092D02*
X0108784Y0147092D01*
X0108784Y0146994D02*
X0107083Y0146994D01*
X0107083Y0146895D02*
X0108784Y0146895D01*
X0108784Y0146797D02*
X0107083Y0146797D01*
X0107083Y0146698D02*
X0108784Y0146698D01*
X0108784Y0146600D02*
X0107083Y0146600D01*
X0107083Y0146501D02*
X0108784Y0146501D01*
X0108784Y0146403D02*
X0107083Y0146403D01*
X0107083Y0146304D02*
X0108784Y0146304D01*
X0108784Y0146206D02*
X0107083Y0146206D01*
X0107083Y0146107D02*
X0108784Y0146107D01*
X0108784Y0146009D02*
X0107083Y0146009D01*
X0107135Y0148767D02*
X0108732Y0148767D01*
X0108691Y0148865D02*
X0107176Y0148865D01*
X0107216Y0148964D02*
X0108651Y0148964D01*
X0108610Y0149063D02*
X0107257Y0149063D01*
X0107298Y0149161D02*
X0108569Y0149161D01*
X0108497Y0149260D02*
X0107370Y0149260D01*
X0107608Y0149358D02*
X0108259Y0149358D01*
X0108021Y0149457D02*
X0107846Y0149457D01*
M02*
